<svg width="20" height="19" viewBox="0 0 20 19" fill="none" xmlns="http://www.w3.org/2000/svg">
<path d="M8 8C10.21 8 12 6.21 12 4C12 1.79 10.21 0 8 0C5.79 0 4 1.79 4 4C4 6.21 5.79 8 8 8ZM8 2C8.53043 2 9.03914 2.21071 9.41421 2.58579C9.78929 2.96086 10 3.46957 10 4C10 4.53043 9.78929 5.03914 9.41421 5.41421C9.03914 5.78929 8.53043 6 8 6C6.89 6 6 5.11 6 4C6 2.89 6.9 2 8 2ZM10 16H0V13C0 10.33 5.33 9 8 9C8.91 9 10.13 9.16 11.35 9.47C11.26 9.8 11.2 10.15 11.2 10.5V11.39C10.22 11.1 9.1 10.9 8 10.9C5.03 10.9 1.9 12.36 1.9 13V14.1H10V16ZM18.8 13H14.5V10.5C14.5 9.7 15.2 9.2 16 9.2C16.8 9.2 17.5 9.7 17.5 10.5V11H18.8V10.5C18.8 9.1 17.4 8 16 8C14.6 8 13.2 9.1 13.2 10.5V13C12.6 13 12 13.6 12 14.2V17.7C12 18.4 12.6 19 13.2 19H18.7C19.4 19 20 18.4 20 17.8V14.3C20 13.6 19.4 13 18.8 13Z" fill="#3C4C5B"/>
</svg>
