<svg width="21" height="18" viewBox="0 0 21 18" fill="none" xmlns="http://www.w3.org/2000/svg">
<path d="M8 9C5.33 9 0 10.33 0 13V16H11.09C11.07 15.86 11.05 15.73 11.04 15.59C11 15.4 11 15.2 11 15C11 14.69 11.03 14.39 11.08 14.1C11.21 13.21 11.54 12.38 12 11.66C12.21 11.38 12.42 11.12 12.65 10.88L12.67 10.85C12.9 10.61 13.16 10.39 13.43 10.19C12.76 9.88 12 9.64 11.26 9.45C10.07 9.15 8.89 9 8 9ZM9.05 14.1H1.9V13C1.9 12.36 5.03 10.9 8 10.9C8.68 10.9 9.36 11 10 11.11C9.5 12 9.18 13 9.05 14.1ZM8 8C10.21 8 12 6.21 12 4C12 1.79 10.21 0 8 0C5.79 0 4 1.79 4 4C4 6.21 5.79 8 8 8ZM8 2C8.53043 2 9.03914 2.21071 9.41421 2.58579C9.78929 2.96086 10 3.46957 10 4C10 4.53043 9.78929 5.03914 9.41421 5.41421C9.03914 5.78929 8.53043 6 8 6C6.89 6 6 5.11 6 4C6 2.89 6.9 2 8 2ZM18 18V16H14V14H18V12L21 15L18 18Z" fill="#3C4C5B"/>
</svg>
