<svg width="24" height="24" viewBox="0 0 24 24" fill="none" xmlns="http://www.w3.org/2000/svg">
<g clip-path="url(#clip0_5958_331)">
<path d="M10 13C7.33 13 2 14.33 2 17V20H13.09C13.07 19.86 13.05 19.73 13.04 19.59C13 19.4 13 19.2 13 19C13 18.69 13.03 18.39 13.08 18.1C13.21 17.21 13.54 16.38 14 15.66C14.21 15.38 14.42 15.12 14.65 14.88L14.67 14.85C14.9 14.61 15.16 14.39 15.43 14.19C14.76 13.88 14 13.64 13.26 13.45C12.07 13.15 10.89 13 10 13ZM11.05 18.1H3.9V17C3.9 16.36 7.03 14.9 10 14.9C10.68 14.9 11.36 15 12 15.11C11.5 16 11.18 17 11.05 18.1ZM10 12C12.21 12 14 10.21 14 8C14 5.79 12.21 4 10 4C7.79 4 6 5.79 6 8C6 10.21 7.79 12 10 12ZM10 6C10.5304 6 11.0391 6.21071 11.4142 6.58579C11.7893 6.96086 12 7.46957 12 8C12 8.53043 11.7893 9.03914 11.4142 9.41421C11.0391 9.78929 10.5304 10 10 10C8.89 10 8 9.11 8 8C8 6.89 8.9 6 10 6Z" fill="#3C4C5B"/>
<path d="M19.6158 12.875L20.125 13.3842L15.2067 18.2917H14.7083V17.7933L19.6158 12.875ZM21.5658 9.625C21.4304 9.625 21.2896 9.67917 21.1867 9.78208L20.1954 10.7733L22.2267 12.8046L23.2179 11.8133C23.4292 11.6021 23.4292 11.25 23.2179 11.0496L21.9504 9.78208C21.8421 9.67375 21.7067 9.625 21.5658 9.625ZM19.6158 11.3529L13.625 17.3438V19.375H15.6562L21.6471 13.3842L19.6158 11.3529Z" fill="#3C4C5B"/>
</g>
<defs>
<clipPath id="clip0_5958_331">
<rect width="24" height="24" fill="white"/>
</clipPath>
</defs>
</svg>
