<svg width="249" height="205" viewBox="0 0 249 205" fill="none" xmlns="http://www.w3.org/2000/svg">
<path d="M194.756 120.537H45.4644C45.1125 120.537 44.7749 120.398 44.5261 120.149C44.2772 119.901 44.1373 119.564 44.1373 119.212V96.7574C44.1373 96.4059 44.2772 96.0688 44.5261 95.8202C44.7749 95.5716 45.1125 95.432 45.4644 95.432H194.756C195.108 95.4324 195.445 95.5722 195.694 95.8207C195.942 96.0691 196.082 96.406 196.083 96.7574V119.212C196.082 119.563 195.942 119.9 195.694 120.149C195.445 120.397 195.108 120.537 194.756 120.537ZM46.7916 117.887H193.429V98.0829H46.7916V117.887Z" fill="#6D757D"/>
<path d="M194.756 84.9454H45.4644C45.1125 84.9454 44.7749 84.8057 44.5261 84.5571C44.2772 84.3086 44.1373 83.9714 44.1373 83.6199V61.1653C44.1373 60.8138 44.2772 60.4767 44.5261 60.2281C44.7749 59.9795 45.1125 59.8399 45.4644 59.8399H194.756C195.108 59.8403 195.445 59.9801 195.694 60.2286C195.942 60.477 196.082 60.8139 196.083 61.1653V83.6199C196.082 83.9713 195.942 84.3082 195.694 84.5567C195.445 84.8052 195.108 84.9449 194.756 84.9454ZM46.7916 82.2945H193.429V62.4908H46.7916V82.2945Z" fill="#6D757D"/>
<path d="M59.2305 115.547C58.8787 115.547 58.5414 115.407 58.2926 115.159C58.0438 114.91 57.9038 114.573 57.9034 114.222V101.903C57.9034 101.552 58.0432 101.215 58.2921 100.966C58.541 100.717 58.8785 100.578 59.2305 100.578C59.5825 100.578 59.92 100.717 60.1689 100.966C60.4178 101.215 60.5576 101.552 60.5576 101.903V114.222C60.5576 114.574 60.4178 114.911 60.1689 115.159C59.92 115.408 59.5825 115.547 59.2305 115.547Z" fill="#6D757D"/>
<path d="M65.3978 109.544H53.0634C52.7114 109.544 52.3739 109.404 52.125 109.156C51.8761 108.907 51.7363 108.57 51.7363 108.219C51.7363 107.867 51.8761 107.53 52.125 107.281C52.3739 107.033 52.7114 106.893 53.0634 106.893H65.3978C65.7498 106.893 66.0873 107.033 66.3362 107.281C66.5851 107.53 66.7249 107.867 66.7249 108.219C66.7249 108.57 66.5851 108.907 66.3362 109.156C66.0873 109.404 65.7498 109.544 65.3978 109.544Z" fill="#6D757D"/>
<path d="M54.8292 113.736C54.5669 113.735 54.3105 113.657 54.0925 113.511C53.8746 113.366 53.7047 113.159 53.6045 112.917C53.5042 112.674 53.4781 112.408 53.5293 112.151C53.5806 111.894 53.7069 111.658 53.8924 111.473L62.5624 102.814C62.6825 102.679 62.829 102.57 62.9929 102.493C63.1567 102.417 63.3345 102.375 63.5153 102.37C63.6961 102.364 63.876 102.396 64.0441 102.462C64.2122 102.529 64.3649 102.629 64.4928 102.757C64.6207 102.885 64.7211 103.037 64.7878 103.205C64.8546 103.373 64.8862 103.553 64.8809 103.733C64.8756 103.914 64.8334 104.091 64.7569 104.255C64.6803 104.419 64.5711 104.565 64.4359 104.685L55.766 113.344C55.6434 113.468 55.4975 113.566 55.3368 113.633C55.176 113.701 55.0035 113.735 54.8292 113.736Z" fill="#6D757D"/>
<path d="M63.4992 113.736C63.3251 113.735 63.1528 113.701 62.9921 113.635C62.8313 113.568 62.6853 113.47 62.5624 113.347L53.8924 104.688C53.7572 104.568 53.648 104.422 53.5715 104.258C53.495 104.095 53.4528 103.917 53.4474 103.736C53.4421 103.556 53.4738 103.376 53.5406 103.208C53.6073 103.04 53.7077 102.888 53.8356 102.76C53.9634 102.633 54.1161 102.532 54.2842 102.466C54.4523 102.399 54.6323 102.367 54.8131 102.373C54.9938 102.378 55.1716 102.42 55.3355 102.497C55.4993 102.573 55.6458 102.682 55.766 102.817L64.436 111.476C64.6214 111.661 64.7478 111.897 64.799 112.154C64.8503 112.411 64.8241 112.678 64.7239 112.92C64.6237 113.162 64.4538 113.369 64.2358 113.515C64.0179 113.66 63.7615 113.738 63.4992 113.739V113.736Z" fill="#6D757D"/>
<path d="M77.8102 115.547C77.4583 115.547 77.121 115.407 76.8722 115.159C76.6234 114.91 76.4835 114.573 76.483 114.222V101.903C76.483 101.552 76.6229 101.215 76.8718 100.966C77.1207 100.717 77.4582 100.578 77.8102 100.578C78.1621 100.578 78.4997 100.717 78.7486 100.966C78.9975 101.215 79.1373 101.552 79.1373 101.903V114.222C79.1373 114.574 78.9975 114.911 78.7486 115.159C78.4997 115.408 78.1621 115.547 77.8102 115.547Z" fill="#6D757D"/>
<path d="M83.9775 109.544H71.6431C71.2911 109.544 70.9536 109.404 70.7047 109.156C70.4558 108.907 70.316 108.57 70.316 108.219C70.316 107.867 70.4558 107.53 70.7047 107.281C70.9536 107.033 71.2911 106.893 71.6431 106.893H83.9775C84.3294 106.893 84.667 107.033 84.9159 107.281C85.1648 107.53 85.3046 107.867 85.3046 108.219C85.3046 108.57 85.1648 108.907 84.9159 109.156C84.667 109.404 84.3294 109.544 83.9775 109.544Z" fill="#6D757D"/>
<path d="M73.4088 113.736C73.1465 113.735 72.8902 113.657 72.6722 113.511C72.4542 113.366 72.2844 113.159 72.1842 112.917C72.0839 112.674 72.0577 112.408 72.109 112.151C72.1602 111.894 72.2866 111.658 72.4721 111.473L81.142 102.814C81.2622 102.679 81.4087 102.57 81.5725 102.493C81.7364 102.417 81.9142 102.375 82.095 102.37C82.2758 102.364 82.4557 102.396 82.6238 102.462C82.7919 102.529 82.9446 102.629 83.0724 102.757C83.2003 102.885 83.3007 103.037 83.3675 103.205C83.4342 103.373 83.4659 103.553 83.4606 103.733C83.4552 103.914 83.413 104.091 83.3365 104.255C83.26 104.419 83.1508 104.565 83.0156 104.685L74.3456 113.344C74.2231 113.468 74.0772 113.566 73.9164 113.633C73.7556 113.701 73.5831 113.735 73.4088 113.736Z" fill="#6D757D"/>
<path d="M82.0788 113.736C81.9048 113.735 81.7325 113.701 81.5717 113.635C81.411 113.568 81.265 113.47 81.142 113.347L72.4721 104.688C72.3369 104.568 72.2277 104.422 72.1512 104.258C72.0747 104.095 72.0324 103.917 72.0271 103.736C72.0218 103.556 72.0535 103.376 72.1202 103.208C72.187 103.04 72.2873 102.888 72.4152 102.76C72.5431 102.633 72.6958 102.532 72.8639 102.466C73.032 102.399 73.2119 102.367 73.3927 102.373C73.5735 102.378 73.7513 102.42 73.9151 102.497C74.079 102.573 74.2255 102.682 74.3456 102.817L83.0156 111.476C83.2011 111.661 83.3274 111.897 83.3787 112.154C83.4299 112.411 83.4038 112.678 83.3036 112.92C83.2033 113.162 83.0335 113.369 82.8155 113.515C82.5975 113.66 82.3412 113.738 82.0788 113.739V113.736Z" fill="#6D757D"/>
<path d="M96.3898 115.547C96.038 115.547 95.7007 115.407 95.4519 115.159C95.2031 114.91 95.0631 114.573 95.0627 114.222V101.903C95.0627 101.552 95.2026 101.215 95.4514 100.966C95.7003 100.717 96.0379 100.578 96.3898 100.578C96.7418 100.578 97.0794 100.717 97.3283 100.966C97.5771 101.215 97.7169 101.552 97.7169 101.903V114.222C97.7169 114.574 97.5771 114.911 97.3283 115.159C97.0794 115.408 96.7418 115.547 96.3898 115.547Z" fill="#6D757D"/>
<path d="M102.557 109.544H90.2226C89.8706 109.544 89.5331 109.404 89.2842 109.156C89.0353 108.907 88.8955 108.57 88.8955 108.219C88.8955 107.867 89.0353 107.53 89.2842 107.281C89.5331 107.033 89.8706 106.893 90.2226 106.893H102.557C102.909 106.893 103.247 107.033 103.495 107.281C103.744 107.53 103.884 107.867 103.884 108.219C103.884 108.57 103.744 108.907 103.495 109.156C103.247 109.404 102.909 109.544 102.557 109.544Z" fill="#6D757D"/>
<path d="M91.9885 113.736C91.7262 113.735 91.4699 113.657 91.2519 113.511C91.0339 113.366 90.8641 113.159 90.7638 112.917C90.6636 112.674 90.6374 112.408 90.6887 112.151C90.7399 111.894 90.8662 111.658 91.0517 111.473L99.7217 102.814C99.8418 102.679 99.9883 102.57 100.152 102.493C100.316 102.417 100.494 102.375 100.675 102.37C100.855 102.364 101.035 102.396 101.203 102.462C101.372 102.529 101.524 102.629 101.652 102.757C101.78 102.885 101.88 103.037 101.947 103.205C102.014 103.373 102.046 103.553 102.04 103.733C102.035 103.914 101.993 104.091 101.916 104.255C101.84 104.419 101.73 104.565 101.595 104.685L92.9253 113.344C92.8027 113.468 92.6569 113.566 92.4961 113.633C92.3353 113.701 92.1628 113.735 91.9885 113.736Z" fill="#6D757D"/>
<path d="M100.658 113.736C100.484 113.735 100.312 113.701 100.151 113.635C99.9907 113.568 99.8446 113.47 99.7217 113.347L91.0517 104.688C90.9165 104.568 90.8074 104.422 90.7308 104.258C90.6543 104.095 90.6121 103.917 90.6068 103.736C90.6015 103.556 90.6332 103.376 90.6999 103.208C90.7666 103.04 90.867 102.888 90.9949 102.76C91.1228 102.633 91.2755 102.532 91.4435 102.466C91.6116 102.399 91.7916 102.367 91.9724 102.373C92.1532 102.378 92.3309 102.42 92.4948 102.497C92.6587 102.573 92.8052 102.682 92.9253 102.817L101.595 111.476C101.781 111.661 101.907 111.897 101.958 112.154C102.01 112.411 101.983 112.678 101.883 112.92C101.783 113.162 101.613 113.369 101.395 113.515C101.177 113.66 100.921 113.738 100.658 113.739V113.736Z" fill="#6D757D"/>
<path d="M114.97 115.547C114.618 115.547 114.28 115.407 114.032 115.159C113.783 114.91 113.643 114.573 113.642 114.222V101.903C113.642 101.552 113.782 101.215 114.031 100.966C114.28 100.717 114.618 100.578 114.97 100.578C115.321 100.578 115.659 100.717 115.908 100.966C116.157 101.215 116.297 101.552 116.297 101.903V114.222C116.297 114.574 116.157 114.911 115.908 115.159C115.659 115.408 115.321 115.547 114.97 115.547Z" fill="#6D757D"/>
<path d="M121.137 109.544H108.802C108.45 109.544 108.113 109.404 107.864 109.156C107.615 108.907 107.475 108.57 107.475 108.219C107.475 107.867 107.615 107.53 107.864 107.281C108.113 107.033 108.45 106.893 108.802 106.893H121.137C121.489 106.893 121.826 107.033 122.075 107.281C122.324 107.53 122.464 107.867 122.464 108.219C122.464 108.57 122.324 108.907 122.075 109.156C121.826 109.404 121.489 109.544 121.137 109.544Z" fill="#6D757D"/>
<path d="M110.568 113.736C110.306 113.735 110.05 113.657 109.832 113.511C109.614 113.366 109.444 113.159 109.344 112.917C109.243 112.674 109.217 112.408 109.268 112.151C109.32 111.894 109.446 111.658 109.631 111.473L118.301 102.814C118.422 102.679 118.568 102.57 118.732 102.493C118.896 102.417 119.074 102.375 119.254 102.37C119.435 102.364 119.615 102.396 119.783 102.462C119.951 102.529 120.104 102.629 120.232 102.757C120.36 102.885 120.46 103.037 120.527 103.205C120.594 103.373 120.625 103.553 120.62 103.733C120.615 103.914 120.572 104.091 120.496 104.255C120.419 104.419 120.31 104.565 120.175 104.685L111.505 113.344C111.382 113.468 111.237 113.566 111.076 113.633C110.915 113.701 110.742 113.735 110.568 113.736Z" fill="#6D757D"/>
<path d="M119.238 113.736C119.064 113.735 118.892 113.701 118.731 113.635C118.57 113.568 118.424 113.47 118.301 113.347L109.631 104.688C109.496 104.568 109.387 104.422 109.311 104.258C109.234 104.095 109.192 103.917 109.186 103.736C109.181 103.556 109.213 103.376 109.28 103.208C109.346 103.04 109.447 102.888 109.575 102.76C109.702 102.633 109.855 102.532 110.023 102.466C110.191 102.399 110.371 102.367 110.552 102.373C110.733 102.378 110.911 102.42 111.074 102.497C111.238 102.573 111.385 102.682 111.505 102.817L120.175 111.476C120.36 111.661 120.487 111.897 120.538 112.154C120.589 112.411 120.563 112.678 120.463 112.92C120.363 113.162 120.193 113.369 119.975 113.515C119.757 113.66 119.501 113.738 119.238 113.739V113.736Z" fill="#6D757D"/>
<path d="M133.549 115.547C133.197 115.547 132.86 115.407 132.611 115.159C132.362 114.91 132.222 114.573 132.222 114.222V101.903C132.222 101.552 132.362 101.215 132.611 100.966C132.86 100.717 133.197 100.578 133.549 100.578C133.901 100.578 134.239 100.717 134.488 100.966C134.736 101.215 134.876 101.552 134.876 101.903V114.222C134.876 114.574 134.736 114.911 134.488 115.159C134.239 115.408 133.901 115.547 133.549 115.547Z" fill="#6D757D"/>
<path d="M139.716 109.544H127.382C127.03 109.544 126.692 109.404 126.444 109.156C126.195 108.907 126.055 108.57 126.055 108.219C126.055 107.867 126.195 107.53 126.444 107.281C126.692 107.033 127.03 106.893 127.382 106.893H139.716C140.068 106.893 140.406 107.033 140.655 107.281C140.904 107.53 141.043 107.867 141.043 108.219C141.043 108.57 140.904 108.907 140.655 109.156C140.406 109.404 140.068 109.544 139.716 109.544Z" fill="#6D757D"/>
<path d="M129.148 113.736C128.885 113.735 128.629 113.657 128.411 113.511C128.193 113.366 128.023 113.159 127.923 112.917C127.823 112.674 127.797 112.408 127.848 112.151C127.899 111.894 128.025 111.658 128.211 111.473L136.881 102.814C137.001 102.679 137.148 102.57 137.311 102.493C137.475 102.417 137.653 102.375 137.834 102.37C138.015 102.364 138.195 102.396 138.363 102.462C138.531 102.529 138.683 102.629 138.811 102.757C138.939 102.885 139.04 103.037 139.106 103.205C139.173 103.373 139.205 103.553 139.199 103.733C139.194 103.914 139.152 104.091 139.075 104.255C138.999 104.419 138.89 104.565 138.754 104.685L130.084 113.344C129.962 113.468 129.816 113.566 129.655 113.633C129.494 113.701 129.322 113.735 129.148 113.736Z" fill="#6D757D"/>
<path d="M137.818 113.736C137.644 113.735 137.471 113.701 137.311 113.635C137.15 113.568 137.004 113.47 136.881 113.347L128.211 104.688C128.076 104.568 127.967 104.422 127.89 104.258C127.814 104.095 127.771 103.917 127.766 103.736C127.761 103.556 127.792 103.376 127.859 103.208C127.926 103.04 128.026 102.888 128.154 102.76C128.282 102.633 128.435 102.532 128.603 102.466C128.771 102.399 128.951 102.367 129.132 102.373C129.312 102.378 129.49 102.42 129.654 102.497C129.818 102.573 129.964 102.682 130.084 102.817L138.754 111.476C138.94 111.661 139.066 111.897 139.118 112.154C139.169 112.411 139.143 112.678 139.042 112.92C138.942 113.162 138.772 113.369 138.554 113.515C138.336 113.66 138.08 113.738 137.818 113.739V113.736Z" fill="#6D757D"/>
<path d="M152.129 115.547C151.777 115.547 151.44 115.407 151.191 115.159C150.942 114.91 150.802 114.573 150.802 114.222V101.903C150.802 101.552 150.941 101.215 151.19 100.966C151.439 100.717 151.777 100.578 152.129 100.578C152.481 100.578 152.818 100.717 153.067 100.966C153.316 101.215 153.456 101.552 153.456 101.903V114.222C153.456 114.574 153.316 114.911 153.067 115.159C152.818 115.408 152.481 115.547 152.129 115.547Z" fill="#6D757D"/>
<path d="M158.296 109.544H145.962C145.61 109.544 145.272 109.404 145.023 109.156C144.774 108.907 144.634 108.57 144.634 108.219C144.634 107.867 144.774 107.53 145.023 107.281C145.272 107.033 145.61 106.893 145.962 106.893H158.296C158.648 106.893 158.986 107.033 159.234 107.281C159.483 107.53 159.623 107.867 159.623 108.219C159.623 108.57 159.483 108.907 159.234 109.156C158.986 109.404 158.648 109.544 158.296 109.544Z" fill="#6D757D"/>
<path d="M147.727 113.736C147.465 113.735 147.209 113.657 146.991 113.511C146.773 113.366 146.603 113.159 146.503 112.917C146.402 112.674 146.376 112.408 146.427 112.151C146.479 111.894 146.605 111.658 146.791 111.473L155.461 102.814C155.581 102.679 155.727 102.57 155.891 102.493C156.055 102.417 156.233 102.375 156.414 102.37C156.594 102.364 156.774 102.396 156.942 102.462C157.11 102.529 157.263 102.629 157.391 102.757C157.519 102.885 157.619 103.037 157.686 103.205C157.753 103.373 157.784 103.553 157.779 103.733C157.774 103.914 157.732 104.091 157.655 104.255C157.579 104.419 157.469 104.565 157.334 104.685L148.664 113.344C148.542 113.468 148.396 113.566 148.235 113.633C148.074 113.701 147.902 113.735 147.727 113.736Z" fill="#6D757D"/>
<path d="M156.397 113.736C156.223 113.735 156.051 113.701 155.89 113.635C155.73 113.568 155.583 113.47 155.461 113.347L146.791 104.688C146.655 104.568 146.546 104.422 146.47 104.258C146.393 104.095 146.351 103.917 146.346 103.736C146.34 103.556 146.372 103.376 146.439 103.208C146.505 103.04 146.606 102.888 146.734 102.76C146.862 102.633 147.014 102.532 147.182 102.466C147.35 102.399 147.53 102.367 147.711 102.373C147.892 102.378 148.07 102.42 148.234 102.497C148.398 102.573 148.544 102.682 148.664 102.817L157.334 111.476C157.52 111.661 157.646 111.897 157.697 112.154C157.748 112.411 157.722 112.678 157.622 112.92C157.522 113.162 157.352 113.369 157.134 113.515C156.916 113.66 156.66 113.738 156.397 113.739V113.736Z" fill="#6D757D"/>
<path d="M59.2305 79.8385C58.8787 79.8381 58.5414 79.6983 58.2926 79.4498C58.0438 79.2013 57.9038 78.8645 57.9034 78.5131V66.1942C57.9034 65.8427 58.0432 65.5056 58.2921 65.257C58.541 65.0084 58.8785 64.8688 59.2305 64.8688C59.5825 64.8688 59.92 65.0084 60.1689 65.257C60.4178 65.5056 60.5576 65.8427 60.5576 66.1942V78.5131C60.5576 78.8646 60.4178 79.2017 60.1689 79.4503C59.92 79.6989 59.5825 79.8385 59.2305 79.8385Z" fill="#6D757D"/>
<path d="M65.3978 73.835H53.0634C52.7114 73.835 52.3739 73.6954 52.125 73.4468C51.8761 73.1982 51.7363 72.8611 51.7363 72.5096C51.7363 72.158 51.8761 71.8209 52.125 71.5723C52.3739 71.3238 52.7114 71.1841 53.0634 71.1841H65.3978C65.7498 71.1841 66.0873 71.3238 66.3362 71.5723C66.5851 71.8209 66.7249 72.158 66.7249 72.5096C66.7249 72.8611 66.5851 73.1982 66.3362 73.4468C66.0873 73.6954 65.7498 73.835 65.3978 73.835Z" fill="#6D757D"/>
<path d="M54.8292 78.0265C54.5669 78.0262 54.3105 77.9482 54.0925 77.8024C53.8746 77.6567 53.7047 77.4497 53.6045 77.2076C53.5042 76.9654 53.4781 76.6991 53.5293 76.4421C53.5806 76.1852 53.7069 75.9492 53.8924 75.7639L62.5624 67.1049C62.6825 66.9698 62.829 66.8608 62.9929 66.7844C63.1567 66.7079 63.3345 66.6658 63.5153 66.6605C63.6961 66.6551 63.876 66.6868 64.0441 66.7535C64.2122 66.8201 64.3649 66.9204 64.4928 67.0481C64.6207 67.1758 64.7211 67.3283 64.7878 67.4962C64.8546 67.6641 64.8862 67.8438 64.8809 68.0243C64.8756 68.2049 64.8334 68.3824 64.7569 68.5461C64.6803 68.7098 64.5711 68.8561 64.4359 68.9761L55.766 77.6351C55.6434 77.7589 55.4975 77.8571 55.3368 77.9243C55.176 77.9915 55.0035 78.0262 54.8292 78.0265Z" fill="#6D757D"/>
<path d="M63.4992 78.0265C63.3251 78.0265 63.1528 77.9922 62.9921 77.9255C62.8313 77.8589 62.6853 77.7613 62.5624 77.6383L53.8924 68.9792C53.7572 68.8592 53.648 68.7129 53.5715 68.5492C53.495 68.3856 53.4528 68.208 53.4474 68.0275C53.4421 67.8469 53.4738 67.6672 53.5406 67.4993C53.6073 67.3315 53.7077 67.179 53.8356 67.0513C53.9634 66.9235 54.1161 66.8233 54.2842 66.7566C54.4523 66.6899 54.6323 66.6583 54.8131 66.6636C54.9938 66.6689 55.1716 66.7111 55.3355 66.7875C55.4993 66.8639 55.6458 66.973 55.766 67.108L64.436 75.7671C64.6214 75.9523 64.7478 76.1883 64.799 76.4453C64.8503 76.7022 64.8241 76.9686 64.7239 77.2107C64.6237 77.4528 64.4538 77.6598 64.2358 77.8056C64.0179 77.9514 63.7615 78.0293 63.4992 78.0297V78.0265Z" fill="#6D757D"/>
<path d="M77.8102 79.8385C77.4583 79.8381 77.121 79.6983 76.8722 79.4498C76.6234 79.2013 76.4835 78.8645 76.483 78.5131V66.1942C76.483 65.8427 76.6229 65.5056 76.8718 65.257C77.1207 65.0084 77.4582 64.8688 77.8102 64.8688C78.1621 64.8688 78.4997 65.0084 78.7486 65.257C78.9975 65.5056 79.1373 65.8427 79.1373 66.1942V78.5131C79.1373 78.8646 78.9975 79.2017 78.7486 79.4503C78.4997 79.6989 78.1621 79.8385 77.8102 79.8385Z" fill="#6D757D"/>
<path d="M83.9775 73.835H71.6431C71.2911 73.835 70.9536 73.6954 70.7047 73.4468C70.4558 73.1982 70.316 72.8611 70.316 72.5096C70.316 72.158 70.4558 71.8209 70.7047 71.5723C70.9536 71.3238 71.2911 71.1841 71.6431 71.1841H83.9775C84.3294 71.1841 84.667 71.3238 84.9159 71.5723C85.1648 71.8209 85.3046 72.158 85.3046 72.5096C85.3046 72.8611 85.1648 73.1982 84.9159 73.4468C84.667 73.6954 84.3294 73.835 83.9775 73.835Z" fill="#6D757D"/>
<path d="M73.4088 78.0265C73.1465 78.0262 72.8902 77.9482 72.6722 77.8024C72.4542 77.6567 72.2844 77.4497 72.1842 77.2076C72.0839 76.9654 72.0577 76.6991 72.109 76.4421C72.1602 76.1852 72.2866 75.9492 72.4721 75.7639L81.142 67.1049C81.2622 66.9698 81.4087 66.8608 81.5725 66.7844C81.7364 66.7079 81.9142 66.6658 82.095 66.6605C82.2758 66.6551 82.4557 66.6868 82.6238 66.7535C82.7919 66.8201 82.9446 66.9204 83.0724 67.0481C83.2003 67.1758 83.3007 67.3283 83.3675 67.4962C83.4342 67.6641 83.4659 67.8438 83.4606 68.0243C83.4552 68.2049 83.413 68.3824 83.3365 68.5461C83.26 68.7098 83.1508 68.8561 83.0156 68.9761L74.3456 77.6351C74.2231 77.7589 74.0772 77.8571 73.9164 77.9243C73.7556 77.9915 73.5831 78.0262 73.4088 78.0265Z" fill="#6D757D"/>
<path d="M82.0788 78.0265C81.9048 78.0265 81.7325 77.9922 81.5717 77.9255C81.411 77.8589 81.265 77.7613 81.142 77.6383L72.4721 68.9792C72.3369 68.8592 72.2277 68.7129 72.1512 68.5492C72.0747 68.3856 72.0324 68.208 72.0271 68.0275C72.0218 67.8469 72.0535 67.6672 72.1202 67.4993C72.187 67.3315 72.2873 67.179 72.4152 67.0513C72.5431 66.9235 72.6958 66.8233 72.8639 66.7566C73.032 66.6899 73.2119 66.6583 73.3927 66.6636C73.5735 66.6689 73.7513 66.7111 73.9151 66.7875C74.079 66.8639 74.2255 66.973 74.3456 67.108L83.0156 75.7671C83.2011 75.9523 83.3274 76.1883 83.3787 76.4453C83.4299 76.7022 83.4038 76.9686 83.3036 77.2107C83.2033 77.4528 83.0335 77.6598 82.8155 77.8056C82.5975 77.9514 82.3412 78.0293 82.0788 78.0297V78.0265Z" fill="#6D757D"/>
<path d="M195.604 147.648C195.429 147.648 195.257 147.614 195.096 147.547C194.936 147.481 194.79 147.383 194.667 147.26L186.126 138.73L182.379 142.473C182.204 142.647 181.984 142.769 181.743 142.826C181.502 142.882 181.251 142.87 181.016 142.79C180.782 142.711 180.575 142.568 180.417 142.378C180.26 142.187 180.159 141.957 180.126 141.712L177.987 125.75C177.96 125.548 177.98 125.343 178.045 125.15C178.11 124.956 178.219 124.781 178.364 124.637C178.508 124.492 178.683 124.383 178.877 124.318C179.07 124.253 179.276 124.233 179.478 124.26L195.458 126.402C195.703 126.435 195.934 126.536 196.125 126.693C196.316 126.85 196.459 127.057 196.538 127.291C196.618 127.525 196.63 127.776 196.574 128.017C196.517 128.257 196.395 128.478 196.22 128.652L192.593 132.275L201.134 140.804C201.382 141.053 201.521 141.389 201.521 141.74C201.521 142.091 201.382 142.427 201.134 142.675L196.548 147.257C196.424 147.381 196.277 147.48 196.115 147.547C195.953 147.614 195.779 147.649 195.604 147.648ZM186.125 135.531C186.299 135.531 186.471 135.565 186.632 135.632C186.793 135.698 186.939 135.796 187.062 135.919L195.602 144.448L198.311 141.741L189.77 133.212C189.523 132.963 189.383 132.627 189.383 132.276C189.383 131.925 189.523 131.589 189.77 131.341L192.439 128.676L180.841 127.116L182.403 138.701L185.191 135.917C185.439 135.67 185.775 135.531 186.125 135.531Z" fill="#6D757D"/>
<path d="M212.961 160.728H186.837C186.485 160.728 186.147 160.588 185.898 160.34C185.649 160.091 185.51 159.754 185.51 159.403C185.51 159.051 185.649 158.714 185.898 158.465C186.147 158.217 186.485 158.077 186.837 158.077H212.961C213.726 158.076 214.461 157.772 215.002 157.231C215.544 156.69 215.848 155.957 215.849 155.192V49.8991C215.848 49.1342 215.544 48.4009 215.002 47.8601C214.461 47.3193 213.726 47.0151 212.961 47.0143H42.8836C42.5317 47.0143 42.1941 46.8746 41.9452 46.6261C41.6964 46.3775 41.5565 46.0403 41.5565 45.6888C41.5565 45.3373 41.6964 45.0002 41.9452 44.7516C42.1941 44.503 42.5317 44.3634 42.8836 44.3634H212.961C214.43 44.3654 215.839 44.9493 216.878 45.987C217.917 47.0247 218.501 48.4315 218.503 49.8991V155.192C218.501 156.66 217.917 158.067 216.878 159.104C215.839 160.142 214.43 160.726 212.961 160.728Z" fill="#6D757D"/>
<path d="M151.133 160.728H34.0107C32.5413 160.726 31.1327 160.142 30.0937 159.104C29.0547 158.067 28.4701 156.66 28.468 155.192V70.8052C28.468 70.4537 28.6078 70.1165 28.8567 69.8679C29.1056 69.6194 29.4432 69.4797 29.7951 69.4797C30.1471 69.4797 30.4846 69.6194 30.7335 69.8679C30.9824 70.1165 31.1223 70.4537 31.1223 70.8052V155.192C31.1231 155.957 31.4277 156.69 31.9692 157.231C32.5107 157.772 33.2449 158.076 34.0107 158.077H151.133C151.485 158.077 151.822 158.217 152.071 158.465C152.32 158.714 152.46 159.051 152.46 159.403C152.46 159.754 152.32 160.091 152.071 160.34C151.822 160.588 151.485 160.728 151.133 160.728Z" fill="#6D757D"/>
<path d="M148.973 152.304H91.2453C90.8935 152.304 90.5562 152.164 90.3074 151.916C90.0586 151.667 89.9186 151.33 89.9182 150.979V135.945C89.9186 135.594 90.0586 135.257 90.3074 135.009C90.5562 134.76 90.8935 134.62 91.2453 134.62H148.973C149.325 134.62 149.663 134.76 149.911 135.009C150.16 135.257 150.3 135.594 150.3 135.945V150.979C150.3 151.33 150.16 151.667 149.911 151.916C149.663 152.164 149.325 152.304 148.973 152.304ZM92.5724 149.654H147.646V137.271H92.5724V149.654Z" fill="#F0874A"/>
<path d="M135.657 144.785H103.182C102.83 144.785 102.492 144.646 102.243 144.397C101.994 144.148 101.855 143.811 101.855 143.46C101.855 143.108 101.994 142.771 102.243 142.523C102.492 142.274 102.83 142.134 103.182 142.134H135.657C136.009 142.134 136.347 142.274 136.595 142.523C136.844 142.771 136.984 143.108 136.984 143.46C136.984 143.811 136.844 144.148 136.595 144.397C136.347 144.646 136.009 144.785 135.657 144.785Z" fill="#F0874A"/>
<path d="M133.267 148.652C133.004 148.652 132.748 148.574 132.53 148.428C132.312 148.283 132.142 148.076 132.042 147.833C131.942 147.591 131.915 147.325 131.967 147.068C132.018 146.811 132.144 146.575 132.33 146.39L135.262 143.463L132.33 140.534C132.195 140.414 132.085 140.268 132.009 140.104C131.932 139.941 131.89 139.763 131.885 139.583C131.88 139.402 131.911 139.222 131.978 139.055C132.045 138.887 132.145 138.734 132.273 138.606C132.401 138.479 132.554 138.378 132.722 138.312C132.89 138.245 133.07 138.214 133.25 138.219C133.431 138.224 133.609 138.266 133.773 138.343C133.937 138.419 134.083 138.528 134.203 138.663L138.074 142.529C138.322 142.777 138.461 143.114 138.461 143.464C138.461 143.815 138.322 144.152 138.074 144.4L134.203 148.264C134.081 148.387 133.935 148.485 133.774 148.552C133.613 148.618 133.441 148.653 133.267 148.652Z" fill="#F0874A"/>
<path d="M230.586 20.4726C230.423 20.0041 230.453 19.49 230.67 19.0435C230.886 18.5971 231.271 18.2546 231.74 18.0915C231.973 18.0107 232.219 17.9764 232.464 17.9906C232.71 18.0047 232.95 18.0671 233.172 18.1741C233.394 18.2811 233.592 18.4307 233.755 18.6142C233.919 18.7978 234.045 19.0117 234.126 19.2439C234.289 19.7124 234.259 20.2265 234.042 20.673C233.826 21.1195 233.441 21.4619 232.972 21.625C232.771 21.6953 232.56 21.7307 232.347 21.7295C231.96 21.7277 231.582 21.6059 231.267 21.3808C230.951 21.1557 230.714 20.8384 230.586 20.4726ZM225.537 20.7845C225.117 20.5198 224.819 20.0992 224.709 19.6152C224.599 19.1313 224.687 18.6236 224.952 18.2038C225.217 17.784 225.638 17.4866 226.122 17.377C226.607 17.2673 227.115 17.3544 227.536 17.619C227.954 17.8837 228.251 18.3031 228.36 18.7856C228.47 19.268 228.384 19.7743 228.121 20.1935C227.952 20.4611 227.718 20.6816 227.441 20.8343C227.163 20.987 226.851 21.067 226.535 21.0667C226.182 21.0669 225.836 20.9674 225.537 20.7798V20.7845ZM235.884 17.4974C235.415 17.3331 235.031 16.9896 234.816 16.5425C234.601 16.0955 234.572 15.5813 234.736 15.1132C234.815 14.8817 234.94 14.6682 235.102 14.485C235.264 14.3018 235.461 14.1526 235.682 14.046C235.902 13.9394 236.142 13.8775 236.386 13.864C236.631 13.8504 236.875 13.8855 237.106 13.9671C237.569 14.1381 237.947 14.4835 238.158 14.9292C238.369 15.3749 238.397 15.8854 238.235 16.3513C237.923 17.12 237.259 17.5988 236.487 17.5988C236.281 17.5994 236.077 17.5635 235.884 17.4927V17.4974ZM221.562 14.4536C221.507 13.9606 221.65 13.4662 221.961 13.0787C222.271 12.6913 222.722 12.4427 223.215 12.3874C223.709 12.3322 224.205 12.4752 224.593 12.7849C224.981 13.0946 225.23 13.5456 225.286 14.0388C225.341 14.532 225.198 15.0269 224.888 15.4146C224.578 15.8024 224.126 16.0512 223.632 16.1065C223.562 16.1139 223.492 16.1176 223.421 16.1174C222.96 16.1166 222.515 15.946 222.172 15.6381C221.829 15.3303 221.612 14.9068 221.562 14.4489V14.4536ZM234.271 10.9123C234.14 10.704 234.052 10.4721 234.011 10.2298C233.97 9.98747 233.978 9.73949 234.033 9.49999C234.088 9.26049 234.19 9.03417 234.332 8.83396C234.475 8.63375 234.656 8.46357 234.864 8.33313C235.285 8.06954 235.794 7.98372 236.278 8.09455C236.762 8.20538 237.183 8.50378 237.447 8.92413C237.577 9.13238 237.666 9.36429 237.706 9.60662C237.747 9.84894 237.74 10.0969 237.685 10.3364C237.63 10.5759 237.528 10.8022 237.385 11.0025C237.243 11.2027 237.062 11.3728 236.853 11.5033C236.556 11.69 236.212 11.7895 235.86 11.7902C235.542 11.79 235.229 11.7088 234.951 11.5544C234.673 11.4 234.439 11.1774 234.271 10.9076V10.9123ZM224.035 10.05C223.86 9.87613 223.722 9.66956 223.627 9.44211C223.533 9.21466 223.484 8.97081 223.484 8.72453C223.484 8.47825 223.533 8.23439 223.627 8.00694C223.722 7.7795 223.86 7.57293 224.035 7.39909L224.052 7.38037C224.227 7.20643 224.434 7.06863 224.662 6.97485C224.89 6.88108 225.134 6.83318 225.381 6.8339C225.628 6.83462 225.872 6.88396 226.099 6.97907C226.326 7.07419 226.533 7.21321 226.706 7.38817C226.881 7.56252 227.019 7.7695 227.113 7.99723C227.206 8.22495 227.254 8.46895 227.254 8.71523C227.253 8.96151 227.204 9.20522 227.108 9.43239C227.013 9.65957 226.874 9.86573 226.699 10.0391V10.0469C226.525 10.2206 226.318 10.3583 226.09 10.4522C225.863 10.5461 225.619 10.5944 225.373 10.5942C225.125 10.5958 224.879 10.5481 224.649 10.4539C224.419 10.3597 224.211 10.2208 224.035 10.0453V10.05ZM230.693 8.65436C230.447 8.62667 230.21 8.55092 229.994 8.43145C229.779 8.31198 229.589 8.15113 229.435 7.95815C229.282 7.76517 229.168 7.54386 229.101 7.3069C229.033 7.06993 229.013 6.82199 229.042 6.57731C229.099 6.08437 229.349 5.63414 229.739 5.32563C230.128 5.01712 230.624 4.87561 231.117 4.9322C231.611 4.98892 232.062 5.2391 232.37 5.62773C232.679 6.01636 232.821 6.51162 232.764 7.00457C232.712 7.45869 232.495 7.87799 232.155 8.18337C231.814 8.48874 231.373 8.65905 230.916 8.66215C230.841 8.66446 230.767 8.66186 230.693 8.65436Z" fill="#6D757D"/>
<path d="M9.03588 200.733C8.95496 200.501 8.92064 200.255 8.93483 200.01C8.94902 199.764 9.01145 199.524 9.1186 199.303C9.22574 199.082 9.3755 198.884 9.55928 198.72C9.74306 198.557 9.95728 198.431 10.1897 198.35C10.4222 198.27 10.6684 198.235 10.9141 198.25C11.1599 198.264 11.4004 198.326 11.622 198.434C11.8435 198.541 12.0418 198.69 12.2054 198.874C12.3689 199.058 12.4947 199.272 12.5754 199.504C12.7384 199.973 12.7084 200.487 12.492 200.933C12.2756 201.38 11.8906 201.722 11.4216 201.885C11.2239 201.955 11.0159 201.99 10.8064 201.99C10.4171 201.99 10.0375 201.869 9.72018 201.644C9.40288 201.419 9.16369 201.1 9.03588 200.733ZM3.98662 201.045C3.56634 200.78 3.26853 200.36 3.15873 199.876C3.04893 199.392 3.13614 198.884 3.40112 198.464C3.66616 198.044 4.08726 197.747 4.57184 197.637C5.05642 197.528 5.5648 197.615 5.98511 197.879C6.40538 198.144 6.70315 198.565 6.81295 199.049C6.92275 199.533 6.83558 200.04 6.5706 200.46C6.40166 200.728 6.16753 200.948 5.89012 201.101C5.6127 201.254 5.30104 201.334 4.98428 201.333C4.63051 201.333 4.28431 201.231 3.98662 201.04V201.045ZM14.3319 197.758C13.8635 197.593 13.4798 197.25 13.2649 196.802C13.05 196.355 13.0216 195.841 13.1859 195.374C13.3504 194.905 13.6943 194.522 14.1419 194.307C14.5896 194.092 15.1044 194.063 15.5731 194.227C15.8054 194.309 16.0192 194.435 16.2026 194.599C16.386 194.763 16.5352 194.961 16.6418 195.183C16.7483 195.404 16.8102 195.645 16.8237 195.89C16.8372 196.136 16.8023 196.381 16.7207 196.613C16.5915 196.978 16.3521 197.294 16.0356 197.518C15.719 197.741 15.3409 197.861 14.9533 197.861C14.7415 197.861 14.5313 197.824 14.3319 197.753V197.758ZM0.0115185 194.714C-0.0432985 194.221 0.10005 193.727 0.41008 193.339C0.720111 192.952 1.17144 192.703 1.66493 192.648C2.15872 192.593 2.65426 192.736 3.04251 193.045C3.43076 193.355 3.67993 193.806 3.73523 194.299C3.79049 194.792 3.64735 195.287 3.33728 195.675C3.0272 196.063 2.57561 196.312 2.08182 196.367C2.01182 196.374 1.94144 196.378 1.87103 196.378C1.40979 196.377 0.965049 196.206 0.62194 195.899C0.278832 195.591 0.0614854 195.167 0.0115185 194.709V194.714ZM12.7206 191.173C12.59 190.964 12.5017 190.732 12.4609 190.49C12.42 190.248 12.4273 190 12.4824 189.76C12.5375 189.521 12.6393 189.295 12.7819 189.094C12.9246 188.894 13.1054 188.724 13.3139 188.593C13.7348 188.33 14.2433 188.244 14.7276 188.355C15.2119 188.466 15.6323 188.764 15.8963 189.184C16.0269 189.393 16.1152 189.625 16.1561 189.867C16.1969 190.109 16.1896 190.357 16.1345 190.597C16.0794 190.836 15.9776 191.063 15.835 191.263C15.6923 191.463 15.5115 191.633 15.303 191.764C15.006 191.951 14.6616 192.051 14.31 192.051C13.9918 192.05 13.679 191.969 13.4009 191.815C13.1228 191.66 12.8887 191.438 12.7206 191.168V191.173ZM2.48462 190.31C2.30995 190.136 2.17135 189.93 2.07679 189.702C1.98223 189.475 1.93358 189.231 1.93358 188.985C1.93358 188.739 1.98223 188.495 2.07679 188.267C2.17135 188.04 2.30995 187.833 2.48462 187.659L2.50181 187.641C2.67638 187.467 2.8836 187.329 3.11162 187.235C3.33963 187.141 3.58393 187.094 3.83052 187.094C4.07711 187.095 4.32113 187.144 4.54859 187.239C4.77605 187.335 4.98249 187.474 5.15604 187.649C5.3302 187.823 5.46818 188.03 5.56207 188.258C5.65597 188.485 5.70391 188.729 5.70319 188.976C5.70246 189.222 5.65308 189.466 5.55784 189.693C5.46261 189.92 5.32341 190.126 5.14823 190.299C4.9741 190.473 4.76742 190.611 4.53998 190.705C4.31253 190.799 4.06879 190.847 3.82267 190.847C3.5749 190.849 3.32906 190.803 3.09938 190.71C2.8697 190.617 2.66074 190.48 2.48462 190.306V190.31ZM9.14208 188.907C8.64851 188.85 8.19769 188.6 7.8888 188.211C7.5799 187.823 7.43822 187.328 7.49488 186.835C7.55169 186.342 7.80196 185.892 8.19073 185.583C8.5795 185.275 9.07499 185.133 9.56831 185.189C9.81284 185.217 10.0494 185.293 10.2647 185.412C10.4799 185.532 10.6695 185.692 10.8226 185.884C10.9757 186.077 11.0893 186.298 11.157 186.534C11.2247 186.77 11.2451 187.018 11.2171 187.262C11.1646 187.718 10.9461 188.139 10.6033 188.444C10.2604 188.75 9.81707 188.919 9.35752 188.919C9.28567 188.922 9.21373 188.921 9.14208 188.915V188.907Z" fill="#F0874A"/>
<path d="M233.709 122.142C233.546 121.673 233.576 121.159 233.792 120.713C234.009 120.266 234.394 119.924 234.863 119.761C235.095 119.68 235.341 119.646 235.587 119.66C235.833 119.674 236.073 119.736 236.295 119.843C236.516 119.95 236.714 120.1 236.878 120.284C237.042 120.467 237.168 120.681 237.248 120.913C237.411 121.382 237.381 121.896 237.165 122.342C236.949 122.789 236.564 123.131 236.095 123.294C235.894 123.365 235.683 123.4 235.47 123.399C235.082 123.397 234.705 123.275 234.389 123.05C234.074 122.825 233.836 122.508 233.709 122.142ZM228.66 122.454C228.239 122.189 227.942 121.769 227.832 121.285C227.722 120.801 227.809 120.293 228.074 119.873C228.339 119.453 228.76 119.156 229.245 119.046C229.729 118.937 230.238 119.024 230.658 119.288C231.078 119.553 231.376 119.974 231.486 120.458C231.596 120.942 231.509 121.449 231.244 121.869C231.075 122.137 230.841 122.357 230.563 122.51C230.286 122.663 229.974 122.743 229.657 122.742C229.304 122.742 228.957 122.64 228.66 122.449V122.454ZM239.005 119.167C238.537 119.002 238.153 118.659 237.938 118.211C237.723 117.764 237.695 117.25 237.859 116.783C237.938 116.551 238.062 116.337 238.225 116.154C238.387 115.971 238.584 115.822 238.804 115.715C239.025 115.609 239.264 115.547 239.509 115.533C239.753 115.52 239.998 115.555 240.229 115.636C240.692 115.807 241.069 116.153 241.28 116.599C241.491 117.044 241.519 117.555 241.358 118.021C241.045 118.789 240.382 119.268 239.609 119.268C239.403 119.269 239.198 119.233 239.005 119.162V119.167ZM224.685 116.123C224.63 115.63 224.773 115.135 225.084 114.748C225.394 114.36 225.846 114.112 226.339 114.057C226.833 114.002 227.328 114.145 227.716 114.455C228.104 114.764 228.353 115.215 228.408 115.708C228.463 116.201 228.32 116.696 228.01 117.084C227.7 117.472 227.249 117.721 226.755 117.776C226.685 117.783 226.614 117.787 226.544 117.787C226.083 117.786 225.638 117.615 225.295 117.307C224.952 117 224.734 116.576 224.685 116.118V116.123ZM237.394 112.582C237.263 112.373 237.175 112.141 237.134 111.899C237.093 111.657 237.1 111.409 237.155 111.169C237.21 110.93 237.312 110.704 237.455 110.503C237.598 110.303 237.778 110.133 237.987 110.002C238.408 109.739 238.916 109.653 239.401 109.764C239.885 109.875 240.305 110.173 240.569 110.593C240.7 110.802 240.788 111.034 240.829 111.276C240.87 111.518 240.863 111.766 240.808 112.006C240.752 112.245 240.651 112.472 240.508 112.672C240.365 112.872 240.185 113.042 239.976 113.173C239.679 113.359 239.334 113.459 238.983 113.46C238.665 113.459 238.352 113.378 238.074 113.224C237.796 113.069 237.562 112.847 237.394 112.577V112.582ZM227.158 111.719C226.983 111.545 226.844 111.339 226.75 111.111C226.655 110.884 226.607 110.64 226.607 110.394C226.607 110.148 226.655 109.904 226.75 109.676C226.844 109.449 226.983 109.242 227.158 109.068L227.169 109.056C227.343 108.882 227.55 108.744 227.778 108.65C228.006 108.557 228.251 108.509 228.497 108.509C228.744 108.51 228.988 108.56 229.215 108.655C229.443 108.75 229.649 108.889 229.823 109.064C229.997 109.238 230.135 109.445 230.229 109.673C230.323 109.901 230.371 110.145 230.37 110.391C230.369 110.637 230.32 110.881 230.225 111.108C230.129 111.335 229.99 111.541 229.815 111.715L229.806 111.726C229.631 111.899 229.425 112.037 229.197 112.131C228.97 112.225 228.726 112.273 228.48 112.273C228.234 112.271 227.99 112.221 227.763 112.125C227.536 112.029 227.33 111.89 227.158 111.715V111.719ZM233.815 110.316C233.322 110.259 232.871 110.009 232.562 109.62C232.253 109.232 232.111 108.736 232.168 108.244C232.225 107.751 232.475 107.301 232.864 106.992C233.253 106.684 233.748 106.542 234.241 106.598C234.486 106.626 234.722 106.702 234.938 106.821C235.153 106.941 235.342 107.101 235.496 107.293C235.649 107.486 235.762 107.707 235.83 107.943C235.898 108.179 235.918 108.427 235.89 108.671C235.838 109.127 235.619 109.548 235.276 109.853C234.933 110.159 234.49 110.328 234.031 110.328C233.959 110.331 233.887 110.33 233.815 110.324V110.316Z" fill="#F0874A"/>
<path d="M18.8722 114.969C18.7092 114.5 18.7392 113.986 18.9556 113.54C19.1719 113.093 19.557 112.751 20.026 112.588C20.2584 112.507 20.5045 112.473 20.7502 112.487C20.9958 112.501 21.2363 112.563 21.4579 112.67C21.6794 112.777 21.8777 112.927 22.0413 113.111C22.205 113.294 22.3308 113.508 22.4117 113.74C22.5746 114.209 22.5446 114.723 22.3283 115.169C22.1119 115.616 21.7269 115.958 21.2579 116.121C21.0602 116.191 20.8522 116.226 20.6427 116.226C20.2534 116.226 19.8738 116.105 19.5565 115.88C19.2392 115.655 19 115.336 18.8722 114.969ZM13.8229 115.281C13.4026 115.016 13.1048 114.596 12.995 114.112C12.8852 113.628 12.9724 113.12 13.2374 112.7C13.5024 112.28 13.9235 111.983 14.4081 111.873C14.8927 111.764 15.4011 111.851 15.8214 112.115C16.2417 112.38 16.5394 112.801 16.6492 113.285C16.759 113.769 16.6719 114.276 16.4069 114.696C16.2379 114.964 16.0038 115.184 15.7264 115.337C15.449 115.49 15.1373 115.57 14.8206 115.569C14.4668 115.569 14.1206 115.467 13.8229 115.276V115.281ZM24.1682 111.994C23.6998 111.829 23.316 111.486 23.1012 111.038C22.8863 110.591 22.8579 110.077 23.0222 109.61C23.1867 109.141 23.5306 108.758 23.9782 108.543C24.4259 108.328 24.9407 108.299 25.4094 108.463C25.6416 108.545 25.8555 108.671 26.0389 108.835C26.2222 108.999 26.3715 109.197 26.478 109.419C26.5846 109.64 26.6464 109.881 26.66 110.126C26.6735 110.372 26.6385 110.617 26.557 110.849C26.4278 111.214 26.1884 111.53 25.8719 111.754C25.5553 111.977 25.1772 112.097 24.7896 112.097C24.5778 112.097 24.3676 112.06 24.1682 111.989V111.994ZM9.8478 108.95C9.79301 108.457 9.93654 107.962 10.2469 107.575C10.5573 107.187 11.009 106.939 11.5028 106.884C11.9963 106.829 12.4914 106.972 12.8793 107.282C13.2672 107.591 13.5162 108.042 13.5715 108.535C13.6268 109.028 13.4836 109.523 13.1736 109.911C12.8635 110.299 12.4119 110.548 11.9181 110.603C11.8481 110.61 11.7777 110.614 11.7073 110.614C11.2461 110.613 10.8013 110.442 10.4582 110.134C10.1151 109.827 9.89777 109.403 9.8478 108.945V108.95ZM22.5569 105.409C22.4263 105.2 22.338 104.968 22.2971 104.726C22.2563 104.484 22.2636 104.236 22.3187 103.996C22.3738 103.757 22.4755 103.531 22.6182 103.33C22.7609 103.13 22.9417 102.96 23.1502 102.829C23.5711 102.566 24.0796 102.48 24.5639 102.591C25.0482 102.702 25.4686 103 25.7326 103.42C25.8632 103.629 25.9515 103.861 25.9923 104.103C26.0332 104.345 26.0259 104.593 25.9708 104.833C25.9157 105.072 25.8139 105.299 25.6712 105.499C25.5286 105.699 25.3478 105.869 25.1393 106C24.8418 106.186 24.4977 106.286 24.1463 106.287C23.8281 106.286 23.5153 106.205 23.2372 106.051C22.9591 105.896 22.725 105.674 22.5569 105.404V105.409ZM12.3209 104.546C12.1462 104.372 12.0076 104.166 11.9131 103.938C11.8185 103.711 11.7699 103.467 11.7699 103.221C11.7699 102.975 11.8185 102.731 11.9131 102.503C12.0076 102.276 12.1462 102.069 12.3209 101.895L12.3318 101.883C12.5064 101.709 12.7136 101.571 12.9417 101.477C13.1697 101.384 13.414 101.336 13.6606 101.336C13.9072 101.337 14.1512 101.387 14.3787 101.482C14.6061 101.577 14.8125 101.716 14.9861 101.891C15.1602 102.065 15.2982 102.272 15.3921 102.5C15.486 102.728 15.5339 102.972 15.5332 103.218C15.5325 103.464 15.4831 103.708 15.3879 103.935C15.2926 104.162 15.1534 104.368 14.9783 104.542L14.9689 104.553C14.7948 104.726 14.5881 104.864 14.3606 104.958C14.1332 105.052 13.8894 105.1 13.6433 105.1C13.397 105.098 13.1534 105.048 12.9265 104.952C12.6996 104.857 12.4938 104.717 12.3209 104.542V104.546ZM18.9784 103.143C18.4835 103.084 18.0322 102.832 17.7234 102.441C17.4146 102.051 17.2735 101.554 17.3312 101.06C17.4483 100.034 18.3773 99.2492 19.4062 99.4052C19.8984 99.4692 20.3461 99.7226 20.6541 100.111C20.962 100.5 21.1059 100.994 21.0549 101.487C21.004 101.943 20.7871 102.364 20.4454 102.671C20.1037 102.978 19.6611 103.149 19.2016 103.151C19.1273 103.155 19.0527 103.155 18.9784 103.151V103.143Z" fill="#6D757D"/>
<path d="M244.246 46.6244C243.894 46.624 243.557 46.4842 243.308 46.2357C243.06 45.9873 242.92 45.6504 242.919 45.299V39.6853C242.919 39.3338 243.059 38.9966 243.308 38.7481C243.557 38.4995 243.894 38.3599 244.246 38.3599C244.598 38.3599 244.936 38.4995 245.185 38.7481C245.434 38.9966 245.573 39.3338 245.573 39.6853V45.299C245.573 45.6505 245.434 45.9876 245.185 46.2362C244.936 46.4848 244.598 46.6244 244.246 46.6244Z" fill="#6D757D"/>
<path d="M247.135 43.8956H241.514C241.162 43.8956 240.824 43.7559 240.576 43.5074C240.327 43.2588 240.187 42.9217 240.187 42.5701C240.187 42.2186 240.327 41.8815 240.576 41.6329C240.824 41.3843 241.162 41.2447 241.514 41.2447H247.135C247.487 41.2447 247.824 41.3843 248.073 41.6329C248.322 41.8815 248.462 42.2186 248.462 42.5701C248.462 42.9217 248.322 43.2588 248.073 43.5074C247.824 43.7559 247.487 43.8956 247.135 43.8956Z" fill="#6D757D"/>
<path d="M176.329 26.6648C175.977 26.6644 175.64 26.5246 175.391 26.2761C175.142 26.0276 175.002 25.6907 175.002 25.3393V19.7257C175.002 19.3742 175.142 19.037 175.391 18.7885C175.64 18.5399 175.977 18.4003 176.329 18.4003C176.681 18.4003 177.019 18.5399 177.268 18.7885C177.516 19.037 177.656 19.3742 177.656 19.7257V25.3393C177.656 25.6909 177.516 26.028 177.268 26.2766C177.019 26.5251 176.681 26.6648 176.329 26.6648Z" fill="#F0874A"/>
<path d="M179.218 23.936H173.597C173.245 23.936 172.907 23.7963 172.658 23.5477C172.41 23.2992 172.27 22.962 172.27 22.6105C172.27 22.259 172.41 21.9218 172.658 21.6733C172.907 21.4247 173.245 21.2851 173.597 21.2851H179.218C179.57 21.2851 179.907 21.4247 180.156 21.6733C180.405 21.9218 180.545 22.259 180.545 22.6105C180.545 22.962 180.405 23.2992 180.156 23.5477C179.907 23.7963 179.57 23.936 179.218 23.936Z" fill="#F0874A"/>
<path d="M45.3349 194.762C44.983 194.762 44.6457 194.622 44.3969 194.374C44.1481 194.125 44.0082 193.788 44.0078 193.437V187.823C44.0078 187.472 44.1476 187.135 44.3965 186.886C44.6454 186.637 44.9829 186.498 45.3349 186.498C45.6868 186.498 46.0244 186.637 46.2733 186.886C46.5222 187.135 46.662 187.472 46.662 187.823V193.437C46.662 193.788 46.5222 194.125 46.2733 194.374C46.0244 194.623 45.6868 194.762 45.3349 194.762Z" fill="#F0874A"/>
<path d="M48.2233 192.033H42.6026C42.2506 192.033 41.9131 191.894 41.6642 191.645C41.4153 191.397 41.2755 191.059 41.2755 190.708C41.2755 190.356 41.4153 190.019 41.6642 189.771C41.9131 189.522 42.2506 189.383 42.6026 189.383H48.2233C48.5753 189.383 48.9128 189.522 49.1617 189.771C49.4106 190.019 49.5504 190.356 49.5504 190.708C49.5504 191.059 49.4106 191.397 49.1617 191.645C48.9128 191.894 48.5753 192.033 48.2233 192.033Z" fill="#F0874A"/>
<path d="M15.2016 151.412C14.8498 151.412 14.5125 151.272 14.2637 151.024C14.0149 150.775 13.8749 150.438 13.8745 150.087V144.473C13.8745 144.122 14.0143 143.785 14.2632 143.536C14.5121 143.288 14.8496 143.148 15.2016 143.148C15.5536 143.148 15.8911 143.288 16.14 143.536C16.3889 143.785 16.5287 144.122 16.5287 144.473V150.087C16.5287 150.439 16.3889 150.776 16.14 151.024C15.8911 151.273 15.5536 151.412 15.2016 151.412Z" fill="#6D757D"/>
<path d="M18.09 148.684H12.4693C12.1173 148.684 11.7798 148.544 11.5309 148.295C11.282 148.047 11.1422 147.71 11.1422 147.358C11.1422 147.007 11.282 146.67 11.5309 146.421C11.7798 146.172 12.1173 146.033 12.4693 146.033H18.09C18.442 146.033 18.7796 146.172 19.0285 146.421C19.2773 146.67 19.4171 147.007 19.4171 147.358C19.4171 147.71 19.2773 148.047 19.0285 148.295C18.7796 148.544 18.442 148.684 18.09 148.684Z" fill="#6D757D"/>
<path d="M22.5773 72.1307C11.0033 72.1307 1.58694 62.7262 1.58694 51.1668V33.3903C1.58777 32.5464 1.92378 31.7374 2.52122 31.1407C3.11865 30.544 3.92871 30.2085 4.77361 30.2076H40.3809C41.2261 30.2081 42.0366 30.5435 42.6343 31.1402C43.2321 31.7369 43.5683 32.5462 43.5691 33.3903V51.1668C43.5691 62.7262 34.1513 72.1307 22.5773 72.1307ZM4.7783 32.8539C4.6371 32.8539 4.50165 32.9099 4.40181 33.0096C4.30196 33.1093 4.24587 33.2446 4.24587 33.3856V51.1621C4.29047 55.99 6.24202 60.6049 9.67601 64.0031C13.11 67.4012 17.7486 69.3077 22.5827 69.3077C27.4169 69.3077 32.0554 67.4012 35.4894 64.0031C38.9234 60.6049 40.875 55.99 40.9196 51.1621V33.3856C40.9192 33.2444 40.8627 33.1092 40.7626 33.0095C40.6625 32.9098 40.5269 32.8539 40.3856 32.8539H4.7783Z" fill="#F0874A"/>
<path d="M36.6291 32.542C36.2772 32.5416 35.9399 32.4018 35.6911 32.1533C35.4423 31.9048 35.3024 31.5679 35.302 31.2165V15.3595C35.302 11.989 33.9613 8.75649 31.575 6.37315C29.1886 3.98982 25.952 2.65087 22.5772 2.65087C19.2024 2.65087 15.9658 3.98982 13.5795 6.37315C11.1931 8.75649 9.85254 11.989 9.85254 15.3595V31.2165C9.85254 31.5681 9.71269 31.9052 9.46381 32.1538C9.21493 32.4023 8.87739 32.542 8.52542 32.542C8.17345 32.542 7.83588 32.4023 7.58699 32.1538C7.33811 31.9052 7.1983 31.5681 7.1983 31.2165V15.3595C7.1983 11.2859 8.81856 7.37917 11.7027 4.49869C14.5868 1.61822 18.4985 -1.52588e-05 22.5772 -1.52588e-05C26.656 -1.52588e-05 30.5677 1.61822 33.4518 4.49869C36.3359 7.37917 37.9562 11.2859 37.9562 15.3595V31.2165C37.9562 31.5681 37.8163 31.9052 37.5675 32.1538C37.3186 32.4023 36.981 32.542 36.6291 32.542Z" fill="#F0874A"/>
<path d="M32.6289 32.542C32.2771 32.5416 31.9398 32.4018 31.691 32.1533C31.4422 31.9048 31.3022 31.5679 31.3018 31.2165V15.8133C31.3018 13.5011 30.3821 11.2835 28.7451 9.64854C27.108 8.01355 24.8877 7.09501 22.5725 7.09501C20.2574 7.09501 18.037 8.01355 16.4 9.64854C14.7629 11.2835 13.8432 13.5011 13.8432 15.8133V31.2165C13.8432 31.5681 13.7034 31.9052 13.4545 32.1538C13.2056 32.4023 12.8681 32.542 12.5161 32.542C12.1641 32.542 11.8266 32.4023 11.5777 32.1538C11.3288 31.9052 11.189 31.5681 11.189 31.2165V15.8133C11.189 12.798 12.3883 9.90622 14.5231 7.77408C16.658 5.64195 19.5534 4.44412 22.5725 4.44412C25.5916 4.44412 28.4871 5.64195 30.6219 7.77408C32.7567 9.90622 33.9561 12.798 33.9561 15.8133V31.2165C33.9561 31.3906 33.9217 31.5629 33.855 31.7238C33.7883 31.8846 33.6906 32.0307 33.5674 32.1538C33.4441 32.2768 33.2978 32.3745 33.1368 32.4411C32.9758 32.5077 32.8032 32.542 32.6289 32.542Z" fill="#F0874A"/>
<path d="M22.5772 52.0042C21.5041 52.0042 20.4551 51.6864 19.5629 51.091C18.6706 50.4955 17.9752 49.6493 17.5646 48.6591C17.1539 47.669 17.0465 46.5794 17.2558 45.5283C17.4651 44.4772 17.9819 43.5117 18.7407 42.7538C19.4995 41.996 20.4662 41.4799 21.5187 41.2709C22.5711 41.0618 23.662 41.1691 24.6534 41.5792C25.6448 41.9893 26.4922 42.6839 27.0883 43.575C27.6845 44.4661 28.0027 45.5137 28.0027 46.5855C28.0011 48.0221 27.4289 49.3994 26.4117 50.4152C25.3946 51.4311 24.0156 52.0025 22.5772 52.0042ZM22.5772 43.8176C22.029 43.8176 21.4932 43.9799 21.0375 44.2841C20.5817 44.5882 20.2265 45.0205 20.0168 45.5263C19.807 46.032 19.7521 46.5885 19.8591 47.1254C19.966 47.6623 20.2299 48.1555 20.6175 48.5426C21.0051 48.9297 21.4989 49.1933 22.0365 49.3001C22.5741 49.4069 23.1313 49.3521 23.6377 49.1426C24.1441 48.9331 24.5769 48.5784 24.8814 48.1232C25.1859 47.668 25.3485 47.1329 25.3485 46.5855C25.3477 45.8516 25.0554 45.1481 24.5358 44.6292C24.0163 44.1103 23.3119 43.8184 22.5772 43.8176Z" fill="#F0874A"/>
<path d="M22.5397 61.906C22.1879 61.9056 21.8506 61.7658 21.6018 61.5174C21.353 61.2689 21.213 60.932 21.2126 60.5806V50.7567C21.2126 50.4052 21.3524 50.068 21.6013 49.8195C21.8502 49.5709 22.1877 49.4313 22.5397 49.4313C22.8917 49.4313 23.2292 49.5709 23.4781 49.8195C23.727 50.068 23.8668 50.4052 23.8668 50.7567V60.5806C23.8668 60.9321 23.727 61.2692 23.4781 61.5178C23.2292 61.7664 22.8917 61.906 22.5397 61.906Z" fill="#F0874A"/>
<path d="M12.4692 38.2819H3.41357C3.0616 38.2819 2.72407 38.1423 2.47518 37.8937C2.2263 37.6451 2.08646 37.308 2.08646 36.9565C2.08646 36.6049 2.2263 36.2678 2.47518 36.0192C2.72407 35.7707 3.0616 35.631 3.41357 35.631H12.4692C12.8212 35.631 13.1587 35.7707 13.4076 36.0192C13.6565 36.2678 13.7963 36.6049 13.7963 36.9565C13.7963 37.308 13.6565 37.6451 13.4076 37.8937C13.1587 38.1423 12.8212 38.2819 12.4692 38.2819Z" fill="#F0874A"/>
<path d="M41.822 38.2819H33.547C33.195 38.2819 32.8575 38.1423 32.6086 37.8937C32.3597 37.6451 32.2199 37.308 32.2199 36.9565C32.2199 36.6049 32.3597 36.2678 32.6086 36.0192C32.8575 35.7707 33.195 35.631 33.547 35.631H41.822C42.1739 35.631 42.5115 35.7707 42.7604 36.0192C43.0093 36.2678 43.1491 36.6049 43.1491 36.9565C43.1491 37.308 43.0093 37.6451 42.7604 37.8937C42.5115 38.1423 42.1739 38.2819 41.822 38.2819Z" fill="#F0874A"/>
<path d="M165.642 187.728C165.479 187.727 165.317 187.697 165.164 187.639L158.919 185.236C158.756 185.174 158.607 185.08 158.48 184.96C158.354 184.84 158.252 184.696 158.181 184.537C158.11 184.377 158.072 184.206 158.067 184.031C158.063 183.857 158.093 183.684 158.155 183.521L159.361 180.387C158.524 179.746 157.755 179.02 157.067 178.222L153.945 179.598C153.623 179.739 153.258 179.748 152.93 179.621C152.603 179.495 152.338 179.243 152.196 178.922L149.432 172.701C149.362 172.542 149.323 172.37 149.319 172.196C149.314 172.022 149.344 171.849 149.407 171.686C149.469 171.524 149.563 171.375 149.684 171.249C149.804 171.123 149.948 171.022 150.107 170.951L153.245 169.56C153.123 168.541 153.103 167.512 153.186 166.488L150.035 165.306C149.871 165.245 149.721 165.152 149.593 165.032C149.466 164.912 149.363 164.769 149.291 164.609C149.219 164.45 149.18 164.278 149.175 164.103C149.17 163.928 149.2 163.754 149.262 163.591L151.673 157.336C151.8 157.008 152.052 156.744 152.374 156.602C152.696 156.459 153.062 156.45 153.39 156.577L156.561 157.804C157.197 156.981 157.914 156.224 158.703 155.546L157.286 152.353C157.215 152.194 157.176 152.022 157.172 151.848C157.168 151.675 157.198 151.501 157.26 151.339C157.323 151.177 157.417 151.028 157.537 150.902C157.657 150.776 157.801 150.675 157.96 150.605L164.159 147.859C164.48 147.716 164.846 147.707 165.174 147.834C165.502 147.96 165.767 148.211 165.91 148.532L167.308 151.682C168.35 151.566 169.402 151.554 170.446 151.648L171.659 148.482C171.722 148.319 171.815 148.17 171.936 148.044C172.056 147.917 172.2 147.815 172.359 147.745C172.519 147.674 172.691 147.635 172.866 147.631C173.04 147.627 173.214 147.657 173.377 147.72L179.653 150.14C179.816 150.202 179.965 150.296 180.092 150.416C180.218 150.536 180.32 150.68 180.391 150.84C180.461 150.999 180.5 151.171 180.504 151.345C180.508 151.52 180.477 151.693 180.414 151.855L179.175 155.05C179.989 155.696 180.741 156.415 181.422 157.199L184.51 155.825C184.67 155.754 184.842 155.716 185.016 155.711C185.19 155.707 185.364 155.736 185.527 155.799C185.69 155.862 185.839 155.956 185.965 156.076C186.092 156.196 186.193 156.34 186.264 156.499L188.943 162.534C189.014 162.693 189.052 162.864 189.057 163.038C189.061 163.212 189.031 163.385 188.969 163.547C188.906 163.71 188.812 163.858 188.692 163.984C188.572 164.11 188.428 164.211 188.269 164.282L185.207 165.638C185.344 166.694 185.375 167.761 185.299 168.823L188.518 170.09C188.845 170.219 189.108 170.472 189.248 170.793C189.389 171.115 189.397 171.479 189.269 171.806L186.859 178.059C186.732 178.387 186.48 178.652 186.158 178.794C185.836 178.937 185.47 178.946 185.141 178.819L181.965 177.592C181.326 178.414 180.607 179.171 179.819 179.852L181.194 182.95C181.265 183.109 181.304 183.281 181.309 183.455C181.314 183.629 181.284 183.802 181.221 183.965C181.158 184.128 181.064 184.276 180.944 184.402C180.823 184.528 180.679 184.629 180.52 184.7L174.384 187.416C174.062 187.558 173.696 187.567 173.368 187.441C173.04 187.314 172.775 187.062 172.632 186.741L171.256 183.639C170.213 183.769 169.16 183.794 168.112 183.714L166.879 186.886C166.781 187.134 166.611 187.347 166.39 187.497C166.17 187.648 165.909 187.728 165.642 187.728ZM161.114 183.237L164.891 184.69L166.014 181.804C166.122 181.526 166.322 181.292 166.58 181.141C166.838 180.99 167.14 180.93 167.436 180.971C168.889 181.178 170.366 181.142 171.808 180.865C172.102 180.808 172.408 180.853 172.674 180.992C172.94 181.13 173.151 181.355 173.272 181.629L174.521 184.452L178.229 182.81L176.98 179.994C176.859 179.719 176.834 179.412 176.909 179.122C176.985 178.832 177.157 178.576 177.397 178.395C178.567 177.519 179.581 176.452 180.396 175.239C180.565 174.991 180.813 174.808 181.099 174.719C181.385 174.63 181.694 174.64 181.973 174.748L184.86 175.863L186.322 172.074L183.388 170.918C183.111 170.809 182.879 170.61 182.729 170.354C182.579 170.097 182.52 169.797 182.562 169.502C182.761 168.035 182.718 166.546 182.434 165.093C182.377 164.798 182.422 164.493 182.561 164.227C182.699 163.961 182.924 163.75 183.199 163.628L185.981 162.396L184.378 158.787L181.567 160.034C181.293 160.156 180.986 160.182 180.696 160.106C180.405 160.031 180.149 159.86 179.969 159.621C179.082 158.455 178.018 157.435 176.815 156.599C176.572 156.43 176.392 156.185 176.305 155.902C176.218 155.619 176.228 155.316 176.334 155.039L177.456 152.142L173.659 150.68L172.555 153.561C172.448 153.841 172.248 154.076 171.99 154.228C171.731 154.381 171.429 154.441 171.132 154.4C169.681 154.174 168.204 154.193 166.76 154.455C166.465 154.512 166.16 154.467 165.894 154.328C165.628 154.19 165.417 153.965 165.295 153.691L164.023 150.826L160.251 152.498L161.545 155.409C161.667 155.683 161.692 155.991 161.616 156.281C161.54 156.571 161.368 156.827 161.128 157.007C159.96 157.883 158.948 158.949 158.135 160.16C157.967 160.409 157.719 160.592 157.432 160.681C157.145 160.771 156.837 160.76 156.557 160.652L153.673 159.537L152.222 163.304L155.086 164.377C155.368 164.483 155.606 164.682 155.759 164.941C155.913 165.2 155.974 165.504 155.932 165.802C155.719 167.235 155.748 168.694 156.02 170.117C156.077 170.411 156.032 170.716 155.893 170.982C155.754 171.248 155.529 171.459 155.255 171.581L152.399 172.846L154.087 176.647L156.924 175.4C157.197 175.279 157.504 175.255 157.794 175.33C158.083 175.405 158.339 175.576 158.519 175.815C159.401 176.989 160.477 178.003 161.701 178.815C161.952 178.982 162.139 179.229 162.23 179.516C162.322 179.802 162.313 180.112 162.205 180.393L161.114 183.237Z" fill="#6D757D"/>
<path d="M169.303 176.451C167.133 176.453 165.04 175.652 163.427 174.203C161.813 172.754 160.794 170.76 160.567 168.604C160.34 166.449 160.92 164.287 162.195 162.533C163.471 160.78 165.351 159.561 167.474 159.112C169.596 158.662 171.81 159.013 173.688 160.098C175.567 161.183 176.976 162.924 177.644 164.986C178.313 167.048 178.193 169.284 177.307 171.262C176.422 173.241 174.834 174.821 172.851 175.699C171.733 176.193 170.525 176.449 169.303 176.451ZM166.805 162.094C165.511 162.668 164.455 163.672 163.819 164.936C163.183 166.2 163.005 167.645 163.316 169.025C163.627 170.405 164.407 171.635 165.524 172.504C166.641 173.374 168.026 173.83 169.441 173.795C170.857 173.759 172.217 173.235 173.289 172.31C174.361 171.386 175.079 170.119 175.321 168.725C175.562 167.331 175.312 165.897 174.614 164.666C173.915 163.436 172.811 162.486 171.489 161.977C169.974 161.395 168.289 161.437 166.805 162.094Z" fill="#6D757D"/>
<path d="M219.532 204.293C219.369 204.293 219.207 204.263 219.054 204.204L211.787 201.41C211.458 201.283 211.193 201.031 211.05 200.71C210.907 200.388 210.898 200.023 211.025 199.694L212.484 195.897C211.43 195.106 210.468 194.198 209.616 193.192L205.843 194.857C205.521 195 205.156 195.008 204.828 194.882C204.499 194.755 204.235 194.503 204.092 194.182L200.879 186.947C200.737 186.625 200.728 186.261 200.854 185.933C200.981 185.605 201.232 185.34 201.554 185.197L205.351 183.515C205.185 182.238 205.16 180.947 205.276 179.665L201.458 178.233C201.295 178.172 201.144 178.079 201.017 177.959C200.889 177.839 200.786 177.696 200.715 177.536C200.643 177.377 200.603 177.205 200.598 177.03C200.593 176.855 200.623 176.681 200.686 176.518L203.488 169.245C203.551 169.083 203.645 168.934 203.765 168.808C203.886 168.682 204.03 168.58 204.189 168.51C204.349 168.439 204.521 168.401 204.695 168.397C204.869 168.393 205.043 168.423 205.206 168.486L209.043 169.97C209.83 168.933 210.729 167.985 211.724 167.145L210.007 163.284C209.864 162.963 209.855 162.598 209.982 162.27C210.108 161.943 210.36 161.678 210.681 161.536L217.894 158.352C218.216 158.209 218.581 158.2 218.91 158.327C219.238 158.453 219.503 158.704 219.646 159.025L221.337 162.835C222.64 162.676 223.956 162.661 225.262 162.789L226.731 158.957C226.794 158.794 226.888 158.645 227.008 158.518C227.128 158.391 227.272 158.29 227.431 158.219C227.591 158.148 227.763 158.109 227.938 158.105C228.112 158.101 228.286 158.131 228.449 158.194L235.75 161.001C235.912 161.064 236.061 161.158 236.187 161.278C236.314 161.398 236.415 161.542 236.485 161.701C236.556 161.861 236.594 162.032 236.598 162.206C236.602 162.381 236.572 162.554 236.508 162.716L235.011 166.58C236.036 167.38 236.978 168.282 237.821 169.272L241.569 167.608C241.728 167.537 241.9 167.498 242.074 167.494C242.249 167.489 242.422 167.519 242.585 167.581C242.748 167.644 242.897 167.738 243.023 167.858C243.15 167.978 243.251 168.122 243.322 168.281L246.445 175.299C246.587 175.62 246.596 175.985 246.47 176.313C246.343 176.641 246.092 176.905 245.77 177.048L242.062 178.69C242.244 180.008 242.283 181.342 242.177 182.668L246.068 184.201C246.395 184.329 246.658 184.582 246.799 184.903C246.94 185.225 246.947 185.589 246.819 185.916L244.009 193.19C243.946 193.353 243.852 193.502 243.732 193.628C243.612 193.754 243.468 193.856 243.308 193.926C243.149 193.997 242.977 194.035 242.802 194.039C242.628 194.043 242.454 194.013 242.291 193.95L238.449 192.465C237.658 193.502 236.757 194.45 235.762 195.294L237.428 199.044C237.499 199.203 237.537 199.375 237.542 199.549C237.546 199.723 237.516 199.896 237.453 200.058C237.39 200.221 237.296 200.369 237.176 200.495C237.055 200.621 236.911 200.722 236.752 200.792L229.617 203.951C229.295 204.094 228.93 204.103 228.601 203.977C228.273 203.85 228.008 203.599 227.865 203.278L226.194 199.518C224.89 199.69 223.572 199.721 222.261 199.612L220.769 203.449C220.672 203.698 220.502 203.912 220.281 204.062C220.06 204.213 219.799 204.293 219.532 204.293ZM213.979 199.412L218.773 201.255L220.157 197.699C220.265 197.42 220.465 197.186 220.723 197.035C220.981 196.884 221.283 196.824 221.579 196.866C223.295 197.11 225.039 197.067 226.741 196.741C227.036 196.684 227.341 196.729 227.607 196.868C227.874 197.006 228.085 197.231 228.207 197.505L229.749 200.984L234.457 198.899L232.914 195.427C232.792 195.152 232.767 194.845 232.843 194.555C232.918 194.265 233.09 194.009 233.33 193.828C234.71 192.796 235.906 191.538 236.867 190.108C237.036 189.86 237.284 189.676 237.57 189.587C237.856 189.498 238.165 189.508 238.444 189.616L242.004 190.99L243.857 186.183L240.248 184.761C239.97 184.652 239.738 184.453 239.588 184.195C239.437 183.938 239.378 183.638 239.42 183.343C239.657 181.614 239.604 179.858 239.264 178.146C239.207 177.851 239.251 177.546 239.39 177.28C239.529 177.014 239.755 176.803 240.029 176.682L243.464 175.161L241.423 170.567L237.963 172.108C237.689 172.23 237.382 172.256 237.092 172.181C236.801 172.105 236.545 171.934 236.365 171.695C235.32 170.32 234.065 169.118 232.646 168.133C232.403 167.964 232.224 167.719 232.137 167.436C232.051 167.153 232.061 166.85 232.166 166.574L233.55 163.003L228.73 161.138L227.368 164.69C227.261 164.97 227.062 165.206 226.803 165.358C226.545 165.511 226.242 165.571 225.944 165.529C224.233 165.263 222.489 165.286 220.784 165.596C220.49 165.653 220.184 165.609 219.918 165.47C219.652 165.331 219.441 165.106 219.32 164.832L217.759 161.303L212.978 163.423L214.569 167.009C214.691 167.283 214.716 167.591 214.64 167.881C214.564 168.171 214.392 168.427 214.152 168.607C212.775 169.64 211.581 170.897 210.622 172.325C210.453 172.573 210.206 172.757 209.919 172.846C209.633 172.935 209.325 172.925 209.045 172.816L205.49 171.441L203.646 176.228L207.179 177.552C207.462 177.658 207.699 177.857 207.854 178.116C208.008 178.375 208.069 178.679 208.027 178.977C207.775 180.667 207.809 182.388 208.128 184.067C208.186 184.361 208.142 184.666 208.003 184.932C207.864 185.197 207.639 185.408 207.365 185.529L203.846 187.089L205.983 191.904L209.48 190.362C209.754 190.241 210.061 190.216 210.35 190.291C210.64 190.366 210.896 190.536 211.076 190.775C212.114 192.16 213.381 193.357 214.823 194.315C215.074 194.482 215.261 194.729 215.352 195.016C215.444 195.302 215.435 195.612 215.328 195.893L213.979 199.412Z" fill="#F0874A"/>
<path d="M223.779 191.185C221.304 191.19 218.916 190.279 217.074 188.628C215.233 186.977 214.069 184.703 213.807 182.246C213.545 179.788 214.204 177.321 215.657 175.32C217.109 173.319 219.253 171.927 221.673 171.411C224.093 170.896 226.618 171.294 228.762 172.529C230.905 173.763 232.515 175.748 233.28 178.098C234.045 180.448 233.911 182.998 232.904 185.256C231.897 187.514 230.089 189.319 227.827 190.323C226.553 190.89 225.174 191.184 223.779 191.185ZM223.765 173.876C222.183 173.878 220.644 174.389 219.377 175.335C218.11 176.281 217.183 177.611 216.734 179.126C216.285 180.641 216.339 182.26 216.886 183.742C217.434 185.224 218.446 186.49 219.773 187.351C221.099 188.212 222.668 188.621 224.247 188.519C225.825 188.416 227.329 187.807 228.532 186.782C229.736 185.757 230.576 184.371 230.926 182.83C231.277 181.29 231.12 179.677 230.479 178.233C229.907 176.931 228.968 175.825 227.775 175.05C226.582 174.275 225.188 173.865 223.765 173.872V173.876Z" fill="#F0874A"/>
<path d="M47.7549 14.8918H45.413C45.061 14.8918 44.7235 14.7521 44.4746 14.5036C44.2257 14.255 44.0858 13.9178 44.0858 13.5663C44.0858 13.2148 44.2257 12.8777 44.4746 12.6291C44.7235 12.3805 45.061 12.2409 45.413 12.2409H47.7549C48.1069 12.2409 48.4445 12.3805 48.6934 12.6291C48.9422 12.8777 49.082 13.2148 49.082 13.5663C49.082 13.9178 48.9422 14.255 48.6934 14.5036C48.4445 14.7521 48.1069 14.8918 47.7549 14.8918Z" fill="#6D757D"/>
<path d="M138.467 14.8918H133.627C133.275 14.8918 132.938 14.7521 132.689 14.5036C132.44 14.255 132.3 13.9178 132.3 13.5663C132.3 13.2148 132.44 12.8777 132.689 12.6291C132.938 12.3805 133.275 12.2409 133.627 12.2409H138.467C138.819 12.2409 139.157 12.3805 139.406 12.6291C139.655 12.8777 139.794 13.2148 139.794 13.5663C139.794 13.9178 139.655 14.255 139.406 14.5036C139.157 14.7521 138.819 14.8918 138.467 14.8918ZM125.508 14.8918H120.668C120.316 14.8918 119.979 14.7521 119.73 14.5036C119.481 14.255 119.341 13.9178 119.341 13.5663C119.341 13.2148 119.481 12.8777 119.73 12.6291C119.979 12.3805 120.316 12.2409 120.668 12.2409H125.508C125.86 12.2409 126.198 12.3805 126.447 12.6291C126.696 12.8777 126.836 13.2148 126.836 13.5663C126.836 13.9178 126.696 14.255 126.447 14.5036C126.198 14.7521 125.86 14.8918 125.508 14.8918ZM112.55 14.8918H107.709C107.357 14.8918 107.02 14.7521 106.771 14.5036C106.522 14.255 106.382 13.9178 106.382 13.5663C106.382 13.2148 106.522 12.8777 106.771 12.6291C107.02 12.3805 107.357 12.2409 107.709 12.2409H112.55C112.901 12.2409 113.239 12.3805 113.488 12.6291C113.737 12.8777 113.877 13.2148 113.877 13.5663C113.877 13.9178 113.737 14.255 113.488 14.5036C113.239 14.7521 112.901 14.8918 112.55 14.8918ZM99.5906 14.8918H94.7505C94.3986 14.8918 94.061 14.7521 93.8121 14.5036C93.5633 14.255 93.4234 13.9178 93.4234 13.5663C93.4234 13.2148 93.5633 12.8777 93.8121 12.6291C94.061 12.3805 94.3986 12.2409 94.7505 12.2409H99.5906C99.9426 12.2409 100.28 12.3805 100.529 12.6291C100.778 12.8777 100.918 13.2148 100.918 13.5663C100.918 13.9178 100.778 14.255 100.529 14.5036C100.28 14.7521 99.9426 14.8918 99.5906 14.8918ZM86.6317 14.8918H81.7916C81.4396 14.8918 81.1021 14.7521 80.8532 14.5036C80.6043 14.255 80.4645 13.9178 80.4645 13.5663C80.4645 13.2148 80.6043 12.8777 80.8532 12.6291C81.1021 12.3805 81.4396 12.2409 81.7916 12.2409H86.6317C86.9837 12.2409 87.3212 12.3805 87.5701 12.6291C87.819 12.8777 87.9588 13.2148 87.9588 13.5663C87.9588 13.9178 87.819 14.255 87.5701 14.5036C87.3212 14.7521 86.9837 14.8918 86.6317 14.8918ZM73.6728 14.8918H68.8327C68.4807 14.8918 68.1432 14.7521 67.8943 14.5036C67.6454 14.255 67.5056 13.9178 67.5056 13.5663C67.5056 13.2148 67.6454 12.8777 67.8943 12.6291C68.1432 12.3805 68.4807 12.2409 68.8327 12.2409H73.6728C74.0248 12.2409 74.3623 12.3805 74.6112 12.6291C74.8601 12.8777 74.9999 13.2148 74.9999 13.5663C74.9999 13.9178 74.8601 14.255 74.6112 14.5036C74.3623 14.7521 74.0248 14.8918 73.6728 14.8918ZM60.7139 14.8918H55.8738C55.5218 14.8918 55.1843 14.7521 54.9354 14.5036C54.6865 14.255 54.5467 13.9178 54.5467 13.5663C54.5467 13.2148 54.6865 12.8777 54.9354 12.6291C55.1843 12.3805 55.5218 12.2409 55.8738 12.2409H60.7139C61.0659 12.2409 61.4034 12.3805 61.6523 12.6291C61.9012 12.8777 62.041 13.2148 62.041 13.5663C62.041 13.9178 61.9012 14.255 61.6523 14.5036C61.4034 14.7521 61.0659 14.8918 60.7139 14.8918Z" fill="#6D757D"/>
<path d="M148.85 17.3087C148.498 17.3083 148.161 17.1686 147.912 16.9201C147.663 16.6716 147.523 16.3347 147.523 15.9833V14.8918H146.43C146.078 14.8918 145.74 14.7521 145.492 14.5036C145.243 14.255 145.103 13.9178 145.103 13.5663C145.103 13.2148 145.243 12.8777 145.492 12.6291C145.74 12.3805 146.078 12.2409 146.43 12.2409H148.85C149.202 12.2409 149.54 12.3805 149.788 12.6291C150.037 12.8777 150.177 13.2148 150.177 13.5663V15.9833C150.177 16.3348 150.037 16.672 149.788 16.9205C149.54 17.1691 149.202 17.3087 148.85 17.3087Z" fill="#6D757D"/>
<path d="M148.85 28.8479C148.498 28.8475 148.161 28.7077 147.912 28.4592C147.663 28.2107 147.523 27.8738 147.523 27.5224V23.1563C147.523 22.8047 147.663 22.4676 147.912 22.219C148.16 21.9705 148.498 21.8308 148.85 21.8308C149.202 21.8308 149.539 21.9705 149.788 22.219C150.037 22.4676 150.177 22.8047 150.177 23.1563V27.5224C150.177 27.874 150.037 28.2111 149.788 28.4597C149.539 28.7082 149.202 28.8479 148.85 28.8479Z" fill="#6D757D"/>
<path d="M148.85 38.3599C148.498 38.3595 148.161 38.2197 147.912 37.9712C147.663 37.7228 147.523 37.3859 147.523 37.0345V34.6954C147.523 34.3439 147.663 34.0068 147.912 33.7582C148.16 33.5096 148.498 33.37 148.85 33.37C149.202 33.37 149.539 33.5096 149.788 33.7582C150.037 34.0068 150.177 34.3439 150.177 34.6954V37.0345C150.177 37.386 150.037 37.7231 149.788 37.9717C149.539 38.2203 149.202 38.3599 148.85 38.3599Z" fill="#6D757D"/>
<path d="M71.565 177.921C71.2132 177.921 70.8759 177.781 70.6271 177.533C70.3783 177.284 70.2383 176.947 70.2379 176.596V174.257C70.2379 173.905 70.3777 173.568 70.6266 173.32C70.8755 173.071 71.213 172.931 71.565 172.931C71.917 172.931 72.2545 173.071 72.5034 173.32C72.7523 173.568 72.8921 173.905 72.8921 174.257V176.596C72.8921 176.947 72.7523 177.285 72.5034 177.533C72.2545 177.782 71.917 177.921 71.565 177.921Z" fill="#6D757D"/>
<path d="M71.565 191.8C71.2132 191.799 70.8759 191.659 70.6271 191.411C70.3783 191.162 70.2383 190.825 70.2379 190.474V185.328C70.2379 184.977 70.3777 184.64 70.6266 184.391C70.8755 184.142 71.213 184.003 71.565 184.003C71.917 184.003 72.2545 184.142 72.5034 184.391C72.7523 184.64 72.8921 184.977 72.8921 185.328V190.474C72.8921 190.826 72.7523 191.163 72.5034 191.411C72.2545 191.66 71.917 191.8 71.565 191.8Z" fill="#6D757D"/>
<path d="M73.8289 202.793H71.565C71.2132 202.792 70.8759 202.653 70.6271 202.404C70.3783 202.156 70.2383 201.819 70.2379 201.467V199.206C70.2379 198.855 70.3777 198.518 70.6266 198.269C70.8755 198.021 71.213 197.881 71.565 197.881C71.917 197.881 72.2545 198.021 72.5034 198.269C72.7523 198.518 72.8921 198.855 72.8921 199.206V200.142H73.8289C74.1809 200.142 74.5185 200.282 74.7673 200.53C75.0162 200.779 75.156 201.116 75.156 201.467C75.156 201.819 75.0162 202.156 74.7673 202.405C74.5185 202.653 74.1809 202.793 73.8289 202.793Z" fill="#6D757D"/>
<path d="M159.077 202.793H154.549C154.197 202.793 153.859 202.653 153.61 202.405C153.361 202.156 153.222 201.819 153.222 201.467C153.222 201.116 153.361 200.779 153.61 200.53C153.859 200.282 154.197 200.142 154.549 200.142H159.077C159.428 200.142 159.766 200.282 160.015 200.53C160.264 200.779 160.404 201.116 160.404 201.467C160.404 201.819 160.264 202.156 160.015 202.405C159.766 202.653 159.428 202.793 159.077 202.793ZM146.898 202.793H142.37C142.018 202.793 141.681 202.653 141.432 202.405C141.183 202.156 141.043 201.819 141.043 201.467C141.043 201.116 141.183 200.779 141.432 200.53C141.681 200.282 142.018 200.142 142.37 200.142H146.898C147.25 200.142 147.588 200.282 147.837 200.53C148.086 200.779 148.225 201.116 148.225 201.467C148.225 201.819 148.086 202.156 147.837 202.405C147.588 202.653 147.25 202.793 146.898 202.793ZM134.72 202.793H130.192C129.84 202.793 129.503 202.653 129.254 202.405C129.005 202.156 128.865 201.819 128.865 201.467C128.865 201.116 129.005 200.779 129.254 200.53C129.503 200.282 129.84 200.142 130.192 200.142H134.72C135.072 200.142 135.41 200.282 135.658 200.53C135.907 200.779 136.047 201.116 136.047 201.467C136.047 201.819 135.907 202.156 135.658 202.405C135.41 202.653 135.072 202.793 134.72 202.793ZM122.542 202.793H118.014C117.662 202.793 117.324 202.653 117.076 202.405C116.827 202.156 116.687 201.819 116.687 201.467C116.687 201.116 116.827 200.779 117.076 200.53C117.324 200.282 117.662 200.142 118.014 200.142H122.542C122.894 200.142 123.231 200.282 123.48 200.53C123.729 200.779 123.869 201.116 123.869 201.467C123.869 201.819 123.729 202.156 123.48 202.405C123.231 202.653 122.894 202.793 122.542 202.793ZM110.364 202.793H105.836C105.484 202.793 105.146 202.653 104.897 202.405C104.648 202.156 104.509 201.819 104.509 201.467C104.509 201.116 104.648 200.779 104.897 200.53C105.146 200.282 105.484 200.142 105.836 200.142H110.364C110.715 200.142 111.053 200.282 111.302 200.53C111.551 200.779 111.691 201.116 111.691 201.467C111.691 201.819 111.551 202.156 111.302 202.405C111.053 202.653 110.715 202.793 110.364 202.793ZM98.1853 202.793H93.6575C93.3055 202.793 92.968 202.653 92.7191 202.405C92.4702 202.156 92.3303 201.819 92.3303 201.467C92.3303 201.116 92.4702 200.779 92.7191 200.53C92.968 200.282 93.3055 200.142 93.6575 200.142H98.1853C98.5372 200.142 98.8748 200.282 99.1237 200.53C99.3726 200.779 99.5124 201.116 99.5124 201.467C99.5124 201.819 99.3726 202.156 99.1237 202.405C98.8748 202.653 98.5372 202.793 98.1853 202.793ZM86.007 202.793H81.4792C81.1272 202.793 80.7897 202.653 80.5408 202.405C80.2919 202.156 80.1521 201.819 80.1521 201.467C80.1521 201.116 80.2919 200.779 80.5408 200.53C80.7897 200.282 81.1272 200.142 81.4792 200.142H86.007C86.359 200.142 86.6966 200.282 86.9455 200.53C87.1943 200.779 87.3341 201.116 87.3341 201.467C87.3341 201.819 87.1943 202.156 86.9455 202.405C86.6966 202.653 86.359 202.793 86.007 202.793Z" fill="#6D757D"/>
<path d="M169.303 202.793H166.883C166.531 202.793 166.194 202.653 165.945 202.405C165.696 202.156 165.556 201.819 165.556 201.467C165.556 201.116 165.696 200.779 165.945 200.53C166.194 200.282 166.531 200.142 166.883 200.142H167.976V199.206C167.976 198.855 168.116 198.518 168.365 198.269C168.614 198.021 168.951 197.881 169.303 197.881C169.655 197.881 169.993 198.021 170.242 198.269C170.49 198.518 170.63 198.855 170.63 199.206V201.467C170.63 201.819 170.49 202.156 170.242 202.405C169.993 202.653 169.655 202.793 169.303 202.793Z" fill="#6D757D"/>
<path d="M169.303 193.047C168.951 193.047 168.614 192.907 168.365 192.658C168.117 192.41 167.977 192.073 167.976 191.722V189.383C167.976 189.031 168.116 188.694 168.365 188.445C168.614 188.197 168.951 188.057 169.303 188.057C169.655 188.057 169.993 188.197 170.242 188.445C170.491 188.694 170.63 189.031 170.63 189.383V191.722C170.63 192.073 170.491 192.41 170.242 192.659C169.993 192.907 169.655 193.047 169.303 193.047Z" fill="#6D757D"/>
</svg>
