<svg width="218" height="218" viewBox="0 0 218 218" fill="none" xmlns="http://www.w3.org/2000/svg">
<ellipse cx="133.367" cy="59.0392" rx="58.6666" ry="59.0391" fill="#F2F4F7"/>
<path d="M127.634 142.01C126.915 141.826 126.239 141.502 125.647 141.055C125.055 140.609 124.557 140.049 124.184 139.408L118.021 128.935C117.28 127.644 117.074 126.115 117.449 124.675C117.824 123.235 118.749 122 120.026 121.235L151.942 102.529C153.234 101.789 154.764 101.585 156.206 101.96C157.647 102.335 158.884 103.26 159.651 104.536C159.893 104.948 159.961 105.439 159.841 105.901C159.72 106.363 159.421 106.758 159.009 107C158.597 107.241 158.105 107.309 157.643 107.189C157.18 107.068 156.784 106.769 156.542 106.357C156.263 105.899 155.816 105.567 155.296 105.432C154.776 105.297 154.224 105.368 153.756 105.632L121.84 124.338C121.375 124.611 121.037 125.058 120.901 125.58C120.765 126.102 120.842 126.656 121.115 127.121L127.273 137.616C127.556 138.07 128.003 138.398 128.521 138.533C129.04 138.668 129.59 138.6 130.059 138.342L161.975 119.636C162.207 119.501 162.41 119.321 162.572 119.107C162.735 118.894 162.853 118.65 162.921 118.39C162.988 118.13 163.004 117.86 162.966 117.594C162.929 117.328 162.839 117.072 162.702 116.841C162.46 116.429 162.392 115.938 162.512 115.476C162.633 115.014 162.932 114.619 163.344 114.377C163.756 114.136 164.248 114.068 164.71 114.188C165.173 114.309 165.569 114.608 165.811 115.02C166.552 116.31 166.757 117.84 166.382 119.28C166.007 120.719 165.082 121.954 163.806 122.72L131.89 141.426C131.255 141.8 130.551 142.045 129.821 142.145C129.09 142.245 128.347 142.199 127.634 142.01Z" fill="#F0874A"/>
<path d="M168.795 104.03C168.796 103.668 168.905 103.316 169.108 103.018C169.312 102.719 169.599 102.488 169.935 102.355C170.27 102.222 170.637 102.192 170.99 102.269C171.342 102.347 171.663 102.528 171.912 102.79L187.364 119.386C187.566 119.604 187.711 119.868 187.786 120.155C187.861 120.443 187.865 120.744 187.796 121.033L187.333 122.937L200.59 133.016L203.355 130.197L193.111 117.081L191.205 117.561C190.899 117.643 190.577 117.643 190.271 117.561C189.966 117.479 189.687 117.319 189.462 117.095L173.998 100.465C173.837 100.292 173.712 100.089 173.63 99.8676C173.547 99.6461 173.509 99.4105 173.517 99.1743C173.525 98.9381 173.58 98.7058 173.678 98.4907C173.776 98.2757 173.916 98.0821 174.088 97.9209C174.261 97.7598 174.464 97.6343 174.685 97.5517C174.906 97.469 175.142 97.4307 175.378 97.4391C175.614 97.4475 175.846 97.5023 176.06 97.6004C176.275 97.6985 176.469 97.8381 176.63 98.011L191.349 113.839L193.357 113.324C193.695 113.236 194.051 113.25 194.381 113.363C194.711 113.476 195.001 113.683 195.215 113.959L207.168 129.249C207.436 129.595 207.57 130.027 207.544 130.465C207.517 130.903 207.333 131.316 207.026 131.628L202.082 136.647C201.774 136.967 201.361 137.165 200.919 137.206C200.477 137.247 200.035 137.127 199.674 136.869L184.222 125.098C183.945 124.886 183.736 124.599 183.619 124.271C183.501 123.943 183.481 123.587 183.561 123.248L184.069 121.128L169.28 105.198C168.981 104.881 168.809 104.465 168.795 104.03Z" fill="#F0874A"/>
<path d="M133.851 139.67C133.622 139.612 133.407 139.509 133.218 139.367C133.029 139.225 132.87 139.047 132.75 138.843L122.706 121.733C122.586 121.53 122.507 121.305 122.474 121.072C122.441 120.838 122.454 120.6 122.513 120.372C122.572 120.143 122.675 119.929 122.817 119.74C122.959 119.552 123.137 119.393 123.341 119.273C123.544 119.153 123.769 119.075 124.003 119.042C124.237 119.009 124.475 119.022 124.703 119.081C124.932 119.14 125.147 119.244 125.336 119.386C125.524 119.528 125.683 119.705 125.803 119.909L135.814 137.01C136.051 137.423 136.117 137.912 135.997 138.373C135.877 138.834 135.581 139.229 135.173 139.474C134.774 139.707 134.301 139.777 133.851 139.67Z" fill="#F0874A"/>
<path opacity="0.3" d="M149.781 103.916C149.781 103.916 155.189 101.213 156.675 104.536C158.162 107.86 163.319 114.383 163.319 114.383C163.319 114.383 165.759 121.584 161.475 122.231C157.191 122.877 132.75 138.843 132.75 138.843C132.75 138.843 124.697 142.361 124.184 139.408C123.671 136.456 118.023 128.924 118.023 128.924C118.023 128.924 117.033 122.793 122.706 121.733C128.38 120.673 149.781 103.916 149.781 103.916Z" fill="#F0874A"/>
<path d="M53.1403 180.661C51.0517 182.004 48.5729 182.608 46.1015 182.375C41.6524 181.702 34.0097 177.045 33.1468 176.506C32.8274 176.311 32.5776 176.02 32.4326 175.675C32.2877 175.33 32.255 174.948 32.3391 174.583L32.9383 171.98C33.0228 171.608 33.2242 171.273 33.5129 171.024C33.8016 170.774 34.1625 170.624 34.5428 170.594C34.8517 170.56 42.0472 169.937 44.4949 169.783C47.7085 169.569 47.5977 165.826 47.5905 165.791C47.4749 164.903 47.0488 164.084 46.3875 163.48C46.0392 163.175 45.6312 162.947 45.1894 162.808C44.7477 162.67 44.2819 162.626 43.8217 162.677C41.3415 162.797 34.1563 163.165 33.8515 163.183C33.4705 163.201 33.094 163.097 32.7763 162.886C32.4586 162.675 32.2163 162.369 32.0844 162.012L31.1558 159.516C31.0452 159.169 31.0432 158.797 31.15 158.449C31.2568 158.101 31.4673 157.794 31.7534 157.569C32.5354 156.921 39.5077 151.268 43.8547 150.058C46.3313 149.363 50.564 149.57 56.6273 154.497L56.7887 154.64C58.2473 156.034 59.6313 157.505 60.9351 159.045C61.1008 159.221 61.2291 159.429 61.3124 159.656C61.3957 159.883 61.4322 160.124 61.4198 160.366C61.4074 160.608 61.3463 160.844 61.2402 161.062C61.134 161.279 60.9851 161.473 60.8022 161.632C60.6194 161.79 60.4063 161.911 60.176 161.985C59.9456 162.059 59.7026 162.087 59.4616 162.065C59.2205 162.043 58.9864 161.973 58.7733 161.859C58.5601 161.744 58.3723 161.588 58.2211 161.399C56.7993 159.779 54.9895 157.805 54.5563 157.464L54.3525 157.293C49.2433 153.155 46.2011 153.166 44.865 153.583C42.2179 154.323 37.5605 157.682 35.0762 159.615L35.0649 159.595C37.3166 159.49 41.8609 159.281 43.6581 159.162C44.5982 159.077 45.5454 159.186 46.4415 159.481C47.3375 159.777 48.1632 160.253 48.8677 160.88C50.245 162.13 51.0994 163.854 51.2604 165.707C51.3718 168.517 49.7364 173.149 44.7661 173.394C42.9844 173.517 38.4745 173.876 36.1936 174.091C38.9135 175.684 43.9436 178.41 46.6883 178.794C50.4681 179.356 55.1366 174.901 56.5775 173.164C56.8881 172.796 57.332 172.567 57.8113 172.527C58.2907 172.486 58.7663 172.638 59.1335 172.948C59.5008 173.258 59.7296 173.702 59.7696 174.181C59.8096 174.66 59.6575 175.135 59.3469 175.503C57.5601 177.535 55.4658 179.276 53.1403 180.661Z" fill="#6D757D"/>
<path d="M145.124 199.968C143.841 200.744 142.472 201.367 141.045 201.825C138.563 202.51 134.336 202.312 128.283 197.38L128.117 197.253C126.658 195.858 125.274 194.387 123.97 192.847C123.815 192.669 123.696 192.462 123.621 192.238C123.545 192.014 123.515 191.777 123.531 191.541C123.547 191.305 123.61 191.074 123.715 190.862C123.821 190.65 123.967 190.461 124.145 190.305C124.324 190.149 124.531 190.03 124.755 189.955C124.98 189.879 125.217 189.849 125.453 189.865C125.689 189.881 125.92 189.943 126.132 190.048C126.344 190.153 126.533 190.299 126.689 190.477C128.106 192.113 129.916 194.087 130.3 194.456L130.498 194.618C135.613 198.766 138.65 198.745 139.996 198.322C142.643 197.582 147.296 194.239 149.784 192.29C147.527 192.386 142.988 192.604 141.191 192.723C140.251 192.806 139.304 192.696 138.409 192.401C137.513 192.106 136.687 191.631 135.981 191.006C134.605 189.749 133.752 188.02 133.593 186.163C133.472 183.358 135.097 178.732 140.077 178.482C141.875 178.363 146.369 177.999 148.655 177.795C145.936 176.202 140.911 173.485 138.161 173.091C134.412 172.538 129.722 176.978 128.272 178.722C128.118 178.903 127.93 179.053 127.718 179.163C127.506 179.272 127.275 179.338 127.038 179.358C126.801 179.378 126.562 179.352 126.335 179.279C126.108 179.207 125.897 179.091 125.716 178.937C125.534 178.784 125.384 178.596 125.275 178.384C125.166 178.173 125.099 177.942 125.08 177.705C125.06 177.467 125.087 177.229 125.159 177.002C125.232 176.775 125.348 176.565 125.502 176.383C125.773 176.056 132.205 168.51 138.721 169.486C143.174 170.144 150.813 174.817 151.67 175.346C151.99 175.543 152.24 175.835 152.386 176.182C152.531 176.528 152.565 176.911 152.483 177.278L151.878 179.872C151.794 180.244 151.594 180.579 151.307 180.83C151.019 181.081 150.659 181.234 150.279 181.267C149.98 181.296 142.769 181.915 140.327 182.078C137.104 182.298 137.229 186.02 137.226 186.061C137.342 186.949 137.768 187.768 138.429 188.372C138.777 188.676 139.185 188.905 139.627 189.043C140.069 189.181 140.535 189.226 140.995 189.174C143.475 189.055 150.67 188.681 150.965 188.668C151.345 188.649 151.721 188.75 152.039 188.958C152.358 189.166 152.602 189.469 152.736 189.825L153.671 192.33C153.801 192.681 153.818 193.064 153.721 193.426C153.624 193.788 153.417 194.11 153.128 194.35C150.596 196.409 147.921 198.286 145.124 199.968Z" fill="#6D757D"/>
<path d="M127.357 178.934C126.949 179.171 126.464 179.238 126.007 179.123L58.619 161.747C58.1563 161.627 57.7602 161.329 57.5178 160.918C57.2753 160.507 57.2064 160.016 57.3262 159.553C57.446 159.091 57.7446 158.694 58.1565 158.452C58.5684 158.209 59.0596 158.14 59.5223 158.259L126.894 175.606C127.24 175.694 127.553 175.884 127.79 176.151C128.028 176.418 128.181 176.75 128.229 177.104C128.277 177.458 128.218 177.819 128.059 178.14C127.901 178.461 127.651 178.727 127.34 178.905L127.357 178.934Z" fill="#6D757D"/>
<path d="M126.252 193.249C125.844 193.486 125.36 193.553 124.903 193.438L57.5159 176.087C57.2872 176.029 57.0723 175.926 56.8834 175.784C56.6946 175.643 56.5355 175.465 56.4153 175.262C56.295 175.059 56.216 174.835 56.1826 174.601C56.1493 174.368 56.1624 174.13 56.221 173.901C56.2797 173.672 56.3828 173.457 56.5246 173.269C56.6663 173.08 56.8438 172.92 57.047 172.8C57.2502 172.68 57.4751 172.601 57.7089 172.567C57.9426 172.533 58.1807 172.546 58.4094 172.605L125.783 189.911C126.244 190.036 126.636 190.338 126.875 190.751C127.113 191.164 127.179 191.654 127.056 192.116C127.006 192.349 126.908 192.57 126.77 192.764C126.632 192.959 126.456 193.124 126.252 193.249Z" fill="#6D757D"/>
<path opacity="0.43" d="M32.4817 159.105L45.5951 152.413C48.9364 153.313 52.0069 155.014 54.5401 157.369C58.4766 161.16 70.0763 162.338 70.0763 162.338L126.017 179.118C126.017 179.118 134.592 170.164 137.171 170.854C139.751 171.543 151.399 175.765 150.607 176.668C149.814 177.572 137.644 181.527 137.644 181.527L135.64 187.934L151.321 191.561L149.166 195.43L138.463 201.176L126.252 193.25L59.3366 175.509L52.5379 179.027L43.0309 179.265L35.0283 176.01L35.1524 172.447L47.6159 170.502L48.5649 160.766L44.6825 159.936L33.8116 161.408L32.4817 159.105Z" fill="#6D757D"/>
<path d="M96.2418 163.751L85.6152 171.642L93.2906 178.675L81.0317 188.748" stroke="white" stroke-width="5"/>
<path d="M92.8639 70.4216C92.8639 72.4814 91.8978 74.6113 89.8046 76.7311C87.7029 78.8595 84.5625 80.868 80.5239 82.5979C72.4539 86.0546 61.166 88.2414 48.5928 88.2414C36.0197 88.2414 24.7317 86.0546 16.6617 82.5979C12.6232 80.868 9.48278 78.8595 7.38111 76.7311C5.28789 74.6113 4.32178 72.4814 4.32178 70.4216C4.32178 68.3617 5.28789 66.2318 7.38111 64.112C9.48278 61.9836 12.6232 59.9751 16.6617 58.2452C24.7317 54.7885 36.0197 52.6017 48.5928 52.6017C61.166 52.6017 72.4539 54.7885 80.5239 58.2452C84.5625 59.9751 87.7029 61.9836 89.8046 64.112C91.8978 66.2318 92.8639 68.3617 92.8639 70.4216Z" fill="#FDF3ED" stroke="#F0874A" stroke-width="4"/>
<path d="M94.8639 90.2411C94.8639 101.187 74.1476 110.061 48.5928 110.061C23.038 110.061 2.32178 101.187 2.32178 90.2411" stroke="#F0874A" stroke-width="4"/>
<path d="M94.8639 110.061C94.8639 121.007 74.1476 129.881 48.5928 129.881C23.038 129.881 2.32178 121.007 2.32178 110.061" stroke="#F0874A" stroke-width="4"/>
<path d="M63.567 40.2449L38.8099 69.8921L49.2018 76.9218L31.4746 100.762L56.5372 116.961L41.2551 137.439" stroke="white" stroke-width="8"/>
<path d="M129.481 61.0411L129.948 60.5751C142.26 60.3023 149.361 54.6073 149.361 45.4795C149.361 37.8293 143.387 31.3955 133.862 31.3955C126.397 31.3955 120.708 35.033 115.848 41.0008L112.435 38.2045C117.76 31.5774 124.099 27.1101 134.056 27.1101C146.334 27.1101 154.3 35.3627 154.3 45.4795C154.3 57.0285 145.344 63.1895 134.522 64.4968L133.68 76.1481H130.687L129.481 61.0411ZM129.106 85.2873H135.262V93.2444H129.106V85.2873Z" fill="#6D757D"/>
</svg>
