<svg width="247" height="172" viewBox="0 0 247 172" fill="none" xmlns="http://www.w3.org/2000/svg">
<path d="M232.404 156.841C232.289 156.842 232.174 156.82 232.067 156.776C231.96 156.732 231.863 156.667 231.781 156.586C231.699 156.504 231.634 156.407 231.59 156.3C231.546 156.193 231.524 156.078 231.525 155.963V138.82C231.525 138.587 231.617 138.364 231.782 138.199C231.947 138.034 232.171 137.942 232.404 137.942C232.638 137.942 232.861 138.034 233.026 138.199C233.191 138.364 233.284 138.587 233.284 138.82V155.968C233.282 156.2 233.189 156.422 233.024 156.586C232.859 156.75 232.637 156.841 232.404 156.841V156.841Z" fill="#6D757D"/>
<path d="M35.2035 37.0663L35.4317 36.8384C41.4545 36.7049 44.928 33.9192 44.928 29.4542C44.928 25.7121 42.0056 22.565 37.3465 22.565C33.695 22.565 30.9118 24.3443 28.5349 27.2635L26.865 25.8956C29.4701 22.654 32.5706 20.4688 37.4412 20.4688C43.4473 20.4688 47.3438 24.5055 47.3438 29.4542C47.3438 35.1035 42.963 38.1172 37.6694 38.7567L37.2575 44.456H35.7935L35.2035 37.0663ZM35.0198 48.9265H38.0312V52.8188H35.0198V48.9265Z" fill="#D2D8DD"/>
<path d="M115.915 68.4516L116.143 68.2236C122.166 68.0902 125.639 65.3044 125.639 60.8395C125.639 57.0974 122.717 53.9502 118.058 53.9502C114.406 53.9502 111.623 55.7296 109.246 58.6487L107.576 57.2809C110.181 54.0392 113.282 51.854 118.152 51.854C124.158 51.854 128.055 55.8908 128.055 60.8395C128.055 66.4888 123.674 69.5025 118.38 70.1419L117.969 75.8413H116.505L115.915 68.4516ZM115.731 80.3118H118.742V84.204H115.731V80.3118Z" fill="#F0874A"/>
<path d="M167.2 36.1823L167.328 36.0599C170.629 35.9821 172.382 34.6142 172.382 32.429C172.382 30.6052 170.957 29.1318 168.675 29.1318C166.793 29.1318 165.335 30.0214 164.055 31.5171L162.758 30.2772C163.448 29.3502 164.349 28.6001 165.387 28.0888C166.424 27.5774 167.568 27.3193 168.725 27.3358C172.148 27.3358 174.408 29.4654 174.408 32.4068C174.408 35.5762 172.026 37.1497 169.131 37.5557L168.875 40.2913H167.578L167.2 36.1823ZM167.049 42.6489H169.382V45.3123H167.049V42.6489Z" fill="#D2D8DD"/>
<path d="M110.011 11.7501L110.172 11.5889C114.314 11.4943 116.512 9.77619 116.512 7.03495C116.512 4.74409 114.731 2.89806 111.859 2.89806C109.504 2.89806 107.689 4.01013 106.064 5.88952L104.439 4.33263C106.253 2.1363 108.513 0.63501 111.926 0.63501C116.228 0.63501 119.062 3.30953 119.062 7.00159C119.062 10.9828 116.067 12.9567 112.438 13.4682L112.115 16.9045H110.489L110.011 11.7501ZM109.821 19.8626H112.755V23.1988H109.821V19.8626Z" fill="#D2D8DD"/>
<path d="M48.9804 85.1687C46.4644 85.1687 44.4215 82.9446 44.4215 80.1644C44.4215 77.3843 46.4644 75.1935 48.9804 75.1935C51.4964 75.1935 53.5393 77.4176 53.5393 80.1644C53.5393 82.9112 51.4964 85.1687 48.9804 85.1687ZM48.9804 76.9839C47.4385 76.9839 46.1972 78.424 46.1972 80.1922C46.1972 81.9604 47.4552 83.4061 48.9804 83.4061C50.5056 83.4061 51.7636 81.966 51.7636 80.1922C51.7636 78.4185 50.5223 76.9839 48.9804 76.9839Z" fill="#D2D8DD"/>
<path d="M59.6962 87.8599C59.5673 87.8589 59.4402 87.8304 59.3232 87.7765L51.5748 84.1511C51.3629 84.0479 51.2008 83.8649 51.1241 83.6422C51.0474 83.4196 51.0623 83.1756 51.1657 82.964C51.269 82.7524 51.4523 82.5904 51.6751 82.5138C51.898 82.4372 52.1422 82.4521 52.3541 82.5553L60.1025 86.1807C60.2761 86.2708 60.415 86.4158 60.4973 86.5931C60.5796 86.7704 60.6008 86.97 60.5576 87.1606C60.5143 87.3512 60.4091 87.5221 60.2582 87.6466C60.1074 87.7712 59.9195 87.8422 59.724 87.8488L59.6962 87.8599Z" fill="#D2D8DD"/>
<path d="M67.0601 143.285C66.8485 143.285 66.6442 143.208 66.4847 143.069C66.3252 142.93 66.2212 142.738 66.1917 142.529L61.6774 110.869L61.7998 110.624C61.8444 110.541 62.8296 108.567 63.5421 107.349C63.5989 107.247 63.6755 107.157 63.7675 107.084C63.8595 107.012 63.965 106.959 64.0779 106.928C64.1908 106.897 64.3087 106.888 64.4249 106.903C64.541 106.919 64.6529 106.957 64.7541 107.015C64.8552 107.074 64.9436 107.153 65.0141 107.246C65.0845 107.34 65.1355 107.446 65.1642 107.56C65.1928 107.673 65.1985 107.791 65.1809 107.907C65.1634 108.022 65.1228 108.133 65.0617 108.233C64.5051 109.162 63.787 110.596 63.4976 111.163L67.9507 142.301C67.9826 142.532 67.9221 142.766 67.7825 142.952C67.6428 143.138 67.4353 143.262 67.2048 143.296L67.0601 143.285Z" fill="#D2D8DD"/>
<path d="M57.3638 144.536C57.1222 144.515 56.8974 144.404 56.7343 144.225C56.5713 144.045 56.482 143.811 56.4843 143.569C56.4843 143.335 56.5511 120.521 56.3507 112.064L54.3301 108.172C54.2322 107.967 54.2172 107.732 54.2882 107.516C54.3591 107.3 54.5106 107.119 54.7111 107.012C54.9117 106.905 55.1459 106.879 55.3652 106.939C55.5845 107 55.7719 107.143 55.8887 107.338L58.1153 111.552V111.803C58.3157 120.115 58.2544 143.369 58.2544 143.602C58.2482 143.84 58.1537 144.068 57.9891 144.241C57.8246 144.413 57.6017 144.519 57.3638 144.536V144.536Z" fill="#D2D8DD"/>
<path d="M24.1156 170.926C24.0019 170.928 23.8889 170.907 23.7835 170.865C23.6781 170.822 23.5825 170.759 23.5023 170.678C23.4222 170.597 23.3592 170.502 23.3173 170.396C23.2754 170.29 23.2553 170.177 23.2584 170.064C23.2584 169.691 24.3048 132.904 25.3569 119.465C25.7688 114.171 27.6224 110.768 37.0185 105.686C37.3803 105.492 38.1318 105.086 38.9834 104.574C41.0374 103.407 43.8429 101.794 44.9117 101.333C45.1242 101.236 45.3665 101.228 45.5852 101.31C45.8039 101.391 45.9811 101.557 46.0778 101.769C46.1745 101.981 46.1828 102.223 46.1009 102.442C46.0189 102.66 45.8534 102.837 45.6409 102.934C44.6445 103.384 41.7444 105.025 39.8518 106.109L37.859 107.221C28.3628 112.359 27.4387 115.461 27.1103 119.604C26.0638 133.004 25.0285 169.725 25.0229 170.097C25.0209 170.212 24.9955 170.325 24.9482 170.43C24.9009 170.535 24.8327 170.629 24.7478 170.707C24.6629 170.784 24.563 170.844 24.4543 170.881C24.3456 170.919 24.2303 170.934 24.1156 170.926V170.926Z" fill="#6D757D"/>
<path d="M123.047 162.029C122.931 162.03 122.817 162.007 122.71 161.963C122.603 161.919 122.506 161.855 122.424 161.773L119.958 159.31L113.935 160.945C113.763 160.998 113.578 160.998 113.406 160.945L92.8827 153.505C92.7432 153.455 92.6189 153.369 92.5215 153.258C92.4242 153.146 92.3569 153.011 92.3261 152.866C92.2426 152.493 84.3272 116.24 80.709 108.35C75.5267 105.486 66.1084 102.128 66.0137 102.094C65.7931 102.02 65.6109 101.861 65.5067 101.653C65.4024 101.444 65.3846 101.204 65.4571 100.982C65.4929 100.872 65.5503 100.771 65.6259 100.683C65.7014 100.595 65.7937 100.523 65.8973 100.472C66.0009 100.42 66.1137 100.389 66.2293 100.381C66.3448 100.374 66.4608 100.389 66.5704 100.426C66.9767 100.571 76.5287 103.979 81.7833 106.943C81.9407 107.028 82.0673 107.16 82.1451 107.321C85.613 114.483 92.905 147.439 93.907 152.004L113.723 159.155L119.974 157.486C120.124 157.446 120.281 157.446 120.431 157.486C120.58 157.526 120.717 157.605 120.826 157.714L123.654 160.534C123.736 160.615 123.801 160.712 123.846 160.819C123.89 160.926 123.913 161.041 123.913 161.156C123.913 161.272 123.89 161.387 123.846 161.493C123.801 161.6 123.736 161.697 123.654 161.779C123.492 161.938 123.274 162.028 123.047 162.029V162.029Z" fill="#6D757D"/>
<path d="M71.6691 75.9274C71.5574 75.9359 71.4451 75.9211 71.3393 75.8841C71.2335 75.8471 71.1365 75.7887 71.0545 75.7124C70.9724 75.6362 70.907 75.5438 70.8624 75.4411C70.8178 75.3384 70.7949 75.2276 70.7952 75.1156C70.7952 67.9539 69.8433 65.8966 69.8322 65.8744C69.7316 65.6692 69.7161 65.4326 69.789 65.2161C69.862 64.9995 70.0175 64.8205 70.2219 64.7178C70.4275 64.6138 70.6657 64.5946 70.8854 64.6642C71.105 64.7339 71.2885 64.8869 71.3964 65.0903C71.5188 65.3183 72.582 67.4813 72.5542 75.0989C72.5553 75.2128 72.5327 75.3257 72.4879 75.4304C72.443 75.5351 72.3769 75.6294 72.2937 75.7073C72.2105 75.7851 72.1121 75.8449 72.0045 75.8828C71.897 75.9207 71.7828 75.9359 71.6691 75.9274V75.9274Z" fill="#6D757D"/>
<path d="M62.2009 104.836C61.9835 104.837 61.7733 104.758 61.6109 104.613C61.4372 104.457 61.3326 104.238 61.3201 104.004C61.3076 103.771 61.3881 103.542 61.5441 103.368C62.6038 102.211 63.8754 101.267 65.2903 100.588C65.0856 98.4327 65.0391 96.2658 65.1511 94.1042V93.6093L65.5853 93.3758C68.5522 91.7688 70.5115 90.7068 70.5115 83.0391C70.5115 82.8061 70.6042 82.5827 70.7691 82.4179C70.9341 82.2531 71.1578 82.1606 71.391 82.1606C71.6243 82.1606 71.848 82.2531 72.0129 82.4179C72.1779 82.5827 72.2705 82.8061 72.2705 83.0391C72.2705 90.9959 70.2277 92.8142 66.8656 94.6825C66.7733 96.7961 66.8477 98.9137 67.0882 101.016L67.1829 101.716L66.5149 101.961C65.113 102.545 63.8555 103.427 62.8299 104.546C62.7508 104.635 62.654 104.707 62.5457 104.757C62.4375 104.807 62.3201 104.833 62.2009 104.836V104.836Z" fill="#6D757D"/>
<path d="M44.8611 75.7439C44.6411 75.7435 44.4292 75.6613 44.2666 75.5133C44.104 75.3652 44.0024 75.162 43.9816 74.9432C43.9816 74.6596 43.3916 67.9428 46.275 63.1609C47.9193 60.6273 50.3103 58.666 53.1179 57.5475C55.9256 56.4291 59.0116 56.2086 61.95 56.9166C66.9598 58.1288 70.7839 61.8264 71.7357 66.3414L71.7914 66.5916L71.6968 66.8363C70.2996 70.4727 66.7482 70.2114 62.6291 69.9111C61.2765 69.811 59.8459 69.7054 58.3597 69.7054C57.1072 69.7054 56.1832 69.9945 55.621 70.5728C55.2599 70.9473 55.0447 71.4383 55.0143 71.9573C55.018 72.0726 54.9986 72.1875 54.9573 72.2952C54.9161 72.403 54.8537 72.5014 54.7739 72.5848C54.694 72.6681 54.5984 72.7348 54.4924 72.7807C54.3865 72.8267 54.2725 72.8511 54.157 72.8526V72.8526C53.9286 72.8556 53.7082 72.7685 53.5436 72.6103C53.379 72.4521 53.2834 72.2355 53.2775 72.0074C53.2918 71.0079 53.6904 70.0523 54.3908 69.3384C55.2926 68.4098 56.6174 67.9428 58.3875 67.9428C59.9628 67.9428 61.4657 68.054 62.7905 68.1541C66.9375 68.4599 69.0416 68.5155 69.9823 66.4415C69.0527 62.7606 65.7129 59.6356 61.5381 58.6237C58.9633 57.9975 56.2576 58.1849 53.7939 59.1599C51.3303 60.1349 49.2303 61.8495 47.7835 64.0672C45.2007 68.3542 45.7295 74.7208 45.7351 74.782C45.7458 74.897 45.7337 75.013 45.6995 75.1234C45.6653 75.2337 45.6096 75.3363 45.5356 75.4251C45.4617 75.5139 45.371 75.5873 45.2686 75.6411C45.1662 75.6948 45.0542 75.7279 44.9391 75.7384L44.8611 75.7439Z" fill="#6D757D"/>
<path d="M45.0564 103.151C44.8532 103.163 44.6521 103.104 44.4874 102.984C44.3228 102.865 44.2048 102.692 44.1535 102.495C44.1023 102.298 44.121 102.09 44.2065 101.905C44.292 101.721 44.4389 101.571 44.6222 101.483L47.4054 99.9259L47.6893 84.2458C47.7107 84.0241 47.815 83.8187 47.9814 83.6705C48.1479 83.5223 48.3641 83.4424 48.587 83.4466C48.8099 83.4508 49.023 83.5389 49.1837 83.6932C49.3444 83.8476 49.4409 84.0568 49.4538 84.2792L49.1477 100.96L45.5017 103.006C45.3696 103.095 45.2154 103.145 45.0564 103.151Z" fill="#6D757D"/>
<path d="M85.3681 164.515C85.2466 164.515 85.1264 164.49 85.0152 164.441C84.9039 164.392 84.8042 164.321 84.7224 164.231L80.581 159.755L71.8974 162.246C71.7895 162.279 71.6759 162.291 71.5635 162.279L37.5305 158.548C37.304 158.523 37.0962 158.411 36.9509 158.236C36.8055 158.06 36.7339 157.836 36.7512 157.609L39.1726 124.936C39.1965 124.709 39.3078 124.501 39.483 124.354C39.6582 124.208 39.8835 124.135 40.1113 124.152C40.3391 124.169 40.5514 124.273 40.7035 124.443C40.8555 124.613 40.9353 124.836 40.926 125.064L38.5714 156.891L71.5802 160.511L80.62 157.915C80.7772 157.871 80.9433 157.871 81.1004 157.915C81.2574 157.959 81.3994 158.046 81.5106 158.165L86.0138 163.041C86.1716 163.212 86.2548 163.439 86.2455 163.671C86.2361 163.904 86.1348 164.123 85.9638 164.281C85.8031 164.433 85.5895 164.517 85.3681 164.515V164.515Z" fill="#6D757D"/>
<path d="M63.2192 95.4108C61.5986 95.4368 60.0003 95.0319 58.588 94.2376C58.3857 94.1203 58.2384 93.9277 58.1783 93.7019C58.1183 93.4761 58.1505 93.2358 58.2679 93.0338C58.3853 92.8317 58.5782 92.6846 58.8042 92.6246C59.0302 92.5646 59.2708 92.5968 59.473 92.7141C62.3119 94.3822 65.7241 93.3201 65.7631 93.309C65.9845 93.2353 66.2262 93.2524 66.435 93.3567C66.6438 93.461 66.8025 93.6438 66.8763 93.865C66.9502 94.0862 66.933 94.3277 66.8286 94.5362C66.7242 94.7448 66.5411 94.9034 66.3197 94.9771C65.3119 95.2673 64.268 95.4134 63.2192 95.4108V95.4108Z" fill="#6D757D"/>
<path d="M203.492 149.813H110.344C106.732 149.813 102.524 146.794 102.524 142.907V98.3578C102.541 98.1362 102.642 97.9293 102.805 97.7784C102.969 97.6275 103.183 97.5438 103.406 97.5438C103.628 97.5438 103.843 97.6275 104.006 97.7784C104.17 97.9293 104.27 98.1362 104.288 98.3578V142.907C104.288 145.76 107.6 148.056 110.344 148.056H203.492C206.432 148.056 207.751 145.47 207.751 142.907V115.511C207.751 115.396 207.774 115.282 207.818 115.175C207.862 115.069 207.927 114.972 208.008 114.89C208.09 114.809 208.187 114.744 208.294 114.7C208.4 114.656 208.515 114.633 208.63 114.633C208.746 114.633 208.86 114.656 208.967 114.7C209.074 114.744 209.171 114.809 209.252 114.89C209.334 114.972 209.399 115.069 209.443 115.175C209.487 115.282 209.51 115.396 209.51 115.511V142.907C209.51 146.972 207.033 149.813 203.492 149.813Z" fill="#6D757D"/>
<path d="M156.779 120.621C155.796 120.621 154.835 120.33 154.018 119.785C153.2 119.239 152.563 118.463 152.187 117.556C151.811 116.649 151.712 115.65 151.904 114.687C152.096 113.724 152.569 112.839 153.264 112.145C153.96 111.451 154.845 110.978 155.81 110.786C156.774 110.594 157.773 110.693 158.682 111.069C159.59 111.444 160.366 112.081 160.912 112.897C161.459 113.714 161.75 114.674 161.75 115.656C161.747 116.972 161.223 118.233 160.291 119.164C159.359 120.094 158.097 120.618 156.779 120.621V120.621ZM156.779 112.448C156.144 112.448 155.523 112.636 154.995 112.988C154.467 113.341 154.055 113.842 153.812 114.428C153.569 115.014 153.505 115.66 153.629 116.282C153.753 116.904 154.059 117.476 154.508 117.925C154.957 118.373 155.53 118.679 156.153 118.803C156.776 118.926 157.422 118.863 158.008 118.62C158.595 118.377 159.097 117.966 159.45 117.438C159.803 116.911 159.991 116.291 159.991 115.656C159.991 114.805 159.653 113.989 159.05 113.387C158.448 112.786 157.631 112.448 156.779 112.448Z" fill="#6D757D"/>
<path d="M169.004 163.008C168.77 163.008 168.547 162.915 168.382 162.751C168.217 162.586 168.124 162.362 168.124 162.129V149.813C168.142 149.592 168.242 149.385 168.406 149.234C168.569 149.083 168.784 148.999 169.006 148.999C169.229 148.999 169.443 149.083 169.607 149.234C169.77 149.385 169.871 149.592 169.889 149.813V162.129C169.887 162.363 169.793 162.586 169.627 162.751C169.462 162.915 169.237 163.008 169.004 163.008V163.008Z" fill="#6D757D"/>
<path d="M144.35 163.008C144.117 163.008 143.893 162.915 143.728 162.751C143.563 162.586 143.47 162.362 143.47 162.129V149.813C143.488 149.592 143.589 149.385 143.752 149.234C143.916 149.083 144.13 148.999 144.353 148.999C144.575 148.999 144.79 149.083 144.953 149.234C145.117 149.385 145.217 149.592 145.235 149.813V162.129C145.234 162.363 145.14 162.586 144.974 162.751C144.808 162.915 144.584 163.008 144.35 163.008V163.008Z" fill="#6D757D"/>
<path d="M132.661 169.797C132.427 169.797 132.204 169.704 132.039 169.54C131.874 169.375 131.781 169.151 131.781 168.918C131.76 167.918 131.94 166.924 132.309 165.994C132.677 165.064 133.228 164.216 133.929 163.502C134.63 162.787 135.467 162.219 136.39 161.832C137.314 161.444 138.305 161.245 139.307 161.245H144.79C144.911 161.236 145.034 161.251 145.149 161.291C145.265 161.331 145.371 161.394 145.46 161.477C145.55 161.56 145.622 161.66 145.671 161.772C145.72 161.884 145.745 162.005 145.745 162.127C145.745 162.249 145.72 162.369 145.671 162.481C145.622 162.593 145.55 162.693 145.46 162.776C145.371 162.859 145.265 162.922 145.149 162.962C145.034 163.002 144.911 163.017 144.79 163.008H139.307C138.534 163 137.769 163.148 137.055 163.444C136.342 163.741 135.697 164.178 135.157 164.731C134.618 165.283 134.197 165.939 133.919 166.659C133.641 167.379 133.512 168.147 133.54 168.918C133.54 169.151 133.447 169.375 133.282 169.54C133.117 169.704 132.894 169.797 132.661 169.797Z" fill="#6D757D"/>
<path d="M178.555 169.808C178.322 169.808 178.098 169.716 177.933 169.551C177.768 169.386 177.676 169.163 177.676 168.93C177.642 167.328 176.974 165.805 175.818 164.695C174.661 163.585 173.111 162.978 171.508 163.008H159.318C159.096 162.99 158.889 162.89 158.738 162.726C158.587 162.563 158.503 162.349 158.503 162.127C158.503 161.904 158.587 161.69 158.738 161.527C158.889 161.363 159.096 161.263 159.318 161.245H171.508C173.578 161.217 175.576 162.01 177.062 163.451C178.548 164.891 179.401 166.861 179.435 168.93C179.435 169.163 179.342 169.386 179.177 169.551C179.012 169.716 178.788 169.808 178.555 169.808V169.808Z" fill="#6D757D"/>
<path d="M242.969 171.365H0.831037C0.609146 171.347 0.402045 171.247 0.251014 171.084C0.099983 170.92 0.0161133 170.706 0.0161133 170.484C0.0161133 170.261 0.099983 170.047 0.251014 169.884C0.402045 169.721 0.609146 169.62 0.831037 169.602H242.969C243.191 169.62 243.398 169.721 243.55 169.884C243.701 170.047 243.784 170.261 243.784 170.484C243.784 170.706 243.701 170.92 243.55 171.084C243.398 171.247 243.191 171.347 242.969 171.365V171.365Z" fill="#6D757D"/>
<path d="M76.1113 80.3258C76.1135 80.4425 76.0924 80.5585 76.0492 80.6671C76.006 80.7756 75.9416 80.8744 75.8597 80.9578C75.7778 81.0411 75.6801 81.1073 75.5723 81.1525C75.4645 81.1977 75.3487 81.221 75.2318 81.221H67.3053C67.072 81.221 66.8483 81.1284 66.6834 80.9637C66.5184 80.7989 66.4258 80.5754 66.4258 80.3424V75.049C66.4258 74.816 66.5184 74.5925 66.6834 74.4278C66.8483 74.263 67.072 74.1705 67.3053 74.1705H75.2318C75.4651 74.1705 75.6888 74.263 75.8537 74.4278C76.0186 74.5925 76.1113 74.816 76.1113 75.049V80.3258ZM68.1848 79.4472H74.3468V75.9275H68.1848V79.4472Z" fill="#D2D8DD"/>
<path d="M64.2213 80.3258C64.2213 80.5588 64.1286 80.7822 63.9637 80.947C63.7988 81.1117 63.5751 81.2043 63.3418 81.2043H55.4153C55.182 81.2043 54.9583 81.1117 54.7934 80.947C54.6284 80.7822 54.5358 80.5588 54.5358 80.3258V75.049C54.5358 74.816 54.6284 74.5925 54.7934 74.4278C54.9583 74.263 55.182 74.1705 55.4153 74.1705H63.3418C63.5751 74.1705 63.7988 74.263 63.9637 74.4278C64.1286 74.5925 64.2213 74.816 64.2213 75.049V80.3258ZM56.3003 79.4472H62.4623V75.9275H56.3003V79.4472Z" fill="#D2D8DD"/>
<path d="M68.1791 75.9275H62.763C62.5298 75.9275 62.3061 75.835 62.1411 75.6702C61.9762 75.5055 61.8835 75.282 61.8835 75.049C61.8835 74.816 61.9762 74.5925 62.1411 74.4278C62.3061 74.263 62.5298 74.1705 62.763 74.1705H68.1791C68.4124 74.1705 68.6361 74.263 68.801 74.4278C68.966 74.5925 69.0586 74.816 69.0586 75.049C69.0586 75.282 68.966 75.5055 68.801 75.6702C68.6361 75.835 68.4124 75.9275 68.1791 75.9275V75.9275Z" fill="#D2D8DD"/>
<path d="M65.8408 167.406C65.7303 167.416 65.619 167.403 65.5139 167.368C65.4088 167.332 65.3123 167.275 65.2305 167.2C65.1488 167.126 65.0836 167.034 65.0391 166.933C64.9947 166.831 64.972 166.722 64.9724 166.611L65.0893 160.728C65.0921 160.617 65.1173 160.508 65.1634 160.407C65.2096 160.306 65.2758 160.215 65.358 160.14C65.4401 160.065 65.5366 160.008 65.6416 159.971C65.7466 159.935 65.8579 159.92 65.9688 159.927C66.084 159.927 66.1981 159.95 66.3042 159.995C66.4104 160.04 66.5065 160.105 66.5869 160.188C66.6673 160.27 66.7304 160.368 66.7724 160.475C66.8144 160.582 66.8346 160.697 66.8316 160.812L66.7203 166.65C66.7156 166.758 66.6886 166.865 66.6412 166.963C66.5937 167.06 66.5267 167.147 66.4443 167.218C66.3619 167.289 66.2658 167.342 66.162 167.374C66.0582 167.407 65.9489 167.418 65.8408 167.406V167.406Z" fill="#6D757D"/>
<path d="M109.582 166.294C109.484 166.293 109.386 166.278 109.293 166.249C109.072 166.175 108.89 166.016 108.785 165.808C108.681 165.6 108.663 165.359 108.736 165.137L110.745 159.255C110.819 159.033 110.978 158.851 111.187 158.746C111.396 158.642 111.637 158.625 111.859 158.699C112.08 158.772 112.263 158.931 112.368 159.139C112.472 159.348 112.489 159.589 112.415 159.811L110.411 165.682C110.356 165.859 110.246 166.013 110.097 166.123C109.947 166.233 109.767 166.293 109.582 166.294V166.294Z" fill="#6D757D"/>
<path d="M102.73 162.641C102.635 162.642 102.541 162.627 102.451 162.596C102.341 162.561 102.239 162.503 102.151 162.428C102.064 162.352 101.992 162.26 101.94 162.157C101.888 162.053 101.858 161.94 101.85 161.825C101.842 161.71 101.857 161.594 101.895 161.484L103.565 156.452C103.601 156.343 103.659 156.241 103.735 156.154C103.81 156.067 103.903 155.995 104.006 155.944C104.109 155.892 104.222 155.861 104.337 155.853C104.452 155.845 104.568 155.86 104.678 155.896C104.787 155.933 104.889 155.99 104.976 156.066C105.063 156.142 105.135 156.234 105.187 156.337C105.238 156.44 105.269 156.553 105.277 156.668C105.286 156.783 105.271 156.899 105.234 157.008L103.565 162.012C103.511 162.193 103.401 162.351 103.251 162.464C103.1 162.577 102.918 162.639 102.73 162.641V162.641Z" fill="#6D757D"/>
<path d="M62.3731 166.083H61.8165C61.5833 166.083 61.3595 165.99 61.1946 165.825C61.0297 165.661 60.937 165.437 60.937 165.204C60.937 164.971 61.0297 164.748 61.1946 164.583C61.3595 164.418 61.5833 164.326 61.8165 164.326H62.3731C62.6064 164.326 62.8301 164.418 62.995 164.583C63.16 164.748 63.2526 164.971 63.2526 165.204C63.2526 165.437 63.16 165.661 62.995 165.825C62.8301 165.99 62.6064 166.083 62.3731 166.083V166.083Z" fill="#6D757D"/>
<path d="M55.8604 166.294C55.6266 166.294 55.4023 166.202 55.2365 166.037C55.0707 165.872 54.9768 165.649 54.9753 165.415V160.8C54.993 160.579 55.0936 160.372 55.2571 160.221C55.4206 160.07 55.635 159.986 55.8576 159.986C56.0802 159.986 56.2946 160.07 56.4581 160.221C56.6216 160.372 56.7222 160.579 56.7399 160.8V165.415C56.7399 165.648 56.6472 165.872 56.4823 166.037C56.3174 166.201 56.0937 166.294 55.8604 166.294V166.294Z" fill="#6D757D"/>
<path d="M77.063 128.261H71.5746C71.3413 128.261 71.1176 128.169 70.9527 128.004C70.7877 127.839 70.6951 127.616 70.6951 127.383C70.6951 127.15 70.7877 126.926 70.9527 126.762C71.1176 126.597 71.3413 126.504 71.5746 126.504H77.063C77.2963 126.504 77.52 126.597 77.6849 126.762C77.8499 126.926 77.9425 127.15 77.9425 127.383C77.9425 127.616 77.8499 127.839 77.6849 128.004C77.52 128.169 77.2963 128.261 77.063 128.261Z" fill="#6D757D"/>
<path d="M49.014 76.9839C48.7984 76.9827 48.5906 76.903 48.4297 76.7597C48.2688 76.6163 48.1658 76.4193 48.14 76.2054C48.14 76.0497 46.4701 60.6365 58.7162 56.5274C58.9376 56.4537 59.1793 56.4708 59.3881 56.5751C59.5969 56.6794 59.7557 56.8622 59.8295 57.0834C59.9033 57.3047 59.8861 57.5461 59.7817 57.7547C59.6773 57.9632 59.4943 58.1218 59.2728 58.1955C48.3571 61.8375 49.8823 75.8551 49.899 75.9886C49.9122 76.1032 49.9026 76.2193 49.8709 76.3303C49.8391 76.4412 49.7858 76.5449 49.714 76.6352C49.6421 76.7256 49.5531 76.8009 49.4521 76.8569C49.3511 76.9129 49.2401 76.9485 49.1253 76.9616L49.014 76.9839Z" fill="#D2D8DD"/>
<path d="M118.366 93.1755C115.472 93.1744 112.598 92.7049 109.855 91.7854C106.408 90.6682 103.236 88.8359 100.548 86.4086L87.8286 89.7837C87.6559 89.8306 87.4729 89.8238 87.3042 89.7641C87.1355 89.7044 86.989 89.5947 86.8843 89.4497C86.7796 89.3046 86.7218 89.1312 86.7184 88.9524C86.7151 88.7736 86.7664 88.5981 86.8656 88.4492L94.3301 77.6789C92.1752 72.6215 91.7338 66.9992 93.0733 61.6681C94.4128 56.3371 97.4597 51.5893 101.75 48.1479C101.932 48.0005 102.166 47.9314 102.399 47.9559C102.633 47.9804 102.847 48.0965 102.994 48.2786C103.142 48.4607 103.211 48.694 103.186 48.927C103.162 49.1601 103.046 49.3739 102.863 49.5213C98.8099 52.7709 95.9513 57.273 94.7363 62.3209C93.5213 67.3689 94.0187 72.6769 96.1503 77.412C96.2124 77.5502 96.2378 77.7021 96.2242 77.8531C96.2105 78.004 96.1583 78.1489 96.0724 78.2738L89.6878 87.4873L100.565 84.6015C100.709 84.561 100.862 84.5592 101.007 84.5963C101.153 84.6334 101.286 84.708 101.394 84.8128C103.971 87.2237 107.051 89.0352 110.411 90.1173C115.363 91.754 120.7 91.8272 125.694 90.3269C130.689 88.8265 135.1 85.8256 138.327 81.7323C138.471 81.5487 138.682 81.4298 138.914 81.4016C139.145 81.3735 139.379 81.4384 139.563 81.5822C139.747 81.726 139.866 81.9368 139.894 82.1683C139.922 82.3998 139.857 82.633 139.713 82.8166C137.172 86.0446 133.93 88.6541 130.232 90.4486C126.534 92.243 122.477 93.1754 118.366 93.1755V93.1755Z" fill="#F0874A"/>
<path d="M193.629 110.057C193.407 110.039 193.2 109.939 193.049 109.775C192.898 109.612 192.814 109.398 192.814 109.175C192.814 108.953 192.898 108.739 193.049 108.576C193.2 108.412 193.407 108.312 193.629 108.294C196.536 108.34 199.423 107.808 202.122 106.729C204.821 105.65 207.278 104.045 209.35 102.008C211.422 99.9709 213.068 97.5423 214.191 94.8637C215.314 92.1851 215.893 89.31 215.893 86.4059C215.893 83.5018 215.314 80.6266 214.191 77.948C213.068 75.2694 211.422 72.8408 209.35 70.8037C207.278 68.7666 204.821 67.1617 202.122 66.0825C199.423 65.0033 196.536 64.4713 193.629 64.5176C193.395 64.5176 193.172 64.4251 193.007 64.2603C192.842 64.0956 192.749 63.8721 192.749 63.6391C192.749 63.4061 192.842 63.1826 193.007 63.0179C193.172 62.8531 193.395 62.7606 193.629 62.7606C196.738 62.7606 199.816 63.3722 202.688 64.5607C205.561 65.7491 208.17 67.491 210.369 69.6869C212.567 71.8829 214.311 74.4898 215.501 77.3589C216.69 80.228 217.303 83.3031 217.303 86.4087C217.303 89.5142 216.69 92.5893 215.501 95.4584C214.311 98.3275 212.567 100.934 210.369 103.13C208.17 105.326 205.561 107.068 202.688 108.257C199.816 109.445 196.738 110.057 193.629 110.057V110.057Z" fill="#6D757D"/>
<path d="M215.672 89.5614H212.154C211.921 89.5614 211.697 89.4688 211.532 89.3041C211.367 89.1393 211.275 88.9159 211.275 88.6829C211.275 88.4499 211.367 88.2264 211.532 88.0616C211.697 87.8969 211.921 87.8043 212.154 87.8043H215.672C215.905 87.8043 216.129 87.8969 216.294 88.0616C216.459 88.2264 216.551 88.4499 216.551 88.6829C216.551 88.9159 216.459 89.1393 216.294 89.3041C216.129 89.4688 215.905 89.5614 215.672 89.5614Z" fill="#6D757D"/>
<path d="M194.542 68.8936C194.309 68.8936 194.085 68.8011 193.92 68.6363C193.755 68.4716 193.662 68.2481 193.662 68.0151V64.4954C193.662 64.2624 193.755 64.039 193.92 63.8742C194.085 63.7094 194.309 63.6169 194.542 63.6169C194.775 63.6169 194.999 63.7094 195.164 63.8742C195.329 64.039 195.421 64.2624 195.421 64.4954V68.0151C195.421 68.2481 195.329 68.4716 195.164 68.6363C194.999 68.8011 194.775 68.8936 194.542 68.8936Z" fill="#6D757D"/>
<path d="M203.877 71.8405C203.676 71.8472 203.48 71.7844 203.32 71.6626C203.135 71.5215 203.014 71.313 202.983 71.0826C202.951 70.8523 203.013 70.619 203.153 70.4338L205.736 67.0253C205.877 66.8395 206.086 66.7172 206.317 66.6854C206.549 66.6536 206.783 66.7149 206.969 66.8557C207.155 66.9965 207.278 67.2054 207.309 67.4364C207.341 67.6673 207.28 67.9015 207.139 68.0873L204.556 71.4958C204.476 71.6007 204.374 71.6863 204.256 71.746C204.138 71.8057 204.009 71.838 203.877 71.8405V71.8405Z" fill="#6D757D"/>
<path d="M209.377 78.8577C209.177 78.8598 208.982 78.7941 208.825 78.6712C208.668 78.5483 208.557 78.3756 208.511 78.1815C208.465 77.9874 208.487 77.7834 208.572 77.6031C208.657 77.4228 208.802 77.277 208.981 77.1895L212.382 75.4881C212.486 75.4362 212.598 75.4053 212.714 75.3969C212.829 75.3885 212.945 75.403 213.055 75.4394C213.165 75.4758 213.267 75.5334 213.354 75.6091C213.442 75.6847 213.513 75.7768 213.565 75.8801C213.617 75.9834 213.648 76.0959 213.657 76.2112C213.665 76.3265 213.65 76.4423 213.614 76.5521C213.578 76.6618 213.52 76.7633 213.444 76.8507C213.368 76.9381 213.276 77.0098 213.173 77.0617L209.766 78.7631C209.645 78.8246 209.512 78.8569 209.377 78.8577V78.8577Z" fill="#6D757D"/>
<path d="M213.546 98.7636C213.345 98.7704 213.148 98.7075 212.989 98.5857L209.582 96.0057C209.49 95.936 209.413 95.8488 209.354 95.7492C209.296 95.6496 209.258 95.5394 209.242 95.425C209.226 95.3107 209.233 95.1943 209.262 95.0826C209.292 94.971 209.343 94.8661 209.412 94.7741C209.482 94.6821 209.57 94.6047 209.669 94.5464C209.769 94.4881 209.879 94.45 209.994 94.4342C210.108 94.4185 210.225 94.4254 210.337 94.4546C210.448 94.4839 210.553 94.5348 210.645 94.6045L214.052 97.1845C214.199 97.2955 214.307 97.4497 214.362 97.6254C214.416 97.8011 214.414 97.9894 214.356 98.1638C214.297 98.3382 214.185 98.4899 214.036 98.5976C213.887 98.7052 213.707 98.7633 213.523 98.7636H213.546Z" fill="#6D757D"/>
<path d="M204.812 106.203C204.649 106.204 204.489 106.159 204.35 106.073C204.212 105.988 204.1 105.865 204.027 105.72L202.324 102.317C202.219 102.108 202.201 101.866 202.275 101.645C202.348 101.423 202.507 101.24 202.716 101.135C202.925 101.031 203.167 101.013 203.389 101.087C203.611 101.16 203.794 101.319 203.899 101.527L205.602 104.93C205.654 105.033 205.685 105.146 205.693 105.261C205.701 105.376 205.686 105.492 205.649 105.601C205.613 105.711 205.555 105.812 205.479 105.899C205.403 105.986 205.311 106.058 205.207 106.109C205.085 106.172 204.949 106.205 204.812 106.203V106.203Z" fill="#6D757D"/>
<path d="M194.102 110.235C193.986 110.235 193.871 110.212 193.764 110.167C193.657 110.123 193.56 110.058 193.478 109.975C193.397 109.893 193.332 109.796 193.288 109.689C193.244 109.581 193.222 109.466 193.223 109.351V104.513C193.223 104.28 193.315 104.057 193.48 103.892C193.645 103.727 193.869 103.635 194.102 103.635C194.336 103.635 194.559 103.727 194.724 103.892C194.889 104.057 194.982 104.28 194.982 104.513V109.351C194.982 109.584 194.889 109.808 194.725 109.974C194.56 110.139 194.336 110.233 194.102 110.235V110.235Z" fill="#6D757D"/>
<path d="M194.007 92.6085C192.95 92.608 191.933 92.1994 191.169 91.4679C190.406 90.7364 189.955 89.7387 189.911 88.6829C189.87 87.5595 190.269 86.4644 191.024 85.6303L191.285 85.3579C191.356 85.2471 191.452 85.154 191.564 85.0854L201.199 79.1025C201.36 79.0029 201.548 78.9577 201.736 78.9734C201.925 78.9891 202.103 79.0649 202.245 79.1897C202.386 79.3144 202.484 79.4815 202.523 79.6661C202.563 79.8506 202.541 80.043 202.463 80.2146L198.127 89.6115C198.014 89.9288 197.866 90.2327 197.687 90.5178L197.642 90.579C197.523 90.7814 197.379 90.9681 197.214 91.135C196.814 91.5934 196.322 91.9617 195.769 92.2158C195.216 92.4698 194.616 92.6036 194.007 92.6085V92.6085ZM192.504 86.62C192.443 86.6773 192.385 86.7386 192.332 86.8035C191.882 87.2935 191.644 87.9409 191.67 88.6051C191.697 89.2055 191.955 89.7721 192.391 90.1865C192.827 90.601 193.406 90.8313 194.007 90.8292C194.364 90.8264 194.716 90.7481 195.041 90.5995C195.365 90.451 195.654 90.2355 195.889 89.9674C195.948 89.9021 196.004 89.8334 196.056 89.7616C196.091 89.6887 196.134 89.6198 196.184 89.5559C196.286 89.3797 196.37 89.1933 196.434 88.9999C196.445 88.9674 196.458 88.9358 196.473 88.9054L199.602 82.1329L192.716 86.4032V86.4366C192.656 86.5084 192.584 86.5703 192.504 86.62V86.62Z" fill="#6D757D"/>
<path d="M186.176 87.8043H162.402C162.18 87.7867 161.973 87.6862 161.822 87.5229C161.67 87.3595 161.587 87.1454 161.587 86.923C161.587 86.7007 161.67 86.4865 161.822 86.3231C161.973 86.1598 162.18 86.0593 162.402 86.0417H186.176C186.398 86.0593 186.605 86.1598 186.756 86.3231C186.907 86.4865 186.991 86.7007 186.991 86.923C186.991 87.1454 186.907 87.3595 186.756 87.5229C186.605 87.6862 186.398 87.7867 186.176 87.8043Z" fill="#6D757D"/>
<path d="M186.176 96.6008H171.208C170.986 96.5832 170.779 96.4827 170.628 96.3194C170.477 96.1561 170.393 95.9419 170.393 95.7195C170.393 95.4972 170.477 95.283 170.628 95.1196C170.779 94.9563 170.986 94.8558 171.208 94.8382H186.176C186.398 94.8558 186.605 94.9563 186.756 95.1196C186.907 95.283 186.991 95.4972 186.991 95.7195C186.991 95.9419 186.907 96.1561 186.756 96.3194C186.605 96.4827 186.398 96.5832 186.176 96.6008V96.6008Z" fill="#6D757D"/>
<path d="M186.175 79.4472H170.768C170.534 79.4472 170.311 79.3546 170.146 79.1899C169.981 79.0251 169.888 78.8017 169.888 78.5687C169.888 78.3357 169.981 78.1122 170.146 77.9474C170.311 77.7827 170.534 77.6901 170.768 77.6901H186.175C186.409 77.6901 186.632 77.7827 186.797 77.9474C186.962 78.1122 187.055 78.3357 187.055 78.5687C187.055 78.8017 186.962 79.0251 186.797 79.1899C186.632 79.3546 186.409 79.4472 186.175 79.4472V79.4472Z" fill="#6D757D"/>
<path d="M186.176 72.4133H177.826C177.604 72.3957 177.397 72.2952 177.246 72.1319C177.095 71.9685 177.011 71.7544 177.011 71.532C177.011 71.3097 177.095 71.0955 177.246 70.9321C177.397 70.7688 177.604 70.6683 177.826 70.6507H186.176C186.398 70.6683 186.605 70.7688 186.756 70.9321C186.907 71.0955 186.991 71.3097 186.991 71.532C186.991 71.7544 186.907 71.9685 186.756 72.1319C186.605 72.2952 186.398 72.3957 186.176 72.4133Z" fill="#6D757D"/>
<path d="M186.176 103.195H180.014C179.781 103.195 179.557 103.103 179.392 102.938C179.227 102.773 179.134 102.55 179.134 102.317C179.134 102.084 179.227 101.86 179.392 101.696C179.557 101.531 179.781 101.438 180.014 101.438H186.176C186.409 101.438 186.633 101.531 186.798 101.696C186.963 101.86 187.055 102.084 187.055 102.317C187.055 102.55 186.963 102.773 186.798 102.938C186.633 103.103 186.409 103.195 186.176 103.195V103.195Z" fill="#6D757D"/>
<path d="M214.158 70.2836C214.043 70.2835 213.929 70.2603 213.823 70.2154C213.717 70.1706 213.621 70.1049 213.54 70.0223L210.128 66.6194C209.965 66.4531 209.873 66.2295 209.873 65.9966C209.873 65.7638 209.965 65.5402 210.128 65.3739L213.05 62.4603C213.219 62.3027 213.44 62.215 213.671 62.215C213.902 62.215 214.123 62.3027 214.292 62.4603L217.704 65.8632C217.868 66.0288 217.961 66.2526 217.961 66.4859C217.961 66.7192 217.868 66.9431 217.704 67.1087L214.782 70.0223C214.7 70.1048 214.603 70.1703 214.496 70.2152C214.389 70.2601 214.274 70.2833 214.158 70.2836V70.2836ZM211.998 65.9966L214.158 68.1596L215.828 66.4915L213.668 64.3341L211.998 65.9966Z" fill="#6D757D"/>
<path d="M210.44 70.5951C210.267 70.5931 210.098 70.5403 209.954 70.4434C209.811 70.3465 209.699 70.2096 209.633 70.0498C209.566 69.8899 209.548 69.7142 209.581 69.5442C209.614 69.3743 209.695 69.2177 209.816 69.0938L211.52 67.3923C211.684 67.2272 211.908 67.1341 212.141 67.1335C212.375 67.133 212.599 67.2251 212.764 67.3895C212.929 67.554 213.022 67.7773 213.023 68.0103C213.023 68.2434 212.931 68.4671 212.767 68.6323L211.063 70.3337C210.982 70.4162 210.885 70.4818 210.778 70.5266C210.671 70.5715 210.556 70.5947 210.44 70.5951V70.5951Z" fill="#6D757D"/>
<path d="M27.2383 98.7971C27.1214 98.7971 27.0056 98.7738 26.8978 98.7286C26.79 98.6835 26.6923 98.6172 26.6104 98.5339C26.5285 98.4505 26.4641 98.3517 26.4209 98.2432C26.3777 98.1347 26.3566 98.0186 26.3588 97.9019V82.9668C26.3764 82.7452 26.477 82.5383 26.6406 82.3874C26.8041 82.2365 27.0185 82.1528 27.2411 82.1528C27.4637 82.1528 27.6781 82.2365 27.8416 82.3874C28.0051 82.5383 28.1057 82.7452 28.1234 82.9668V97.9019C28.1248 98.0189 28.103 98.1351 28.0592 98.2436C28.0154 98.3522 27.9504 98.4509 27.8681 98.5342C27.7858 98.6175 27.6877 98.6836 27.5796 98.7287C27.4715 98.7739 27.3555 98.7971 27.2383 98.7971V98.7971Z" fill="#6D757D"/>
<path d="M23.4309 85.7081L24.0766 86.3086L27.0324 83.1281L29.9881 86.3086L30.6338 85.7081L27.0324 81.8381L23.4309 85.7081Z" fill="#6D757D"/>
<path d="M224.478 140.577C224.245 140.577 224.021 140.485 223.856 140.32C223.691 140.155 223.599 139.932 223.599 139.699V123.869C223.599 123.753 223.621 123.639 223.665 123.532C223.71 123.426 223.774 123.329 223.856 123.247C223.938 123.166 224.035 123.101 224.141 123.057C224.248 123.013 224.362 122.99 224.478 122.99C224.593 122.99 224.708 123.013 224.815 123.057C224.921 123.101 225.018 123.166 225.1 123.247C225.182 123.329 225.246 123.426 225.291 123.532C225.335 123.639 225.358 123.753 225.358 123.869V139.699C225.358 139.932 225.265 140.155 225.1 140.32C224.935 140.485 224.711 140.577 224.478 140.577V140.577Z" fill="#F0874A"/>
<path d="M221.094 126.771L221.739 127.372L224.695 124.197L227.651 127.372L228.297 126.771L224.695 122.907L221.094 126.771Z" fill="#F0874A"/>
<path d="M227.696 42.1039C227.696 42.4099 227.605 42.709 227.434 42.9633C227.264 43.2176 227.022 43.4158 226.739 43.5326C226.456 43.6494 226.144 43.6797 225.844 43.6196C225.544 43.5595 225.268 43.4117 225.052 43.195C224.836 42.9783 224.689 42.7023 224.63 42.4021C224.571 42.1019 224.602 41.7909 224.72 41.5085C224.838 41.2262 225.037 40.9852 225.292 40.816C225.548 40.6468 225.847 40.5571 226.154 40.5582C226.357 40.5582 226.558 40.5982 226.745 40.676C226.932 40.7537 227.103 40.8676 227.246 41.0113C227.389 41.1549 227.503 41.3253 227.58 41.5128C227.657 41.7003 227.696 41.9012 227.696 42.1039Z" fill="#6D757D"/>
<path d="M246.827 121.255C246.828 121.561 246.738 121.861 246.569 122.116C246.4 122.37 246.158 122.569 245.876 122.687C245.593 122.805 245.282 122.837 244.981 122.778C244.681 122.719 244.404 122.572 244.187 122.356C243.97 122.14 243.822 121.864 243.762 121.564C243.702 121.264 243.732 120.953 243.849 120.671C243.966 120.388 244.165 120.146 244.419 119.976C244.674 119.806 244.973 119.715 245.28 119.715C245.689 119.715 246.082 119.877 246.372 120.166C246.662 120.454 246.826 120.846 246.827 121.255Z" fill="#6D757D"/>
<path d="M11.5408 146.227C11.5408 146.532 11.4501 146.831 11.2801 147.086C11.11 147.34 10.8683 147.538 10.5856 147.655C10.3028 147.772 9.99167 147.802 9.69149 147.743C9.39131 147.683 9.11558 147.536 8.89917 147.32C8.68275 147.104 8.53537 146.828 8.47566 146.528C8.41595 146.228 8.4466 145.918 8.56372 145.635C8.68084 145.353 8.87918 145.111 9.13366 144.941C9.38814 144.772 9.68732 144.681 9.99338 144.681C10.4038 144.681 10.7974 144.844 11.0876 145.134C11.3778 145.424 11.5408 145.817 11.5408 146.227Z" fill="#6D757D"/>
<path d="M66.9266 18.5114L61.644 13.5071L66.6538 8.22479L71.9419 13.2291L66.9266 18.5114ZM63.4865 13.4737L66.8264 16.6431L69.9992 13.3069L66.6594 10.132L63.4865 13.4737Z" fill="#6D757D"/>
<path d="M234.999 109.078L229.432 103.818L234.698 98.2578L240.265 103.518L234.999 109.078ZM231.286 103.763L234.949 107.21L238.4 103.557L234.743 100.126L231.286 103.763Z" fill="#F0874A"/>
<path d="M201.406 33.6022C201.277 33.6013 201.152 33.5627 201.045 33.4913C200.938 33.4198 200.854 33.3186 200.805 33.2002C200.755 33.0818 200.741 32.9514 200.765 32.8252C200.788 32.699 200.849 32.5825 200.938 32.4901L206.326 27.0966C206.387 27.0353 206.46 26.9866 206.54 26.9532C206.62 26.9199 206.705 26.9026 206.792 26.9023C206.878 26.9021 206.964 26.9189 207.044 26.9517C207.124 26.9846 207.197 27.0329 207.259 27.0938C207.32 27.1548 207.369 27.2273 207.402 27.3071C207.436 27.3869 207.453 27.4725 207.453 27.559C207.453 27.6454 207.437 27.7311 207.404 27.8111C207.371 27.8911 207.322 27.9639 207.261 28.0252L201.873 33.402C201.813 33.465 201.74 33.5152 201.66 33.5496C201.579 33.584 201.493 33.6019 201.406 33.6022V33.6022Z" fill="#6D757D"/>
<path d="M206.799 33.5968C206.623 33.5957 206.455 33.5258 206.331 33.4021L200.932 28.0253C200.864 27.9654 200.81 27.8923 200.772 27.8106C200.733 27.7289 200.712 27.6403 200.71 27.5502C200.707 27.46 200.723 27.3703 200.756 27.2865C200.79 27.2027 200.84 27.1266 200.903 27.0628C200.967 26.9991 201.044 26.949 201.127 26.9157C201.211 26.8824 201.301 26.8667 201.391 26.8693C201.482 26.872 201.57 26.893 201.652 26.9312C201.734 26.9693 201.807 27.0237 201.867 27.0911L207.266 32.468C207.353 32.5612 207.411 32.6775 207.434 32.8029C207.456 32.9283 207.441 33.0574 207.392 33.1748C207.343 33.2922 207.26 33.3929 207.155 33.4648C207.05 33.5367 206.926 33.5767 206.799 33.5801V33.5968Z" fill="#6D757D"/>
<path d="M3.92615 118.186C3.7976 118.185 3.67215 118.146 3.56534 118.075C3.45854 118.003 3.37507 117.902 3.3253 117.784C3.27552 117.665 3.26161 117.535 3.2853 117.409C3.30899 117.283 3.36924 117.166 3.45858 117.074L9.14187 111.38C9.26514 111.256 9.43263 111.186 9.60748 111.186C9.78234 111.185 9.95023 111.254 10.0742 111.377C10.1983 111.5 10.2682 111.668 10.2687 111.842C10.2693 112.017 10.2003 112.185 10.077 112.309L4.39373 118.002C4.26708 118.121 4.09976 118.187 3.92615 118.186V118.186Z" fill="#D2D8DD"/>
<path d="M9.60938 118.18C9.43423 118.178 9.2667 118.109 9.1418 117.986L3.44181 112.309C3.32959 112.183 3.26985 112.018 3.27482 111.85C3.27979 111.681 3.34909 111.521 3.46855 111.401C3.588 111.282 3.74858 111.213 3.91744 111.208C4.08631 111.203 4.25069 111.263 4.37696 111.375L10.077 117.052C10.1993 117.176 10.2679 117.344 10.2679 117.519C10.2679 117.693 10.1993 117.861 10.077 117.986C10.0158 118.048 9.94297 118.097 9.8627 118.13C9.78244 118.163 9.69634 118.181 9.60938 118.18V118.18Z" fill="#D2D8DD"/>
<path d="M194.542 61.415C194.309 61.415 194.085 61.3224 193.92 61.1577C193.755 60.9929 193.663 60.7694 193.663 60.5364V57.9008C193.662 57.785 193.684 57.6702 193.728 57.5629C193.772 57.4557 193.837 57.3582 193.918 57.276C194 57.1939 194.097 57.1287 194.204 57.0842C194.311 57.0397 194.426 57.0168 194.542 57.0168H198.066V53.9419H189.716C189.494 53.9243 189.287 53.8238 189.136 53.6604C188.985 53.4971 188.901 53.2829 188.901 53.0606C188.901 52.8382 188.985 52.624 189.136 52.4607C189.287 52.2974 189.494 52.1969 189.716 52.1793H198.962C199.195 52.1793 199.419 52.2718 199.584 52.4366C199.749 52.6013 199.841 52.8248 199.841 53.0578V57.9008C199.841 58.1338 199.749 58.3573 199.584 58.5221C199.419 58.6868 199.195 58.7794 198.962 58.7794H195.411V60.5364C195.411 60.7675 195.319 60.9893 195.157 61.1538C194.994 61.3182 194.773 61.412 194.542 61.415Z" fill="#6D757D"/>
<path opacity="0.1" d="M142.557 67.9664C142.557 81.5837 131.881 91.8759 118.255 91.8759C110.545 91.8759 105.708 90.458 101.182 84.9254C100.253 84.742 89.0811 88.6898 88.5634 87.8947C88.0457 87.0995 95.5715 78.2753 95.154 77.419C93.5565 74.1551 93.2058 71.8587 93.2058 67.9664C93.2058 61.4291 95.8055 55.1596 100.433 50.537C105.061 45.9144 111.337 43.3175 117.882 43.3175C124.426 43.3175 130.702 45.9144 135.33 50.537C139.958 55.1596 142.557 61.4291 142.557 67.9664V67.9664Z" fill="#F0874A"/>
</svg>
