<svg width="131" height="24" viewBox="0 0 131 24" fill="none" xmlns="http://www.w3.org/2000/svg">
<path d="M12.9302 16.629C12.3599 17.4337 11.5278 18.0547 10.4341 18.4922C9.34814 18.9219 8.10596 19.129 6.70752 19.1133C5.59033 19.0899 4.61377 18.8282 3.77783 18.3282C2.94189 17.8282 2.28564 17.1133 1.80908 16.1837C1.33252 15.2462 1.05908 14.1837 0.98877 12.9962C0.934082 12.0665 1.04736 10.8087 1.32861 9.22272C1.61768 7.63678 2.11768 6.26569 2.82861 5.10944C3.53955 3.95319 4.42627 3.07037 5.48877 2.461C6.55908 1.85162 7.78174 1.55865 9.15674 1.58209C10.7427 1.61334 12.0044 2.086 12.9419 3.00006C13.8872 3.90631 14.4263 5.18365 14.5591 6.83209H12.3794C12.2935 5.75397 11.9692 4.92584 11.4067 4.34772C10.8442 3.76959 10.0669 3.4649 9.07471 3.43365C7.60596 3.37897 6.37549 3.90631 5.3833 5.01569C4.39893 6.12506 3.75049 7.74615 3.43799 9.87897L3.21533 11.5196L3.18018 12.4102C3.18018 13.9493 3.49658 15.1407 4.12939 15.9844C4.76221 16.8204 5.64893 17.2462 6.78955 17.2618C8.43799 17.3008 9.74658 16.8946 10.7153 16.043L11.4185 12.211H7.57471L7.90283 10.3829H13.9028L12.9302 16.629ZM22.8794 5.9649C23.9419 5.98053 24.8521 6.26959 25.6099 6.83209C26.3677 7.39459 26.9263 8.17194 27.2856 9.16412C27.6528 10.1485 27.7778 11.2266 27.6606 12.3985L27.6372 12.6563C27.4888 13.8907 27.1216 15.0079 26.5356 16.0079C25.9497 17.0001 25.1919 17.7735 24.2622 18.3282C23.3325 18.8829 22.313 19.1446 21.2036 19.1133C20.1489 19.0977 19.2388 18.8087 18.4731 18.2462C17.7153 17.6837 17.1606 16.918 16.8091 15.9493C16.4575 14.9805 16.3325 13.9141 16.4341 12.7501C16.5513 11.4376 16.9067 10.2579 17.5005 9.211C18.0942 8.16412 18.856 7.35553 19.7856 6.78522C20.7231 6.20709 21.7544 5.93365 22.8794 5.9649ZM18.5669 12.7618C18.5122 13.254 18.5122 13.7657 18.5669 14.2969C18.645 15.2188 18.9185 15.9532 19.3872 16.5001C19.8638 17.0469 20.4966 17.3321 21.2856 17.3555C21.9888 17.379 22.6372 17.2071 23.231 16.8399C23.8247 16.4649 24.3247 15.9024 24.731 15.1524C25.1372 14.4024 25.3989 13.5704 25.5161 12.6563C25.5786 11.9376 25.5903 11.3321 25.5513 10.8399C25.4575 9.89459 25.1724 9.1485 24.6958 8.60162C24.2192 8.05475 23.5864 7.76569 22.7974 7.73444C21.7036 7.711 20.7739 8.14069 20.0083 9.0235C19.2427 9.90631 18.77 11.0626 18.5903 12.4922L18.5669 12.7618Z" fill="#35A700"/>
<path d="M40.3872 11.4844H33.8481L33.0513 16.0547H40.7388L40.2466 18.879H29.1255L32.0903 1.81647H43.188L42.6841 4.66412H35.0317L34.3169 8.73053H40.8794L40.3872 11.4844ZM48.2388 9.961L50.8989 6.19928H54.6138L50.02 12.5743L52.5864 18.879H49.2349L47.6763 14.918L44.8755 18.879H41.1372L45.9185 12.2462L43.4692 6.19928H46.8208L48.2388 9.961ZM59.4302 16.3946C60.0396 16.4102 60.5474 16.2462 60.9536 15.9024C61.3599 15.5508 61.6255 15.086 61.7505 14.5079L64.856 14.4962C64.8013 15.3868 64.52 16.1876 64.0122 16.8985C63.5122 17.6094 62.8403 18.1641 61.9966 18.5626C61.1606 18.961 60.2778 19.1485 59.3481 19.1251C57.8091 19.1016 56.5903 18.5704 55.6919 17.5313C54.7935 16.4922 54.3599 15.1094 54.3911 13.3829L54.4263 12.7383L54.438 12.6094C54.6489 10.5469 55.3442 8.91412 56.5239 7.711C57.7036 6.50006 59.1606 5.91803 60.895 5.9649C62.3247 5.99615 63.4575 6.4649 64.2935 7.37115C65.1372 8.26959 65.5513 9.45709 65.5356 10.9337H62.4536C62.4536 10.254 62.3052 9.71881 62.0083 9.32819C61.7114 8.93756 61.2661 8.72662 60.6724 8.69537C59.0942 8.6485 58.1372 9.80084 57.8013 12.1524C57.6841 13.004 57.6411 13.7227 57.6724 14.3087C57.7505 15.6758 58.3364 16.3712 59.4302 16.3946ZM71.1724 7.60553C72.1646 6.49615 73.3091 5.94928 74.606 5.9649C75.8638 5.99615 76.7856 6.44928 77.3716 7.32428C77.9653 8.19147 78.188 9.37897 78.0396 10.8868L76.7036 18.879H73.3989L74.7466 10.8516C74.7856 10.5469 74.7935 10.2657 74.77 10.0079C74.6919 9.16412 74.1997 8.73053 73.2935 8.70709C72.4028 8.67584 71.6216 9.05865 70.9497 9.85553L69.356 18.879H66.0513L69.1685 0.878967H72.4849L71.1724 7.60553ZM86.6177 18.879C86.5161 18.5587 86.4731 18.1758 86.4888 17.7305C85.5356 18.6837 84.4575 19.1446 83.2544 19.1133C82.145 19.0977 81.2231 18.7383 80.4888 18.0352C79.7622 17.3243 79.4224 16.4493 79.4692 15.4102C79.5239 14.0274 80.1021 12.9688 81.2036 12.2344C82.313 11.4922 83.7974 11.1212 85.6567 11.1212L87.2036 11.1446L87.3677 10.3829C87.4146 10.1251 87.4263 9.87897 87.4028 9.64459C87.3638 9.2774 87.2231 8.99225 86.981 8.78912C86.7466 8.57819 86.4341 8.46881 86.0435 8.461C85.5278 8.44537 85.0903 8.57428 84.731 8.84772C84.3716 9.11334 84.1411 9.50006 84.0396 10.0079L80.7231 10.0196C80.7778 8.80865 81.3325 7.82819 82.3872 7.07819C83.4497 6.32037 84.7583 5.94928 86.313 5.9649C87.7505 5.99615 88.8755 6.42584 89.688 7.25397C90.5005 8.07428 90.8403 9.13287 90.7075 10.4297L89.7349 16.5001L89.6763 17.2501C89.6606 17.8047 89.7271 18.2735 89.8755 18.6563L89.8638 18.879H86.6177ZM84.0747 16.5469C85.0278 16.5782 85.8599 16.1641 86.5708 15.3047L86.981 13.1133L85.8325 13.1016C84.6138 13.1329 83.7349 13.504 83.1958 14.2149C83.0005 14.4727 82.8794 14.7891 82.8325 15.1641C82.77 15.586 82.856 15.9219 83.0903 16.1719C83.3325 16.4141 83.6606 16.5391 84.0747 16.5469ZM97.1177 6.18756L96.8364 7.68756C97.8521 6.50787 99.0825 5.93365 100.528 5.9649C101.723 5.98834 102.606 6.42584 103.176 7.2774C103.747 8.12897 103.954 9.30865 103.797 10.8165L102.461 18.879H99.1567L100.516 10.7813C100.555 10.4766 100.563 10.1993 100.54 9.94928C100.438 9.1524 99.938 8.74225 99.0396 8.71881C98.1724 8.68756 97.395 9.0899 96.7075 9.92584L95.1255 18.879H91.8208L94.0239 6.19928L97.1177 6.18756ZM105.696 12.5274C105.93 10.5665 106.567 8.97662 107.606 7.75787C108.653 6.53131 109.969 5.92975 111.555 5.95319C112.907 5.98444 113.915 6.47272 114.579 7.41803L115.012 6.18756L118.047 6.19928L115.973 18.4454C115.747 20.1329 115.028 21.4688 113.817 22.4532C112.606 23.4376 111.106 23.9141 109.317 23.8829C108.442 23.8672 107.606 23.6758 106.809 23.3087C106.012 22.9493 105.356 22.4532 104.84 21.8204L106.481 19.8047C107.215 20.7344 108.137 21.2149 109.247 21.2462C110.106 21.2774 110.84 21.0508 111.45 20.5665C112.059 20.0899 112.473 19.4141 112.692 18.5391L112.879 17.7774C111.958 18.6993 110.922 19.1446 109.774 19.1133C108.54 19.0977 107.559 18.6407 106.833 17.7422C106.106 16.836 105.708 15.6602 105.637 14.2149C105.614 13.7383 105.633 13.1758 105.696 12.5274ZM108.942 13.9102C108.942 14.6446 109.094 15.2344 109.399 15.6797C109.711 16.1172 110.161 16.3477 110.747 16.3712C111.645 16.4024 112.442 16.0196 113.137 15.2227L114.122 9.85553C113.786 9.12115 113.165 8.73834 112.258 8.70709C111.415 8.68365 110.7 9.0235 110.114 9.72662C109.528 10.4297 109.161 11.3633 109.012 12.5274C108.958 13.0977 108.934 13.5587 108.942 13.9102ZM124.493 19.1133C123.383 19.1055 122.399 18.836 121.54 18.3047C120.688 17.7657 120.051 17.0313 119.629 16.1016C119.208 15.1641 119.043 14.1329 119.137 13.0079L119.172 12.5391C119.29 11.3047 119.649 10.1719 120.25 9.14069C120.852 8.10944 121.625 7.31647 122.571 6.76178C123.516 6.19928 124.563 5.93365 125.711 5.9649C127.344 5.99615 128.579 6.59772 129.415 7.76959C130.258 8.93365 130.579 10.4102 130.375 12.1993L130.188 13.6407H122.418C122.387 14.461 122.586 15.1172 123.016 15.6094C123.446 16.1016 124.032 16.3555 124.774 16.3712C125.977 16.4024 127.032 15.9376 127.938 14.9766L129.45 16.8516C128.973 17.5704 128.286 18.1329 127.387 18.5391C126.489 18.9376 125.524 19.129 124.493 19.1133ZM125.547 8.69537C124.938 8.67975 124.395 8.87115 123.918 9.26959C123.45 9.66803 123.028 10.3594 122.653 11.3438H127.2L127.27 11.0391C127.317 10.7266 127.321 10.4297 127.282 10.1485C127.204 9.69537 127.012 9.34381 126.708 9.09381C126.403 8.836 126.016 8.70319 125.547 8.69537Z" fill="#3500A7"/>
</svg>
