<svg width="248" height="200" viewBox="0 0 248 200" fill="none" xmlns="http://www.w3.org/2000/svg">
<path d="M182.41 157.254C182.157 157.254 181.914 157.154 181.735 156.975C181.557 156.796 181.456 156.553 181.456 156.3C181.456 156.048 181.557 155.805 181.735 155.626C181.914 155.447 182.157 155.347 182.41 155.347H189.606C189.859 155.347 190.102 155.447 190.28 155.626C190.459 155.805 190.56 156.048 190.56 156.3C190.56 156.553 190.459 156.796 190.28 156.975C190.102 157.154 189.859 157.254 189.606 157.254H182.404H182.41Z" fill="#F0874A"/>
<path d="M186.028 160.85C185.775 160.848 185.534 160.747 185.355 160.569C185.177 160.39 185.076 160.148 185.074 159.896V152.694C185.074 152.441 185.175 152.198 185.354 152.02C185.532 151.841 185.775 151.74 186.028 151.74C186.28 151.74 186.521 151.84 186.7 152.018C186.879 152.195 186.98 152.436 186.981 152.688V159.89C186.983 160.016 186.959 160.14 186.912 160.257C186.865 160.373 186.796 160.479 186.708 160.568C186.62 160.657 186.515 160.728 186.399 160.776C186.283 160.825 186.159 160.85 186.033 160.85H186.028Z" fill="#F0874A"/>
<path d="M171.971 23.0157C171.73 22.9973 171.505 22.8885 171.34 22.7112C171.176 22.5339 171.085 22.3011 171.085 22.0594C171.085 21.8177 171.176 21.5849 171.34 21.4076C171.505 21.2303 171.73 21.1215 171.971 21.103H179.173C179.426 21.103 179.668 21.2035 179.847 21.3823C180.026 21.5611 180.127 21.8037 180.127 22.0566C180.127 22.3095 180.026 22.552 179.847 22.7308C179.668 22.9097 179.426 23.0101 179.173 23.0101H171.971V23.0157Z" fill="#6D757D"/>
<path d="M175.578 26.6112C175.325 26.6112 175.082 26.5108 174.903 26.3319C174.724 26.1531 174.624 25.9106 174.624 25.6577V18.4555C174.624 18.2026 174.724 17.9601 174.903 17.7812C175.082 17.6024 175.325 17.502 175.578 17.502C175.83 17.5019 176.071 17.6016 176.25 17.7793C176.429 17.9569 176.53 18.198 176.531 18.4499V25.6521C176.531 25.9055 176.431 26.1486 176.252 26.3283C176.074 26.508 175.831 26.6097 175.578 26.6112Z" fill="#6D757D"/>
<path d="M21.4267 83.2805C21.1748 83.2805 20.9331 83.1808 20.7544 83.0032C20.5757 82.8256 20.4746 82.5845 20.4731 82.3326C20.4731 82.0792 20.5734 81.836 20.7521 81.6563C20.9308 81.4766 21.1733 81.3749 21.4267 81.3734H28.6288C28.7541 81.3734 28.8781 81.3981 28.9938 81.446C29.1094 81.4939 29.2146 81.5641 29.3031 81.6527C29.3917 81.7412 29.4619 81.8464 29.5098 81.9621C29.5577 82.0778 29.5824 82.2017 29.5824 82.327C29.5824 82.4522 29.5577 82.5762 29.5098 82.6919C29.4619 82.8076 29.3917 82.9127 29.3031 83.0012C29.2146 83.0898 29.1094 83.16 28.9938 83.2079C28.8781 83.2559 28.7541 83.2805 28.6288 83.2805H21.4267Z" fill="#F0874A"/>
<path d="M25.0336 86.8816C24.7807 86.8816 24.5382 86.7812 24.3594 86.6023C24.1805 86.4235 24.0801 86.181 24.0801 85.9281V78.7259C24.0801 78.473 24.1805 78.2305 24.3594 78.0516C24.5382 77.8728 24.7807 77.7724 25.0336 77.7724C25.1586 77.7716 25.2825 77.7956 25.3981 77.8429C25.5138 77.8902 25.6189 77.9599 25.7076 78.048C25.7962 78.1361 25.8665 78.2409 25.9145 78.3562C25.9625 78.4716 25.9872 78.5953 25.9872 78.7203V85.9224C25.9872 86.1759 25.8869 86.419 25.7082 86.5987C25.5296 86.7784 25.287 86.8801 25.0336 86.8816Z" fill="#F0874A"/>
<path d="M141.098 83.9592H141.014C140.763 83.9364 140.531 83.815 140.369 83.6216C140.207 83.4282 140.129 83.1785 140.151 82.9272C140.223 82.097 141.917 62.7342 142.63 57.8206C142.538 57.465 142.416 57.1178 142.265 56.7829C142.089 56.3727 141.941 55.9511 141.822 55.5209C141.763 55.2747 141.803 55.0149 141.935 54.7987C142.067 54.5825 142.28 54.4277 142.526 54.3682C142.772 54.3087 143.032 54.3494 143.248 54.4814C143.464 54.6134 143.619 54.8259 143.679 55.0721C143.774 55.4107 143.892 55.7424 144.032 56.0649C144.276 56.5892 144.447 57.1439 144.542 57.714V57.8374V57.9608C143.853 62.5547 142.074 82.8879 142.052 83.0898C142.034 83.3289 141.925 83.5518 141.747 83.7134C141.57 83.8749 141.338 83.9628 141.098 83.9592Z" fill="#6D757D"/>
<path d="M147.549 81.8446C147.296 81.8416 147.054 81.7385 146.876 81.5577C146.698 81.377 146.6 81.1332 146.601 80.8798C146.601 80.7059 146.45 63.0708 145.967 58.2244V57.9833L147.033 55.403C147.081 55.287 147.15 55.1815 147.239 55.0925C147.327 55.0035 147.432 54.9328 147.548 54.8843C147.663 54.8359 147.787 54.8107 147.913 54.8102C148.038 54.8097 148.162 54.8339 148.278 54.8814C148.394 54.9289 148.5 54.9988 148.589 55.0871C148.678 55.1754 148.749 55.2803 148.797 55.396C148.845 55.5116 148.871 55.6356 148.871 55.761C148.872 55.8864 148.847 56.0106 148.8 56.1266L147.914 58.2693C148.379 63.4915 148.519 80.145 148.525 80.8686C148.527 80.9946 148.505 81.1197 148.459 81.237C148.412 81.3542 148.344 81.4612 148.256 81.5518C148.169 81.6424 148.064 81.7149 147.949 81.7652C147.833 81.8154 147.709 81.8424 147.583 81.8446H147.549Z" fill="#6D757D"/>
<path d="M126.093 103.109C122.947 103.109 121.572 100.933 120.911 99.8836C120.834 99.778 120.78 99.6579 120.752 99.5306C120.724 99.4034 120.722 99.2717 120.747 99.1437C120.772 99.0157 120.822 98.8942 120.896 98.7865C120.969 98.6789 121.064 98.5875 121.174 98.518C121.285 98.4485 121.408 98.4023 121.537 98.3823C121.666 98.3623 121.797 98.3689 121.923 98.4018C122.049 98.4346 122.167 98.4929 122.27 98.5732C122.373 98.6534 122.458 98.7539 122.52 98.8684C123.519 100.445 124.764 101.897 128.163 100.848C137.699 97.898 154.526 92.3674 161.313 89.8881C161.981 86.6068 162.968 82.5401 164.011 78.2491C165.369 72.64 166.771 66.8794 167.45 62.8688C167.68 55.9135 163.591 54.1354 158.425 51.8861C157.751 51.5888 157.067 51.2915 156.388 50.983C156.159 50.8767 155.98 50.6833 155.893 50.4456C155.806 50.2079 155.817 49.9452 155.923 49.7154C156.029 49.4855 156.223 49.3074 156.46 49.22C156.698 49.1327 156.961 49.1434 157.191 49.2498C157.852 49.5583 158.526 49.8444 159.187 50.136C164.331 52.3797 169.654 54.6907 169.351 62.9978C169.354 63.0389 169.354 63.0801 169.351 63.1212C168.667 67.2047 167.248 73.0494 165.874 78.6978C164.78 83.1852 163.748 87.4593 163.069 90.78C163.038 90.9395 162.967 91.0884 162.862 91.2123C162.757 91.3361 162.621 91.4306 162.469 91.4867C156.046 93.8818 138.546 99.6144 128.73 102.671C127.878 102.949 126.989 103.096 126.093 103.109Z" fill="#6D757D"/>
<path d="M125.785 87.3023H125.595C125.347 87.2523 125.129 87.106 124.99 86.8957C124.85 86.6854 124.799 86.4282 124.849 86.1805L126.105 79.887C126.257 78.7372 128.68 60.5074 130.334 54.6964C130.693 53.4287 134.193 51.5104 140.728 49.0031C140.961 48.9251 141.215 48.94 141.437 49.0446C141.659 49.1493 141.833 49.3356 141.921 49.5648C142.009 49.794 142.005 50.0484 141.911 50.275C141.816 50.5016 141.638 50.6829 141.412 50.7812C137.408 52.3181 132.769 54.4608 132.152 55.2685C130.514 61.0796 128.001 79.9824 128.001 80.1507C128.003 80.1712 128.003 80.1919 128.001 80.2124L126.739 86.5339C126.695 86.7536 126.576 86.9509 126.402 87.0914C126.227 87.2319 126.009 87.3066 125.785 87.3023Z" fill="#6D757D"/>
<path d="M146.584 52.9182C143.78 52.9182 141.211 51.1513 141.065 51.0503L140.672 50.7699V50.2875C140.672 50.2594 140.633 48.0102 140.347 45.4692C137.969 43.5677 136.493 40.679 135.96 36.8704C134.687 27.7331 135.652 25.1977 135.764 24.9397C135.866 24.7077 136.056 24.5256 136.292 24.4335C136.528 24.3415 136.791 24.347 137.023 24.4489C137.255 24.5508 137.438 24.7407 137.53 24.9769C137.622 25.2131 137.616 25.4761 137.514 25.7082C137.514 25.7082 136.662 28.0865 137.851 36.6068C138.333 40.062 139.662 42.6142 141.811 44.1847L142.142 44.4315L142.192 44.841C142.445 46.9276 142.534 48.8459 142.568 49.7378C143.611 50.3548 146.534 51.8244 148.671 50.4277C148.775 50.3509 148.894 50.2961 149.02 50.2667C149.147 50.2374 149.278 50.2341 149.405 50.2571C149.533 50.2801 149.654 50.3288 149.762 50.4003C149.87 50.4719 149.963 50.5647 150.034 50.6731C150.105 50.7816 150.153 50.9033 150.175 51.031C150.198 51.1587 150.194 51.2896 150.164 51.4157C150.134 51.5419 150.079 51.6606 150.001 51.7646C149.924 51.8686 149.826 51.9557 149.714 52.0207C148.782 52.6228 147.693 52.9351 146.584 52.9182Z" fill="#6D757D"/>
<path d="M149.158 30.9977C148.925 30.9979 148.699 30.9124 148.524 30.7573C148.35 30.6022 148.238 30.3883 148.21 30.1563C148.21 30.0722 147.958 29.113 146.006 29.2588C142.08 29.5393 137.25 29.8871 135.635 26.4543L135.511 26.2018L135.55 25.9214C135.759 24.3357 136.416 22.8424 137.443 21.6165C138.47 20.3906 139.826 19.4829 141.35 18.9997C147.408 17.3169 151.408 19.3362 153.13 21.8043L153.18 21.8772C154.558 24.2833 155.238 27.0261 155.143 29.7973C155.122 30.0495 155.001 30.2827 154.807 30.4458C154.614 30.6088 154.363 30.6883 154.111 30.6667C153.859 30.6452 153.626 30.5243 153.463 30.3308C153.3 30.1372 153.22 29.8868 153.242 29.6346C153.303 27.2655 152.721 24.9241 151.559 22.8588C150.202 20.9629 146.948 19.4428 141.878 20.8563C140.763 21.2285 139.769 21.8934 138.999 22.7815C138.229 23.6696 137.712 24.7482 137.502 25.9046C138.624 27.7556 141.833 27.6827 145.888 27.391C148.962 27.1722 150 28.9784 150.123 29.9656C150.152 30.2168 150.08 30.4691 149.923 30.6676C149.767 30.8661 149.538 30.9948 149.287 31.0257L149.158 30.9977Z" fill="#6D757D"/>
<path d="M146.679 121.131H146.595L142.108 120.755C141.856 120.734 141.622 120.613 141.459 120.419C141.296 120.226 141.217 119.975 141.238 119.723C141.26 119.471 141.381 119.238 141.574 119.075C141.768 118.912 142.018 118.832 142.27 118.854L146.758 119.23C147.011 119.24 147.249 119.351 147.421 119.537C147.592 119.723 147.682 119.97 147.672 120.222C147.662 120.475 147.551 120.714 147.365 120.885C147.179 121.057 146.932 121.147 146.679 121.137V121.131Z" fill="#6D757D"/>
<path d="M157.561 51.3756C157.405 51.3771 157.25 51.3385 157.113 51.2634L152.979 49.0534L151.559 38.5082C151.542 38.3844 151.549 38.2584 151.581 38.1374C151.612 38.0164 151.668 37.9029 151.743 37.8033C151.819 37.7037 151.913 37.6201 152.021 37.5572C152.129 37.4943 152.249 37.4534 152.373 37.4369C152.623 37.4032 152.877 37.4698 153.079 37.6221C153.28 37.7744 153.414 38.0001 153.45 38.2502L154.751 47.8419L158.027 49.5919C158.25 49.7109 158.417 49.9137 158.49 50.1557C158.564 50.3976 158.539 50.6589 158.419 50.882C158.336 51.0354 158.211 51.1627 158.06 51.2498C157.909 51.3369 157.736 51.3804 157.561 51.3756Z" fill="#6D757D"/>
<path d="M151.744 39.0355C151.511 39.0307 151.288 38.9405 151.116 38.782C150.945 38.6235 150.838 38.4077 150.815 38.1754C150.792 37.9431 150.855 37.7106 150.992 37.5218C151.13 37.3329 151.331 37.201 151.559 37.1509C153.287 36.8031 153.64 36.0291 153.764 35.4681C153.847 35.0062 153.752 34.5298 153.496 34.1359C153.241 33.742 152.845 33.4602 152.389 33.3479C152.136 33.2766 151.87 33.267 151.612 33.3197C151.355 33.3724 151.113 33.4859 150.909 33.6508C150.712 33.7965 150.467 33.8612 150.225 33.8316C149.982 33.802 149.76 33.6803 149.605 33.4916C149.449 33.303 149.372 33.0618 149.389 32.8179C149.406 32.574 149.517 32.3461 149.697 32.1812C150.135 31.8254 150.651 31.5784 151.203 31.4604C151.755 31.3425 152.327 31.3569 152.872 31.5025C153.802 31.7421 154.605 32.328 155.117 33.1402C155.629 33.9525 155.811 34.9298 155.626 35.872C155.379 36.9938 154.538 38.4746 151.935 38.9963L151.744 39.0355Z" fill="#6D757D"/>
<path d="M162.407 108.769L148.502 108.808C148.383 108.817 148.264 108.802 148.151 108.763C148.038 108.724 147.935 108.663 147.847 108.582C147.759 108.501 147.689 108.403 147.641 108.293C147.594 108.184 147.569 108.066 147.569 107.947C147.569 107.828 147.594 107.71 147.641 107.6C147.689 107.491 147.759 107.393 147.847 107.312C147.935 107.231 148.038 107.169 148.151 107.13C148.264 107.091 148.383 107.076 148.502 107.086H162.407C162.529 107.066 162.654 107.073 162.773 107.106C162.892 107.139 163.003 107.197 163.097 107.277C163.191 107.357 163.267 107.457 163.319 107.569C163.371 107.681 163.398 107.804 163.398 107.927C163.398 108.051 163.371 108.173 163.319 108.285C163.267 108.397 163.191 108.497 163.097 108.577C163.003 108.657 162.892 108.716 162.773 108.749C162.654 108.782 162.529 108.789 162.407 108.769Z" fill="#6D757D"/>
<path d="M129.061 93.377C128.902 93.3772 128.746 93.3366 128.607 93.2592L123.334 90.3873C123.224 90.3273 123.126 90.2461 123.047 90.1483C122.968 90.0506 122.909 89.9382 122.873 89.8176C122.838 89.6971 122.826 89.5706 122.839 89.4456C122.852 89.3205 122.89 89.1993 122.95 89.0888C123.01 88.9783 123.091 88.8807 123.189 88.8016C123.287 88.7225 123.399 88.6634 123.52 88.6278C123.64 88.5921 123.767 88.5805 123.892 88.5937C124.017 88.6069 124.138 88.6445 124.249 88.7046L129.14 91.3689L153.259 82.6635L157.023 63.8897C157.073 63.6412 157.219 63.4228 157.43 63.2824C157.641 63.1419 157.899 63.091 158.148 63.1409C158.396 63.1907 158.614 63.3372 158.755 63.5481C158.895 63.759 158.946 64.0171 158.896 64.2655L155.02 83.5666C154.989 83.7274 154.916 83.8772 154.809 84.0011C154.701 84.125 154.564 84.2189 154.409 84.2733L129.364 93.3097C129.268 93.3486 129.165 93.3714 129.061 93.377Z" fill="#6D757D"/>
<path d="M118.42 98.0102C118.206 98.0087 117.999 97.9352 117.831 97.8015C117.664 97.6677 117.547 97.4816 117.498 97.2729C117.449 97.0643 117.472 96.8454 117.563 96.6515C117.655 96.4575 117.808 96.2999 118 96.204L121.982 94.2296C122.095 94.174 122.217 94.141 122.342 94.1326C122.467 94.1242 122.592 94.1406 122.711 94.1807C122.83 94.2208 122.94 94.2839 123.034 94.3664C123.128 94.4489 123.205 94.5492 123.261 94.6615C123.317 94.7738 123.35 94.896 123.358 95.0211C123.366 95.1461 123.35 95.2716 123.31 95.3904C123.27 95.5091 123.207 95.6188 123.124 95.7132C123.042 95.8076 122.942 95.8848 122.829 95.9404L118.847 97.9092C118.714 97.9749 118.568 98.0094 118.42 98.0102Z" fill="#6D757D"/>
<path d="M134.732 99.8052C134.536 99.8038 134.345 99.743 134.185 99.6308C134.025 99.5186 133.902 99.3603 133.834 99.1769L132.342 95.0766C132.294 94.958 132.27 94.8309 132.272 94.7028C132.273 94.5747 132.301 94.4483 132.353 94.3311C132.405 94.2139 132.479 94.1083 132.573 94.0207C132.666 93.933 132.776 93.8651 132.897 93.821C133.017 93.7769 133.145 93.7575 133.273 93.7639C133.401 93.7703 133.526 93.8025 133.641 93.8584C133.757 93.9143 133.859 93.9929 133.944 94.0895C134.028 94.186 134.092 94.2986 134.132 94.4204L135.629 98.5207C135.68 98.6651 135.696 98.8196 135.675 98.9713C135.654 99.123 135.597 99.2675 135.51 99.393C135.422 99.5185 135.306 99.6214 135.171 99.693C135.035 99.7647 134.885 99.8031 134.732 99.8052Z" fill="#6D757D"/>
<path d="M142.669 46.0527C142.103 46.0602 141.538 46.0018 140.986 45.8788C140.859 45.8547 140.738 45.8051 140.631 45.7329C140.523 45.6607 140.432 45.5675 140.362 45.4588C140.292 45.3502 140.244 45.2284 140.223 45.1009C140.201 44.9734 140.206 44.8428 140.236 44.7172C140.267 44.5915 140.322 44.4733 140.4 44.3699C140.478 44.2664 140.575 44.1798 140.688 44.1153C140.8 44.0508 140.924 44.0098 141.052 43.9948C141.181 43.9797 141.311 43.9909 141.435 44.0278C141.435 44.0278 143.734 44.555 145.49 43.3547C145.698 43.2277 145.948 43.1855 146.186 43.2367C146.425 43.2878 146.635 43.4285 146.773 43.6298C146.911 43.831 146.966 44.0775 146.928 44.3184C146.89 44.5594 146.76 44.7766 146.567 44.9252C145.41 45.6827 144.052 46.0755 142.669 46.0527Z" fill="#6D757D"/>
<path d="M246.522 199.637H0.841373C0.618227 199.637 0.404216 199.548 0.246428 199.39C0.0886395 199.233 0 199.019 0 198.795C0 198.572 0.0886395 198.358 0.246428 198.201C0.404216 198.043 0.618227 197.954 0.841373 197.954H246.522C246.745 197.954 246.959 198.043 247.117 198.201C247.275 198.358 247.364 198.572 247.364 198.795C247.364 199.019 247.275 199.233 247.117 199.39C246.959 199.548 246.745 199.637 246.522 199.637Z" fill="#6D757D"/>
<path d="M117.411 198.335C117.353 198.341 117.295 198.341 117.237 198.335C116.828 198.231 116.458 198.009 116.173 197.697C115.888 197.385 115.7 196.997 115.633 196.58C115.484 195.928 115.529 195.246 115.762 194.62C115.995 193.993 116.407 193.448 116.945 193.052C117.568 192.57 118.255 192.18 118.987 191.89L119.397 191.7C120.361 184.812 129.852 111.399 130.155 109.038L130.183 100.815C130.182 100.578 130.266 100.349 130.421 100.169C130.576 99.9899 130.79 99.8725 131.024 99.8387C131.26 99.8704 131.476 99.9882 131.63 100.169C131.784 100.351 131.866 100.582 131.86 100.82L131.832 109.032C131.835 109.077 131.835 109.122 131.832 109.167C131.406 112.448 121.444 189.568 120.995 192.384C120.976 192.522 120.923 192.653 120.841 192.766C120.759 192.879 120.65 192.969 120.524 193.029L119.688 193.416C119.067 193.658 118.484 193.986 117.955 194.392C117.693 194.58 117.489 194.837 117.364 195.134C117.239 195.431 117.199 195.756 117.248 196.075C117.268 196.298 117.363 196.508 117.517 196.669C119.716 196.669 127.008 196.608 129.297 196.585C130.418 190.225 138.944 141.907 144.649 120.189C144.702 119.989 144.827 119.815 144.999 119.701C145.172 119.587 145.381 119.541 145.586 119.572C145.642 119.572 145.76 119.572 145.894 119.572C146.548 119.477 147.215 119.576 147.812 119.858C147.917 119.925 148.005 120.015 148.07 120.12C148.135 120.226 148.176 120.345 148.188 120.469C148.788 125.747 149.697 135.053 150.847 146.832C152.12 159.885 153.702 176.129 155.39 192.16C155.407 192.324 155.375 192.489 155.299 192.635C155.224 192.781 155.107 192.903 154.964 192.984C154.403 193.287 153.971 193.512 153.573 193.708C153.175 193.904 152.749 194.123 152.367 194.358C152.145 194.54 151.98 194.781 151.89 195.053C151.801 195.326 151.791 195.618 151.862 195.895C151.902 196.069 152.008 196.367 152.249 196.389C153.764 196.597 161.387 196.462 165.15 196.389C164.819 189.428 162.593 142.087 161.678 117.345L161.28 108.869V90.8192C161.28 90.596 161.369 90.382 161.526 90.2242C161.684 90.0664 161.898 89.9778 162.121 89.9778C162.345 89.9778 162.559 90.0664 162.716 90.2242C162.874 90.382 162.963 90.596 162.963 90.8192V108.768L163.361 117.216C164.343 143.826 166.844 196.58 166.872 197.107C166.877 197.219 166.86 197.33 166.821 197.435C166.783 197.54 166.724 197.636 166.648 197.718C166.572 197.801 166.48 197.868 166.378 197.914C166.276 197.96 166.166 197.985 166.053 197.988C165.571 197.988 154.151 198.302 152.075 197.988C151.62 197.924 151.197 197.717 150.868 197.396C150.539 197.075 150.321 196.657 150.247 196.204C150.089 195.582 150.125 194.926 150.35 194.325C150.574 193.724 150.977 193.205 151.503 192.838C151.952 192.558 152.384 192.345 152.844 192.115L153.68 191.689C151.997 175.831 150.449 159.806 149.192 146.905C148.07 135.547 147.207 126.493 146.606 121.137C146.455 121.137 146.281 121.137 146.135 121.137C140.072 144.538 130.951 196.933 130.862 197.466C130.826 197.66 130.725 197.835 130.574 197.962C130.424 198.089 130.234 198.159 130.037 198.161C129.919 198.212 119.856 198.335 117.411 198.335Z" fill="#6D757D"/>
<path d="M113.21 94.3923C113.01 94.3953 112.814 94.3366 112.649 94.2241L95.0752 82.069C94.9407 81.9767 94.8325 81.8511 94.7611 81.7044L89.9933 71.8884C89.9384 71.7757 89.9063 71.6533 89.8987 71.5282C89.8911 71.4031 89.9083 71.2777 89.9492 71.1592C89.9901 71.0407 90.0539 70.9314 90.137 70.8376C90.2201 70.7437 90.3209 70.6672 90.4336 70.6123C90.5463 70.5574 90.6687 70.5253 90.7939 70.5177C90.919 70.5102 91.0444 70.5273 91.1629 70.5682C91.2814 70.6091 91.3906 70.6729 91.4845 70.756C91.5783 70.8392 91.6548 70.9399 91.7097 71.0526L96.3653 80.6443L113.754 92.6535C113.923 92.7698 114.05 92.9376 114.116 93.1318C114.182 93.3261 114.184 93.5365 114.121 93.7317C114.058 93.927 113.933 94.0968 113.766 94.2158C113.599 94.3348 113.398 94.3967 113.193 94.3923H113.21Z" fill="#6D757D"/>
<path d="M120.316 90.8417C120.074 90.8425 119.841 90.7501 119.665 90.5837L117.18 88.2784L113.815 86.9378C113.724 86.9024 113.639 86.8532 113.563 86.7919L101.015 76.6169C100.892 76.5143 100.796 76.3834 100.734 76.2355C96.4715 65.7969 91.1428 54.5281 89.6171 53.7372L84.8549 51.4935C84.735 51.4445 84.6264 51.3716 84.5357 51.2793C84.4449 51.1869 84.3739 51.077 84.327 50.9564C84.2801 50.8357 84.2582 50.7067 84.2628 50.5773C84.2674 50.4479 84.2982 50.3208 84.3535 50.2037C84.4088 50.0866 84.4874 49.982 84.5845 49.8963C84.6815 49.8105 84.795 49.7455 84.918 49.705C85.041 49.6646 85.171 49.6496 85.2999 49.6611C85.4289 49.6725 85.5542 49.7101 85.6682 49.7715L90.4304 52.0152C93.235 53.3277 100.185 69.8635 102.406 75.2876L114.634 85.2326L118.044 86.5788C118.156 86.6227 118.259 86.6874 118.347 86.7695L120.961 89.1983C121.102 89.3282 121.201 89.4978 121.244 89.6846C121.287 89.8715 121.273 90.067 121.203 90.2457C121.134 90.4244 121.012 90.578 120.853 90.6863C120.695 90.7946 120.508 90.8527 120.316 90.853V90.8417Z" fill="#6D757D"/>
<path d="M118.841 116.947C118.602 116.947 118.371 116.858 118.195 116.695C118.019 116.533 117.911 116.31 117.893 116.072C117.719 113.996 118.533 109.952 122.846 109.498L123.373 109.447C123.624 109.425 123.873 109.502 124.068 109.661C124.263 109.82 124.388 110.05 124.416 110.3C124.429 110.425 124.417 110.551 124.38 110.671C124.344 110.791 124.284 110.903 124.204 111C124.124 111.097 124.026 111.177 123.915 111.236C123.805 111.295 123.683 111.331 123.558 111.343L123.048 111.394C119.576 111.758 119.761 115.494 119.789 115.915C119.8 116.04 119.785 116.165 119.747 116.285C119.709 116.404 119.647 116.515 119.566 116.611C119.484 116.706 119.385 116.784 119.273 116.841C119.161 116.898 119.039 116.932 118.914 116.941L118.841 116.947Z" fill="#6D757D"/>
<path d="M111.976 140.331C110.901 140.329 109.863 139.934 109.058 139.222C108.252 138.509 107.734 137.528 107.601 136.461L105.705 121.187C105.633 120.612 105.675 120.028 105.828 119.469C105.982 118.91 106.245 118.386 106.601 117.929C106.958 117.471 107.401 117.089 107.905 116.803C108.41 116.517 108.966 116.333 109.541 116.262L122.482 114.546C122.731 114.514 122.983 114.583 123.183 114.737C123.382 114.89 123.513 115.116 123.546 115.366C123.58 115.615 123.513 115.868 123.361 116.068C123.209 116.269 122.983 116.401 122.734 116.436L109.783 118.153C109.454 118.192 109.137 118.296 108.849 118.459C108.562 118.621 108.309 118.839 108.105 119.1C107.902 119.361 107.752 119.659 107.665 119.978C107.577 120.296 107.553 120.629 107.595 120.957L109.491 136.225C109.531 136.553 109.636 136.87 109.799 137.157C109.961 137.444 110.179 137.696 110.44 137.899C110.701 138.102 110.999 138.251 111.317 138.338C111.635 138.425 111.968 138.449 112.295 138.407L121.035 137.342C121.286 137.311 121.539 137.382 121.738 137.538C121.938 137.694 122.067 137.923 122.097 138.175C122.128 138.426 122.057 138.679 121.901 138.878C121.745 139.078 121.516 139.207 121.264 139.237L112.525 140.298C112.343 140.32 112.159 140.331 111.976 140.331Z" fill="#6D757D"/>
<path d="M123.514 114.125H123.239L123.357 112.218C123.357 112.218 125.74 112.319 126.447 111.063L127.541 105.897V104.853H129.448V105.975C129.456 106.042 129.456 106.11 129.448 106.177L128.326 111.568C128.31 111.641 128.286 111.713 128.253 111.781C127.176 113.946 124.405 114.125 123.514 114.125Z" fill="#6D757D"/>
<path d="M132.432 78.5913H132.365C132.113 78.574 131.878 78.4574 131.712 78.2671C131.546 78.0767 131.462 77.8282 131.479 77.576L132.264 65.7127C132.29 65.4671 132.409 65.241 132.598 65.0819C132.787 64.9229 133.031 64.8434 133.277 64.8601C133.523 64.8768 133.754 64.9885 133.919 65.1715C134.085 65.3546 134.173 65.5949 134.165 65.8417L133.38 77.7051C133.365 77.9456 133.258 78.1712 133.082 78.3358C132.906 78.5005 132.673 78.5918 132.432 78.5913Z" fill="#6D757D"/>
<path d="M119.15 109.593C118.96 109.594 118.774 109.538 118.616 109.432C118.458 109.326 118.335 109.176 118.263 108.999C118.192 108.823 118.174 108.63 118.213 108.444C118.252 108.258 118.346 108.088 118.482 107.955L121.736 104.78C121.916 104.603 122.16 104.505 122.413 104.508C122.666 104.511 122.908 104.614 123.085 104.795C123.262 104.975 123.36 105.219 123.357 105.472C123.354 105.725 123.251 105.966 123.071 106.144L119.812 109.324C119.635 109.497 119.397 109.594 119.15 109.593Z" fill="#6D757D"/>
<path d="M197.554 67.4908L192.843 62.7735L197.554 58.0618L202.272 62.7735L197.554 67.4908ZM195.541 62.7735L197.554 64.7928L199.574 62.7735L197.554 60.7598L195.541 62.7735Z" fill="#6D757D"/>
<path d="M58.4475 9.86796L53.7358 5.15627L58.4475 0.44458L63.1648 5.15627L58.4475 9.86796ZM56.4338 5.15627L58.4475 7.17556L60.4668 5.15627L58.4475 3.13697L56.4338 5.15627Z" fill="#F0874A"/>
<path d="M26.8511 55.3021C24.5757 55.3021 22.3515 54.6274 20.4596 53.3633C18.5677 52.0991 17.0931 50.3024 16.2224 48.2003C15.3517 46.0981 15.1238 43.785 15.5677 41.5533C16.0116 39.3217 17.1073 37.2718 18.7162 35.6629C20.3251 34.054 22.375 32.9583 24.6067 32.5144C26.8383 32.0705 29.1514 32.2983 31.2536 33.1691C33.3557 34.0398 35.1525 35.5143 36.4166 37.4062C37.6807 39.2981 38.3554 41.5224 38.3554 43.7977C38.3495 46.847 37.1355 49.7698 34.9793 51.926C32.8231 54.0822 29.9004 55.2962 26.8511 55.3021ZM26.8511 34.2005C24.9529 34.2005 23.0974 34.7633 21.5191 35.8179C19.9408 36.8724 18.7107 38.3713 17.9843 40.125C17.258 41.8787 17.0679 43.8084 17.4382 45.6701C17.8085 47.5317 18.7226 49.2418 20.0648 50.584C21.407 51.9262 23.117 52.8403 24.9787 53.2106C26.8404 53.5809 28.7701 53.3908 30.5238 52.6644C32.2774 51.938 33.7763 50.7079 34.8309 49.1297C35.8854 47.5514 36.4483 45.6959 36.4483 43.7977C36.4394 41.2572 35.4247 38.8236 33.6262 37.0292C31.8276 35.2349 29.3916 34.2259 26.8511 34.2229V34.2005Z" fill="#F0874A"/>
<path d="M26.2901 47.3988L21.068 43.1751C20.8709 43.0159 20.7451 42.785 20.7183 42.533C20.6914 42.2811 20.7658 42.0288 20.925 41.8317C21.0841 41.6346 21.3151 41.5088 21.567 41.482C21.819 41.4551 22.0713 41.5295 22.2684 41.6887L25.9872 44.7008L31.1645 38.1325C31.2396 38.028 31.3351 37.9399 31.4452 37.8733C31.5553 37.8068 31.6778 37.7632 31.8051 37.7452C31.9325 37.7272 32.0622 37.7352 32.1865 37.7686C32.3107 37.8021 32.4269 37.8604 32.528 37.9399C32.6291 38.0194 32.7131 38.1186 32.7749 38.2314C32.8367 38.3443 32.875 38.4685 32.8875 38.5965C32.9 38.7246 32.8865 38.8538 32.8478 38.9765C32.8091 39.0992 32.7459 39.2127 32.6621 39.3104L26.2901 47.3988Z" fill="#F0874A"/>
<path d="M28.1579 30.7677H24.2315C24.0084 30.7677 23.7944 30.6791 23.6366 30.5213C23.4788 30.3635 23.3901 30.1495 23.3901 29.9263C23.3901 29.7032 23.4788 29.4892 23.6366 29.3314C23.7944 29.1736 24.0084 29.085 24.2315 29.085H28.1579C28.3811 29.085 28.5951 29.1736 28.7529 29.3314C28.9106 29.4892 28.9993 29.7032 28.9993 29.9263C28.9993 30.1495 28.9106 30.3635 28.7529 30.5213C28.5951 30.6791 28.3811 30.7677 28.1579 30.7677Z" fill="#F0874A"/>
<path d="M128.427 23.0158H92.6635C92.4106 23.0158 92.1681 22.9153 91.9893 22.7365C91.8104 22.5576 91.71 22.3151 91.71 22.0622C91.71 21.8093 91.8104 21.5668 91.9893 21.3879C92.1681 21.2091 92.4106 21.1086 92.6635 21.1086H128.456C128.708 21.1086 128.951 21.2091 129.13 21.3879C129.309 21.5668 129.409 21.8093 129.409 22.0622C129.409 22.3151 129.309 22.5576 129.13 22.7365C128.951 22.9153 128.708 23.0158 128.456 23.0158H128.427Z" fill="#F0874A"/>
<path d="M112.428 7.06337H76.6645C76.4116 7.06337 76.1691 6.9629 75.9902 6.78408C75.8114 6.60525 75.7109 6.36271 75.7109 6.10982C75.7109 5.85692 75.8114 5.61437 75.9902 5.43554C76.1691 5.25672 76.4116 5.15625 76.6645 5.15625H112.457C112.709 5.15625 112.952 5.25672 113.131 5.43554C113.31 5.61437 113.41 5.85692 113.41 6.10982C113.41 6.36271 113.31 6.60525 113.131 6.78408C112.952 6.9629 112.709 7.06337 112.457 7.06337H112.428Z" fill="#F0874A"/>
<path d="M196.326 131.026H196.197C192.256 130.992 188.489 129.394 185.726 126.583C182.963 123.772 181.429 119.979 181.462 116.038C181.505 112.121 183.088 108.379 185.868 105.62C188.649 102.862 192.404 101.309 196.321 101.297H196.433C200.373 101.333 204.138 102.931 206.9 105.742C209.662 108.552 211.195 112.345 211.162 116.285C211.118 120.197 209.538 123.935 206.763 126.693C203.987 129.451 200.239 131.007 196.326 131.026ZM196.326 103.21C192.891 103.196 189.591 104.547 187.152 106.966C184.714 109.385 183.336 112.673 183.321 116.108C183.307 119.543 184.658 122.843 187.077 125.282C189.496 127.721 192.785 129.099 196.22 129.113H196.332C199.722 129.059 202.956 127.678 205.34 125.266C207.723 122.854 209.067 119.604 209.081 116.214C209.096 112.823 207.781 109.561 205.418 107.129C203.056 104.697 199.834 103.288 196.444 103.204L196.326 103.21Z" fill="#F0874A"/>
<path d="M215.851 97.7354H215.807C214.406 97.7295 213.064 97.168 212.077 96.1743C211.089 95.1806 210.537 93.8357 210.54 92.4348C210.543 91.0339 211.101 89.6914 212.093 88.7019C213.084 87.7124 214.428 87.1566 215.829 87.1566C217.23 87.1566 218.574 87.7124 219.565 88.7019C220.557 89.6914 221.115 91.0339 221.118 92.4348C221.121 93.8357 220.568 95.1806 219.581 96.1743C218.594 97.168 217.252 97.7295 215.851 97.7354ZM215.851 89.103C215.188 89.1001 214.539 89.2934 213.985 89.6585C213.431 90.0235 212.998 90.5441 212.739 91.1548C212.48 91.7655 212.407 92.4391 212.53 93.0909C212.652 93.7428 212.965 94.3439 213.428 94.8187C213.736 95.1355 214.104 95.3879 214.51 95.5612C214.917 95.7346 215.354 95.8254 215.795 95.8283V96.7819V95.8283C216.688 95.8283 217.544 95.4737 218.175 94.8426C218.806 94.2114 219.161 93.3554 219.161 92.4628C219.161 91.5702 218.806 90.7142 218.175 90.0831C217.544 89.4519 216.688 89.0973 215.795 89.0973L215.851 89.103Z" fill="#F0874A"/>
<path d="M184.244 101.196H184.194C182.791 101.19 181.449 100.627 180.461 99.632C179.473 98.637 178.921 97.2908 178.924 95.8886C178.927 94.4865 179.487 93.1429 180.479 92.1526C181.472 91.1624 182.817 90.6062 184.219 90.6062C185.621 90.6062 186.966 91.1624 187.959 92.1526C188.951 93.1429 189.511 94.4865 189.514 95.8886C189.517 97.2908 188.964 98.637 187.976 99.632C186.988 100.627 185.646 101.19 184.244 101.196ZM184.272 92.5637C183.38 92.5556 182.52 92.9023 181.883 93.5277C181.246 94.153 180.884 95.0058 180.876 95.8984C180.868 96.791 181.214 97.6503 181.84 98.2872C182.465 98.9241 183.318 99.2865 184.21 99.2947L184.244 100.248V99.2947C184.905 99.292 185.551 99.0948 186.1 98.7276C186.65 98.3604 187.079 97.8395 187.334 97.23C187.59 96.6204 187.66 95.9491 187.536 95.2998C187.413 94.6506 187.101 94.0521 186.639 93.579C186.332 93.2612 185.964 93.0077 185.558 92.8334C185.151 92.6591 184.714 92.5674 184.272 92.5637Z" fill="#F0874A"/>
<path d="M217.545 133.269C217.416 133.269 217.282 133.269 217.147 133.269C216.109 133.191 215.117 132.807 214.297 132.165C213.477 131.524 212.865 130.654 212.54 129.665C212.214 128.676 212.189 127.612 212.467 126.609C212.745 125.606 213.315 124.708 214.104 124.028C214.892 123.348 215.865 122.917 216.898 122.79C217.931 122.662 218.979 122.844 219.91 123.312C220.84 123.78 221.61 124.513 222.124 125.419C222.638 126.325 222.871 127.362 222.795 128.401C222.69 129.723 222.092 130.957 221.119 131.858C220.147 132.76 218.871 133.264 217.545 133.269ZM217.545 124.642C216.664 124.676 215.831 125.053 215.226 125.694C214.62 126.334 214.29 127.187 214.307 128.069C214.323 128.95 214.685 129.79 215.314 130.408C215.943 131.025 216.79 131.371 217.671 131.371C218.553 131.371 219.4 131.025 220.029 130.408C220.658 129.79 221.02 128.95 221.036 128.069C221.053 127.187 220.723 126.334 220.117 125.694C219.512 125.053 218.679 124.676 217.798 124.642H217.545Z" fill="#F0874A"/>
<path d="M213.467 126.662C213.342 126.662 213.218 126.638 213.103 126.589L207.724 124.345C207.498 124.243 207.32 124.058 207.228 123.827C207.137 123.597 207.139 123.34 207.234 123.111C207.329 122.882 207.509 122.698 207.736 122.6C207.964 122.502 208.221 122.496 208.453 122.584L213.832 124.827C214.036 124.912 214.204 125.064 214.307 125.259C214.411 125.453 214.445 125.678 214.402 125.894C214.359 126.11 214.242 126.305 214.072 126.445C213.901 126.585 213.688 126.661 213.467 126.662Z" fill="#F0874A"/>
<path d="M189.056 104.382C188.902 104.382 188.749 104.344 188.613 104.272C188.476 104.199 188.359 104.095 188.271 103.967L185.725 100.254C185.654 100.151 185.603 100.035 185.577 99.9121C185.551 99.7896 185.549 99.6632 185.572 99.54C185.595 99.4168 185.641 99.2993 185.709 99.1942C185.777 99.089 185.866 98.9983 185.969 98.9273C186.072 98.8562 186.188 98.8061 186.31 98.7799C186.433 98.7537 186.559 98.7519 186.682 98.7745C186.806 98.7972 186.923 98.8439 187.028 98.912C187.133 98.98 187.224 99.0681 187.295 99.1713L189.842 102.89C189.94 103.033 189.997 103.2 190.007 103.374C190.017 103.547 189.979 103.719 189.899 103.873C189.818 104.026 189.697 104.155 189.548 104.245C189.4 104.334 189.23 104.382 189.056 104.382Z" fill="#F0874A"/>
<path d="M205.688 106.603C205.486 106.601 205.291 106.536 205.127 106.418C205.027 106.343 204.942 106.249 204.879 106.141C204.815 106.034 204.773 105.914 204.755 105.79C204.737 105.666 204.744 105.54 204.775 105.419C204.807 105.298 204.861 105.184 204.936 105.083L212.307 95.2113C212.373 95.094 212.464 94.9922 212.572 94.9125C212.681 94.8328 212.805 94.777 212.937 94.7489C213.069 94.7207 213.205 94.7208 213.337 94.7491C213.468 94.7774 213.593 94.8333 213.701 94.9131C213.81 94.9929 213.9 95.0948 213.967 95.2121C214.033 95.3294 214.073 95.4595 214.086 95.5936C214.098 95.7278 214.082 95.8631 214.038 95.9905C213.995 96.118 213.925 96.2347 213.832 96.3331L206.462 106.205C206.374 106.329 206.258 106.429 206.123 106.498C205.989 106.568 205.839 106.604 205.688 106.603Z" fill="#F0874A"/>
<path d="M196.679 119.134H196.629C195.053 119.128 193.543 118.496 192.432 117.378C191.321 116.26 190.699 114.747 190.703 113.17C190.706 111.594 191.334 110.084 192.45 108.97C193.566 107.857 195.078 107.232 196.654 107.232C198.23 107.232 199.742 107.857 200.858 108.97C201.973 110.084 202.602 111.594 202.605 113.17C202.609 114.747 201.987 116.26 200.876 117.378C199.765 118.496 198.255 119.128 196.679 119.134ZM196.713 109.2C195.673 109.23 194.686 109.661 193.958 110.403C193.23 111.146 192.818 112.142 192.809 113.181C192.801 114.221 193.196 115.224 193.911 115.978C194.627 116.733 195.607 117.181 196.646 117.227L196.679 118.181V117.227C197.718 117.193 198.703 116.757 199.427 116.012C200.152 115.266 200.559 114.269 200.563 113.23C200.567 112.191 200.169 111.19 199.451 110.439C198.733 109.687 197.751 109.243 196.713 109.2Z" fill="#F0874A"/>
<path d="M203.915 124.525C203.725 124.524 203.539 124.468 203.382 124.362C203.224 124.256 203.101 124.106 203.029 123.93C202.529 122.622 201.647 121.496 200.496 120.699C199.346 119.901 197.982 119.47 196.582 119.461C195.182 119.451 193.812 119.865 192.652 120.648C191.491 121.43 190.594 122.545 190.077 123.846C190.03 123.962 189.961 124.068 189.873 124.157C189.785 124.246 189.68 124.317 189.565 124.365C189.449 124.414 189.325 124.44 189.2 124.441C189.075 124.441 188.951 124.418 188.835 124.37C188.719 124.323 188.613 124.254 188.524 124.166C188.435 124.078 188.364 123.973 188.315 123.858C188.267 123.742 188.241 123.619 188.24 123.493C188.239 123.368 188.263 123.244 188.31 123.128C188.969 121.48 190.109 120.069 191.58 119.076C193.051 118.084 194.787 117.557 196.561 117.564H196.64C198.407 117.592 200.125 118.145 201.577 119.152C203.029 120.158 204.149 121.573 204.796 123.218C204.843 123.333 204.867 123.457 204.867 123.582C204.866 123.707 204.841 123.831 204.793 123.946C204.744 124.061 204.673 124.166 204.584 124.253C204.495 124.341 204.39 124.411 204.274 124.457C204.16 124.504 204.038 124.527 203.915 124.525Z" fill="#F0874A"/>
<path d="M49.6131 81.1491C49.4579 81.1488 49.3052 81.1107 49.1682 81.0381C49.0311 80.9654 48.9139 80.8605 48.8265 80.7323C48.7392 80.604 48.6845 80.4565 48.6671 80.3024C48.6498 80.1482 48.6702 79.9922 48.7268 79.8477L58.139 55.6218C58.1917 55.4813 58.2784 55.356 58.3914 55.2572C60.5864 53.3821 62.923 51.6793 65.3804 50.1641C65.5946 50.0295 65.8535 49.9854 66.1002 50.0417C66.3469 50.098 66.5611 50.25 66.6957 50.4642C66.8304 50.6784 66.8744 50.9373 66.8181 51.184C66.7618 51.4307 66.6099 51.6449 66.3956 51.7795C64.0984 53.2086 61.9037 54.7961 59.8273 56.5305L50.4993 80.5433C50.4282 80.7207 50.306 80.873 50.1482 80.9808C49.9904 81.0887 49.8042 81.1472 49.6131 81.1491Z" fill="#6D757D"/>
<path d="M77.6867 101.796H77.5184C77.2783 101.794 77.0482 101.701 76.8743 101.535C76.7004 101.37 76.5958 101.144 76.5817 100.905L76.0207 92.3114C76.0036 92.0585 76.0877 91.8091 76.2544 91.6182C76.4212 91.4273 76.6569 91.3104 76.9098 91.2933C77.1627 91.2762 77.412 91.3603 77.6029 91.527C77.7939 91.6937 77.9108 91.9295 77.9279 92.1824L78.4327 99.8725C80.4408 99.8052 85.3992 99.4238 88.3272 97.4269L88.1702 96.9445C87.0483 93.579 86.4257 91.7336 85.59 84.8961C85.0907 80.8351 85.6461 71.4341 85.6741 71.0134C85.6797 70.8878 85.7106 70.7647 85.7648 70.6513C85.819 70.5379 85.8955 70.4365 85.9897 70.3533C86.0839 70.2701 86.1939 70.2067 86.3132 70.1669C86.4324 70.1271 86.5584 70.1117 86.6837 70.1216C86.9358 70.1374 87.1713 70.2527 87.3385 70.4419C87.5057 70.6312 87.5909 70.8791 87.5756 71.1312C87.5756 71.2266 87.0147 80.7733 87.4802 84.6661C88.2936 91.3073 88.8937 93.0798 89.9763 96.3444L90.3577 97.4662C90.4176 97.6482 90.4212 97.844 90.3682 98.0281C90.3152 98.2122 90.2079 98.376 90.0604 98.4983C86.2406 101.662 78.9151 101.796 77.6867 101.796Z" fill="#6D757D"/>
<path d="M49.4332 103.743H49.3042C49.0542 103.708 48.828 103.576 48.6747 103.375C48.5214 103.175 48.4533 102.922 48.4853 102.671L48.9901 98.8684C49.0001 98.7917 49.0189 98.7164 49.0462 98.644L55.2555 82.6972L63.4 64.8769C63.4854 64.6919 63.6277 64.5391 63.8063 64.4409C63.9848 64.3427 64.1901 64.3043 64.392 64.3313C64.594 64.3582 64.782 64.4492 64.9285 64.5908C65.075 64.7324 65.1723 64.9172 65.2061 65.1181C65.2959 65.679 67.3993 78.395 66.8889 83.4488C66.4121 87.9866 64.533 95.2897 63.8599 97.8139C66.061 98.491 68.3115 98.9954 70.5909 99.3227C70.8416 99.3577 71.0681 99.4908 71.2206 99.6928C71.3732 99.8947 71.4392 100.149 71.4043 100.4C71.3693 100.65 71.2362 100.877 71.0342 101.029C70.8323 101.182 70.578 101.248 70.3273 101.213C67.6239 100.833 64.9614 100.203 62.3735 99.3339C62.1465 99.2522 61.9586 99.0878 61.8473 98.8736C61.7361 98.6595 61.7097 98.4112 61.7733 98.1785C61.8014 98.0831 64.4265 88.5251 64.9818 83.2413C65.3295 79.9207 64.4209 72.7241 63.8151 68.5677L57.0224 83.432L50.8523 99.2274L50.3643 102.918C50.3346 103.145 50.224 103.353 50.0529 103.505C49.8818 103.656 49.6617 103.741 49.4332 103.743Z" fill="#6D757D"/>
<path d="M98.2724 197.937C95.737 197.937 89.926 197.505 85.5116 193.932C85.4036 193.846 85.3159 193.737 85.2549 193.613C85.1938 193.489 85.1608 193.353 85.1582 193.214L85.1077 191.206C85.1047 191.081 85.1264 190.956 85.1716 190.84C85.2168 190.723 85.2846 190.616 85.371 190.525C85.4575 190.435 85.561 190.362 85.6756 190.311C85.7902 190.261 85.9136 190.233 86.0388 190.23C86.2905 190.229 86.533 190.325 86.7151 190.498C86.8971 190.672 87.0046 190.91 87.0148 191.161L87.0541 192.726C91.031 195.722 96.225 196.036 98.3565 196.036C98.3229 195.778 98.2836 195.525 98.2387 195.306C96.8813 194.746 95.5463 193.685 93.6168 191.043L93.5214 191.1C93.241 191.245 92.9605 191.402 92.7249 191.509C92.6111 191.562 92.4881 191.592 92.3627 191.597C92.2374 191.602 92.1122 191.583 91.9945 191.539C91.8767 191.496 91.7686 191.43 91.6765 191.345C91.5843 191.26 91.5098 191.157 91.4573 191.043C91.4036 190.931 91.3729 190.808 91.367 190.683C91.3611 190.558 91.3801 190.434 91.4229 190.316C91.4657 190.199 91.5315 190.091 91.6163 189.999C91.7012 189.907 91.8035 189.833 91.9172 189.781C92.1191 189.686 92.3716 189.551 92.6184 189.417C93.4709 188.957 94.2057 188.564 94.7274 189.316C96.8645 192.373 98.0424 193.242 99.3606 193.691C99.5015 193.741 99.6288 193.823 99.7321 193.931C99.8354 194.04 99.9118 194.171 99.9551 194.314C100.167 195.143 100.306 195.99 100.37 196.843C100.396 197.093 100.323 197.342 100.169 197.539C100.014 197.735 99.7882 197.864 99.5401 197.898C99.5401 197.898 99.0408 197.937 98.2724 197.937Z" fill="#6D757D"/>
<path d="M66.3005 197.937C63.7707 197.937 57.9596 197.505 53.5396 193.932C53.4317 193.846 53.344 193.737 53.283 193.613C53.2219 193.489 53.1889 193.353 53.1863 193.214L53.1414 191.206C53.1384 191.081 53.1601 190.956 53.2053 190.84C53.2505 190.723 53.3183 190.616 53.4047 190.525C53.4912 190.435 53.5947 190.362 53.7093 190.311C53.8238 190.261 53.9473 190.233 54.0725 190.23C54.3246 190.227 54.5679 190.323 54.7503 190.497C54.9327 190.671 55.0397 190.909 55.0485 191.161L55.0822 192.844C59.0086 195.817 64.1746 196.277 66.3005 196.277H66.3622C66.3546 195.99 66.317 195.704 66.25 195.424C64.8926 194.863 63.5576 193.742 61.628 191.105C61.5944 191.105 61.5607 191.105 61.5271 191.105C61.2522 191.257 60.9662 191.397 60.7306 191.503C60.616 191.556 60.4922 191.586 60.3663 191.591C60.2403 191.595 60.1146 191.575 59.9963 191.532C59.8781 191.488 59.7697 191.421 59.6772 191.336C59.5847 191.25 59.51 191.147 59.4573 191.032C59.4046 190.918 59.375 190.794 59.3702 190.668C59.3654 190.542 59.3854 190.416 59.4292 190.298C59.4729 190.18 59.5395 190.071 59.6252 189.979C59.7109 189.886 59.8139 189.812 59.9285 189.759C60.1248 189.669 60.3828 189.529 60.624 189.4C61.4766 188.94 62.2114 188.542 62.733 189.293C64.8701 192.35 66.0536 193.22 67.3662 193.669C67.5078 193.719 67.6358 193.801 67.74 193.909C67.8441 194.017 67.9217 194.148 67.9664 194.291C68.1761 195.123 68.3131 195.971 68.3758 196.827C68.4029 197.074 68.3317 197.323 68.1776 197.519C68.0234 197.715 67.7986 197.843 67.5513 197.875C67.5513 197.875 67.0857 197.937 66.3005 197.937Z" fill="#6D757D"/>
<path d="M74.2823 49.6537C74.0438 49.6569 73.8127 49.5706 73.6347 49.4118C73.4567 49.253 73.3447 49.0332 73.3207 48.7959C73.2968 48.5586 73.3627 48.3209 73.5054 48.1297C73.6481 47.9386 73.8572 47.8079 74.0916 47.7634L76.9242 47.1688L76.7223 41.8177L77.4739 41.627C78.0865 41.4488 78.6344 41.0972 79.0514 40.6144C79.4685 40.1317 79.7368 39.5385 79.8241 38.9065C80.1463 36.3021 80.2607 33.6763 80.1663 31.0537C80.1523 30.925 80.1646 30.7949 80.2025 30.6711C80.2404 30.5474 80.3032 30.4326 80.3869 30.3339C80.4706 30.2352 80.5735 30.1545 80.6894 30.0968C80.8052 30.0392 80.9316 30.0057 81.0609 29.9984C81.1901 29.9912 81.3195 30.0103 81.4411 30.0547C81.5626 30.0991 81.6739 30.1677 81.7681 30.2565C81.8623 30.3452 81.9375 30.4523 81.989 30.571C82.0405 30.6897 82.0673 30.8177 82.0678 30.9471C82.1761 33.6876 82.0579 36.4323 81.7144 39.1533C81.6112 40.0361 81.2768 40.876 80.7449 41.5881C80.2131 42.3002 79.5026 42.8592 78.6855 43.2088L78.893 48.7113L74.4786 49.6368C74.4138 49.6482 74.3481 49.6538 74.2823 49.6537Z" fill="#6D757D"/>
<path d="M57.3702 54.3036H57.2805C57.1556 54.2924 57.0341 54.2566 56.923 54.1983C56.812 54.14 56.7135 54.0604 56.6333 53.964C56.553 53.8676 56.4926 53.7563 56.4554 53.6366C56.4183 53.5168 56.4051 53.3908 56.4167 53.2659C56.8205 48.745 58.7501 47.7241 60.4496 46.8266C61.7341 46.1479 62.9513 45.5085 63.8151 43.2256C63.7814 41.3728 63.6032 39.5256 63.2823 37.7005C62.884 35.053 62.5026 32.5514 63.3608 29.4327C64.4826 23.6552 69.5982 20.099 75.3363 21.1592C78.3484 21.7201 80.2948 23.1616 81.4559 25.7138L81.6242 26.0896L81.4672 26.471C79.1618 32.0185 72.9637 32.5457 72.7 32.5626C72.5737 32.5746 72.4461 32.5613 72.325 32.5235C72.2038 32.4856 72.0914 32.4239 71.9944 32.3421C71.8973 32.2602 71.8176 32.1597 71.7599 32.0466C71.7023 31.9336 71.6677 31.8101 71.6584 31.6835C71.6491 31.5568 71.6651 31.4297 71.7056 31.3093C71.7461 31.189 71.8102 31.0779 71.8941 30.9827C71.9781 30.8875 72.0802 30.81 72.1945 30.7548C72.3088 30.6995 72.433 30.6677 72.5598 30.6611C72.7673 30.6611 77.5632 30.2179 79.532 26.1233C78.6289 24.4013 77.2098 23.4421 74.9886 23.0326C73.9 22.8149 72.7788 22.8192 71.6919 23.0453C70.6051 23.2714 69.5751 23.7146 68.6637 24.3484C67.7523 24.9822 66.9783 25.7934 66.388 26.7336C65.7978 27.6738 65.4034 28.7234 65.2286 29.8197V29.9038C64.4602 32.6467 64.8809 34.8567 65.2679 37.4089C65.642 39.3853 65.8558 41.3886 65.9074 43.3994V43.5677L65.7671 43.7304C64.6453 46.8266 62.8055 47.7634 61.3808 48.515C59.8046 49.3451 58.6491 49.9453 58.335 53.4398C58.3088 53.6773 58.1958 53.8968 58.0178 54.0562C57.8397 54.2156 57.6092 54.3037 57.3702 54.3036Z" fill="#6D757D"/>
<path d="M65.8907 51.9366C65.6842 51.9379 65.4828 51.8721 65.3169 51.7492C65.151 51.6262 65.0295 51.4526 64.9706 51.2547C64.9118 51.0567 64.9189 50.845 64.9907 50.6513C65.0626 50.4577 65.1954 50.2926 65.3691 50.1809L68.8187 47.9373L68.9197 38.9626C68.9224 38.842 68.9496 38.7233 68.9996 38.6135C69.0496 38.5037 69.1213 38.4052 69.2104 38.3239C69.2996 38.2426 69.4043 38.1802 69.5182 38.1406C69.6321 38.101 69.7529 38.0848 69.8732 38.0932C69.9945 38.0863 70.116 38.1043 70.2301 38.146C70.3442 38.1878 70.4485 38.2524 70.5368 38.3359C70.625 38.4194 70.6953 38.5201 70.7432 38.6317C70.7911 38.7433 70.8158 38.8636 70.8156 38.9851L70.7034 49.0198L66.3956 51.7908C66.2441 51.8854 66.0693 51.9359 65.8907 51.9366Z" fill="#6D757D"/>
<path d="M70.1033 39.6581H70.0191C67.7755 39.4618 66.8836 38.3119 66.5302 37.3808C66.2927 36.7681 66.2548 36.0961 66.4218 35.4606C66.5888 34.8251 66.9523 34.2586 67.4604 33.842C67.9685 33.4253 68.5952 33.1798 69.2511 33.1404C69.907 33.101 70.5586 33.2698 71.1129 33.6227C71.3181 33.7617 71.4611 33.9752 71.5115 34.2179C71.562 34.4606 71.516 34.7134 71.3833 34.9227C71.2505 35.1321 71.0415 35.2815 70.8004 35.3393C70.5594 35.3971 70.3053 35.3588 70.092 35.2325C69.8759 35.0972 69.6228 35.0332 69.3684 35.0495C69.1139 35.0658 68.871 35.1616 68.6739 35.3233C68.4769 35.4851 68.3355 35.7046 68.2699 35.951C68.2043 36.1974 68.2178 36.4581 68.3083 36.6965C68.4598 37.0947 68.8244 37.6388 70.1874 37.7566C70.3126 37.7621 70.4355 37.7923 70.5491 37.8453C70.6627 37.8983 70.7647 37.9732 70.8493 38.0657C70.934 38.1581 70.9996 38.2663 71.0424 38.3841C71.0852 38.5019 71.1044 38.627 71.0989 38.7522C71.0933 38.8775 71.0632 39.0004 71.0102 39.114C70.9572 39.2275 70.8823 39.3295 70.7898 39.4142C70.6974 39.4988 70.5892 39.5644 70.4714 39.6072C70.3536 39.6501 70.2285 39.6693 70.1033 39.6637V39.6581Z" fill="#6D757D"/>
<path d="M84.7317 72.0399C84.5007 72.0402 84.2773 71.9566 84.1033 71.8046C83.9292 71.6527 83.8163 71.4427 83.7854 71.2137C83.7545 70.9847 83.8079 70.7522 83.9355 70.5596C84.0632 70.367 84.2564 70.2273 84.4793 70.1664C84.5915 70.1328 87.2839 69.3419 87.5363 66.5878C87.8729 63.0428 86.0611 61.8649 86.0443 61.8537C85.9364 61.7899 85.842 61.7056 85.7667 61.6054C85.6914 61.5053 85.6366 61.3913 85.6053 61.2699C85.5741 61.1485 85.567 61.0222 85.5846 60.8981C85.6022 60.7741 85.644 60.6547 85.7077 60.5467C85.7714 60.4388 85.8558 60.3445 85.956 60.2692C86.0561 60.1939 86.1701 60.139 86.2915 60.1078C86.4129 60.0765 86.5392 60.0695 86.6633 60.0871C86.7873 60.1046 86.9067 60.1465 87.0147 60.2102C87.1324 60.2831 89.8922 61.9715 89.4322 66.7673C89.0452 70.8507 85.1468 71.9614 84.9841 72.0062C84.9018 72.0284 84.817 72.0397 84.7317 72.0399Z" fill="#6D757D"/>
<path d="M76.8007 72.0286C76.5553 72.0261 76.32 71.9301 76.1429 71.7603C75.9657 71.5904 75.8599 71.3594 75.8471 71.1143L75.4545 62.493L67.7194 50.3324C67.5841 50.1197 67.5387 49.8619 67.5934 49.6157C67.6481 49.3696 67.7984 49.1552 68.0111 49.0198C68.2239 48.8845 68.4817 48.8392 68.7278 48.8939C68.974 48.9486 69.1883 49.0988 69.3237 49.3115L77.1765 61.6853C77.2657 61.8251 77.3178 61.9853 77.3279 62.1509L77.7318 71.0302C77.7378 71.1551 77.719 71.2801 77.6766 71.3977C77.6341 71.5154 77.5687 71.6235 77.4842 71.7158C77.3997 71.8081 77.2978 71.8828 77.1844 71.9355C77.0709 71.9882 76.9481 72.0179 76.8231 72.023L76.8007 72.0286Z" fill="#6D757D"/>
<path d="M76.3966 63.1549C76.2714 63.1556 76.1473 63.1308 76.032 63.0819C75.7981 62.984 75.6126 62.7974 75.5159 62.563C75.4192 62.3286 75.4192 62.0655 75.516 61.8311L80.6764 49.4517C80.719 49.3285 80.7863 49.2153 80.8743 49.1192C80.9623 49.023 81.0691 48.9459 81.1881 48.8927C81.3071 48.8394 81.4357 48.8111 81.566 48.8095C81.6963 48.8079 81.8256 48.8331 81.9459 48.8834C82.0661 48.9337 82.1748 49.0081 82.2651 49.1021C82.3554 49.1961 82.4255 49.3075 82.4711 49.4297C82.5167 49.5518 82.5367 49.682 82.53 49.8121C82.5233 49.9423 82.49 50.0697 82.4321 50.1865L77.2773 62.5659C77.2052 62.7402 77.083 62.8891 76.9263 62.9939C76.7695 63.0988 76.5852 63.1548 76.3966 63.1549Z" fill="#6D757D"/>
<path d="M90.728 142.317H63.1309L63.0524 141.448C62.8266 139.651 62.5083 137.866 62.0988 136.102C60.5283 128.597 57.9088 116.027 62.0427 101.976C62.0796 101.856 62.1397 101.744 62.2197 101.647C62.2996 101.551 62.3979 101.47 62.5088 101.412C62.6198 101.353 62.7412 101.316 62.8663 101.304C62.9913 101.292 63.1174 101.305 63.2375 101.342C63.3576 101.379 63.4692 101.439 63.566 101.519C63.6629 101.599 63.743 101.697 63.8019 101.808C63.8607 101.919 63.8971 102.041 63.9091 102.166C63.921 102.291 63.9082 102.417 63.8713 102.537C59.872 116.128 62.3344 127.929 63.9667 135.737C64.3369 137.527 64.6734 139.103 64.8529 140.432H88.9723L89.2079 137.443C90.6999 118.495 91.0084 114.557 89.264 104.169C89.2346 103.925 89.3002 103.68 89.4472 103.483C89.5943 103.287 89.8114 103.155 90.0534 103.114C90.2955 103.074 90.5438 103.128 90.7467 103.266C90.9497 103.404 91.0916 103.615 91.143 103.855C92.9268 114.473 92.6126 118.439 91.1094 137.594L90.728 142.317Z" fill="#6D757D"/>
<path d="M93.2242 188.8C93.0413 188.8 92.8623 188.748 92.7089 188.648C92.5555 188.548 92.4344 188.406 92.3604 188.239L91.3676 186.119L88.563 149.227C88.545 148.976 88.6273 148.728 88.7918 148.537C88.9564 148.346 89.1899 148.228 89.4412 148.209C89.6925 148.189 89.9412 148.27 90.133 148.434C90.3247 148.598 90.4439 148.83 90.4645 149.082L93.2691 185.625L94.116 187.431C94.1689 187.545 94.1988 187.668 94.204 187.794C94.2092 187.919 94.1896 188.044 94.1463 188.162C94.1031 188.28 94.037 188.388 93.9519 188.48C93.8668 188.572 93.7644 188.647 93.6505 188.699C93.5187 188.767 93.3724 188.801 93.2242 188.8Z" fill="#6D757D"/>
<path d="M89.4155 150.439C89.2579 150.439 89.1028 150.4 88.9639 150.325C88.825 150.251 88.7065 150.144 88.619 150.013C88.4002 149.682 88.3217 149.57 88.9051 145.929C88.9544 145.369 88.9412 144.804 88.8658 144.246C88.7985 143.472 88.72 142.513 88.72 141.229C88.72 140.976 88.8204 140.733 88.9993 140.554C89.1781 140.376 89.4206 140.275 89.6735 140.275C89.9264 140.275 90.169 140.376 90.3478 140.554C90.5266 140.733 90.6271 140.976 90.6271 141.229C90.6271 142.435 90.7056 143.349 90.7673 144.089C90.8508 144.797 90.8508 145.513 90.7673 146.221C90.5712 147.266 90.4289 148.32 90.341 149.379C90.3543 149.512 90.3397 149.646 90.2982 149.773C90.2567 149.899 90.1891 150.016 90.0999 150.115C90.0107 150.215 89.9017 150.294 89.78 150.349C89.6583 150.404 89.5265 150.432 89.3931 150.433L89.4155 150.439Z" fill="#6D757D"/>
<path d="M61.6446 188.946H61.5605C61.4346 188.935 61.312 188.9 61.1999 188.841C61.0878 188.783 60.9884 188.703 60.9075 188.606C60.8266 188.509 60.7658 188.397 60.7287 188.276C60.6915 188.155 60.6787 188.028 60.6911 187.903L60.994 184.823L72.2123 149.278L72.7227 145.43C72.7619 145.185 72.895 144.965 73.0939 144.816C73.2928 144.668 73.5417 144.603 73.7878 144.635C74.0338 144.667 74.2577 144.794 74.4118 144.988C74.5659 145.183 74.6381 145.43 74.613 145.677L74.0521 149.771L62.8338 185.3L62.5814 188.104C62.553 188.334 62.4425 188.546 62.2704 188.7C62.0982 188.855 61.876 188.942 61.6446 188.946Z" fill="#6D757D"/>
<path d="M53.6797 189.26C53.5314 189.263 53.3848 189.228 53.2534 189.159C53.0273 189.046 52.8554 188.848 52.7755 188.608C52.6956 188.368 52.7141 188.106 52.8271 187.88L53.5843 186.371C53.9882 184.924 54.4874 183.241 55.009 181.458C56.4842 176.46 58.3184 170.239 58.3745 167.996C58.6886 155.914 61.7008 150.764 62.7889 149.289L62.845 149.104C63.6118 146.888 63.9487 144.547 63.8378 142.205C63.8276 142.08 63.8422 141.954 63.8808 141.834C63.9194 141.714 63.9813 141.604 64.0628 141.508C64.1443 141.413 64.244 141.334 64.3559 141.277C64.4679 141.22 64.59 141.186 64.7153 141.176C64.8406 141.167 64.9665 141.182 65.0859 141.221C65.2052 141.26 65.3156 141.323 65.4108 141.405C65.506 141.487 65.584 141.587 65.6404 141.699C65.6967 141.811 65.7304 141.934 65.7394 142.059C65.8668 144.639 65.5032 147.22 64.668 149.665L64.5166 150.175L64.4044 150.316C63.7761 151.129 60.6014 155.801 60.2816 168.046C60.2199 170.52 58.5035 176.348 56.8376 181.979C56.3048 183.791 55.7999 185.502 55.4017 186.955L55.3344 187.129L54.521 188.738C54.442 188.894 54.3217 189.025 54.1734 189.117C54.025 189.209 53.8542 189.258 53.6797 189.26Z" fill="#6D757D"/>
<path d="M86.3699 188.705H86.2745C86.1498 188.693 86.0287 188.656 85.9181 188.597C85.8076 188.538 85.7099 188.458 85.6306 188.361C85.5513 188.264 85.492 188.152 85.4562 188.032C85.4204 187.912 85.4088 187.786 85.4219 187.661L85.5846 186.035C85.0798 183.561 84.6198 181.059 84.2103 178.844C83.6214 175.635 83.0885 172.864 82.6398 171.131C79.5267 159.537 80.5925 150.719 81.2712 148.229C81.215 147.759 81.1326 147.293 81.0244 146.832C80.8259 146.014 80.7131 145.178 80.6878 144.336C80.6878 144.211 80.7125 144.087 80.7604 143.971C80.8083 143.856 80.8786 143.751 80.9671 143.662C81.0556 143.573 81.1608 143.503 81.2764 143.455C81.3921 143.407 81.5161 143.383 81.6414 143.383C81.7666 143.383 81.8906 143.407 82.0063 143.455C82.122 143.503 82.2271 143.573 82.3156 143.662C82.4042 143.751 82.4744 143.856 82.5223 143.971C82.5703 144.087 82.5949 144.211 82.5949 144.336C82.6218 145.044 82.7214 145.747 82.8922 146.434C83.0316 147.033 83.131 147.64 83.1895 148.251V148.431L83.139 148.605C82.623 150.288 81.3385 158.971 84.474 170.632C84.9564 172.444 85.478 175.248 86.0726 178.485C86.4877 180.728 86.9588 183.286 87.4693 185.777L87.5029 185.923L87.3066 187.835C87.2858 188.07 87.1785 188.289 87.0054 188.45C86.8324 188.611 86.6059 188.701 86.3699 188.705Z" fill="#6D757D"/>
<path d="M53.3994 198.077C53.1459 198.076 52.9034 197.974 52.7247 197.795C52.5461 197.615 52.4458 197.372 52.4458 197.118V191.094C52.4458 190.841 52.5463 190.599 52.7251 190.42C52.9039 190.241 53.1465 190.141 53.3994 190.141C53.6523 190.141 53.8948 190.241 54.0736 190.42C54.2525 190.599 54.3529 190.841 54.3529 191.094V197.118C54.3529 197.372 54.2526 197.615 54.074 197.795C53.8953 197.974 53.6528 198.076 53.3994 198.077Z" fill="#6D757D"/>
<path d="M86.0668 198.162C85.8139 198.162 85.5714 198.061 85.3926 197.882C85.2137 197.704 85.1133 197.461 85.1133 197.208V191.234C85.1133 190.981 85.2137 190.739 85.3926 190.56C85.5714 190.381 85.8139 190.281 86.0668 190.281C86.3197 190.281 86.5623 190.381 86.7411 190.56C86.9199 190.739 87.0204 190.981 87.0204 191.234V197.214C87.0189 197.466 86.9178 197.707 86.7391 197.884C86.5605 198.062 86.3188 198.162 86.0668 198.162Z" fill="#6D757D"/>
<path d="M36.3644 107.495C36.2631 107.495 36.1626 107.478 36.0671 107.445C35.9486 107.407 35.8388 107.347 35.7438 107.266C35.6489 107.186 35.5708 107.088 35.5139 106.977C35.4571 106.867 35.4227 106.746 35.4127 106.622C35.4027 106.499 35.4173 106.374 35.4557 106.256C35.8287 105.107 36.6259 104.143 37.6849 103.561C38.7438 102.98 39.9847 102.824 41.1546 103.126L42.6522 103.434C42.8999 103.486 43.1171 103.633 43.2559 103.845C43.3948 104.056 43.444 104.314 43.3926 104.562C43.3413 104.809 43.1937 105.027 42.9823 105.165C42.7708 105.304 42.5129 105.353 42.2652 105.302L40.7676 104.994C40.0581 104.794 39.299 104.875 38.6475 105.22C37.996 105.564 37.5019 106.146 37.2674 106.845C37.204 107.034 37.0827 107.199 36.9207 107.315C36.7587 107.432 36.5641 107.495 36.3644 107.495Z" fill="#6D757D"/>
<path d="M51.7163 134.498C51.4091 134.497 51.1028 134.465 50.802 134.402L23.7995 128.793C22.636 128.55 21.6164 127.856 20.9644 126.862C20.3125 125.868 20.0813 124.657 20.3218 123.493L23.5135 108.157C23.7243 107.151 24.2745 106.247 25.0719 105.597C25.8694 104.948 26.8658 104.592 27.8942 104.59C28.2016 104.588 28.5082 104.62 28.8085 104.685L55.8166 110.294C56.98 110.537 57.9997 111.232 58.6516 112.225C59.3036 113.219 59.5347 114.431 59.2942 115.595L56.1026 130.93C55.8916 131.938 55.3406 132.842 54.542 133.492C53.7433 134.141 52.7457 134.496 51.7163 134.498ZM27.8942 106.491C27.3042 106.493 26.7326 106.697 26.2751 107.07C25.8177 107.442 25.5021 107.961 25.3813 108.539L22.1897 123.874C22.052 124.543 22.1848 125.238 22.559 125.809C22.9333 126.38 23.5185 126.779 24.1866 126.92L51.189 132.529C51.3622 132.567 51.539 132.586 51.7163 132.585C52.3067 132.583 52.8786 132.378 53.3368 132.006C53.7949 131.633 54.1118 131.115 54.2348 130.538L57.4264 115.197C57.5625 114.529 57.4289 113.834 57.0548 113.265C56.6806 112.695 56.0964 112.297 55.4295 112.156L28.4215 106.547C28.2556 106.511 28.0864 106.492 27.9166 106.491H27.8942Z" fill="#6D757D"/>
<path d="M42.1361 119.807L37.7273 118.887L36.8691 116.442L29.4145 114.888C29.2919 114.863 29.1755 114.813 29.0719 114.743C28.9683 114.673 28.8796 114.582 28.8108 114.478C28.7421 114.373 28.6946 114.256 28.6712 114.133C28.6477 114.01 28.6487 113.883 28.6741 113.761C28.6995 113.638 28.7489 113.522 28.8193 113.418C28.8897 113.314 28.9798 113.226 29.0845 113.157C29.1892 113.088 29.3064 113.041 29.4294 113.017C29.5525 112.994 29.6789 112.995 29.8016 113.02L38.3163 114.793L39.1745 117.261L41.463 117.738L43.2299 115.814L51.7446 117.564C51.8672 117.589 51.9837 117.638 52.0872 117.709C52.1908 117.779 52.2795 117.869 52.3483 117.974C52.417 118.079 52.4645 118.196 52.488 118.319C52.5114 118.442 52.5104 118.569 52.485 118.691C52.4596 118.814 52.4103 118.93 52.3398 119.034C52.2694 119.137 52.1793 119.226 52.0746 119.295C51.9699 119.364 51.8527 119.411 51.7297 119.435C51.6066 119.458 51.4802 119.457 51.3576 119.432L43.903 117.878L42.1361 119.807Z" fill="#6D757D"/>
<path d="M46.3147 108.107C44.8451 107.994 42.2705 107.17 41.962 104.786C41.9508 104.712 41.9508 104.636 41.962 104.562L42.6463 98.3074C42.6536 98.241 42.6667 98.1752 42.6856 98.1111L48.7547 79.786L50.5665 80.3862L44.531 98.6159L43.8635 104.663C44.144 106.014 46.4325 106.228 46.455 106.228L46.3147 108.107Z" fill="#6D757D"/>
<path d="M46.9821 99.4068C46.9065 99.4054 46.8313 99.396 46.7577 99.3787L43.8634 98.6944C43.7415 98.6657 43.6264 98.6132 43.5248 98.5401C43.4232 98.4669 43.3369 98.3744 43.2711 98.2678C43.2052 98.1613 43.1609 98.0429 43.1408 97.9193C43.1207 97.7956 43.1251 97.6693 43.1538 97.5474C43.1826 97.4255 43.235 97.3104 43.3082 97.2088C43.3814 97.1071 43.4739 97.0209 43.5804 96.955C43.6869 96.8891 43.8054 96.8449 43.929 96.8248C44.0526 96.8046 44.179 96.8091 44.3009 96.8378L47.184 97.5221C47.4147 97.5729 47.6183 97.7076 47.7554 97.8999C47.8924 98.0923 47.9532 98.3287 47.926 98.5633C47.8988 98.7979 47.7854 99.0141 47.6079 99.1699C47.4305 99.3257 47.2014 99.4101 46.9653 99.4068H46.9821Z" fill="#6D757D"/>
<path d="M111.342 87.5659C111.124 87.5664 110.912 87.4933 110.741 87.3584C110.544 87.1999 110.418 86.9697 110.391 86.7183C110.364 86.4669 110.437 86.2149 110.596 86.0178L111.717 84.6155C111.876 84.4204 112.106 84.2962 112.357 84.2699C112.607 84.2436 112.857 84.3173 113.054 84.475C113.25 84.6327 113.376 84.8615 113.404 85.1117C113.432 85.3618 113.36 85.6129 113.204 85.8102L112.082 87.2125C111.993 87.3235 111.88 87.4128 111.752 87.474C111.624 87.5352 111.484 87.5666 111.342 87.5659Z" fill="#6D757D"/>
<path opacity="0.19" d="M37.3549 45.9706C38.2856 40.2372 34.3922 34.8349 28.6587 33.9043C22.9253 32.9736 17.523 36.867 16.5923 42.6004C15.6617 48.3338 19.5551 53.7361 25.2885 54.6668C31.0219 55.5975 36.4242 51.7041 37.3549 45.9706Z" fill="#F0874A"/>
<path opacity="0.19" d="M221.112 92.8834C221.113 93.818 220.837 94.7319 220.319 95.5095C219.8 96.287 219.063 96.8932 218.199 97.2514C217.336 97.6095 216.386 97.7036 215.469 97.5215C214.553 97.3394 213.711 96.8895 213.05 96.2287C212.389 95.5678 211.939 94.7258 211.757 93.8091C211.575 92.8924 211.669 91.9423 212.027 91.0791C212.385 90.2158 212.991 89.4783 213.769 88.9598C214.547 88.4412 215.46 88.165 216.395 88.1661C217.646 88.1676 218.845 88.6651 219.729 89.5494C220.613 90.4338 221.111 91.6328 221.112 92.8834Z" fill="#F0874A"/>
<path opacity="0.19" d="M189.141 95.688C189.142 96.6226 188.866 97.5365 188.348 98.314C187.829 99.0916 187.091 99.6978 186.228 100.056C185.365 100.414 184.415 100.508 183.498 100.326C182.582 100.144 181.739 99.6941 181.079 99.0332C180.418 98.3724 179.968 97.5303 179.786 96.6136C179.604 95.697 179.698 94.7469 180.056 93.8836C180.414 93.0204 181.02 92.2829 181.798 91.7643C182.575 91.2458 183.489 90.9696 184.424 90.9707C185.674 90.9722 186.873 91.4697 187.758 92.354C188.642 93.2384 189.14 94.4374 189.141 95.688Z" fill="#F0874A"/>
<path opacity="0.19" d="M222.235 128.782C222.236 129.717 221.96 130.63 221.441 131.408C220.923 132.186 220.185 132.792 219.322 133.15C218.459 133.508 217.509 133.602 216.592 133.42C215.675 133.238 214.833 132.788 214.172 132.127C213.512 131.466 213.062 130.624 212.88 129.708C212.697 128.791 212.791 127.841 213.15 126.978C213.508 126.114 214.114 125.377 214.892 124.858C215.669 124.34 216.583 124.064 217.518 124.065C218.768 124.066 219.967 124.564 220.852 125.448C221.736 126.332 222.233 127.531 222.235 128.782Z" fill="#F0874A"/>
</svg>
