<svg width="232" height="210" viewBox="0 0 232 210" fill="none" xmlns="http://www.w3.org/2000/svg">
<path opacity="0.26" d="M228.83 29.1795C229.531 14.4821 218.041 1.99272 203.167 1.28374C188.292 0.574758 175.665 11.9146 174.964 26.612C174.263 41.3095 185.753 53.7988 200.628 54.5078C215.502 55.2168 228.129 43.8769 228.83 29.1795Z" fill="#F0874A"/>
<path d="M21.2035 82.8552C21.0045 82.8552 20.8135 82.7762 20.6727 82.6355C20.532 82.4948 20.4529 82.3039 20.4529 82.1049C20.4529 81.9059 20.532 81.715 20.6727 81.5743C20.8135 81.4336 21.0045 81.3546 21.2035 81.3546H27.6292C27.8282 81.3546 28.0192 81.4336 28.1599 81.5743C28.3007 81.715 28.3798 81.9059 28.3798 82.1049C28.3798 82.3039 28.3007 82.4948 28.1599 82.6355C28.0192 82.7762 27.8282 82.8552 27.6292 82.8552H21.2035Z" fill="#F0874A"/>
<path d="M24.4213 86.0632C24.2222 86.0632 24.0313 85.9841 23.8905 85.8434C23.7498 85.7027 23.6707 85.5118 23.6707 85.3128V78.8849C23.67 78.7866 23.6888 78.6891 23.726 78.5981C23.7632 78.5071 23.818 78.4243 23.8873 78.3546C23.9566 78.2849 24.039 78.2295 24.1298 78.1917C24.2206 78.154 24.318 78.1345 24.4163 78.1345C24.615 78.1358 24.8052 78.2153 24.9457 78.3557C25.0862 78.4962 25.1657 78.6863 25.167 78.8849V85.3078C25.167 85.5068 25.0879 85.6977 24.9471 85.8384C24.8063 85.9791 24.6154 86.0582 24.4163 86.0582L24.4213 86.0632Z" fill="#F0874A"/>
<path d="M157.488 68.4299C157.262 68.432 157.043 68.3579 156.865 68.2197C156.687 68.0815 156.561 67.8873 156.507 67.6685C156.453 67.4497 156.475 67.2191 156.568 67.0142C156.662 66.8092 156.822 66.6418 157.022 66.539L165.66 62.0069C165.777 61.9422 165.905 61.9013 166.038 61.8869C166.17 61.8724 166.304 61.8846 166.432 61.9227C166.56 61.9608 166.679 62.0241 166.782 62.1088C166.885 62.1936 166.97 62.298 167.032 62.4161C167.094 62.5342 167.132 62.6634 167.143 62.7963C167.155 62.9292 167.139 63.063 167.098 63.1898C167.057 63.3167 166.991 63.4341 166.904 63.535C166.817 63.636 166.71 63.7185 166.591 63.7778L157.953 68.3148C157.81 68.3903 157.65 68.4298 157.488 68.4299Z" fill="#F0874A"/>
<path d="M165.089 68.0602L164.144 67.7301L165.78 63.0729L161.016 61.7823L161.281 60.8169L167.081 62.3926L165.089 68.0602Z" fill="#F0874A"/>
<path d="M156.667 30.8631C156.152 30.8631 155.649 30.7105 155.221 30.4247C154.793 30.1389 154.46 29.7326 154.263 29.2573C154.066 28.782 154.014 28.259 154.115 27.7544C154.215 27.2499 154.463 26.7864 154.827 26.4226C155.191 26.0588 155.655 25.8111 156.159 25.7107C156.664 25.6103 157.187 25.6618 157.663 25.8587C158.138 26.0556 158.545 26.389 158.831 26.8168C159.117 27.2445 159.269 27.7474 159.269 28.2619C159.268 28.9514 158.993 29.6122 158.506 30.0998C158.018 30.5873 157.357 30.8618 156.667 30.8631ZM156.667 27.1614C156.449 27.1614 156.236 27.2259 156.055 27.3469C155.874 27.4678 155.733 27.6397 155.65 27.8408C155.567 28.0418 155.545 28.2631 155.587 28.4766C155.63 28.6901 155.735 28.8862 155.889 29.0401C156.043 29.194 156.239 29.2988 156.452 29.3413C156.666 29.3837 156.887 29.3619 157.088 29.2786C157.29 29.1953 157.462 29.0543 157.583 28.8733C157.703 28.6923 157.768 28.4796 157.768 28.2619C157.768 27.9696 157.652 27.6891 157.446 27.482C157.24 27.2748 156.96 27.1577 156.667 27.1564V27.1614Z" fill="#6D757D"/>
<path d="M212.286 65.3137H208.782C208.517 65.3137 208.262 65.2083 208.075 65.0206C207.887 64.833 207.782 64.5785 207.782 64.3132C207.782 64.0479 207.887 63.7934 208.075 63.6058C208.262 63.4181 208.517 63.3127 208.782 63.3127H212.286C212.551 63.3127 212.806 63.4181 212.993 63.6058C213.181 63.7934 213.286 64.0479 213.286 64.3132C213.286 64.5785 213.181 64.833 212.993 65.0206C212.806 65.2083 212.551 65.3137 212.286 65.3137Z" fill="#6D757D"/>
<path d="M83.9084 98.528L78.0032 96.9173C77.7471 96.8476 77.5291 96.6791 77.3972 96.4488C77.2654 96.2185 77.2304 95.9452 77.3001 95.6892C77.3698 95.4331 77.5384 95.2153 77.7688 95.0834C77.9992 94.9516 78.2725 94.9167 78.5287 94.9864L83.6382 96.392L127.006 71.7107L144.571 86.1923L183.991 64.8775C184.224 64.7515 184.499 64.7234 184.753 64.7994C185.007 64.8753 185.221 65.0492 185.347 65.2827C185.473 65.5162 185.501 65.7902 185.425 66.0444C185.349 66.2987 185.175 66.5123 184.942 66.6383L144.336 88.5984L126.796 74.1368L83.9084 98.528Z" fill="#F0874A"/>
<path d="M183.3 71.9517L182.164 71.5665L184.061 65.959L178.326 64.4783L178.626 63.3127L185.612 65.1186L183.3 71.9517Z" fill="#F0874A"/>
<path d="M181.904 179.726C181.905 180.007 181.822 180.283 181.667 180.517C181.511 180.751 181.289 180.934 181.029 181.042C180.769 181.151 180.483 181.179 180.207 181.124C179.931 181.07 179.677 180.934 179.478 180.735C179.279 180.536 179.143 180.283 179.089 180.007C179.034 179.731 179.063 179.445 179.171 179.185C179.279 178.925 179.462 178.703 179.696 178.548C179.931 178.392 180.206 178.309 180.488 178.31C180.863 178.31 181.224 178.459 181.489 178.725C181.755 178.99 181.904 179.35 181.904 179.726Z" fill="#6D757D"/>
<path d="M201.226 119.489H193.219C192.953 119.489 192.699 119.383 192.511 119.196C192.323 119.008 192.218 118.754 192.218 118.488C192.218 118.223 192.323 117.969 192.511 117.781C192.699 117.593 192.953 117.488 193.219 117.488H201.226C201.491 117.488 201.746 117.593 201.934 117.781C202.121 117.969 202.227 118.223 202.227 118.488C202.227 118.754 202.121 119.008 201.934 119.196C201.746 119.383 201.491 119.489 201.226 119.489Z" fill="#6D757D"/>
<path d="M230.201 209.7H1.00088C0.735427 209.7 0.480849 209.594 0.293149 209.407C0.105448 209.219 0 208.965 0 208.699C0 208.434 0.105448 208.179 0.293149 207.992C0.480849 207.804 0.735427 207.699 1.00088 207.699H230.201C230.467 207.699 230.721 207.804 230.909 207.992C231.097 208.179 231.202 208.434 231.202 208.699C231.202 208.965 231.097 209.219 230.909 209.407C230.721 209.594 230.467 209.7 230.201 209.7Z" fill="#6D757D"/>
<path d="M30.2966 140.568C30.0744 140.568 29.8584 140.495 29.6826 140.359C29.5068 140.223 29.3813 140.033 29.3257 139.818L28.0796 135.025C28.0373 134.861 28.0373 134.689 28.0796 134.525L33.3542 114.981C33.3749 114.897 33.4087 114.815 33.4543 114.741L41.8467 100.164C41.9546 99.9738 42.1221 99.8239 42.3236 99.7376C42.525 99.6514 42.7491 99.6336 42.9617 99.687C43.1742 99.7404 43.3633 99.862 43.5 100.033C43.6367 100.204 43.7134 100.416 43.7183 100.635L44.524 128.673H54.5328C54.7982 128.673 55.0528 128.778 55.2405 128.966C55.4282 129.153 55.5336 129.408 55.5336 129.673C55.5336 129.938 55.4282 130.193 55.2405 130.38C55.0528 130.568 54.7982 130.673 54.5328 130.673H43.5231C43.2628 130.674 43.0127 130.572 42.8258 130.391C42.639 130.21 42.5301 129.963 42.5223 129.703L41.7866 104.226L35.2759 115.617L30.1064 134.775L31.2724 139.312C31.3394 139.569 31.3017 139.842 31.1675 140.071C31.0333 140.3 30.8136 140.466 30.5568 140.533C30.4723 140.558 30.3846 140.569 30.2966 140.568Z" fill="#6D757D"/>
<path d="M25.6075 144.134C25.5314 144.134 25.4558 144.124 25.3823 144.104C25.2541 144.075 25.133 144.02 25.0258 143.944C24.9187 143.868 24.8277 143.771 24.758 143.66C24.6883 143.548 24.6412 143.424 24.6195 143.294C24.5978 143.165 24.6019 143.032 24.6316 142.904C24.7567 142.379 25.132 141.063 25.2271 140.833C25.3222 140.603 25.5975 139.252 25.9928 138.062C26.0771 137.81 26.2581 137.601 26.496 137.483C26.7339 137.364 27.0092 137.345 27.2614 137.429C27.5136 137.513 27.722 137.694 27.8407 137.932C27.9594 138.17 27.9787 138.445 27.8945 138.697C27.4991 139.883 27.1738 141.298 27.1688 141.313C27.171 141.336 27.171 141.36 27.1688 141.383C27.0437 141.788 26.6984 142.939 26.6033 143.359C26.5517 143.583 26.4245 143.782 26.2431 143.924C26.0617 144.065 25.8373 144.139 25.6075 144.134Z" fill="#6D757D"/>
<path d="M22.5347 142.914C22.373 142.915 22.2134 142.877 22.0695 142.803C21.9257 142.729 21.802 142.621 21.709 142.489L19.9575 139.988C19.8808 139.878 19.827 139.753 19.7995 139.621C19.772 139.49 19.7713 139.354 19.7973 139.222L20.9684 133.22L26.3831 109.939C26.4031 109.859 26.4317 109.782 26.4682 109.709L38.9791 85.2827C39.0507 85.1429 39.1534 85.0213 39.2794 84.9275C41.4493 83.3993 43.8032 82.1506 46.2855 81.2108C46.5357 81.1206 46.8115 81.1334 47.0522 81.2464C47.2929 81.3595 47.4789 81.5635 47.5691 81.8136C47.6594 82.0636 47.6466 82.3393 47.5335 82.5799C47.4204 82.8206 47.2163 83.0064 46.9661 83.0967C44.7391 83.9461 42.6222 85.0596 40.6606 86.4132L28.3298 110.509L22.9501 133.64L21.8692 139.202L23.3705 141.353C23.4462 141.461 23.5 141.583 23.5287 141.711C23.5574 141.84 23.5604 141.973 23.5376 142.102C23.5149 142.232 23.4667 142.356 23.3959 142.467C23.3252 142.578 23.2332 142.674 23.1253 142.749C22.9505 142.865 22.744 142.922 22.5347 142.914Z" fill="#6D757D"/>
<path d="M63.5657 81.6465C63.3202 81.6447 63.0839 81.5529 62.9018 81.3884C62.7197 81.2239 62.6043 80.9982 62.5778 80.7543C62.5512 80.5104 62.6152 80.2652 62.7577 80.0654C62.9002 79.8656 63.1111 79.725 63.3505 79.6705L67.6693 78.7101L82.8625 68.4204L94.0073 51.6527L93.2116 48.7863C93.1539 48.5354 93.1952 48.2718 93.327 48.0505C93.4588 47.8292 93.6708 47.6673 93.919 47.5983C94.1672 47.5293 94.4325 47.5587 94.6596 47.6803C94.8867 47.8019 95.0582 48.0063 95.1383 48.2511L96.0591 51.5576C96.0974 51.6957 96.1057 51.8404 96.0832 51.9819C96.0608 52.1235 96.0082 52.2585 95.929 52.378L84.4189 69.696C84.347 69.8025 84.2553 69.8942 84.1487 69.9661L68.6351 80.4709C68.5316 80.5442 68.414 80.5953 68.2898 80.621L63.7859 81.6214C63.7135 81.6372 63.6397 81.6455 63.5657 81.6465Z" fill="#6D757D"/>
<path d="M69.7409 128.833C69.4754 128.833 69.2208 128.727 69.0331 128.54C68.8454 128.352 68.74 128.098 68.74 127.832L69.4056 90.8154C69.4079 90.684 69.436 90.5544 69.4885 90.4339C69.5409 90.3134 69.6165 90.2044 69.7111 90.1131C69.8057 90.0218 69.9173 89.95 70.0396 89.9019C70.1619 89.8537 70.2925 89.8301 70.424 89.8324C70.5554 89.8347 70.6851 89.8629 70.8056 89.9153C70.9262 89.9677 71.0352 90.0433 71.1266 90.1378C71.2179 90.2324 71.2897 90.3439 71.3378 90.4662C71.386 90.5885 71.4096 90.719 71.4073 90.8504L70.7417 127.867C70.7327 128.127 70.6232 128.372 70.4365 128.552C70.2498 128.732 70.0004 128.833 69.7409 128.833Z" fill="#6D757D"/>
<path d="M70.637 209.206C68.6353 209.206 59.3822 208.916 58.9868 208.906L58.036 208.876L57.5355 181.458L56.2194 155.421C56.2055 155.156 56.2975 154.896 56.4754 154.698C56.6532 154.501 56.9023 154.382 57.1677 154.368C57.4332 154.354 57.6933 154.446 57.8908 154.624C58.0884 154.802 58.2072 155.051 58.2211 155.316L59.5573 181.413L60.0077 206.955C62.3748 207.025 68.4701 207.21 70.4018 207.225C70.4492 207.106 70.4681 206.978 70.4568 206.85C70.4402 206.691 70.3896 206.537 70.3085 206.399C70.2273 206.261 70.1175 206.142 69.9864 206.05C69.5845 205.745 69.1414 205.499 68.6703 205.319L67.9346 204.979L67.3791 204.719V204.109C67.1039 196.805 68.2099 162.144 68.2599 160.674L68.8054 125.908C68.8054 125.642 68.9108 125.388 69.0985 125.2C69.2862 125.013 69.5408 124.907 69.8063 124.907C70.0717 124.907 70.3263 125.013 70.514 125.2C70.7017 125.388 70.8071 125.642 70.8071 125.908L70.2166 160.674C70.2166 161.039 69.1207 194.949 69.3208 203.378L69.481 203.453C70.0834 203.693 70.6506 204.013 71.1675 204.404C71.6485 204.753 72.0176 205.234 72.2299 205.789C72.4422 206.344 72.4887 206.949 72.3635 207.53C72.293 207.924 72.1085 208.29 71.8328 208.58C71.5571 208.871 71.2023 209.075 70.8122 209.166H70.632L70.637 209.206Z" fill="#6D757D"/>
<path d="M55.1881 81.1306C54.9227 81.1585 54.657 81.0798 54.4496 80.9119C54.2422 80.744 54.11 80.5006 54.0822 80.2352C54.0543 79.9699 54.133 79.7044 54.301 79.497C54.469 79.2897 54.7125 79.1576 54.9779 79.1297L57.5902 78.5745L57.7454 75.373L58.3409 75.1329C59.3418 74.7327 60.728 73.8273 60.803 73.172C61.6137 66.0637 60.5979 62.1169 60.5879 62.0769C60.5327 61.8241 60.5776 61.5597 60.7132 61.3393C60.8489 61.1189 61.0647 60.9597 61.3153 60.8949C61.5659 60.8302 61.8319 60.865 62.0574 60.9921C62.2829 61.1193 62.4503 61.3288 62.5245 61.5766C62.5696 61.7467 63.6505 65.8836 62.7898 73.4121C62.6046 75.0829 60.728 76.2234 59.6871 76.7386L59.5169 80.2402L55.3983 81.1156C55.3292 81.1299 55.2585 81.1349 55.1881 81.1306Z" fill="#6D757D"/>
<path d="M47.0109 66.7494C46.7761 66.7539 46.5471 66.6757 46.3641 66.5285C46.1812 66.3812 46.0558 66.1743 46.0101 65.944C45.7304 63.9076 46.0071 61.8334 46.8108 59.9413L46.8858 59.7912C47.9907 58.1867 49.5593 56.9577 51.3819 56.2685C53.2045 55.5793 55.1941 55.4627 57.0847 55.9344C59.7671 56.6197 61.4135 58.2105 62.4294 61.0868L62.5495 61.437L62.4144 61.7821C61.4135 64.3333 59.2967 65.6989 55.3382 66.3442C54.7577 66.4393 52.3856 66.4743 51.67 66.4793C51.4046 66.4793 51.15 66.3739 50.9623 66.1863C50.7746 65.9986 50.6691 65.7442 50.6691 65.4788C50.6691 65.2135 50.7746 64.959 50.9623 64.7714C51.15 64.5838 51.4046 64.4784 51.67 64.4784C53.0612 64.4784 54.7427 64.4183 55.033 64.3733C58.536 63.8031 59.7771 62.7676 60.4277 61.3719C59.642 59.371 58.516 58.3405 56.6093 57.8703C55.1443 57.496 53.6003 57.5728 52.1796 58.0905C50.7589 58.6082 49.5277 59.5427 48.6474 60.7717C48.0213 62.2917 47.7972 63.9472 47.9968 65.5789C48.0452 65.8388 47.9886 66.1073 47.8395 66.3257C47.6904 66.5441 47.4609 66.6947 47.2011 66.7444C47.1381 66.7532 47.0743 66.7549 47.0109 66.7494Z" fill="#6D757D"/>
<path d="M45.9151 83.3519C45.6805 83.3531 45.4529 83.272 45.272 83.1225C45.0912 82.9731 44.9686 82.765 44.9257 82.5344C44.8828 82.3038 44.9223 82.0655 45.0372 81.8611C45.1522 81.6567 45.3354 81.4991 45.5548 81.416L47.9769 80.4755L47.9168 71.9116C47.9168 71.6463 48.0223 71.3918 48.21 71.2042C48.3977 71.0165 48.6523 70.9111 48.9177 70.9111C49.1832 70.9111 49.4377 71.0165 49.6254 71.2042C49.8131 71.3918 49.9186 71.6463 49.9186 71.9116L49.9886 81.8562L46.2854 83.2818C46.1672 83.3273 46.0417 83.351 45.9151 83.3519Z" fill="#6D757D"/>
<path d="M49.6685 72.9118C49.6086 72.9167 49.5483 72.9167 49.4884 72.9118C47.2564 72.5116 46.4557 71.271 46.1755 70.3006C45.9894 69.6595 46.0108 68.976 46.2366 68.3478C46.4624 67.7195 46.8811 67.1787 47.4328 66.8025C47.9845 66.4264 48.641 66.2341 49.3086 66.2533C49.9761 66.2724 50.6206 66.5019 51.1498 66.909C51.3479 67.074 51.4746 67.309 51.5036 67.565C51.5327 67.8211 51.4617 68.0785 51.3056 68.2835C51.1495 68.4886 50.9202 68.6255 50.6656 68.6658C50.411 68.7061 50.1506 68.6466 49.9388 68.4998C49.7437 68.3495 49.5062 68.2646 49.2601 68.257C49.014 68.2494 48.7717 68.3196 48.5678 68.4575C48.3639 68.5955 48.2086 68.7942 48.1241 69.0254C48.0396 69.2566 48.0302 69.5085 48.0972 69.7454C48.2123 70.1455 48.5175 70.7058 49.8437 70.9409C50.1091 70.9641 50.3545 71.0918 50.5258 71.2958C50.697 71.4999 50.7802 71.7636 50.757 72.0289C50.7338 72.2942 50.606 72.5395 50.4019 72.7107C50.1978 72.8819 49.934 72.965 49.6685 72.9418V72.9118Z" fill="#6D757D"/>
<path d="M42.7475 101.49C42.6059 101.489 42.4661 101.459 42.3372 101.4C42.2171 101.346 42.1089 101.269 42.0188 101.173C41.9286 101.077 41.8583 100.964 41.8118 100.841C41.7653 100.718 41.7436 100.587 41.7478 100.455C41.7521 100.324 41.7823 100.194 41.8368 100.074L43.3381 96.7429C43.4469 96.5008 43.6475 96.3118 43.8957 96.2175C44.144 96.1233 44.4195 96.1314 44.6617 96.2402C44.9039 96.349 45.093 96.5495 45.1873 96.7976C45.2816 97.0458 45.2735 97.3212 45.1647 97.5633L43.6633 100.9C43.5841 101.076 43.4554 101.226 43.2929 101.33C43.1303 101.435 42.9409 101.491 42.7475 101.49Z" fill="#6D757D"/>
<path d="M39.2291 209.094C35.7261 209.094 30.0361 209.059 29.7208 209.054H28.4998L37.5527 164.989C37.5927 164.749 42.0566 136.771 42.8773 128.737C42.8905 128.606 42.9294 128.478 42.9918 128.362C43.0543 128.245 43.139 128.142 43.2412 128.059C43.3435 127.975 43.4612 127.913 43.5876 127.874C43.7141 127.836 43.8468 127.823 43.9783 127.837C44.1097 127.85 44.2373 127.889 44.3537 127.951C44.4701 128.013 44.573 128.098 44.6567 128.2C44.7403 128.303 44.803 128.42 44.8412 128.547C44.8793 128.673 44.8922 128.806 44.8791 128.937C44.0684 137.026 39.5794 165.064 39.5344 165.349L30.9619 207.068C33.5942 207.068 39.6995 207.118 41.4361 207.068C41.5342 207.001 41.6024 206.899 41.6262 206.783C41.6665 206.679 41.6842 206.568 41.6782 206.457C41.6722 206.345 41.6425 206.237 41.5912 206.138C41.2259 205.843 40.3001 205.102 39.5644 204.417L39.124 204.007L39.2792 203.441C41.4461 195.438 48.8375 168.175 48.8375 168.175L55.8887 140.577L56.3891 140.397C57.6607 139.922 58.9068 139.381 60.1224 138.777C60.24 138.718 60.3681 138.683 60.4993 138.673C60.6305 138.664 60.7622 138.681 60.887 138.722C61.0118 138.764 61.1271 138.83 61.2265 138.916C61.3258 139.002 61.4073 139.107 61.4661 139.224C61.5249 139.342 61.56 139.47 61.5693 139.601C61.5786 139.732 61.562 139.864 61.5204 139.989C61.4788 140.113 61.4131 140.229 61.3269 140.328C61.2407 140.427 61.1358 140.509 61.0182 140.567C59.5919 141.278 58.2658 141.818 57.5752 142.068L50.7892 168.68L41.386 203.371C41.9665 203.872 42.5771 204.372 42.8423 204.577C43.2214 204.918 43.4919 205.363 43.62 205.857C43.7481 206.35 43.7283 206.871 43.5629 207.353C43.453 207.803 43.2089 208.209 42.8631 208.517C42.5173 208.825 42.0859 209.021 41.6262 209.079H41.5462C41.0607 209.094 40.235 209.094 39.2291 209.094Z" fill="#6D757D"/>
<path d="M70.5717 92.3159C70.366 92.3153 70.1655 92.2513 69.9975 92.1328C69.8295 92.0142 69.7021 91.8468 69.6326 91.6533C69.5632 91.4598 69.5551 91.2496 69.6094 91.0513C69.6637 90.853 69.7778 90.6763 69.9361 90.5451L90.2839 73.8474L100.098 53.1429C100.148 53.0386 100.215 52.9439 100.298 52.8628L105.302 47.8605C105.49 47.6727 105.745 47.5673 106.01 47.5673C106.276 47.5673 106.531 47.6727 106.718 47.8605C106.906 48.0482 107.012 48.3028 107.012 48.5683C107.012 48.8338 106.906 49.0884 106.718 49.2761L101.834 54.1584L91.9954 74.8829C91.932 75.0165 91.8397 75.1344 91.7252 75.228L71.2072 92.0708C71.0306 92.2243 70.8057 92.311 70.5717 92.3159Z" fill="#6D757D"/>
<path d="M56.3543 115.301L51.5751 110.669L51.6001 110.209C51.6001 110.044 52.601 93.9116 53.2816 86.9934L51.7152 84.6773C51.5673 84.4582 51.5122 84.1895 51.5619 83.9298C51.6116 83.6702 51.7621 83.4408 51.9804 83.2917C52.0892 83.2177 52.2114 83.1659 52.3402 83.1392C52.469 83.1125 52.6018 83.1114 52.731 83.136C52.8602 83.1606 52.9833 83.2105 53.0932 83.2827C53.2032 83.3549 53.2978 83.448 53.3717 83.5568L55.3434 86.4682L55.3083 86.8283C54.7078 92.8661 53.807 107.133 53.6269 109.874L56.3042 112.465L58.6162 110.064L55.7938 86.6683L55.9289 86.3981C55.9589 86.3331 56.6996 84.8574 57.5203 83.4668C57.58 83.3424 57.6647 83.2317 57.7693 83.1416C57.8738 83.0515 57.9959 82.9841 58.1278 82.9434C58.2597 82.9028 58.3986 82.8898 58.5357 82.9054C58.6728 82.921 58.8053 82.9647 58.9247 83.0339C59.0441 83.1031 59.1479 83.1962 59.2296 83.3075C59.3112 83.4187 59.369 83.5456 59.3993 83.6802C59.4295 83.8148 59.4316 83.9542 59.4053 84.0896C59.3791 84.2251 59.3251 84.3537 59.2468 84.4672C58.6613 85.4677 58.1058 86.5282 57.8556 87.0134L60.7381 110.749L56.3543 115.301Z" fill="#F0874A"/>
<path d="M201.852 56.0442C197.526 56.0376 193.261 55.0243 189.395 53.0847C185.529 51.145 182.167 48.3322 179.577 44.869C179.419 44.6561 179.351 44.3889 179.39 44.1262C179.428 43.8636 179.569 43.6269 179.782 43.4684C179.995 43.3098 180.263 43.2424 180.525 43.2809C180.788 43.3193 181.025 43.4605 181.184 43.6735C182.961 46.055 185.141 48.1084 187.624 49.7413C192.561 53.0065 198.469 54.4797 204.361 53.9149C210.254 53.3501 215.774 50.7814 220 46.6379C224.226 42.4944 226.902 37.0269 227.58 31.1488C228.259 25.2707 226.899 19.3378 223.728 14.3412C220.558 9.34452 215.768 5.58663 210.159 3.69521C204.55 1.80378 198.461 1.89334 192.91 3.94892C187.359 6.00451 182.682 9.90165 179.66 14.9894C176.637 20.0772 175.453 26.0475 176.304 31.9031C176.343 32.1684 176.274 32.4382 176.114 32.653C175.953 32.8678 175.714 33.0101 175.449 33.0486C175.183 33.0871 174.913 33.0186 174.698 32.8581C174.483 32.6977 174.341 32.4585 174.303 32.1932C173.483 26.57 174.403 20.8306 176.94 15.7454C179.478 10.6601 183.51 6.47231 188.497 3.74393C193.484 1.01555 199.186 -0.122836 204.839 0.481554C210.492 1.08594 215.824 3.40419 220.121 7.12517C224.418 10.8461 227.473 15.7918 228.877 21.2984C230.281 26.8051 229.966 32.6092 227.975 37.9319C225.984 43.2545 222.412 47.841 217.738 51.0759C213.064 54.3108 207.512 56.0392 201.827 56.0292L201.852 56.0442Z" fill="#F0874A"/>
<path d="M201.857 46.2954C199.325 46.2872 196.823 45.7489 194.512 44.7149C192.201 43.681 190.133 42.1746 188.44 40.2926C188.262 40.0936 188.171 39.8322 188.186 39.5657C188.201 39.2993 188.321 39.0498 188.52 38.872C188.719 38.6942 188.981 38.6028 189.247 38.6178C189.514 38.6328 189.763 38.753 189.941 38.952C192.304 41.5762 195.464 43.3511 198.935 44.0031C202.406 44.6552 205.995 44.1482 209.15 42.5603C212.304 40.9724 214.848 38.3917 216.391 35.2159C217.933 32.04 218.388 28.4453 217.686 24.9856C216.863 20.9763 214.543 17.431 211.198 15.0712C207.852 12.7113 203.733 11.7142 199.678 12.2827C195.624 12.8513 191.938 14.9427 189.371 18.1315C186.805 21.3203 185.55 25.3669 185.863 29.4476C185.873 29.579 185.857 29.7111 185.816 29.8364C185.775 29.9617 185.71 30.0777 185.624 30.1778C185.539 30.2779 185.434 30.3601 185.316 30.4198C185.199 30.4795 185.071 30.5155 184.939 30.5256C184.808 30.5358 184.676 30.52 184.55 30.4792C184.425 30.4383 184.309 30.3731 184.209 30.2874C184.109 30.2017 184.027 30.0972 183.967 29.9797C183.907 29.8622 183.871 29.7341 183.861 29.6027C183.532 25.5818 184.573 21.5678 186.814 18.2125C188.456 15.732 190.685 13.6947 193.303 12.281C195.921 10.8673 198.848 10.1208 201.823 10.1076C204.799 10.0944 207.732 10.815 210.363 12.2055C212.993 13.5959 215.24 15.6134 216.905 18.0792C218.569 20.545 219.599 23.383 219.904 26.3418C220.209 29.3007 219.779 32.2891 218.653 35.0423C217.527 37.7955 215.739 40.2285 213.447 42.126C211.155 44.0234 208.431 45.3266 205.515 45.9202C204.311 46.1668 203.086 46.2925 201.857 46.2954Z" fill="#F0874A"/>
<path d="M201.871 38.0176C200.959 38.0166 200.051 37.8886 199.174 37.6374C198.932 37.554 198.731 37.3808 198.612 37.1535C198.494 36.9263 198.467 36.6623 198.538 36.416C198.608 36.1697 198.771 35.9598 198.992 35.8297C199.212 35.6995 199.475 35.659 199.724 35.7165C201.102 36.1146 202.563 36.1233 203.944 35.7417C205.326 35.3601 206.576 34.603 207.553 33.5547C208.531 32.5063 209.198 31.2076 209.482 29.8028C209.766 28.398 209.655 26.9421 209.161 25.5967C208.667 24.2513 207.81 23.0691 206.684 22.1813C205.558 21.2935 204.209 20.7349 202.785 20.5676C201.361 20.4002 199.918 20.6306 198.618 21.2332C197.317 21.8358 196.208 22.787 195.416 23.9811C195.348 24.1002 195.256 24.2041 195.147 24.2864C195.037 24.3687 194.912 24.4276 194.779 24.4595C194.645 24.4914 194.507 24.4956 194.372 24.4718C194.237 24.448 194.108 24.3968 193.994 24.3213C193.88 24.2457 193.782 24.1476 193.707 24.0328C193.632 23.918 193.582 23.7891 193.559 23.654C193.536 23.519 193.541 23.3806 193.574 23.2476C193.607 23.1145 193.666 22.9896 193.749 22.8806C194.681 21.4753 195.962 20.3357 197.467 19.573C198.971 18.8103 200.647 18.4507 202.332 18.5292C204.017 18.6077 205.653 19.1217 207.08 20.021C208.507 20.9202 209.676 22.174 210.474 23.6599C211.271 25.1458 211.669 26.813 211.629 28.4987C211.589 30.1843 211.113 31.8308 210.246 33.2774C209.379 34.7239 208.152 35.921 206.684 36.7519C205.216 37.5827 203.558 38.0188 201.871 38.0176Z" fill="#F0874A"/>
<path d="M130.759 49.1308C128.743 49.1308 126.772 48.5331 125.096 47.4132C123.419 46.2934 122.112 44.7016 121.341 42.8394C120.57 40.9772 120.368 38.9282 120.762 36.9514C121.156 34.9747 122.127 33.1591 123.553 31.7342C124.979 30.3093 126.796 29.3393 128.774 28.9467C130.752 28.554 132.801 28.7566 134.664 29.5286C136.527 30.3006 138.118 31.6074 139.238 33.2837C140.357 34.9601 140.954 36.9306 140.953 38.9462C140.949 41.647 139.874 44.2359 137.963 46.1452C136.052 48.0545 133.461 49.1282 130.759 49.1308ZM130.759 30.7574C129.139 30.7574 127.555 31.2377 126.208 32.1375C124.861 33.0372 123.811 34.3162 123.191 35.8125C122.571 37.3088 122.409 38.9552 122.725 40.5437C123.041 42.1322 123.821 43.5913 124.967 44.7365C126.112 45.8817 127.572 46.6616 129.161 46.9776C130.75 47.2936 132.398 47.1314 133.894 46.5116C135.391 45.8918 136.671 44.8422 137.571 43.4956C138.471 42.149 138.952 40.5658 138.952 38.9462C138.95 36.7748 138.087 34.6927 136.551 33.1573C135.015 31.6219 132.932 30.7587 130.759 30.7574Z" fill="#F0874A"/>
<path d="M130.389 42.2632L126.05 39.3669C125.835 39.2169 125.687 38.9883 125.639 38.7305C125.59 38.4726 125.645 38.206 125.792 37.9882C125.938 37.7704 126.164 37.6188 126.421 37.5661C126.678 37.5133 126.946 37.5636 127.166 37.7061L129.884 39.532L133.262 34.7598C133.338 34.6524 133.434 34.561 133.545 34.4908C133.656 34.4206 133.78 34.373 133.91 34.3507C134.04 34.3284 134.172 34.3318 134.301 34.3608C134.429 34.3898 134.55 34.4438 134.658 34.5197C134.765 34.5955 134.857 34.6918 134.927 34.803C134.997 34.9142 135.045 35.0382 135.067 35.1678C135.089 35.2974 135.086 35.4301 135.057 35.5583C135.028 35.6866 134.974 35.8079 134.898 35.9153L130.389 42.2632Z" fill="#F0874A"/>
<path d="M131.535 27.4714H128.828C128.562 27.4714 128.308 27.366 128.12 27.1784C127.932 26.9907 127.827 26.7363 127.827 26.4709C127.827 26.2056 127.932 25.9511 128.12 25.7635C128.308 25.5759 128.562 25.4705 128.828 25.4705H131.535C131.8 25.4705 132.055 25.5759 132.243 25.7635C132.43 25.9511 132.536 26.2056 132.536 26.4709C132.536 26.7363 132.43 26.9907 132.243 27.1784C132.055 27.366 131.8 27.4714 131.535 27.4714Z" fill="#F0874A"/>
<path d="M146.523 161.624C146.392 161.633 146.26 161.617 146.134 161.575C146.009 161.534 145.894 161.468 145.794 161.382C145.694 161.296 145.613 161.191 145.553 161.073C145.494 160.955 145.459 160.827 145.45 160.696C145.44 160.564 145.456 160.432 145.498 160.307C145.539 160.182 145.605 160.067 145.691 159.967C145.778 159.867 145.883 159.786 146 159.727C146.118 159.668 146.246 159.632 146.378 159.623L148.69 159.278C148.823 159.251 148.96 159.251 149.092 159.279C149.225 159.307 149.351 159.361 149.462 159.439C149.573 159.516 149.667 159.616 149.738 159.731C149.81 159.846 149.857 159.974 149.877 160.108C149.898 160.242 149.891 160.379 149.857 160.51C149.823 160.641 149.762 160.764 149.679 160.871C149.596 160.978 149.492 161.067 149.374 161.133C149.256 161.199 149.125 161.24 148.99 161.254L146.673 161.604L146.523 161.624Z" fill="#6D757D"/>
<path d="M159.885 149.999H159.77L135.929 147.302C135.725 147.279 135.532 147.194 135.378 147.058C135.224 146.922 135.116 146.742 135.068 146.542C135.038 146.422 132.11 134.311 131.185 127.803C131.148 127.583 131.108 127.353 131.065 127.113C130.704 125.112 130.159 122.111 134.392 119.8C134.963 119.495 138.651 117.739 139.252 117.464C139.371 117.409 139.501 117.379 139.632 117.374C139.763 117.369 139.894 117.391 140.017 117.437C140.141 117.483 140.253 117.552 140.35 117.642C140.446 117.732 140.523 117.839 140.578 117.959C140.632 118.078 140.663 118.208 140.668 118.339C140.672 118.47 140.651 118.601 140.605 118.724C140.559 118.847 140.489 118.96 140.399 119.056C140.31 119.152 140.202 119.23 140.082 119.284C139.462 119.57 135.834 121.285 135.343 121.561C132.386 123.161 132.701 124.912 133.036 126.758C133.081 127.023 133.131 127.258 133.166 127.523C133.952 133.026 136.224 142.75 136.85 145.391L159.474 147.948L161.396 145.742C161.563 145.549 161.798 145.427 162.052 145.401L162.367 145.371L162.492 145.126L161.196 144.626C160.98 144.513 160.813 144.326 160.726 144.098C160.639 143.871 160.637 143.62 160.722 143.392C160.806 143.164 160.971 142.974 161.186 142.859C161.4 142.744 161.649 142.71 161.887 142.765L164.229 143.636C164.361 143.684 164.481 143.76 164.582 143.858C164.683 143.957 164.762 144.075 164.814 144.206C164.865 144.337 164.888 144.477 164.881 144.618C164.874 144.758 164.838 144.896 164.774 145.021L163.888 146.752C163.813 146.904 163.701 147.033 163.561 147.13C163.422 147.226 163.261 147.285 163.093 147.302L162.622 147.352L160.62 149.653C160.529 149.759 160.416 149.845 160.289 149.904C160.162 149.963 160.025 149.996 159.885 149.999Z" fill="#6D757D"/>
<path d="M159.725 135.025C159.544 135.025 159.367 134.976 159.212 134.883C159.057 134.791 158.93 134.658 158.844 134.499L157.127 131.313C157.087 131.241 157.057 131.163 157.037 131.083C157.037 131.018 155.376 124.495 155.09 123.509C154.71 122.224 154.455 121.904 153.985 121.643C151.803 120.408 148.335 118.927 148.3 118.912C148.179 118.861 148.069 118.786 147.977 118.692C147.885 118.598 147.813 118.487 147.764 118.365C147.714 118.243 147.69 118.113 147.691 117.981C147.693 117.85 147.72 117.72 147.772 117.599C147.823 117.478 147.898 117.369 147.992 117.277C148.086 117.185 148.197 117.112 148.319 117.063C148.441 117.014 148.571 116.99 148.703 116.991C148.834 116.992 148.964 117.02 149.085 117.071C149.23 117.136 152.688 118.612 154.97 119.898C156.116 120.543 156.587 121.503 157.007 122.944C157.292 123.904 158.714 129.547 158.949 130.477L160.605 133.554C160.73 133.787 160.757 134.06 160.681 134.313C160.605 134.566 160.432 134.778 160.2 134.904C160.054 134.985 159.891 135.026 159.725 135.025Z" fill="#6D757D"/>
<path d="M137.991 209.36C135.769 209.36 132.911 209.279 132.451 209.264L131.4 209.234L131.485 208.184C131.515 207.809 134.528 170.502 136.014 150.382C136.033 150.117 136.157 149.87 136.358 149.696C136.56 149.522 136.822 149.435 137.087 149.454C137.353 149.474 137.6 149.598 137.774 149.799C137.948 150 138.035 150.262 138.016 150.527C136.67 168.756 134.072 201.051 133.567 207.294C136.069 207.359 139.227 207.399 140.133 207.294C140.151 207.227 140.156 207.158 140.146 207.09C140.137 207.022 140.113 206.957 140.078 206.898C139.872 206.763 139.662 206.658 139.397 206.518C139.132 206.378 138.866 206.248 138.536 206.058L137.971 205.728L138.046 205.078C138.661 199.62 139.927 193.197 141.269 186.404C142.815 178.55 144.566 169.656 145.702 160.357L145.762 159.887L146.168 159.632C146.618 159.408 147.125 159.322 147.624 159.387H147.764L148.705 159.251L148.86 160.222C151.037 173.683 154.91 201.781 155.636 207.043C157.268 207.043 160.771 207.088 162.227 207.093C162.25 206.991 162.244 206.885 162.208 206.786C162.173 206.688 162.11 206.602 162.027 206.538C161.751 206.326 161.443 206.157 161.116 206.038L160.06 205.538L160 204.983C159.174 197.249 158.499 185.829 157.998 176.654C157.678 171.152 157.403 166.445 157.177 163.959C157.166 163.827 157.18 163.695 157.219 163.569C157.259 163.443 157.322 163.326 157.407 163.225C157.491 163.124 157.595 163.04 157.712 162.979C157.829 162.918 157.957 162.88 158.088 162.868C158.22 162.856 158.352 162.87 158.478 162.91C158.604 162.949 158.721 163.013 158.822 163.097C158.924 163.182 159.007 163.286 159.069 163.403C159.13 163.519 159.167 163.647 159.179 163.779C159.409 166.28 159.68 171.042 160.005 176.534C160.505 185.474 161.166 196.544 161.957 204.212H161.987C162.453 204.402 162.889 204.658 163.283 204.972C163.677 205.271 163.975 205.68 164.137 206.148C164.299 206.615 164.319 207.12 164.194 207.599C164.128 207.96 163.959 208.294 163.706 208.56C163.454 208.827 163.129 209.014 162.772 209.099H162.592C161.066 209.099 154.855 209.039 154.79 209.039H153.88L153.764 208.179C153.719 207.874 149.786 179.106 147.329 163.378C146.193 171.737 144.626 179.691 143.225 186.794C141.949 193.297 140.723 199.405 140.108 204.642L140.303 204.742C140.593 204.892 140.863 205.033 141.158 205.243C141.551 205.521 141.849 205.913 142.013 206.365C142.176 206.817 142.198 207.309 142.074 207.774C141.997 208.164 141.797 208.519 141.505 208.788C141.213 209.058 140.843 209.228 140.448 209.274C140.027 209.339 139.087 209.36 137.991 209.36Z" fill="#6D757D"/>
<path d="M146.543 120.104C146.318 120.104 146.099 120.028 145.922 119.888C145.746 119.748 145.622 119.552 145.57 119.333C145.518 119.113 145.543 118.883 145.638 118.679C145.734 118.475 145.896 118.309 146.098 118.208C146.628 117.943 147.199 117.623 147.599 117.393C147.536 116.561 147.526 115.725 147.569 114.892L147.594 114.332L148.095 114.062C149.381 113.366 149.781 111.255 149.886 109.61C150.231 104.497 149.646 103.062 149.641 103.052C149.523 102.818 149.501 102.547 149.581 102.297C149.66 102.047 149.835 101.838 150.066 101.716C150.184 101.654 150.313 101.616 150.445 101.604C150.578 101.592 150.712 101.607 150.838 101.648C150.965 101.688 151.082 101.754 151.184 101.84C151.285 101.927 151.368 102.032 151.428 102.151C151.573 102.421 152.268 104.057 151.888 109.745C151.698 112.541 150.917 114.472 149.556 115.497C149.532 116.269 149.566 117.041 149.656 117.808L149.741 118.464L149.176 118.804C149.126 118.834 148.015 119.494 146.994 120.009C146.853 120.074 146.699 120.107 146.543 120.104Z" fill="#6D757D"/>
<path d="M139.987 106.396C139.744 106.399 139.509 106.313 139.325 106.154C139.141 105.996 139.02 105.776 138.986 105.536C138.835 104.073 139.077 102.597 139.687 101.259C140.688 99.1579 143.53 97.4622 146.958 98.2925C148.082 98.5369 149.115 99.091 149.941 99.892C150.766 100.693 151.35 101.709 151.628 102.825L151.688 103.115L151.582 103.39C150.742 105.571 148.525 105.541 146.178 105.516H145.262C144.676 105.516 144.381 105.681 144.351 105.841C144.352 105.821 144.352 105.801 144.351 105.781L142.349 105.686C142.384 104.936 143.04 103.515 145.257 103.515H146.198C148.235 103.54 149.175 103.49 149.576 102.92C149.326 102.249 148.911 101.652 148.37 101.183C147.828 100.715 147.178 100.39 146.478 100.238C143.821 99.5931 142.004 101.059 141.474 102.134C141.037 103.117 140.865 104.196 140.973 105.266C140.992 105.396 140.984 105.529 140.951 105.656C140.918 105.784 140.86 105.904 140.78 106.009C140.701 106.114 140.601 106.202 140.487 106.269C140.374 106.335 140.248 106.378 140.117 106.396C140.074 106.401 140.031 106.401 139.987 106.396Z" fill="#6D757D"/>
<path d="M139.557 119.403C139.335 119.405 139.119 119.333 138.943 119.199C138.767 119.064 138.64 118.875 138.583 118.661C138.526 118.447 138.541 118.22 138.627 118.016C138.713 117.812 138.864 117.642 139.057 117.532L139.942 117.032L140.052 111.38C140.052 111.114 140.158 110.86 140.346 110.672C140.533 110.485 140.788 110.379 141.053 110.379C141.319 110.379 141.573 110.485 141.761 110.672C141.949 110.86 142.054 111.114 142.054 111.38L141.919 118.173L140.042 119.233C139.898 119.331 139.731 119.39 139.557 119.403Z" fill="#6D757D"/>
<path d="M141.779 112.171H141.654C139.802 111.936 139.127 110.92 138.892 110.115C138.707 109.439 138.787 108.718 139.116 108.1C139.446 107.481 139.999 107.012 140.663 106.788C141.054 106.655 141.472 106.616 141.881 106.673C142.29 106.73 142.68 106.883 143.02 107.118C143.216 107.279 143.344 107.507 143.378 107.758C143.412 108.008 143.35 108.262 143.204 108.469C143.058 108.676 142.839 108.819 142.592 108.871C142.344 108.923 142.086 108.88 141.869 108.749C141.789 108.694 141.696 108.659 141.6 108.647C141.503 108.635 141.405 108.646 141.314 108.679C141.136 108.734 140.986 108.853 140.894 109.014C140.801 109.174 140.772 109.364 140.813 109.544C140.858 109.7 140.963 110.045 141.904 110.18C142.17 110.196 142.418 110.318 142.594 110.517C142.77 110.716 142.859 110.977 142.842 111.243C142.826 111.508 142.705 111.756 142.505 111.932C142.306 112.108 142.045 112.197 141.779 112.181V112.171Z" fill="#6D757D"/>
<path d="M157.383 144.095C157.318 144.1 157.252 144.1 157.187 144.095L142.315 141.208C142.124 141.172 141.948 141.08 141.809 140.945C141.669 140.81 141.572 140.637 141.529 140.448L139.137 129.788C139.079 129.529 139.127 129.257 139.269 129.033C139.412 128.809 139.638 128.65 139.897 128.593C140.157 128.535 140.429 128.583 140.653 128.725C140.877 128.868 141.036 129.094 141.093 129.353L143.335 139.358L157.213 142.044L158.459 141.354C158.691 141.225 158.965 141.194 159.22 141.267C159.475 141.34 159.691 141.512 159.82 141.744C159.949 141.976 159.98 142.25 159.907 142.505C159.833 142.76 159.662 142.976 159.429 143.104L157.883 143.97C157.73 144.054 157.558 144.098 157.383 144.095Z" fill="#6D757D"/>
<path d="M154.825 148.917H154.675C154.413 148.878 154.178 148.736 154.02 148.523C153.862 148.31 153.796 148.043 153.834 147.782L154.18 145.405C154.218 145.14 154.361 144.901 154.576 144.74C154.79 144.58 155.06 144.512 155.326 144.55C155.591 144.588 155.831 144.731 155.991 144.946C156.151 145.16 156.22 145.43 156.182 145.696L155.831 148.072C155.794 148.31 155.671 148.527 155.487 148.682C155.302 148.838 155.067 148.921 154.825 148.917Z" fill="#6D757D"/>
<path d="M147.374 116.092C146.567 116.102 145.771 115.901 145.067 115.507C144.849 115.368 144.693 115.151 144.632 114.9C144.57 114.65 144.608 114.385 144.737 114.162C144.867 113.938 145.077 113.774 145.325 113.702C145.573 113.63 145.839 113.656 146.068 113.776C146.753 114.113 147.54 114.185 148.275 113.976C148.53 113.896 148.807 113.922 149.044 114.046C149.281 114.17 149.459 114.383 149.538 114.639C149.618 114.894 149.593 115.171 149.469 115.408C149.344 115.645 149.131 115.822 148.875 115.902C148.386 116.036 147.881 116.1 147.374 116.092Z" fill="#6D757D"/>
<path d="M161.156 141.778C161.083 141.777 161.011 141.769 160.941 141.753C160.682 141.696 160.457 141.538 160.314 141.315C160.172 141.092 160.123 140.821 160.18 140.563L162.182 131.504C162.408 130.482 163.03 129.593 163.912 129.03C164.794 128.467 165.864 128.277 166.886 128.502L168.437 128.842C168.697 128.899 168.923 129.057 169.066 129.281C169.209 129.505 169.257 129.776 169.2 130.035C169.143 130.295 168.986 130.521 168.762 130.664C168.538 130.807 168.266 130.855 168.007 130.798L166.456 130.453C166.205 130.398 165.945 130.393 165.693 130.439C165.44 130.485 165.199 130.58 164.984 130.72C164.768 130.86 164.583 131.041 164.437 131.252C164.292 131.464 164.191 131.702 164.138 131.954L162.137 141.008C162.085 141.228 161.959 141.425 161.781 141.565C161.603 141.704 161.382 141.78 161.156 141.778Z" fill="#F0874A"/>
<path d="M175.158 162.564C174.872 162.565 174.587 162.533 174.307 162.469L160.07 159.323C159.564 159.212 159.084 159.002 158.66 158.705C158.235 158.408 157.872 158.031 157.593 157.594C157.315 157.157 157.125 156.67 157.034 156.16C156.944 155.65 156.955 155.127 157.067 154.621L157.788 151.369C157.857 151.123 158.018 150.913 158.237 150.781C158.456 150.65 158.718 150.607 158.967 150.662C159.217 150.717 159.436 150.866 159.58 151.077C159.723 151.289 159.781 151.547 159.74 151.799L159.024 155.051C158.968 155.302 158.962 155.561 159.007 155.814C159.052 156.067 159.148 156.309 159.288 156.525C159.427 156.74 159.609 156.926 159.821 157.071C160.034 157.215 160.273 157.316 160.525 157.367L174.763 160.513C175.012 160.57 175.27 160.577 175.522 160.533C175.773 160.49 176.014 160.396 176.23 160.259C176.445 160.122 176.631 159.943 176.777 159.734C176.923 159.524 177.026 159.288 177.08 159.038L182.169 135.912C182.225 135.663 182.23 135.406 182.186 135.155C182.142 134.903 182.048 134.663 181.911 134.448C181.774 134.233 181.596 134.047 181.387 133.901C181.178 133.755 180.942 133.651 180.693 133.596L179.807 133.396C179.561 133.327 179.35 133.166 179.219 132.947C179.087 132.728 179.045 132.467 179.1 132.217C179.155 131.968 179.303 131.749 179.515 131.605C179.727 131.461 179.985 131.404 180.238 131.445L181.123 131.64C182.145 131.866 183.035 132.489 183.598 133.37C184.161 134.252 184.351 135.321 184.126 136.342L179.012 159.473C178.816 160.349 178.328 161.133 177.627 161.695C176.927 162.256 176.056 162.563 175.158 162.564Z" fill="#F0874A"/>
<path d="M178.621 134.962C178.549 134.961 178.477 134.953 178.406 134.937L168.898 132.846C168.769 132.818 168.647 132.765 168.539 132.69C168.431 132.616 168.339 132.52 168.268 132.409C168.197 132.299 168.148 132.175 168.125 132.046C168.102 131.917 168.104 131.784 168.132 131.656L168.973 127.829C169.001 127.7 169.053 127.579 169.128 127.471C169.203 127.363 169.299 127.271 169.41 127.2C169.52 127.128 169.644 127.08 169.773 127.057C169.902 127.033 170.035 127.036 170.164 127.064L171.785 127.419C172.189 126.882 172.739 126.472 173.369 126.239C173.999 126.006 174.683 125.959 175.339 126.103C175.995 126.248 176.596 126.578 177.069 127.054C177.543 127.53 177.87 128.133 178.011 128.789L179.697 129.159C179.956 129.217 180.181 129.374 180.324 129.598C180.466 129.821 180.514 130.091 180.458 130.35L179.622 134.177C179.564 134.435 179.405 134.66 179.182 134.802C179.015 134.91 178.82 134.966 178.621 134.962ZM170.284 131.105L177.86 132.771L178.271 130.895L176.865 130.59C176.638 130.54 176.436 130.413 176.292 130.231C176.149 130.048 176.073 129.822 176.079 129.59C176.115 129.224 176.016 128.857 175.8 128.56C175.585 128.262 175.267 128.054 174.908 127.975C174.548 127.896 174.172 127.951 173.851 128.131C173.53 128.311 173.287 128.602 173.166 128.949C173.073 129.161 172.91 129.334 172.704 129.439C172.498 129.544 172.261 129.574 172.035 129.525L170.694 129.23L170.284 131.105Z" fill="#F0874A"/>
<path d="M177.17 140.973C177.094 140.972 177.019 140.964 176.945 140.948L166.991 138.632C166.732 138.572 166.508 138.411 166.368 138.185C166.227 137.96 166.182 137.688 166.243 137.429C166.303 137.17 166.464 136.946 166.69 136.806C166.915 136.666 167.188 136.621 167.446 136.681L177.4 138.997C177.64 139.052 177.852 139.193 177.994 139.394C178.137 139.595 178.2 139.841 178.172 140.086C178.144 140.33 178.027 140.556 177.843 140.72C177.659 140.884 177.421 140.974 177.175 140.973H177.17Z" fill="#F0874A"/>
<path d="M174.047 154.16C173.97 154.161 173.892 154.153 173.817 154.135L163.888 151.824C163.76 151.794 163.639 151.74 163.532 151.663C163.425 151.587 163.334 151.49 163.264 151.379C163.195 151.267 163.148 151.143 163.126 151.014C163.104 150.884 163.108 150.751 163.138 150.623C163.167 150.495 163.222 150.374 163.298 150.267C163.375 150.16 163.471 150.069 163.583 149.999C163.694 149.93 163.818 149.883 163.948 149.861C164.078 149.839 164.211 149.843 164.339 149.873L174.292 152.184C174.424 152.199 174.551 152.239 174.667 152.303C174.783 152.367 174.885 152.453 174.967 152.556C175.05 152.66 175.111 152.778 175.148 152.905C175.184 153.032 175.196 153.165 175.181 153.297C175.166 153.428 175.125 153.555 175.061 153.671C174.998 153.787 174.911 153.889 174.808 153.971C174.705 154.054 174.586 154.115 174.459 154.152C174.332 154.188 174.199 154.2 174.067 154.185L174.047 154.16Z" fill="#F0874A"/>
<path d="M176.129 145.135C176.056 145.142 175.982 145.142 175.909 145.135L168.157 143.399C167.897 143.341 167.672 143.183 167.529 142.959C167.386 142.735 167.339 142.463 167.396 142.204C167.454 141.944 167.612 141.718 167.837 141.576C168.061 141.433 168.333 141.386 168.592 141.443L176.349 143.179C176.589 143.234 176.8 143.375 176.942 143.575C177.085 143.775 177.149 144.021 177.121 144.265C177.094 144.51 176.978 144.735 176.795 144.899C176.612 145.063 176.375 145.154 176.129 145.155V145.135Z" fill="#F0874A"/>
<path d="M175.088 149.649C175.015 149.656 174.941 149.656 174.868 149.649L167.116 147.918C166.857 147.86 166.631 147.702 166.488 147.478C166.345 147.253 166.298 146.982 166.355 146.722C166.413 146.463 166.572 146.237 166.796 146.095C167.02 145.952 167.292 145.904 167.552 145.962L175.303 147.698C175.543 147.752 175.754 147.893 175.896 148.093C176.039 148.292 176.103 148.538 176.076 148.782C176.049 149.025 175.934 149.251 175.752 149.416C175.57 149.58 175.334 149.672 175.088 149.674V149.649Z" fill="#F0874A"/>
<path d="M98.0359 48.0505C97.8596 48.0487 97.687 48.0003 97.5354 47.9104L95.9741 46.99C95.8464 46.9323 95.7324 46.8486 95.6392 46.7441C95.546 46.6396 95.4757 46.5167 95.433 46.3834C95.3903 46.2501 95.3761 46.1093 95.3912 45.9701C95.4064 45.8309 95.4506 45.6965 95.521 45.5755C95.5914 45.4544 95.6864 45.3496 95.7999 45.2675C95.9134 45.1855 96.0428 45.1282 96.1799 45.0994C96.3169 45.0705 96.4585 45.0707 96.5954 45.1C96.7324 45.1292 96.8617 45.1869 96.9749 45.2692L98.171 45.9695L102.725 44.704C102.981 44.6323 103.255 44.6653 103.487 44.7957C103.719 44.9261 103.889 45.1432 103.961 45.3993C104.033 45.6553 104 45.9294 103.869 46.1611C103.739 46.3928 103.522 46.5632 103.265 46.6348L98.3311 48.0105C98.2353 48.0385 98.1357 48.0519 98.0359 48.0505Z" fill="#6D757D"/>
<path d="M124.879 146.861C124.654 146.861 124.435 146.785 124.259 146.646L113.529 138.177C113.426 138.097 113.341 137.996 113.279 137.882L110.402 132.749C110.282 132.519 110.258 132.251 110.333 132.002C110.407 131.753 110.576 131.544 110.803 131.417C111.029 131.29 111.297 131.257 111.548 131.323C111.799 131.39 112.014 131.552 112.148 131.774L114.926 136.726L125.5 145.075C125.663 145.204 125.782 145.38 125.84 145.58C125.899 145.779 125.893 145.992 125.825 146.189C125.757 146.385 125.629 146.555 125.46 146.676C125.29 146.796 125.087 146.861 124.879 146.861Z" fill="#6D757D"/>
<path d="M129.383 146.311C129.143 146.314 128.909 146.23 128.725 146.075C128.541 145.92 128.42 145.703 128.382 145.466L128.097 143.68L125.8 142.529C125.701 142.481 125.611 142.415 125.535 142.334L117.723 134.371C117.643 134.294 117.578 134.202 117.533 134.101C114.791 128.338 111.237 121.715 110.282 121.07C108.948 120.517 107.587 120.034 106.203 119.624C105.963 119.538 105.765 119.363 105.649 119.135C105.534 118.907 105.509 118.644 105.582 118.399C105.654 118.154 105.817 117.947 106.038 117.818C106.258 117.689 106.52 117.65 106.769 117.708C108.265 118.144 109.734 118.668 111.167 119.279C112.864 120.079 116.937 128.203 119.264 133.09L126.856 140.814L129.463 142.119C129.605 142.19 129.728 142.294 129.822 142.422C129.916 142.55 129.979 142.698 130.004 142.855L130.369 145.151C130.411 145.412 130.348 145.679 130.193 145.894C130.038 146.109 129.805 146.253 129.543 146.296L129.383 146.311Z" fill="#6D757D"/>
<path d="M85.2745 137.727C85.1308 137.732 84.9882 137.701 84.8592 137.637C84.7391 137.583 84.6309 137.506 84.5407 137.41C84.4506 137.314 84.3802 137.201 84.3337 137.078C84.2873 136.955 84.2655 136.824 84.2698 136.692C84.2741 136.561 84.3043 136.431 84.3587 136.312L91.0596 121.645C91.1182 121.521 91.2016 121.41 91.3048 121.32C92.6516 120.167 94.0854 119.12 95.5935 118.188C95.7049 118.118 95.829 118.071 95.9587 118.049C96.0884 118.027 96.2212 118.031 96.3494 118.06C96.4777 118.089 96.5989 118.143 96.7062 118.219C96.8135 118.296 96.9048 118.392 96.9748 118.503C97.0447 118.615 97.0921 118.739 97.1141 118.868C97.1362 118.998 97.1324 119.131 97.1032 119.259C97.0739 119.387 97.0196 119.508 96.9435 119.616C96.8674 119.723 96.7709 119.814 96.6595 119.884C95.3075 120.725 94.0149 121.657 92.7911 122.675L86.1803 137.147C86.1003 137.32 85.9725 137.466 85.812 137.569C85.6516 137.672 85.4651 137.727 85.2745 137.727Z" fill="#6D757D"/>
<path d="M103.215 151.234H103.185C102.931 151.234 102.685 151.138 102.5 150.964C102.314 150.79 102.201 150.552 102.184 150.298L101.839 145.096C101.821 144.83 101.909 144.569 102.084 144.369C102.259 144.168 102.507 144.046 102.772 144.028C103.038 144.01 103.3 144.098 103.5 144.273C103.7 144.448 103.823 144.695 103.841 144.961L104.121 149.203C105.687 149.118 108.195 148.797 109.716 147.932C108.799 145.183 108.186 142.341 107.889 139.458C107.584 136.982 107.679 131.424 107.684 131.189C107.684 130.924 107.79 130.67 107.977 130.482C108.165 130.294 108.42 130.189 108.685 130.189C108.95 130.189 109.205 130.294 109.393 130.482C109.58 130.67 109.686 130.924 109.686 131.189C109.686 131.249 109.586 136.842 109.876 139.193C110.18 142.202 110.84 145.164 111.843 148.017C111.906 148.208 111.911 148.414 111.855 148.608C111.8 148.801 111.688 148.974 111.533 149.103C109.03 151.184 103.716 151.234 103.215 151.234Z" fill="#6D757D"/>
<path d="M86.1654 151.417H86.0353C85.9047 151.4 85.7789 151.357 85.665 151.291C85.551 151.225 85.4512 151.137 85.3713 151.033C85.2913 150.928 85.2328 150.809 85.199 150.682C85.1652 150.554 85.1569 150.422 85.1745 150.291L85.4798 147.99C85.485 147.941 85.495 147.892 85.5098 147.845L88.2672 138.191C88.2928 138.105 88.328 138.023 88.3723 137.946L94.4226 127.906C94.5315 127.724 94.6954 127.582 94.8905 127.499C95.0857 127.416 95.3021 127.398 95.5085 127.446C95.7154 127.494 95.9016 127.607 96.0402 127.768C96.1787 127.929 96.2624 128.129 96.2792 128.341C96.3042 128.636 96.8797 135.655 96.5545 138.726C96.2792 141.337 95.2083 146.009 94.7329 148.01C96.1494 148.391 97.5863 148.692 99.0366 148.911C99.1681 148.929 99.2946 148.973 99.409 149.04C99.5234 149.108 99.6234 149.197 99.7033 149.303C99.7832 149.409 99.8415 149.529 99.8748 149.658C99.9081 149.786 99.9158 149.92 99.8974 150.051C99.879 150.183 99.8349 150.309 99.7676 150.423C99.7003 150.538 99.6111 150.638 99.5051 150.718C99.3992 150.797 99.2785 150.856 99.1501 150.889C99.0216 150.922 98.8878 150.93 98.7564 150.912C96.8968 150.627 95.0579 150.221 93.2516 149.696C93.0067 149.622 92.7997 149.456 92.6731 149.234C92.5465 149.011 92.51 148.749 92.571 148.5C92.571 148.43 94.2324 141.712 94.5727 138.536C94.6988 136.252 94.6771 133.963 94.5077 131.683L90.1689 138.891L87.4615 148.35L87.1662 150.581C87.1268 150.817 87.0042 151.031 86.8206 151.184C86.637 151.338 86.4045 151.42 86.1654 151.417Z" fill="#6D757D"/>
<path d="M115.316 208.445C113.434 208.445 109.811 208.145 107.244 206.069C107.111 205.962 107.007 205.822 106.943 205.664L106.393 204.288C106.344 204.166 106.32 204.036 106.321 203.904C106.323 203.772 106.35 203.642 106.402 203.521C106.454 203.4 106.529 203.291 106.623 203.199C106.717 203.107 106.829 203.034 106.951 202.985C107.073 202.936 107.204 202.912 107.336 202.913C107.467 202.915 107.597 202.942 107.718 202.994C107.839 203.046 107.949 203.121 108.041 203.215C108.133 203.309 108.206 203.421 108.255 203.543L108.705 204.669C110.622 206.094 113.274 206.404 114.885 206.444C114.071 205.885 113.364 205.183 112.799 204.373L112.558 204.488C112.438 204.552 112.307 204.59 112.172 204.601C112.037 204.612 111.901 204.596 111.772 204.553C111.643 204.509 111.525 204.441 111.424 204.35C111.323 204.26 111.241 204.15 111.183 204.027C111.126 203.904 111.094 203.771 111.09 203.636C111.086 203.5 111.109 203.365 111.159 203.239C111.208 203.113 111.283 202.998 111.378 202.901C111.473 202.805 111.587 202.729 111.713 202.678L112.118 202.468C112.618 202.207 113.414 201.772 113.945 202.538C115.296 204.478 115.946 204.834 116.537 205.039C116.686 205.09 116.82 205.175 116.93 205.288C117.039 205.401 117.121 205.539 117.167 205.689C117.303 206.219 117.392 206.759 117.433 207.305C117.461 207.566 117.385 207.827 117.223 208.033C117.06 208.239 116.822 208.373 116.562 208.405C116.147 208.44 115.732 208.454 115.316 208.445Z" fill="#6D757D"/>
<path d="M95.3284 208.443C93.5668 208.443 90.0087 208.043 87.3714 205.912C87.2585 205.821 87.1669 205.706 87.103 205.575C87.039 205.445 87.0043 205.302 87.0011 205.157L86.9711 203.941C86.9711 203.676 87.0765 203.421 87.2642 203.234C87.4519 203.046 87.7065 202.941 87.9719 202.941C88.2374 202.941 88.492 203.046 88.6797 203.234C88.8674 203.421 88.9728 203.676 88.9728 203.941V204.672C90.6047 205.726 92.4827 206.338 94.4226 206.447C93.6455 205.89 92.9686 205.205 92.4208 204.421L92.1806 204.536C92.0607 204.6 91.9292 204.638 91.794 204.649C91.6589 204.66 91.5229 204.644 91.3943 204.601C91.2657 204.557 91.1472 204.489 91.0461 204.398C90.9449 204.308 90.8632 204.198 90.8058 204.075C90.7484 203.952 90.7166 203.819 90.7123 203.684C90.708 203.548 90.7313 203.413 90.7808 203.287C90.8303 203.161 90.9049 203.046 91.0002 202.949C91.0954 202.853 91.2093 202.777 91.3349 202.726L91.7402 202.516C92.2407 202.255 93.0314 201.82 93.5618 202.586C94.918 204.526 95.5886 204.882 96.1591 205.087C96.308 205.138 96.4426 205.223 96.5522 205.336C96.6618 205.449 96.7431 205.587 96.7897 205.737C96.9249 206.267 97.0137 206.808 97.0549 207.353C97.0832 207.614 97.0077 207.875 96.8449 208.081C96.682 208.287 96.4447 208.421 96.1841 208.453C95.8989 208.468 95.6131 208.464 95.3284 208.443Z" fill="#6D757D"/>
<path d="M103.28 118.563C103.066 118.563 102.858 118.494 102.686 118.366C102.514 118.238 102.387 118.058 102.325 117.853C102.263 117.648 102.268 117.429 102.34 117.227C102.412 117.025 102.547 116.852 102.725 116.733L103.34 116.317L103.11 113.201L104.046 113.071C104.35 113.018 104.633 112.88 104.862 112.673C105.09 112.466 105.255 112.198 105.337 111.9C105.74 110.32 105.772 108.668 105.432 107.073C105.387 106.943 105.369 106.804 105.38 106.667C105.391 106.529 105.431 106.395 105.496 106.273C105.561 106.152 105.651 106.045 105.76 105.96C105.868 105.874 105.993 105.812 106.127 105.778C106.261 105.743 106.4 105.737 106.537 105.758C106.673 105.78 106.803 105.83 106.92 105.905C107.036 105.98 107.135 106.077 107.212 106.192C107.288 106.307 107.34 106.437 107.364 106.573C107.794 108.497 107.765 110.495 107.279 112.406C107.147 112.937 106.894 113.431 106.539 113.847C106.183 114.264 105.736 114.592 105.232 114.807L105.417 117.358L103.836 118.403C103.67 118.51 103.477 118.566 103.28 118.563Z" fill="#6D757D"/>
<path d="M89.1528 122.056H89.0627C88.7987 122.032 88.555 121.904 88.3852 121.7C88.2154 121.497 88.1333 121.234 88.1569 120.97C88.4222 117.999 90.2488 117.054 91.7201 116.293C92.786 115.743 93.7218 115.263 94.2222 114.077C94.1759 112.955 93.9755 111.844 93.6267 110.776C93.2264 109.37 92.811 107.914 93.3315 106.009C94.1172 101.947 98.7812 99.4256 102.149 100.046C103.09 100.248 103.972 100.665 104.725 101.263C105.479 101.862 106.084 102.627 106.493 103.497L106.673 103.893L106.508 104.293C106.082 105.351 105.346 106.257 104.397 106.891C103.448 107.526 102.33 107.86 101.188 107.849C100.923 107.838 100.673 107.722 100.493 107.526C100.313 107.331 100.219 107.072 100.23 106.806C100.241 106.541 100.358 106.291 100.553 106.111C100.749 105.932 101.008 105.837 101.273 105.849C101.927 105.84 102.567 105.658 103.127 105.322C103.687 104.985 104.147 104.506 104.461 103.933C104.166 103.45 103.777 103.031 103.317 102.701C102.857 102.371 102.336 102.137 101.784 102.012C99.3667 101.572 95.8236 103.552 95.2782 106.419V106.504C94.8928 107.889 95.1881 108.92 95.5634 110.231C95.9857 111.534 96.2117 112.893 96.234 114.262V114.437L96.174 114.608C95.4233 116.638 93.887 117.434 92.6709 118.074C91.2747 118.794 90.3539 119.27 90.1687 121.151C90.1448 121.402 90.0268 121.635 89.8384 121.802C89.65 121.97 89.4052 122.061 89.1528 122.056Z" fill="#6D757D"/>
<path d="M96.1339 120.04C95.9176 120.04 95.707 119.971 95.5336 119.842C95.3602 119.712 95.2332 119.531 95.1718 119.323C95.1104 119.116 95.1178 118.895 95.1929 118.692C95.268 118.489 95.4068 118.316 95.5884 118.199L97.4851 116.968L97.5451 111.716C97.5451 111.451 97.6506 111.196 97.8383 111.008C98.026 110.821 98.2806 110.715 98.546 110.715C98.8115 110.715 99.066 110.821 99.2537 111.008C99.4414 111.196 99.5469 111.451 99.5469 111.716L99.4768 118.039L96.6794 119.905C96.5133 119.999 96.3247 120.045 96.1339 120.04Z" fill="#6D757D"/>
<path d="M98.6863 112.611H98.5962C97.0249 112.471 96.3843 111.611 96.1241 110.966C95.9509 110.512 95.9248 110.015 96.0496 109.546C96.1744 109.076 96.4437 108.658 96.8194 108.35C97.1951 108.042 97.6583 107.859 98.1433 107.829C98.6283 107.798 99.1106 107.921 99.522 108.179C99.7463 108.321 99.9051 108.547 99.9632 108.806C100.021 109.064 99.9743 109.336 99.8323 109.56C99.6903 109.784 99.465 109.943 99.206 110.001C98.9469 110.059 98.6754 110.012 98.4511 109.87C98.3958 109.835 98.3309 109.818 98.2655 109.822C98.2001 109.826 98.1376 109.851 98.0871 109.892C98.0365 109.934 98.0005 109.991 97.984 110.054C97.9676 110.117 97.9717 110.184 97.9957 110.245C98.0307 110.34 98.1158 110.561 98.7714 110.621C99.0368 110.632 99.2869 110.748 99.4666 110.944C99.6464 111.139 99.741 111.398 99.7297 111.664C99.7184 111.929 99.6022 112.179 99.4065 112.359C99.2108 112.538 98.9518 112.633 98.6863 112.621V112.611Z" fill="#6D757D"/>
<path d="M107.544 132.219C107.298 132.224 107.06 132.137 106.873 131.977C106.687 131.817 106.566 131.594 106.534 131.35C106.502 131.106 106.561 130.86 106.699 130.656C106.837 130.453 107.045 130.308 107.284 130.249C107.686 130.129 108.045 129.896 108.319 129.577C108.592 129.259 108.768 128.868 108.825 128.453C109 126.607 108.14 125.997 108.1 125.977C107.875 125.839 107.714 125.618 107.651 125.363C107.589 125.107 107.629 124.837 107.764 124.611C107.832 124.497 107.921 124.398 108.027 124.319C108.133 124.239 108.254 124.182 108.383 124.15C108.511 124.118 108.645 124.112 108.776 124.132C108.907 124.151 109.032 124.197 109.145 124.266C109.881 124.701 111.057 126.112 110.817 128.643C110.552 131.404 107.919 132.144 107.814 132.179C107.726 132.205 107.636 132.219 107.544 132.219Z" fill="#6D757D"/>
<path d="M102.74 132.209C102.482 132.21 102.234 132.11 102.048 131.932C101.861 131.754 101.751 131.511 101.739 131.254L101.504 126.146L96.8848 118.903C96.8085 118.792 96.7552 118.668 96.7283 118.536C96.7013 118.404 96.7011 118.269 96.7278 118.137C96.7544 118.005 96.8073 117.88 96.8834 117.769C96.9595 117.658 97.0571 117.564 97.1704 117.492C97.2838 117.419 97.4106 117.371 97.5432 117.348C97.6758 117.326 97.8115 117.331 97.9423 117.362C98.073 117.394 98.1961 117.451 98.3042 117.531C98.4123 117.611 98.5031 117.712 98.5713 117.828L103.34 125.331C103.438 125.48 103.492 125.653 103.496 125.831L103.741 131.209C103.753 131.473 103.66 131.732 103.482 131.928C103.303 132.124 103.055 132.241 102.79 132.254L102.74 132.209Z" fill="#6D757D"/>
<path d="M102.5 126.833C102.33 126.833 102.164 126.791 102.016 126.709C101.867 126.628 101.742 126.51 101.652 126.367C101.561 126.224 101.508 126.061 101.498 125.892C101.488 125.723 101.521 125.555 101.594 125.402L105.132 117.959C105.25 117.726 105.454 117.548 105.702 117.464C105.949 117.38 106.219 117.395 106.455 117.508C106.691 117.62 106.874 117.82 106.964 118.065C107.054 118.31 107.045 118.581 106.939 118.819L103.4 126.262C103.319 126.433 103.192 126.577 103.032 126.677C102.873 126.778 102.688 126.832 102.5 126.833Z" fill="#6D757D"/>
<path d="M111.482 174.764L92.2605 174.729L92.1804 173.819C92.1204 173.159 92.0003 172.368 91.8601 171.453C91.2396 167.381 90.1937 160.568 92.861 151.539C92.936 151.284 93.1091 151.07 93.3424 150.942C93.5756 150.815 93.8498 150.786 94.1046 150.861C94.3594 150.936 94.574 151.109 94.7012 151.342C94.8284 151.575 94.8577 151.849 94.7827 152.104C92.2505 160.708 93.2113 166.991 93.8519 171.153C93.9369 171.723 94.017 172.248 94.0821 172.733L109.816 172.764C111.818 161.543 111.632 157.727 110.131 151.604C110.065 151.346 110.103 151.073 110.239 150.844C110.374 150.615 110.594 150.45 110.852 150.383C111.109 150.317 111.383 150.356 111.612 150.491C111.841 150.626 112.006 150.846 112.073 151.104C113.774 158.047 113.689 162.524 111.642 173.924L111.482 174.764Z" fill="#6D757D"/>
<path d="M112.844 203.828C112.648 203.828 112.456 203.771 112.292 203.663C112.129 203.555 112 203.402 111.923 203.222L110.752 200.486L109.431 178.556C109.415 178.291 109.505 178.03 109.681 177.831C109.858 177.632 110.106 177.511 110.372 177.495C110.637 177.48 110.898 177.57 111.097 177.746C111.296 177.922 111.417 178.171 111.433 178.436L112.729 200.021L113.765 202.432C113.83 202.584 113.857 202.75 113.842 202.916C113.827 203.081 113.772 203.24 113.681 203.378C113.589 203.516 113.465 203.63 113.319 203.708C113.173 203.787 113.01 203.828 112.844 203.828Z" fill="#6D757D"/>
<path d="M110.381 179.681C110.217 179.681 110.055 179.64 109.91 179.562C109.765 179.485 109.642 179.373 109.551 179.236C109.326 178.901 109.275 178.831 109.656 176.46C109.676 176.156 109.666 175.851 109.626 175.549C109.591 175.049 109.541 174.484 109.541 173.683C109.541 173.418 109.646 173.164 109.834 172.976C110.022 172.788 110.276 172.683 110.542 172.683C110.807 172.683 111.062 172.788 111.249 172.976C111.437 173.164 111.542 173.418 111.542 173.683C111.542 174.399 111.587 174.944 111.623 175.384C111.68 175.848 111.68 176.316 111.623 176.78C111.412 178.095 111.377 178.511 111.372 178.611C111.384 178.787 111.349 178.963 111.271 179.121C111.193 179.279 111.074 179.414 110.927 179.511C110.766 179.62 110.576 179.679 110.381 179.681Z" fill="#6D757D"/>
<path d="M92.5661 202.997H92.4711C92.207 202.973 91.9634 202.845 91.7936 202.641C91.6237 202.438 91.5416 202.175 91.5653 201.911L91.7354 200.045L99.0668 178.43L99.4221 176.43C99.4451 176.3 99.4934 176.177 99.5642 176.066C99.635 175.955 99.7269 175.859 99.8347 175.784C99.9425 175.709 100.064 175.655 100.193 175.627C100.321 175.599 100.454 175.596 100.583 175.619C100.713 175.642 100.836 175.69 100.947 175.761C101.058 175.832 101.154 175.924 101.229 176.032C101.304 176.139 101.358 176.261 101.386 176.389C101.414 176.518 101.417 176.65 101.394 176.78L100.988 179.011L93.7071 200.441L93.557 202.066C93.5394 202.318 93.4275 202.553 93.2439 202.726C93.0602 202.898 92.8182 202.995 92.5661 202.997Z" fill="#6D757D"/>
<path d="M87.927 202.722C87.7573 202.721 87.5905 202.677 87.4424 202.595C87.2942 202.512 87.1694 202.393 87.0799 202.249C86.9903 202.105 86.9389 201.941 86.9303 201.771C86.9218 201.602 86.9565 201.433 87.0312 201.281L87.6317 200.075C87.8018 199.47 87.987 198.815 88.1822 198.134C89.0479 195.098 90.1239 191.321 90.1589 189.891C90.3491 182.617 92.1607 179.386 92.8713 178.385V178.34C93.3159 177.055 93.5129 175.697 93.4518 174.339C93.4416 174.207 93.4574 174.075 93.4983 173.95C93.5392 173.824 93.6044 173.708 93.6901 173.608C93.7758 173.508 93.8804 173.426 93.998 173.366C94.1155 173.307 94.2437 173.271 94.3751 173.261C94.6405 173.24 94.9033 173.326 95.1055 173.499C95.2057 173.584 95.288 173.689 95.3477 173.806C95.4074 173.924 95.4434 174.052 95.4535 174.183C95.5368 175.799 95.3109 177.415 94.788 178.946L94.6729 179.326L94.5578 179.476C94.3326 179.766 92.3408 182.527 92.1506 189.981C92.1056 191.667 91.0397 195.418 90.0989 198.725C89.8937 199.43 89.7035 200.115 89.5284 200.726L89.4583 200.906C88.9579 201.856 88.8177 202.181 88.8177 202.186C88.7325 202.349 88.6044 202.484 88.4473 202.579C88.2902 202.673 88.1102 202.722 87.927 202.722Z" fill="#6D757D"/>
<path d="M107.414 202.441H107.224C107.095 202.415 106.972 202.365 106.862 202.292C106.752 202.22 106.658 202.126 106.584 202.017C106.511 201.908 106.46 201.785 106.434 201.656C106.408 201.527 106.408 201.394 106.433 201.265C106.433 201.265 106.578 200.515 106.678 199.579C106.238 197.463 105.722 195.547 105.302 193.997C105.012 192.921 104.762 191.996 104.596 191.225C103.42 185.763 103.255 182.096 104.096 179.38C104.061 178.88 104.041 178.219 104.021 177.629C104.021 177.264 103.996 176.939 103.986 176.734C103.972 176.468 104.064 176.208 104.242 176.011C104.42 175.814 104.669 175.695 104.934 175.681C105.2 175.667 105.46 175.759 105.657 175.937C105.855 176.114 105.974 176.363 105.988 176.629C105.988 176.844 106.013 177.179 106.023 177.559C106.048 178.179 106.073 178.95 106.108 179.42V179.62L106.048 179.805C105.572 181.281 105.102 184.032 106.548 190.81C106.703 191.526 106.948 192.436 107.234 193.486C107.664 195.097 108.205 197.103 108.665 199.334L108.695 199.484V199.639C108.585 200.745 108.415 201.64 108.41 201.64C108.363 201.869 108.238 202.074 108.056 202.22C107.874 202.366 107.647 202.444 107.414 202.441Z" fill="#6D757D"/>
<path d="M87.5767 208.525C87.3112 208.525 87.0567 208.419 86.869 208.232C86.6813 208.044 86.5758 207.789 86.5758 207.524V203.877C86.5758 203.612 86.6813 203.358 86.869 203.17C87.0567 202.982 87.3112 202.877 87.5767 202.877C87.8421 202.877 88.0967 202.982 88.2844 203.17C88.4721 203.358 88.5776 203.612 88.5776 203.877V207.524C88.5776 207.789 88.4721 208.044 88.2844 208.232C88.0967 208.419 87.8421 208.525 87.5767 208.525Z" fill="#6D757D"/>
<path d="M107.339 208.574C107.073 208.574 106.819 208.469 106.631 208.281C106.443 208.094 106.338 207.839 106.338 207.574V203.942C106.338 203.677 106.443 203.422 106.631 203.235C106.819 203.047 107.073 202.942 107.339 202.942C107.604 202.942 107.859 203.047 108.046 203.235C108.234 203.422 108.34 203.677 108.34 203.942V207.559C108.342 207.691 108.317 207.823 108.268 207.946C108.218 208.069 108.145 208.181 108.052 208.276C107.959 208.37 107.848 208.445 107.725 208.497C107.603 208.548 107.471 208.574 107.339 208.574Z" fill="#6D757D"/>
<path d="M84.2436 154.049C83.2428 153.974 81.4462 153.389 81.241 151.673C81.231 151.595 81.231 151.516 81.241 151.438L81.6564 147.651C81.6511 147.61 81.6511 147.568 81.6564 147.526L84.3187 136.411L86.2654 136.881L83.6081 147.886L83.2177 151.448C83.3679 151.843 84.2186 151.998 84.3888 152.013L84.2436 154.049Z" fill="#6D757D"/>
<path d="M84.679 148.533C84.6225 148.54 84.5653 148.54 84.5089 148.533L82.7623 148.123C82.5685 148.077 82.4009 147.956 82.2963 147.787C82.1916 147.617 82.1585 147.413 82.2043 147.22C82.2501 147.026 82.371 146.859 82.5404 146.754C82.7098 146.649 82.9138 146.616 83.1076 146.662L84.8542 147.077C84.9527 147.089 85.0481 147.12 85.1348 147.168C85.2214 147.216 85.2977 147.281 85.3593 147.359C85.4209 147.437 85.4665 147.526 85.4936 147.621C85.5207 147.717 85.5287 147.817 85.5172 147.915C85.5057 148.014 85.4749 148.109 85.4266 148.196C85.3782 148.282 85.3133 148.358 85.2354 148.42C85.1576 148.482 85.0684 148.527 84.9729 148.554C84.8775 148.581 84.7776 148.589 84.679 148.578V148.533Z" fill="#6D757D"/>
<path d="M145.683 156.326H137.045C136.779 156.326 136.525 156.221 136.337 156.033C136.15 155.846 136.044 155.591 136.044 155.326C136.044 155.06 136.15 154.806 136.337 154.618C136.525 154.431 136.779 154.325 137.045 154.325H145.683C145.948 154.325 146.203 154.431 146.39 154.618C146.578 154.806 146.683 155.06 146.683 155.326C146.683 155.591 146.578 155.846 146.39 156.033C146.203 156.221 145.948 156.326 145.683 156.326Z" fill="#6D757D"/>
<path d="M195.511 98.9498H180.223C180.023 98.9498 179.833 98.8708 179.692 98.7301C179.551 98.5894 179.472 98.3985 179.472 98.1995C179.472 98.0005 179.551 97.8097 179.692 97.6689C179.833 97.5282 180.023 97.4492 180.223 97.4492H195.511C195.71 97.4492 195.901 97.5282 196.042 97.6689C196.183 97.8097 196.262 98.0005 196.262 98.1995C196.262 98.3985 196.183 98.5894 196.042 98.7301C195.901 98.8708 195.71 98.9498 195.511 98.9498Z" fill="#F0874A"/>
<path d="M195.511 102.249H186.003C185.804 102.249 185.613 102.17 185.472 102.03C185.331 101.889 185.252 101.698 185.252 101.499C185.252 101.3 185.331 101.109 185.472 100.968C185.613 100.828 185.804 100.749 186.003 100.749H195.511C195.71 100.749 195.901 100.828 196.042 100.968C196.183 101.109 196.262 101.3 196.262 101.499C196.262 101.698 196.183 101.889 196.042 102.03C195.901 102.17 195.71 102.249 195.511 102.249Z" fill="#F0874A"/>
<path d="M175.493 111.265C175.347 111.267 175.201 111.237 175.068 111.177C174.934 111.116 174.816 111.027 174.72 110.916C174.625 110.805 174.555 110.674 174.515 110.533C174.476 110.392 174.468 110.244 174.492 110.099L175.063 106.713H173.396C173.139 106.713 172.885 106.662 172.648 106.564C172.41 106.466 172.194 106.322 172.013 106.14C171.831 105.958 171.687 105.743 171.589 105.505C171.49 105.268 171.44 105.014 171.44 104.757V94.8124C171.44 94.5556 171.49 94.3012 171.589 94.0639C171.687 93.8266 171.831 93.611 172.013 93.4294C172.194 93.2478 172.41 93.1037 172.648 93.0054C172.885 92.9071 173.139 92.8565 173.396 92.8565H198.378C198.898 92.8565 199.396 93.0624 199.764 93.4291C200.131 93.7957 200.339 94.2932 200.34 94.8124V104.757C200.339 105.276 200.131 105.774 199.764 106.14C199.396 106.507 198.898 106.713 198.378 106.713H181.864L176.099 111.065C175.923 111.194 175.711 111.264 175.493 111.265ZM173.436 104.712H176.259C176.405 104.71 176.551 104.74 176.684 104.8C176.818 104.861 176.937 104.95 177.032 105.061C177.128 105.172 177.197 105.303 177.237 105.444C177.276 105.585 177.284 105.733 177.26 105.877L176.914 107.953L180.943 104.912C181.116 104.782 181.327 104.712 181.544 104.712H198.348V94.8574H173.436V104.712Z" fill="#F0874A"/>
<path d="M199.004 90.7913H172.641C172.376 90.7913 172.121 90.6859 171.933 90.4982C171.746 90.3106 171.64 90.0561 171.64 89.7908C171.64 89.5255 171.746 89.271 171.933 89.0834C172.121 88.8957 172.376 88.7903 172.641 88.7903H199.004C199.27 88.7903 199.524 88.8957 199.712 89.0834C199.899 89.271 200.005 89.5255 200.005 89.7908C200.005 90.0561 199.899 90.3106 199.712 90.4982C199.524 90.6859 199.27 90.7913 199.004 90.7913Z" fill="#F0874A"/>
<path d="M114.585 96.0722C114.367 96.07 114.155 95.9964 113.982 95.8626C113.81 95.7289 113.685 95.5424 113.629 95.3315C113.572 95.1207 113.586 94.897 113.668 94.6948C113.75 94.4925 113.897 94.3228 114.085 94.2114L144.051 76.2031L144.381 58.9601L203.748 26.3351C203.863 26.2654 203.992 26.2198 204.125 26.2008C204.258 26.1819 204.394 26.1901 204.525 26.225C204.655 26.2598 204.777 26.3206 204.883 26.4036C204.989 26.4867 205.077 26.5903 205.142 26.7083C205.207 26.8262 205.248 26.9561 205.261 27.0902C205.275 27.2242 205.261 27.3596 205.221 27.4883C205.181 27.6169 205.116 27.7362 205.029 27.8389C204.941 27.9416 204.834 28.0256 204.714 28.0859L146.338 60.1357L146.013 77.3236L115.095 95.9271C114.941 96.0205 114.765 96.0706 114.585 96.0722Z" fill="#F0874A"/>
<path d="M203.878 32.1171L202.547 31.6769L203.738 27.455L199.329 26.1444L199.67 24.7888L205.545 26.4595L203.878 32.1171Z" fill="#F0874A"/>
</svg>
