<svg width="256" height="186" viewBox="0 0 256 186" fill="none" xmlns="http://www.w3.org/2000/svg">
<path d="M234.695 164.799C234.526 164.8 234.358 164.767 234.202 164.703C234.046 164.639 233.904 164.545 233.784 164.425C233.665 164.306 233.57 164.164 233.506 164.008C233.442 163.852 233.41 163.685 233.411 163.516V138.491C233.411 138.151 233.546 137.825 233.787 137.585C234.028 137.344 234.354 137.209 234.695 137.209C235.035 137.209 235.362 137.344 235.602 137.585C235.843 137.825 235.978 138.151 235.978 138.491V163.524C235.976 163.863 235.84 164.187 235.6 164.426C235.359 164.665 235.034 164.799 234.695 164.799Z" fill="#6D757D"/>
<path d="M66.3001 15.7288L66.487 15.5502C71.3056 15.4366 73.8653 13.4398 73.8653 10.2498C73.8653 7.58746 71.7851 5.43647 68.4535 5.43647C65.7069 5.43647 63.578 6.73517 61.709 8.91864L59.8157 7.10857C60.8238 5.7553 62.1392 4.66039 63.6536 3.91392C65.1679 3.16744 66.838 2.7907 68.5266 2.81468C73.524 2.81468 76.8231 5.92348 76.8231 10.2174C76.8231 14.844 73.3452 17.1412 69.1198 17.7337L68.746 21.7273H66.8527L66.3001 15.7288ZM66.0807 25.1689H69.4854V29.0569H66.0807V25.1689Z" fill="#F0874A"/>
<path d="M74.1804 121.225L74.4161 120.989C80.4617 120.851 83.6714 118.343 83.6714 114.341C83.6714 110.997 81.0712 108.302 76.8782 108.302C73.441 108.302 70.792 109.926 68.4192 112.669L66.0465 110.396C68.6955 107.19 71.9946 104.999 76.9757 104.999C83.257 104.999 87.3931 108.903 87.3931 114.293C87.3931 120.104 83.0214 122.986 77.7233 123.733L77.252 128.749H74.8793L74.1804 121.225ZM73.9042 133.067H78.1865V137.937H73.9042V133.067Z" fill="#D2D8DD"/>
<path d="M192.489 154.54H56.5113C51.2376 154.54 45.0945 150.132 45.0945 144.458V79.4253C45.1202 79.1017 45.2671 78.7997 45.5058 78.5794C45.7445 78.3592 46.0575 78.2369 46.3824 78.2369C46.7074 78.2369 47.0204 78.3592 47.2591 78.5794C47.4978 78.7997 47.6446 79.1017 47.6704 79.4253V144.458C47.6704 148.623 52.5053 151.975 56.5113 151.975H192.489C196.78 151.975 198.705 148.2 198.705 144.458V76.9624C198.705 76.794 198.739 76.6272 198.803 76.4716C198.868 76.316 198.962 76.1746 199.081 76.0555C199.201 75.9364 199.342 75.842 199.498 75.7775C199.654 75.7131 199.821 75.6799 199.989 75.6799C200.158 75.6799 200.325 75.7131 200.481 75.7775C200.636 75.842 200.778 75.9364 200.897 76.0555C201.016 76.1746 201.111 76.316 201.175 76.4716C201.24 76.6272 201.273 76.794 201.273 76.9624V144.458C201.273 150.392 197.657 154.54 192.489 154.54Z" fill="#6D757D"/>
<path d="M124.297 143.173C122.862 143.173 121.459 142.748 120.266 141.951C119.072 141.155 118.142 140.023 117.593 138.698C117.044 137.374 116.9 135.916 117.18 134.51C117.46 133.104 118.151 131.812 119.166 130.799C120.181 129.785 121.474 129.095 122.881 128.815C124.289 128.535 125.748 128.679 127.074 129.227C128.4 129.776 129.533 130.705 130.331 131.897C131.128 133.089 131.554 134.491 131.554 135.924C131.549 137.845 130.783 139.686 129.423 141.045C128.064 142.403 126.22 143.168 124.297 143.173ZM124.297 131.241C123.37 131.241 122.463 131.515 121.692 132.03C120.921 132.545 120.32 133.276 119.965 134.132C119.611 134.988 119.518 135.929 119.699 136.838C119.88 137.746 120.326 138.581 120.982 139.236C121.637 139.891 122.473 140.337 123.382 140.518C124.292 140.698 125.235 140.606 126.091 140.251C126.948 139.897 127.68 139.296 128.196 138.526C128.711 137.756 128.986 136.85 128.986 135.924C128.986 134.682 128.492 133.491 127.612 132.612C126.733 131.734 125.541 131.241 124.297 131.241Z" fill="#6D757D"/>
<path d="M142.141 173.801C141.801 173.801 141.474 173.665 141.233 173.425C140.993 173.184 140.857 172.858 140.857 172.518V154.539C140.883 154.215 141.03 153.913 141.269 153.693C141.507 153.473 141.82 153.351 142.145 153.351C142.47 153.351 142.783 153.473 143.022 153.693C143.261 153.913 143.408 154.215 143.433 154.539V172.518C143.431 172.859 143.294 173.185 143.052 173.425C142.81 173.666 142.483 173.801 142.141 173.801Z" fill="#6D757D"/>
<path d="M106.152 173.801C105.812 173.801 105.485 173.665 105.244 173.425C105.003 173.184 104.868 172.858 104.868 172.518V154.539C104.894 154.215 105.041 153.913 105.279 153.693C105.518 153.473 105.831 153.351 106.156 153.351C106.481 153.351 106.794 153.473 107.033 153.693C107.271 153.913 107.418 154.215 107.444 154.539V172.518C107.442 172.859 107.305 173.185 107.063 173.425C106.821 173.666 106.493 173.801 106.152 173.801Z" fill="#6D757D"/>
<path d="M89.0879 183.713C88.7474 183.713 88.4208 183.578 88.18 183.338C87.9393 183.097 87.804 182.771 87.804 182.431C87.7737 180.971 88.0355 179.519 88.574 178.161C89.1126 176.804 89.917 175.567 90.9402 174.524C91.9634 173.48 93.1847 172.652 94.5327 172.086C95.8806 171.52 97.3281 171.229 98.7901 171.229H106.794C106.972 171.215 107.151 171.238 107.319 171.296C107.488 171.355 107.642 171.447 107.773 171.568C107.904 171.689 108.009 171.835 108.08 171.998C108.152 172.162 108.188 172.338 108.188 172.516C108.188 172.694 108.152 172.87 108.08 173.033C108.009 173.196 107.904 173.343 107.773 173.464C107.642 173.585 107.488 173.677 107.319 173.735C107.151 173.794 106.972 173.817 106.794 173.802H98.7901C97.6627 173.791 96.5446 174.008 95.5035 174.44C94.4624 174.872 93.5198 175.511 92.7329 176.317C91.9459 177.124 91.3309 178.082 90.9251 179.132C90.5193 180.183 90.331 181.305 90.3718 182.431C90.3718 182.771 90.2365 183.097 89.9957 183.338C89.7549 183.578 89.4284 183.713 89.0879 183.713Z" fill="#6D757D"/>
<path d="M156.085 183.726C155.745 183.726 155.418 183.591 155.178 183.351C154.937 183.11 154.802 182.784 154.802 182.444C154.752 180.106 153.777 177.883 152.089 176.262C150.401 174.642 148.139 173.756 145.798 173.799H128.003C127.679 173.774 127.376 173.627 127.156 173.389C126.935 173.15 126.813 172.837 126.813 172.513C126.813 172.188 126.935 171.876 127.156 171.637C127.376 171.399 127.679 171.252 128.003 171.226H145.798C148.821 171.185 151.736 172.343 153.905 174.446C156.074 176.549 157.32 179.425 157.369 182.444C157.369 182.784 157.234 183.11 156.993 183.351C156.752 183.591 156.426 183.726 156.085 183.726Z" fill="#6D757D"/>
<path d="M250.883 185.999H0.841521C0.612388 185.974 0.398527 185.832 0.242567 185.601C0.086607 185.37 0 185.067 0 184.753C0 184.439 0.086607 184.136 0.242567 183.905C0.398527 183.674 0.612388 183.532 0.841521 183.507H250.883C251.112 183.532 251.326 183.674 251.482 183.905C251.638 184.136 251.724 184.439 251.724 184.753C251.724 185.067 251.638 185.37 251.482 185.601C251.326 185.832 251.112 185.974 250.883 185.999Z" fill="#6D757D"/>
<path d="M24.2442 169.874C24.101 169.872 23.9588 169.85 23.8217 169.809C23.4996 169.699 23.2336 169.468 23.0814 169.164C22.9293 168.86 22.9033 168.508 23.0091 168.185L25.9425 159.597C26.0503 159.275 26.282 159.008 26.5868 158.855C26.8916 158.703 27.2444 158.678 27.5677 158.786C27.891 158.893 28.1582 159.125 28.3106 159.429C28.463 159.734 28.488 160.086 28.3803 160.409L25.455 168.981C25.374 169.238 25.2131 169.464 24.9954 169.624C24.7778 169.785 24.5147 169.872 24.2442 169.874Z" fill="#6D757D"/>
<path d="M14.2411 164.543C14.1029 164.545 13.9654 164.523 13.8348 164.478C13.674 164.425 13.5253 164.342 13.3972 164.232C13.2691 164.121 13.1641 163.987 13.0885 163.836C13.0129 163.685 12.9681 163.52 12.9568 163.352C12.9454 163.183 12.9676 163.014 13.0222 162.854L15.46 155.508C15.5133 155.349 15.5977 155.201 15.7082 155.073C15.8188 154.946 15.9534 154.842 16.1043 154.766C16.2552 154.691 16.4195 154.646 16.5878 154.634C16.7561 154.622 16.9251 154.643 17.0851 154.697C17.2452 154.75 17.3932 154.834 17.5206 154.945C17.6481 155.055 17.7525 155.19 17.828 155.34C17.9035 155.491 17.9484 155.655 17.9604 155.823C17.9724 155.991 17.9511 156.16 17.8977 156.32L15.46 163.625C15.3817 163.888 15.2211 164.119 15.0017 164.285C14.7824 164.45 14.5158 164.54 14.2411 164.543Z" fill="#6D757D"/>
<path d="M216.788 119.579C216.447 119.579 216.121 119.444 215.88 119.203C215.639 118.963 215.504 118.637 215.504 118.297V95.1875C215.504 95.019 215.537 94.8523 215.602 94.6967C215.666 94.5411 215.761 94.3997 215.88 94.2806C215.999 94.1615 216.141 94.067 216.296 94.0026C216.452 93.9381 216.619 93.905 216.788 93.905C216.956 93.905 217.123 93.9381 217.279 94.0026C217.435 94.067 217.576 94.1615 217.696 94.2806C217.815 94.3997 217.909 94.5411 217.974 94.6967C218.038 94.8523 218.072 95.019 218.072 95.1875V118.297C218.072 118.637 217.936 118.963 217.696 119.203C217.455 119.444 217.128 119.579 216.788 119.579Z" fill="#F0874A"/>
<path d="M211.847 99.4246L212.79 100.301L217.105 95.6664L221.419 100.301L222.362 99.4246L217.105 93.7833L211.847 99.4246Z" fill="#F0874A"/>
<path d="M227.82 23.8063C227.82 24.253 227.688 24.6896 227.439 25.0608C227.19 25.4321 226.837 25.7213 226.424 25.8919C226.011 26.0624 225.556 26.1066 225.118 26.0189C224.679 25.9312 224.277 25.7154 223.961 25.399C223.646 25.0827 223.431 24.6798 223.345 24.2416C223.259 23.8033 223.304 23.3494 223.477 22.9372C223.649 22.525 223.94 22.1731 224.312 21.9262C224.685 21.6792 225.122 21.5482 225.569 21.5498C225.866 21.5498 226.159 21.6083 226.433 21.7218C226.706 21.8353 226.955 22.0016 227.164 22.2112C227.373 22.4209 227.539 22.6697 227.651 22.9434C227.764 23.2171 227.821 23.5104 227.82 23.8063Z" fill="#6D757D"/>
<path d="M255.749 112.85C255.75 113.297 255.619 113.734 255.372 114.106C255.125 114.478 254.772 114.768 254.36 114.94C253.947 115.112 253.493 115.158 253.054 115.072C252.615 114.986 252.212 114.772 251.895 114.457C251.579 114.141 251.363 113.739 251.275 113.301C251.187 112.863 251.231 112.409 251.402 111.996C251.573 111.584 251.862 111.231 252.234 110.982C252.606 110.734 253.043 110.602 253.49 110.602C254.087 110.602 254.661 110.838 255.084 111.26C255.508 111.681 255.747 112.253 255.749 112.85Z" fill="#6D757D"/>
<path d="M46.3424 67.6764L38.631 60.3711L45.9442 52.66L53.6638 59.9653L46.3424 67.6764ZM41.3206 60.3224L46.1961 64.9491L50.8278 60.0789L45.9523 55.4441L41.3206 60.3224Z" fill="#6D757D"/>
<path d="M238.481 95.0728L230.355 87.3942L238.043 79.2772L246.168 86.9559L238.481 95.0728ZM233.061 87.313L238.408 92.3455L243.446 87.0127L238.108 82.0045L233.061 87.313Z" fill="#F0874A"/>
<path d="M189.442 11.3966C189.254 11.3952 189.071 11.3389 188.915 11.2346C188.759 11.1303 188.638 10.9826 188.565 10.8097C188.492 10.6369 188.472 10.4466 188.507 10.2623C188.541 10.0781 188.629 9.90799 188.76 9.7732L196.625 1.89974C196.714 1.8102 196.82 1.73906 196.937 1.6904C197.054 1.64174 197.179 1.6165 197.305 1.61612C197.431 1.61575 197.557 1.64024 197.674 1.68821C197.791 1.73617 197.897 1.80667 197.986 1.89568C198.076 1.98468 198.147 2.09046 198.196 2.20695C198.245 2.32345 198.27 2.44839 198.27 2.57464C198.271 2.70089 198.246 2.82598 198.198 2.94276C198.15 3.05955 198.08 3.16574 197.991 3.25527L190.125 11.1044C190.036 11.1964 189.93 11.2696 189.813 11.3198C189.696 11.37 189.57 11.3961 189.442 11.3966Z" fill="#6D757D"/>
<path d="M197.316 11.3886C197.06 11.3871 196.815 11.285 196.633 11.1045L188.751 3.25535C188.653 3.16791 188.573 3.06128 188.517 2.94201C188.462 2.82274 188.431 2.69335 188.427 2.56177C188.423 2.4302 188.446 2.29922 188.495 2.17688C188.543 2.05454 188.617 1.94341 188.71 1.85034C188.803 1.75726 188.914 1.68419 189.037 1.63561C189.159 1.58703 189.29 1.56397 189.422 1.56785C189.554 1.57172 189.683 1.60245 189.803 1.65814C189.922 1.71383 190.029 1.7933 190.116 1.89169L197.998 9.74083C198.125 9.87696 198.21 10.0467 198.242 10.2297C198.275 10.4128 198.254 10.6013 198.182 10.7727C198.11 10.9441 197.99 11.091 197.836 11.196C197.683 11.3009 197.502 11.3593 197.316 11.3642V11.3886Z" fill="#6D757D"/>
<path d="M129.426 109.981C129.004 109.948 128.611 109.757 128.324 109.446C128.037 109.136 127.877 108.729 127.877 108.307C127.877 107.884 128.037 107.477 128.324 107.167C128.611 106.856 129.004 106.665 129.426 106.632C134.949 106.72 140.435 105.709 145.564 103.658C150.693 101.608 155.362 98.5579 159.3 94.687C163.237 90.8161 166.364 86.2013 168.498 81.1114C170.633 76.0215 171.732 70.5582 171.732 65.0398C171.732 59.5214 170.633 54.0581 168.498 48.9682C166.364 43.8783 163.237 39.2635 159.3 35.3926C155.362 31.5217 150.693 28.4721 145.564 26.4213C140.435 24.3706 134.949 23.3598 129.426 23.4477C128.982 23.4477 128.557 23.2718 128.244 22.9588C127.931 22.6457 127.754 22.2211 127.754 21.7783C127.754 21.3356 127.931 20.911 128.244 20.5979C128.557 20.2848 128.982 20.1089 129.426 20.1089C135.333 20.1089 141.183 21.2713 146.641 23.5295C152.099 25.7878 157.058 29.0977 161.235 33.2704C165.412 37.4431 168.726 42.3969 170.987 47.8488C173.247 53.3007 174.411 59.144 174.411 65.0451C174.411 70.9462 173.247 76.7895 170.987 82.2414C168.726 87.6933 165.412 92.647 161.235 96.8197C157.058 100.992 152.099 104.302 146.641 106.561C141.183 108.819 135.333 109.981 129.426 109.981Z" fill="#6D757D"/>
<path d="M171.312 71.0354H164.627C164.183 71.0354 163.758 70.8596 163.445 70.5465C163.132 70.2334 162.955 69.8088 162.955 69.3661C162.955 68.9233 163.132 68.4987 163.445 68.1856C163.758 67.8725 164.183 67.6967 164.627 67.6967H171.312C171.755 67.6967 172.18 67.8725 172.493 68.1856C172.807 68.4987 172.983 68.9233 172.983 69.3661C172.983 69.8088 172.807 70.2334 172.493 70.5465C172.18 70.8596 171.755 71.0354 171.312 71.0354Z" fill="#6D757D"/>
<path d="M131.16 31.7617C130.717 31.7617 130.292 31.5858 129.978 31.2727C129.665 30.9596 129.489 30.535 129.489 30.0923V23.4042C129.489 22.9614 129.665 22.5368 129.978 22.2237C130.292 21.9107 130.717 21.7348 131.16 21.7348C131.603 21.7348 132.028 21.9107 132.342 22.2237C132.655 22.5368 132.831 22.9614 132.831 23.4042V30.0923C132.831 30.535 132.655 30.9596 132.342 31.2727C132.028 31.5858 131.603 31.7617 131.16 31.7617Z" fill="#6D757D"/>
<path d="M148.898 37.3583C148.517 37.3711 148.144 37.2516 147.841 37.0202C147.489 36.7521 147.259 36.3558 147.199 35.9182C147.14 35.4805 147.256 35.0372 147.523 34.6852L152.431 28.2084C152.699 27.8553 153.097 27.623 153.536 27.5626C153.975 27.5021 154.421 27.6185 154.774 27.8861C155.128 28.1538 155.36 28.5506 155.421 28.9895C155.481 29.4284 155.365 29.8734 155.097 30.2265L150.189 36.7033C150.037 36.9027 149.842 37.0652 149.619 37.1786C149.395 37.2921 149.149 37.3535 148.898 37.3583Z" fill="#6D757D"/>
<path d="M159.349 50.6926C158.969 50.6968 158.6 50.5718 158.301 50.3383C158.002 50.1048 157.792 49.7766 157.704 49.4078C157.617 49.0389 157.658 48.6513 157.82 48.3088C157.983 47.9662 158.257 47.689 158.598 47.5229L165.061 44.2898C165.257 44.1913 165.471 44.1324 165.691 44.1165C165.91 44.1006 166.13 44.128 166.339 44.1972C166.548 44.2664 166.741 44.3759 166.907 44.5196C167.073 44.6633 167.21 44.8383 167.308 45.0346C167.407 45.231 167.466 45.4448 167.482 45.6639C167.498 45.883 167.47 46.103 167.401 46.3115C167.332 46.52 167.222 46.7129 167.078 46.879C166.934 47.0451 166.759 47.1813 166.563 47.2799L160.089 50.513C159.86 50.6297 159.606 50.6913 159.349 50.6926Z" fill="#6D757D"/>
<path d="M167.271 88.5174C166.89 88.5302 166.516 88.4108 166.213 88.1794L159.74 83.2768C159.565 83.1443 159.418 82.9787 159.307 82.7894C159.196 82.6 159.123 82.3907 159.093 82.1734C159.063 81.9561 159.076 81.735 159.132 81.5228C159.188 81.3106 159.285 81.1113 159.417 80.9365C159.55 80.7617 159.716 80.6147 159.905 80.5039C160.095 80.3931 160.304 80.3206 160.522 80.2907C160.739 80.2608 160.961 80.2739 161.173 80.3295C161.386 80.385 161.585 80.4818 161.76 80.6143L168.233 85.5168C168.512 85.7276 168.718 86.0207 168.822 86.3545C168.925 86.6884 168.921 87.0462 168.81 87.3776C168.699 87.7091 168.487 87.9973 168.203 88.2018C167.919 88.4063 167.578 88.5167 167.229 88.5174H167.271Z" fill="#6D757D"/>
<path d="M150.675 102.657C150.366 102.658 150.062 102.572 149.798 102.41C149.535 102.247 149.322 102.015 149.184 101.738L145.947 95.2715C145.748 94.875 145.715 94.4157 145.855 93.9946C145.994 93.5736 146.296 93.2253 146.693 93.0263C147.09 92.8273 147.55 92.794 147.971 92.9337C148.393 93.0734 148.741 93.3747 148.941 93.7712L152.177 100.237C152.275 100.434 152.334 100.647 152.349 100.866C152.364 101.085 152.336 101.305 152.266 101.513C152.197 101.721 152.087 101.913 151.942 102.079C151.798 102.244 151.623 102.38 151.426 102.477C151.194 102.598 150.936 102.659 150.675 102.657Z" fill="#6D757D"/>
<path d="M130.324 110.316C130.104 110.316 129.886 110.273 129.682 110.188C129.479 110.104 129.294 109.98 129.139 109.824C128.984 109.668 128.861 109.482 128.777 109.279C128.694 109.075 128.652 108.857 128.653 108.636V99.4443C128.653 99.0015 128.829 98.5769 129.143 98.2638C129.456 97.9508 129.881 97.7749 130.324 97.7749C130.768 97.7749 131.193 97.9508 131.506 98.2638C131.82 98.5769 131.996 99.0015 131.996 99.4443V108.636C131.996 109.08 131.82 109.506 131.507 109.821C131.194 110.135 130.769 110.314 130.324 110.316Z" fill="#6D757D"/>
<path d="M130.145 76.8229C128.135 76.8219 126.203 76.0454 124.752 74.6555C123.302 73.2655 122.444 71.3696 122.36 69.3635C122.283 67.2287 123.042 65.1478 124.475 63.5629L124.973 63.0451C125.107 62.8348 125.288 62.6578 125.501 62.5274L143.811 51.1587C144.116 50.9695 144.473 50.8835 144.831 50.9134C145.189 50.9432 145.528 51.0873 145.797 51.3244C146.066 51.5614 146.252 51.8788 146.327 52.2296C146.401 52.5803 146.361 52.9458 146.212 53.2718L137.972 71.1279C137.757 71.7308 137.477 72.3083 137.136 72.8502L137.052 72.9664C136.825 73.3509 136.552 73.7058 136.237 74.0229C135.478 74.8939 134.542 75.5939 133.492 76.0765C132.442 76.5592 131.301 76.8136 130.145 76.8229ZM127.289 65.4436C127.172 65.5524 127.062 65.6689 126.961 65.7922C126.107 66.7233 125.654 67.9534 125.702 69.2155C125.754 70.3564 126.245 71.433 127.073 72.2206C127.901 73.0082 129.002 73.4457 130.145 73.4418C130.823 73.4364 131.492 73.2876 132.108 73.0054C132.724 72.7231 133.273 72.3137 133.72 71.8042C133.833 71.6801 133.939 71.5496 134.037 71.4132C134.104 71.2747 134.186 71.1436 134.281 71.0223C134.475 70.6874 134.635 70.3334 134.757 69.9657C134.777 69.9041 134.801 69.844 134.831 69.7861L140.775 56.917L127.691 65.0315V65.0949C127.576 65.2315 127.44 65.3491 127.289 65.4436Z" fill="#F0874A"/>
<path d="M115.263 67.6969H70.0873C69.6657 67.6635 69.2721 67.4725 68.9851 67.1621C68.6981 66.8518 68.5388 66.4448 68.5388 66.0223C68.5388 65.5998 68.6981 65.1928 68.9851 64.8824C69.2721 64.572 69.6657 64.3811 70.0873 64.3476H115.263C115.684 64.3811 116.078 64.572 116.365 64.8824C116.652 65.1928 116.811 65.5998 116.811 66.0223C116.811 66.4448 116.652 66.8518 116.365 67.1621C116.078 67.4725 115.684 67.6635 115.263 67.6969Z" fill="#6D757D"/>
<path d="M115.263 84.4082H86.8204C86.3987 84.3747 86.0052 84.1837 85.7182 83.8734C85.4312 83.563 85.2719 83.156 85.2719 82.7335C85.2719 82.311 85.4312 81.904 85.7182 81.5936C86.0052 81.2832 86.3987 81.0923 86.8204 81.0588H115.263C115.684 81.0923 116.078 81.2832 116.365 81.5936C116.652 81.904 116.811 82.311 116.811 82.7335C116.811 83.156 116.652 83.563 116.365 83.8734C116.078 84.1837 115.684 84.3747 115.263 84.4082Z" fill="#6D757D"/>
<path d="M115.263 51.8124H85.9847C85.5415 51.8124 85.1164 51.6366 84.803 51.3235C84.4896 51.0104 84.3135 50.5858 84.3135 50.1431C84.3135 49.7003 84.4896 49.2757 84.803 48.9626C85.1164 48.6495 85.5415 48.4737 85.9847 48.4737H115.263C115.706 48.4737 116.131 48.6495 116.444 48.9626C116.758 49.2757 116.934 49.7003 116.934 50.1431C116.934 50.5858 116.758 51.0104 116.444 51.3235C116.131 51.6366 115.706 51.8124 115.263 51.8124Z" fill="#6D757D"/>
<path d="M115.263 38.4511H99.397C98.9754 38.4177 98.5818 38.2267 98.2949 37.9163C98.0079 37.606 97.8485 37.199 97.8485 36.7765C97.8485 36.354 98.0079 35.947 98.2949 35.6366C98.5818 35.3262 98.9754 35.1353 99.397 35.1018H115.263C115.685 35.1353 116.078 35.3262 116.365 35.6366C116.652 35.947 116.811 36.354 116.811 36.7765C116.811 37.199 116.652 37.606 116.365 37.9163C116.078 38.2267 115.685 38.4177 115.263 38.4511Z" fill="#6D757D"/>
<path d="M115.263 96.9419H103.554C103.11 96.9419 102.685 96.7661 102.372 96.453C102.058 96.1399 101.882 95.7153 101.882 95.2726C101.882 94.8298 102.058 94.4052 102.372 94.0921C102.685 93.7791 103.11 93.6031 103.554 93.6031H115.263C115.706 93.6031 116.131 93.7791 116.444 94.0921C116.758 94.4052 116.934 94.8298 116.934 95.2726C116.934 95.7153 116.758 96.1399 116.444 96.453C116.131 96.7661 115.706 96.9419 115.263 96.9419Z" fill="#6D757D"/>
<path d="M168.434 34.4041C168.216 34.4038 167.999 34.3598 167.797 34.2745C167.596 34.1892 167.413 34.0644 167.26 33.9075L160.777 27.4412C160.466 27.1252 160.293 26.7004 160.293 26.2579C160.293 25.8154 160.466 25.3905 160.777 25.0745L166.33 19.5381C166.649 19.2387 167.071 19.0721 167.509 19.0721C167.947 19.0721 168.369 19.2387 168.688 19.5381L175.172 26.0043C175.485 26.319 175.66 26.7443 175.66 27.1877C175.66 27.631 175.485 28.0563 175.172 28.371L169.619 33.9075C169.464 34.0642 169.28 34.1888 169.077 34.274C168.873 34.3592 168.655 34.4034 168.434 34.4041ZM164.331 26.2579L168.434 30.368L171.608 27.1982L167.504 23.0987L164.331 26.2579Z" fill="#6D757D"/>
<path d="M161.369 34.9959C161.04 34.9921 160.719 34.8919 160.447 34.7077C160.174 34.5235 159.961 34.2635 159.835 33.9597C159.709 33.656 159.675 33.322 159.737 32.999C159.799 32.6761 159.955 32.3785 160.185 32.1431L163.421 28.91C163.734 28.5962 164.159 28.4193 164.602 28.4183C165.045 28.4173 165.471 28.5923 165.785 28.9047C166.099 29.2172 166.277 29.6415 166.278 30.0843C166.279 30.5272 166.103 30.9523 165.791 31.2662L162.554 34.4993C162.399 34.656 162.215 34.7806 162.011 34.8658C161.808 34.9511 161.59 34.9953 161.369 34.9959Z" fill="#6D757D"/>
<path d="M131.161 17.5497C130.717 17.5497 130.292 17.3738 129.979 17.0608C129.665 16.7477 129.489 16.3231 129.489 15.8803V10.8722C129.488 10.652 129.53 10.4338 129.613 10.2301C129.697 10.0263 129.82 9.84103 129.975 9.6849C130.13 9.52876 130.315 9.40483 130.519 9.32028C130.722 9.23573 130.94 9.1922 131.161 9.19221H137.856V3.34935H121.99C121.568 3.31587 121.175 3.12492 120.888 2.81455C120.601 2.50418 120.441 2.0972 120.441 1.67469C120.441 1.25219 120.601 0.845169 120.888 0.5348C121.175 0.224432 121.568 0.0334806 121.99 0H139.559C140.002 0 140.427 0.175878 140.741 0.488949C141.054 0.80202 141.23 1.22666 141.23 1.6694V10.8722C141.23 11.3149 141.054 11.7395 140.741 12.0526C140.427 12.3656 140.002 12.5416 139.559 12.5416H132.811V15.8803C132.811 16.3194 132.637 16.7409 132.329 17.0533C132.02 17.3658 131.6 17.5442 131.161 17.5497Z" fill="#6D757D"/>
</svg>
