<svg width="225" height="212" viewBox="0 0 225 212" fill="none" xmlns="http://www.w3.org/2000/svg">
<path opacity="0.46" d="M207.681 137.914L214.896 150.458L168.434 187.471L163.075 181.022L158.376 175.234L207.681 137.914Z" fill="#F0874A"/>
<path d="M217.982 183.162L211.433 176.555L217.982 169.947L224.532 176.555L217.982 183.162ZM213.813 176.555L217.965 180.744L222.117 176.555L217.965 172.365L213.813 176.555Z" fill="#F0874A"/>
<path d="M7.08131 104.015L0.531738 97.4068L7.08131 90.7988L13.6365 97.4068L7.08131 104.015ZM2.93495 97.4068L7.08131 101.596L11.2333 97.4068L7.08131 93.2177L2.93495 97.4068Z" fill="#6D757D"/>
<path d="M34.0015 74.2304C33.777 74.2304 33.5618 74.1405 33.4031 73.9804C33.2444 73.8203 33.1553 73.6031 33.1553 73.3767V56.6889C33.1793 56.4794 33.2788 56.2862 33.4348 56.1459C33.5908 56.0057 33.7925 55.9282 34.0015 55.9282C34.2104 55.9282 34.4121 56.0057 34.5682 56.1459C34.7242 56.2862 34.8237 56.4794 34.8477 56.6889V73.3767C34.8462 73.6027 34.7566 73.8189 34.5982 73.9787C34.4398 74.1385 34.2254 74.229 34.0015 74.2304Z" fill="#F0874A"/>
<path d="M30.583 58.698L31.2036 59.2843L34.0524 56.1937L36.9013 59.2843L37.5218 58.698L34.0524 54.9359L30.583 58.698Z" fill="#F0874A"/>
<path d="M4.6443 181.626C4.47621 181.626 4.31494 181.559 4.19555 181.439C4.07616 181.32 4.00835 181.158 4.00686 180.988C4.00609 180.904 4.0221 180.82 4.05393 180.742C4.08577 180.664 4.13279 180.593 4.19221 180.534C4.25163 180.474 4.32225 180.428 4.3999 180.396C4.47756 180.365 4.56065 180.349 4.6443 180.351H14.6746C14.8422 180.351 15.0029 180.418 15.1213 180.538C15.2398 180.657 15.3064 180.819 15.3064 180.988C15.3064 181.157 15.2398 181.319 15.1213 181.439C15.0029 181.559 14.8422 181.626 14.6746 181.626H4.6443Z" fill="#F0874A"/>
<path d="M9.65372 186.76C9.48111 186.749 9.31892 186.673 9.20039 186.546C9.08185 186.419 9.01595 186.251 9.01625 186.077V175.917C9.01279 175.74 9.07625 175.569 9.19364 175.438C9.31103 175.307 9.47356 175.226 9.64811 175.211C9.81579 175.221 9.97349 175.295 10.0896 175.417C10.2058 175.54 10.2717 175.702 10.2743 175.872V186.037C10.275 186.214 10.2098 186.384 10.0918 186.515C9.97375 186.646 9.81138 186.727 9.63681 186.743L9.65372 186.76Z" fill="#F0874A"/>
<path d="M28.9132 191.04C28.6887 191.04 28.4735 190.95 28.3148 190.79C28.1561 190.63 28.067 190.412 28.067 190.186V154.408L19.605 147.436V126.861C19.605 126.635 19.6941 126.417 19.8528 126.257C20.0115 126.097 20.2268 126.007 20.4512 126.007C20.6756 126.007 20.8908 126.097 21.0495 126.257C21.2082 126.417 21.2974 126.635 21.2974 126.861V146.622L29.7594 153.595V190.186C29.7579 190.412 29.6683 190.628 29.5099 190.788C29.3515 190.948 29.1371 191.038 28.9132 191.04Z" fill="#F0874A"/>
<path d="M16.3052 129.701L17.0555 130.401L20.4685 126.696L23.8871 130.401L24.6318 129.701L20.4685 125.188L16.3052 129.701Z" fill="#F0874A"/>
<path d="M209.639 110.85C209.527 110.85 209.417 110.828 209.314 110.785C209.211 110.742 209.117 110.678 209.038 110.598C208.96 110.518 208.897 110.424 208.855 110.319C208.813 110.215 208.792 110.104 208.792 109.991V94.1626L217.254 87.1846V67.6339C217.254 67.4075 217.344 67.1903 217.502 67.0302C217.661 66.8701 217.876 66.7802 218.101 66.7802C218.325 66.7802 218.54 66.8701 218.699 67.0302C218.858 67.1903 218.947 67.4075 218.947 67.6339V87.9985L210.485 94.9765V109.991C210.485 110.218 210.396 110.436 210.237 110.597C210.079 110.758 209.864 110.849 209.639 110.85Z" fill="#F0874A"/>
<path d="M213.943 70.6504L214.688 71.3505L218.106 67.6396L221.525 71.3505L222.269 70.6504L218.106 66.1313L213.943 70.6504Z" fill="#F0874A"/>
<path d="M189.319 65.1637C189.239 65.1743 189.157 65.1674 189.08 65.1436C189.003 65.1198 188.932 65.0795 188.871 65.0256C188.811 64.9716 188.763 64.9052 188.73 64.8309C188.697 64.7565 188.68 64.6759 188.681 64.5945C188.681 64.4212 188.747 64.2546 188.866 64.1294C188.985 64.0042 189.147 63.9302 189.319 63.9229L199.772 63.8774C199.947 63.8932 200.11 63.9754 200.227 64.1075C200.344 64.2395 200.407 64.4116 200.404 64.5888C200.404 64.671 200.387 64.7524 200.355 64.8279C200.323 64.9034 200.276 64.9715 200.217 65.028C200.158 65.0845 200.088 65.1282 200.011 65.1564C199.935 65.1846 199.853 65.1968 199.772 65.1922L189.319 65.1637Z" fill="#6D757D"/>
<path d="M194.554 70.7245C194.378 70.7074 194.214 70.6242 194.096 70.4913C193.978 70.3585 193.914 70.1857 193.916 70.0073V59.4266C193.914 59.2527 193.979 59.0848 194.097 58.9576C194.214 58.8305 194.376 58.7538 194.548 58.7436C194.717 58.7436 194.879 58.8113 194.999 58.932C195.118 59.0526 195.185 59.2162 195.185 59.3867V70.0073C195.189 70.1852 195.126 70.3579 195.009 70.4909C194.892 70.6239 194.729 70.7073 194.554 70.7245Z" fill="#6D757D"/>
<path d="M46.83 108.17H46.7172C45.875 108.123 45.0837 107.748 44.5093 107.125C43.9348 106.502 43.6221 105.679 43.6367 104.828C43.6513 103.977 43.9921 103.165 44.5876 102.562C45.183 101.96 45.9868 101.613 46.83 101.596H46.9429C47.785 101.643 48.5764 102.017 49.1508 102.64C49.7252 103.263 50.038 104.087 50.0234 104.937C50.0088 105.788 49.6679 106.6 49.0725 107.203C48.477 107.806 47.6733 108.152 46.83 108.17ZM46.83 102.637C46.3925 102.633 45.9635 102.759 45.5965 103C45.2295 103.24 44.9407 103.584 44.7663 103.989C44.5918 104.394 44.5393 104.842 44.6154 105.276C44.6915 105.711 44.8927 106.114 45.194 106.434C45.392 106.649 45.6307 106.823 45.8962 106.944C46.1616 107.065 46.4485 107.132 46.7398 107.139H46.83C47.4195 107.149 47.9887 106.922 48.4125 106.509C48.8362 106.095 49.0797 105.529 49.0894 104.934C49.0991 104.339 48.8743 103.765 48.4643 103.337C48.0544 102.91 47.4929 102.664 46.9034 102.654L46.83 102.637Z" fill="#F0874A"/>
<path d="M169.749 112.945H169.636C168.773 112.931 167.95 112.571 167.35 111.945C166.75 111.319 166.42 110.478 166.435 109.607C166.449 108.736 166.805 107.906 167.426 107.3C168.046 106.695 168.88 106.362 169.743 106.377H169.856C170.719 106.391 171.542 106.751 172.142 107.377C172.742 108.003 173.072 108.844 173.057 109.715C173.043 110.586 172.687 111.416 172.066 112.021C171.446 112.627 170.612 112.959 169.749 112.945ZM169.749 107.418C169.178 107.436 168.636 107.675 168.235 108.086C167.834 108.496 167.605 109.047 167.596 109.623C167.586 110.199 167.797 110.757 168.184 111.18C168.571 111.604 169.105 111.861 169.675 111.898H169.754C170.325 111.88 170.868 111.641 171.268 111.23C171.669 110.82 171.898 110.269 171.908 109.693C171.917 109.117 171.706 108.559 171.319 108.136C170.932 107.712 170.398 107.455 169.828 107.418H169.749Z" fill="#F0874A"/>
<path d="M97.4946 100.805C94.7078 100.805 91.983 98.2492 91.8533 98.1126L85.1796 91.2826C85.1014 91.2026 85.0397 91.1079 84.9978 91.0039C84.9559 90.8998 84.9348 90.7884 84.9356 90.6761C84.9364 90.5638 84.959 90.4528 85.0024 90.3493C85.0457 90.2458 85.1088 90.152 85.1881 90.0732C85.2673 89.9943 85.3612 89.932 85.4644 89.8897C85.5675 89.8475 85.6779 89.8261 85.7892 89.8269C85.9005 89.8277 86.0106 89.8506 86.1131 89.8943C86.2157 89.938 86.3087 90.0017 86.3868 90.0817L93.0379 96.9116C93.0379 96.9116 96.5807 100.167 98.7752 98.75C99.8527 98.0613 103.672 95.9953 107.801 98.2662C107.899 98.3201 107.985 98.3928 108.055 98.4802C108.125 98.5677 108.177 98.6683 108.209 98.7761C108.24 98.8839 108.25 98.9969 108.239 99.1086C108.227 99.2204 108.193 99.3287 108.14 99.4273C108.086 99.526 108.014 99.6131 107.928 99.6837C107.841 99.7542 107.741 99.8068 107.634 99.8386C107.419 99.9026 107.186 99.8775 106.989 99.7688C103.661 97.9475 100.552 99.6322 99.6552 100.196C99.0075 100.603 98.2577 100.814 97.4946 100.805Z" fill="#F0874A"/>
<path d="M71.0876 138.774C70.8633 138.773 70.6485 138.683 70.4896 138.523L52.0594 119.741C51.9809 119.661 51.9186 119.567 51.8763 119.463C51.8339 119.359 51.8122 119.248 51.8125 119.135C51.8128 119.023 51.8349 118.912 51.8778 118.808C51.9206 118.705 51.9833 118.611 52.0622 118.531C52.1411 118.452 52.2347 118.389 52.3376 118.347C52.4406 118.304 52.5509 118.282 52.6622 118.282C52.7735 118.282 52.8836 118.305 52.9864 118.348C53.0891 118.391 53.1825 118.455 53.261 118.534L71.6912 137.317C71.7705 137.396 71.8334 137.49 71.8764 137.594C71.9194 137.698 71.9415 137.81 71.9415 137.923C71.9415 138.035 71.9194 138.147 71.8764 138.251C71.8334 138.355 71.7705 138.449 71.6912 138.529C71.6119 138.608 71.5177 138.671 71.414 138.713C71.3103 138.755 71.1993 138.776 71.0876 138.774Z" fill="#F0874A"/>
<path d="M96.8516 133.036C94.3864 133.036 91.735 132.074 90.2118 130.452C90.0821 130.316 89.9128 130.151 89.7154 129.957C88.3953 128.654 86.3983 126.69 87.1147 125.011C87.1447 124.942 87.1825 124.877 87.2275 124.818L94.3412 115.711L94.4202 115.626C94.9844 115.056 108.794 101.664 109.753 100.748C109.788 100.714 109.826 100.684 109.866 100.657C115.801 96.6725 119.755 95.2211 128.861 96.6725C129.227 96.6725 131.196 96.5758 132.443 95.7334C132.51 95.6822 132.764 95.4431 132.973 95.2496C134.372 93.9519 135.297 93.0925 136.059 93.9007C136.17 94.0212 136.245 94.1715 136.275 94.3338C136.304 94.4961 136.286 94.6634 136.224 94.8158C136.161 94.9682 136.057 95.0993 135.922 95.1933C135.788 95.2874 135.63 95.3405 135.467 95.3463C135 95.7018 134.551 96.0818 134.124 96.4847C133.891 96.7145 133.644 96.9293 133.385 97.1278C131.58 98.3572 128.872 98.3743 128.798 98.3629H128.669C120.207 97.0083 116.653 98.1466 110.87 102.034C109.578 103.269 96.485 115.984 95.6388 116.832L88.6548 125.785C88.6097 126.11 89.0046 126.889 90.9113 128.762C91.1257 128.972 91.3119 129.155 91.4755 129.303C93.1058 131.039 96.6824 131.852 98.9784 131.01C101.274 130.168 105.488 127.288 110.769 122.922L110.932 122.786C114.041 119.826 115.88 120.771 116.997 121.738L117.076 121.812C117.232 121.962 117.326 122.167 117.338 122.384C117.35 122.602 117.28 122.816 117.14 122.982C117.001 123.149 116.805 123.255 116.59 123.28C116.376 123.305 116.16 123.246 115.987 123.116L115.891 123.036C115.327 122.535 114.447 121.784 112.078 124.049L112.032 124.089L111.846 124.243C108.005 127.419 102.758 131.454 99.5539 132.621C98.6839 132.917 97.7695 133.057 96.8516 133.036Z" fill="#F0874A"/>
<path d="M142.699 146.4C142.531 146.397 142.368 146.343 142.23 146.246C142.093 146.149 141.987 146.012 141.926 145.854C141.866 145.696 141.853 145.523 141.891 145.358C141.928 145.193 142.013 145.042 142.135 144.926L161.721 126.184L162.889 127.424L143.297 146.167C143.135 146.32 142.921 146.404 142.699 146.4Z" fill="#F0874A"/>
<path d="M97.4047 178.991C96.4884 178.979 95.5838 178.78 94.746 178.405C93.9082 178.03 93.1545 177.488 92.5306 176.811C91.7756 175.987 91.2278 174.993 90.9333 173.911C90.6388 172.83 90.6062 171.692 90.8382 170.595C90.4363 170.685 90.0257 170.729 89.6141 170.726C88.6006 170.708 87.6038 170.463 86.695 170.01C85.7862 169.557 84.9878 168.907 84.3571 168.106C83.7264 167.306 83.2789 166.375 83.0467 165.379C82.8144 164.384 82.8032 163.349 83.0137 162.348C82.6276 162.428 82.2345 162.468 81.8403 162.468C80.8268 162.447 79.8303 162.201 78.9218 161.747C78.0134 161.293 77.2153 160.643 76.5845 159.842C75.9536 159.042 75.5056 158.11 75.2722 157.115C75.0388 156.12 75.0259 155.085 75.2343 154.084C74.8483 154.164 74.4551 154.204 74.0609 154.204C73.1455 154.191 72.2421 153.992 71.4053 153.617C70.5685 153.242 69.8157 152.7 69.1925 152.024C66.8005 149.326 66.7272 145.359 69.0119 143.162L73.1696 139.178C73.1785 139.06 73.2112 138.945 73.2655 138.84C73.3198 138.736 73.3947 138.643 73.4855 138.569C74.2189 137.999 74.8845 137.351 75.5897 136.679C76.2949 136.007 77.017 135.319 77.8011 134.693C77.8445 134.655 77.8918 134.623 77.9422 134.596C78.7877 134.168 79.7212 133.948 80.6669 133.953C81.5837 133.958 82.4899 134.15 83.3307 134.519C84.1715 134.888 84.9292 135.425 85.558 136.098C86.3233 136.912 86.883 137.899 87.1894 138.977C87.4958 140.055 87.5399 141.192 87.3181 142.291C87.699 142.216 88.0863 142.177 88.4745 142.177C89.3909 142.189 90.2954 142.388 91.1332 142.763C91.971 143.137 92.7248 143.68 93.3486 144.357C94.1044 145.179 94.6527 146.172 94.9473 147.253C95.2419 148.334 95.2741 149.47 95.041 150.567C95.4436 150.482 95.8539 150.44 96.2652 150.441C97.2742 150.459 98.2665 150.704 99.1706 151.156C100.075 151.608 100.868 152.258 101.492 153.058C102.117 153.857 102.558 154.787 102.782 155.78C103.007 156.772 103.011 157.803 102.792 158.797C103.196 158.71 103.609 158.666 104.022 158.666C104.939 158.677 105.845 158.875 106.684 159.25C107.523 159.625 108.277 160.168 108.902 160.846C110.938 163.168 111.35 166.275 109.94 168.609C109.907 168.659 109.871 168.706 109.833 168.751C109.443 169.161 109.048 169.565 108.648 169.969L108.597 170.015L108.033 170.464C107.153 171.193 106.341 171.882 105.929 172.855C105.884 172.969 105.815 173.072 105.726 173.157L101.269 177.425C100.226 178.425 98.8436 178.985 97.4047 178.991ZM92.9368 167.71C93.052 167.709 93.166 167.733 93.2718 167.779C93.3776 167.825 93.4729 167.893 93.5517 167.977C93.7068 168.142 93.791 168.362 93.7857 168.589C93.7804 168.816 93.6861 169.032 93.5235 169.19C91.8932 170.749 92.006 173.646 93.7773 175.65C94.2426 176.153 94.8036 176.556 95.4268 176.836C96.05 177.116 96.7227 177.266 97.4047 177.277C98.4164 177.292 99.3939 176.908 100.129 176.207L104.462 172.058C105.06 170.902 105.925 169.908 106.984 169.161L107.474 168.751C107.836 168.393 108.185 168.034 108.535 167.664C109.5 165.957 109.15 163.731 107.649 162.024C107.184 161.522 106.622 161.119 105.999 160.84C105.376 160.562 104.704 160.413 104.022 160.402C103.013 160.386 102.038 160.768 101.303 161.466C101.143 161.625 100.927 161.714 100.702 161.712C100.477 161.711 100.262 161.619 100.104 161.457C99.9463 161.296 99.8585 161.078 99.8601 160.851C99.8616 160.624 99.9525 160.407 100.113 160.248C101.754 158.541 101.653 155.774 99.8756 153.765C99.4104 153.262 98.8494 152.859 98.2262 152.579C97.603 152.299 96.9302 152.149 96.2482 152.137C95.2366 152.123 94.2591 152.507 93.5235 153.207C93.3604 153.364 93.1425 153.448 92.9177 153.442C92.6929 153.436 92.4796 153.341 92.3247 153.176C92.1699 153.012 92.0861 152.792 92.092 152.565C92.0978 152.338 92.1927 152.123 92.3558 151.967C93.9917 150.402 93.8733 147.504 92.1019 145.507C91.6366 145.003 91.0757 144.6 90.4524 144.32C89.8292 144.041 89.1565 143.89 88.4745 143.879C87.508 143.864 86.5705 144.213 85.8456 144.858C85.8084 144.896 85.7688 144.932 85.7272 144.966C85.5582 145.094 85.3478 145.154 85.1374 145.133C84.927 145.112 84.7319 145.013 84.5904 144.855C84.449 144.696 84.3714 144.49 84.373 144.277C84.3745 144.064 84.4551 143.859 84.5989 143.702L84.7343 143.577C86.3082 142.069 86.1446 139.274 84.3394 137.242C83.87 136.744 83.3059 136.346 82.6807 136.072C82.0556 135.798 81.3822 135.654 80.7008 135.649C80.051 135.644 79.4086 135.788 78.8222 136.07C78.1171 136.639 77.4739 137.254 76.7913 137.903C76.2272 138.438 75.6631 138.984 75.0482 139.502C75.025 139.697 74.9352 139.878 74.7943 140.014L70.2135 144.403C68.5888 145.968 68.7017 148.865 70.473 150.868C70.9376 151.371 71.4977 151.774 72.1199 152.054C72.7421 152.333 73.4137 152.484 74.0948 152.496C75.1069 152.513 76.0852 152.129 76.8195 151.426C76.9391 151.31 77.0899 151.232 77.2531 151.202C77.4162 151.171 77.5846 151.19 77.7373 151.256C77.89 151.321 78.0203 151.43 78.1119 151.57C78.2034 151.71 78.2523 151.873 78.2524 152.041C78.2522 152.158 78.2286 152.273 78.183 152.381C78.1375 152.489 78.0709 152.586 77.9873 152.667C76.2949 154.278 76.4134 157.061 78.2468 159.127C78.712 159.63 79.273 160.034 79.8963 160.313C80.5195 160.593 81.1922 160.743 81.8742 160.755C82.8843 160.77 83.8604 160.386 84.5933 159.685C84.7566 159.528 84.9747 159.443 85.1999 159.449C85.4251 159.454 85.639 159.549 85.7949 159.713C85.9376 159.868 86.0198 160.07 86.0262 160.282C86.0258 160.398 86.0021 160.513 85.9565 160.62C85.911 160.726 85.8445 160.823 85.761 160.903C84.0686 162.547 84.1589 165.262 86.0205 167.368C86.4858 167.871 87.0468 168.275 87.67 168.555C88.2932 168.834 88.9659 168.984 89.6479 168.996C90.6581 169.012 91.6341 168.628 92.367 167.926C92.5232 167.784 92.7267 167.707 92.9368 167.71Z" fill="#F0874A"/>
<path d="M129.887 127.851C122.802 127.851 116.568 123.56 116.207 123.298C116.023 123.168 115.898 122.97 115.857 122.748C115.817 122.525 115.866 122.295 115.993 122.108C116.055 122.015 116.136 121.936 116.229 121.874C116.323 121.813 116.428 121.771 116.537 121.751C116.647 121.731 116.76 121.733 116.869 121.757C116.977 121.781 117.081 121.827 117.172 121.892C117.29 121.972 128.77 129.86 137.543 123.816C137.634 123.752 137.738 123.708 137.847 123.684C137.956 123.661 138.068 123.66 138.178 123.681C138.287 123.701 138.392 123.743 138.485 123.805C138.578 123.866 138.659 123.945 138.722 124.038C138.785 124.131 138.829 124.235 138.852 124.345C138.875 124.455 138.876 124.568 138.856 124.679C138.835 124.789 138.794 124.894 138.733 124.989C138.672 125.083 138.593 125.164 138.502 125.227C135.965 126.972 132.957 127.888 129.887 127.851Z" fill="#F0874A"/>
<path d="M115.395 181.022C112.687 181.022 110.154 178.899 109.308 177.778C109.24 177.689 109.19 177.587 109.161 177.478C109.132 177.37 109.125 177.256 109.139 177.145C109.154 177.033 109.19 176.925 109.246 176.828C109.302 176.731 109.377 176.645 109.466 176.577C109.645 176.441 109.871 176.382 110.093 176.412C110.316 176.442 110.518 176.558 110.656 176.737C111.085 177.306 114.571 180.653 117.279 178.683C117.781 178.342 118.208 177.9 118.533 177.385C118.858 176.87 119.075 176.293 119.169 175.689C119.239 174.905 119.153 174.114 118.916 173.363C118.678 172.612 118.294 171.917 117.787 171.318C116.094 169.138 115.733 168.689 115.649 168.598H115.609C115.079 167.818 115.496 167.385 115.705 167.237C116.371 166.742 116.833 167.328 117.302 167.898C117.68 168.37 118.3 169.161 119.129 170.248C119.779 171.032 120.264 171.94 120.555 172.919C120.846 173.897 120.937 174.925 120.822 175.94C120.697 176.771 120.404 177.568 119.962 178.281C119.519 178.994 118.937 179.607 118.249 180.083C117.421 180.694 116.421 181.023 115.395 181.022ZM115.649 168.592C115.794 168.722 115.98 168.797 116.175 168.804C116.369 168.812 116.56 168.751 116.715 168.632C116.857 168.521 116.962 168.368 117.013 168.195C117.065 168.021 117.061 167.836 117.003 167.664L115.649 168.592Z" fill="#F0874A"/>
<path d="M123.772 174.05C122.066 174.015 120.429 173.37 119.152 172.229C117.922 171.045 117.047 170.169 116.557 169.622C116.066 169.076 115.699 168.672 116.038 168.074C116.136 167.907 116.286 167.778 116.464 167.706C116.643 167.634 116.84 167.623 117.025 167.676C117.154 167.714 117.272 167.782 117.37 167.875C117.468 167.968 117.543 168.083 117.589 168.211C118.451 169.185 119.362 170.114 120.319 170.994C120.884 171.529 123.631 173.322 125.961 171.614C126.518 171.221 126.991 170.719 127.35 170.137C127.71 169.555 127.949 168.905 128.054 168.228C128.146 167.476 128.083 166.713 127.871 165.987C127.658 165.26 127.3 164.585 126.818 164.005C124.838 161.426 124.263 160.755 124.099 160.59C123.944 160.48 123.829 160.322 123.772 160.14C123.714 159.948 123.725 159.741 123.802 159.556C123.879 159.371 124.018 159.219 124.195 159.127C124.827 158.791 125.227 159.275 125.696 159.833C126.164 160.39 127.027 161.489 128.161 162.969C128.78 163.731 129.24 164.611 129.514 165.557C129.788 166.502 129.871 167.494 129.757 168.472C129.624 169.382 129.309 170.255 128.831 171.038C128.353 171.821 127.722 172.497 126.976 173.026C126.043 173.703 124.921 174.062 123.772 174.05Z" fill="#F0874A"/>
<path d="M132.928 167.021C131.225 166.987 129.59 166.343 128.313 165.205C125.019 162.024 124.449 161.022 124.364 160.851C124.315 160.751 124.285 160.641 124.277 160.529C124.27 160.417 124.284 160.305 124.319 160.198C124.355 160.092 124.41 159.993 124.483 159.909C124.557 159.824 124.645 159.755 124.745 159.704C124.845 159.654 124.953 159.625 125.064 159.617C125.175 159.609 125.287 159.623 125.392 159.659C125.498 159.695 125.595 159.751 125.679 159.825C125.763 159.898 125.832 159.988 125.882 160.089C125.921 160.163 126.485 161.079 129.481 163.965C130.045 164.5 132.792 166.293 135.122 164.585C135.68 164.193 136.153 163.69 136.513 163.108C136.873 162.526 137.112 161.876 137.215 161.198C137.306 160.447 137.243 159.684 137.03 158.958C136.818 158.232 136.46 157.557 135.98 156.975C135.117 155.787 134.19 154.647 133.204 153.56C133.041 153.472 132.911 153.333 132.832 153.164C132.754 152.994 132.732 152.804 132.77 152.621C132.806 152.462 132.886 152.316 133.001 152.2C133.116 152.084 133.26 152.003 133.419 151.967C133.983 151.836 134.152 151.802 137.322 155.951C137.939 156.716 138.396 157.599 138.665 158.547C138.935 159.494 139.012 160.488 138.891 161.466C138.76 162.376 138.446 163.249 137.969 164.032C137.491 164.815 136.861 165.491 136.115 166.019C135.184 166.684 134.068 167.034 132.928 167.021Z" fill="#F0874A"/>
<path d="M140.933 158.979C139.447 159.002 138.004 158.481 136.871 157.51C135.303 155.951 134.163 154.591 134.118 154.534C134.047 154.448 133.993 154.348 133.959 154.241C133.926 154.134 133.913 154.022 133.923 153.91C133.933 153.798 133.964 153.689 134.016 153.59C134.067 153.49 134.137 153.402 134.222 153.33C134.308 153.258 134.406 153.203 134.512 153.169C134.618 153.136 134.73 153.123 134.841 153.133C134.951 153.143 135.059 153.175 135.158 153.226C135.256 153.278 135.344 153.349 135.416 153.435C135.416 153.435 136.544 154.79 138.061 156.281C138.851 156.9 139.819 157.244 140.819 157.261C141.819 157.277 142.798 156.965 143.607 156.372C144.204 155.97 144.713 155.448 145.101 154.839C145.489 154.23 145.749 153.547 145.863 152.832C145.919 152.165 145.835 151.493 145.615 150.861C145.395 150.23 145.045 149.652 144.588 149.166C141.26 145.313 139.41 143.395 139.393 143.378C139.315 143.298 139.254 143.203 139.212 143.098C139.171 142.994 139.15 142.883 139.151 142.77C139.153 142.658 139.176 142.547 139.22 142.444C139.264 142.341 139.327 142.247 139.407 142.169C139.486 142.09 139.581 142.028 139.684 141.986C139.787 141.945 139.898 141.924 140.009 141.925C140.12 141.926 140.23 141.95 140.333 141.994C140.435 142.038 140.528 142.102 140.606 142.183C140.679 142.257 142.501 144.146 145.869 148.045C146.487 148.706 146.957 149.492 147.249 150.351C147.541 151.209 147.647 152.121 147.561 153.025C147.424 153.976 147.093 154.888 146.589 155.703C146.085 156.518 145.419 157.218 144.633 157.761C143.563 158.559 142.264 158.987 140.933 158.979Z" fill="#F0874A"/>
<path d="M84.3278 161.489C84.2138 161.49 84.1008 161.467 83.996 161.422C83.8911 161.377 83.7967 161.311 83.7186 161.227C83.6394 161.148 83.5766 161.054 83.5337 160.951C83.4908 160.847 83.4688 160.736 83.4688 160.624C83.4688 160.511 83.4908 160.4 83.5337 160.297C83.5766 160.193 83.6394 160.099 83.7186 160.02L92.395 151.483C92.4728 151.395 92.5678 151.324 92.674 151.275C92.7802 151.226 92.8953 151.199 93.0122 151.196C93.1291 151.194 93.2452 151.216 93.3534 151.26C93.4615 151.305 93.5594 151.372 93.6408 151.456C93.7223 151.541 93.7857 151.642 93.827 151.752C93.8683 151.862 93.8866 151.98 93.8809 152.098C93.8752 152.216 93.8454 152.331 93.7936 152.437C93.7418 152.542 93.6689 152.636 93.5796 152.712L84.8976 161.25C84.7452 161.4 84.5412 161.486 84.3278 161.489Z" fill="#F0874A"/>
<path d="M76.1989 153.799C76.0322 153.795 75.8705 153.741 75.7342 153.644C75.5978 153.547 75.493 153.411 75.4327 153.255C75.3724 153.098 75.3594 152.926 75.3954 152.762C75.4313 152.598 75.5146 152.448 75.6348 152.331L84.3111 143.794C84.389 143.706 84.484 143.635 84.5902 143.586C84.6964 143.536 84.8115 143.51 84.9284 143.507C85.0452 143.505 85.1614 143.526 85.2695 143.571C85.3777 143.616 85.4755 143.683 85.557 143.767C85.6385 143.852 85.7019 143.952 85.7432 144.063C85.7845 144.173 85.8028 144.291 85.7971 144.409C85.7913 144.526 85.7616 144.642 85.7098 144.747C85.6579 144.853 85.5851 144.947 85.4958 145.023L76.8194 153.56C76.7368 153.64 76.6394 153.702 76.5329 153.743C76.4264 153.784 76.3128 153.803 76.1989 153.799Z" fill="#F0874A"/>
<path d="M92.4176 170.231C92.2509 170.227 92.0892 170.172 91.9529 170.075C91.8166 169.979 91.7117 169.843 91.6514 169.686C91.5912 169.529 91.5782 169.358 91.6141 169.194C91.6501 169.029 91.7334 168.879 91.8535 168.763L100.536 160.225C100.613 160.137 100.708 160.067 100.815 160.017C100.921 159.968 101.036 159.941 101.153 159.939C101.27 159.936 101.386 159.958 101.494 160.003C101.602 160.048 101.7 160.114 101.781 160.199C101.863 160.283 101.926 160.384 101.968 160.494C102.009 160.605 102.027 160.722 102.022 160.84C102.016 160.958 101.986 161.073 101.934 161.179C101.882 161.285 101.81 161.379 101.72 161.455L93.0382 169.992C92.9559 170.072 92.8586 170.134 92.752 170.175C92.6454 170.216 92.5317 170.235 92.4176 170.231Z" fill="#F0874A"/>
<path d="M142.168 145.854C142.054 145.855 141.941 145.833 141.836 145.788C141.732 145.742 141.637 145.676 141.559 145.592L131.484 135.068C131.327 134.905 131.242 134.686 131.245 134.459C131.249 134.233 131.342 134.017 131.503 133.859C131.665 133.701 131.882 133.615 132.107 133.618C132.332 133.622 132.546 133.716 132.702 133.879L142.778 144.403C142.894 144.523 142.974 144.676 143.005 144.841C143.036 145.007 143.018 145.178 142.952 145.333C142.887 145.488 142.778 145.621 142.639 145.713C142.499 145.806 142.335 145.855 142.168 145.854Z" fill="#F0874A"/>
<path d="M50.2485 121.408C50.0363 121.403 49.8344 121.315 49.6844 121.164C49.6051 121.084 49.5421 120.99 49.4992 120.886C49.4562 120.782 49.4341 120.67 49.4341 120.557C49.4341 120.445 49.4562 120.333 49.4992 120.229C49.5421 120.125 49.6051 120.031 49.6844 119.951L81.6594 86.7805L77.2705 81.4247C77.1941 81.3391 77.1357 81.2388 77.0988 81.1299C77.0618 81.021 77.0471 80.9056 77.0555 80.7908C77.0639 80.676 77.0952 80.5641 77.1476 80.4618C77.1999 80.3595 77.2723 80.269 77.3602 80.1956C77.4482 80.1222 77.5499 80.0676 77.6593 80.0349C77.7687 80.0022 77.8835 79.9922 77.9969 80.0055C78.1102 80.0188 78.2198 80.055 78.3189 80.1121C78.418 80.1691 78.5046 80.2458 78.5736 80.3376L83.4533 86.2853C83.5872 86.4469 83.6568 86.6529 83.6484 86.8633C83.6401 87.0737 83.5545 87.2734 83.4082 87.4236L50.8973 121.147C50.8138 121.234 50.7128 121.303 50.6009 121.348C50.489 121.393 50.3689 121.414 50.2485 121.408Z" fill="#F0874A"/>
<path d="M171.052 126.007C170.944 126.019 170.835 126.008 170.732 125.973C170.628 125.939 170.534 125.883 170.454 125.808L138.688 91.4249C138.613 91.3449 138.554 91.2507 138.515 91.1476C138.476 91.0446 138.458 90.9348 138.462 90.8246C138.466 90.7144 138.491 90.6061 138.537 90.5059C138.582 90.4057 138.647 90.3156 138.727 90.241L151.104 78.4252C151.272 78.2863 151.485 78.2168 151.701 78.2309C151.917 78.245 152.12 78.3417 152.268 78.5011C152.416 78.6606 152.498 78.871 152.498 79.0895C152.498 79.308 152.415 79.5182 152.267 79.6773L140.476 90.9183L171.08 124.078L190.582 104.925C190.661 104.846 190.754 104.782 190.856 104.739C190.959 104.696 191.069 104.673 191.18 104.673C191.292 104.673 191.402 104.696 191.504 104.739C191.607 104.782 191.7 104.846 191.778 104.925C191.937 105.086 192.026 105.304 192.026 105.532C192.026 105.759 191.937 105.977 191.778 106.138L171.656 125.819C171.573 125.891 171.477 125.945 171.373 125.977C171.27 126.009 171.16 126.019 171.052 126.007Z" fill="#F0874A"/>
<path d="M50.1135 121.647C49.9996 121.648 49.8869 121.625 49.7822 121.58C49.6775 121.535 49.5829 121.469 49.5042 121.386L26.0137 97.0084C25.8566 96.8461 25.7699 96.6275 25.7725 96.4007C25.7752 96.1739 25.867 95.9574 26.0278 95.7989C26.1887 95.6404 26.4053 95.5529 26.6301 95.5555C26.855 95.5582 27.0695 95.6509 27.2266 95.8131L50.7227 120.196C50.8019 120.275 50.8647 120.369 50.9076 120.472C50.9505 120.576 50.9725 120.687 50.9725 120.799C50.9725 120.912 50.9505 121.023 50.9076 121.126C50.8647 121.23 50.8019 121.324 50.7227 121.403C50.6428 121.483 50.5476 121.546 50.4429 121.588C50.3382 121.63 50.2261 121.65 50.1135 121.647Z" fill="#F0874A"/>
<path d="M81.0786 27.8892C80.8537 27.8877 80.6385 27.7965 80.4799 27.6355C80.3214 27.4745 80.2324 27.2567 80.2324 27.0298V7.91161C80.2324 7.68518 80.3216 7.46803 80.4803 7.30792C80.639 7.14781 80.8542 7.05786 81.0786 7.05786C81.3031 7.05786 81.5183 7.14781 81.677 7.30792C81.8356 7.46803 81.9248 7.68518 81.9248 7.91161V27.0469C81.9204 27.2708 81.8295 27.4842 81.6714 27.6416C81.5134 27.7989 81.3007 27.8878 81.0786 27.8892Z" fill="#F0874A"/>
<path d="M77.626 10.1143L78.2465 10.6948L81.0954 7.60429L83.9443 10.6948L84.5648 10.1143L81.0954 6.34644L77.626 10.1143Z" fill="#F0874A"/>
<path d="M135.783 19.9209C135.558 19.9209 135.343 19.831 135.184 19.6709C135.025 19.5108 134.936 19.2936 134.936 19.0672V1.92401C134.923 1.80361 134.934 1.68164 134.97 1.56608C135.007 1.45053 135.067 1.34401 135.146 1.25352C135.226 1.16303 135.324 1.09062 135.434 1.04104C135.544 0.991455 135.662 0.96582 135.783 0.96582C135.903 0.96582 136.021 0.991455 136.131 1.04104C136.241 1.09062 136.339 1.16303 136.418 1.25352C136.498 1.34401 136.558 1.45053 136.595 1.56608C136.631 1.68164 136.643 1.80361 136.629 1.92401V19.0387C136.632 19.153 136.612 19.2667 136.571 19.3733C136.53 19.4798 136.468 19.577 136.389 19.6592C136.31 19.7413 136.216 19.8068 136.112 19.8517C136.008 19.8967 135.896 19.9202 135.783 19.9209Z" fill="#F0874A"/>
<path d="M132.386 4.34298L133.012 4.92921L135.856 1.83866L138.705 4.92921L139.325 4.34298L135.856 0.580811L132.386 4.34298Z" fill="#F0874A"/>
<path d="M109.28 32.9435C109.111 32.942 108.95 32.8737 108.83 32.7534C108.711 32.6331 108.644 32.4704 108.642 32.3003V21.1789C108.642 21.0083 108.709 20.8447 108.829 20.7241C108.948 20.6035 109.11 20.5357 109.28 20.5357C109.449 20.5357 109.611 20.6035 109.73 20.7241C109.85 20.8447 109.917 21.0083 109.917 21.1789V32.3003C109.916 32.4704 109.848 32.6331 109.729 32.7534C109.609 32.8737 109.448 32.942 109.28 32.9435Z" fill="#F0874A"/>
<path d="M194.672 176.395C194.495 176.396 194.322 176.341 194.178 176.237C194.034 176.133 193.925 175.987 193.868 175.818C193.811 175.649 193.807 175.466 193.858 175.295C193.91 175.123 194.013 174.973 194.153 174.864L210.733 161.916L209.605 155.456C209.567 155.229 209.619 154.997 209.751 154.809C209.883 154.622 210.083 154.495 210.307 154.457C210.532 154.418 210.762 154.471 210.948 154.604C211.133 154.737 211.259 154.939 211.297 155.165L212.572 162.638L195.197 176.219C195.047 176.335 194.862 176.397 194.672 176.395Z" fill="#F0874A"/>
<path d="M214.575 149.405C214.397 149.407 214.223 149.351 214.078 149.247C213.933 149.143 213.824 148.995 213.767 148.824C213.71 148.654 213.708 148.47 213.761 148.299C213.814 148.127 213.919 147.977 214.062 147.869L217.965 144.915L212.854 138.051L208.956 141.005C208.775 141.125 208.556 141.17 208.342 141.133C208.129 141.095 207.937 140.977 207.807 140.802C207.677 140.628 207.618 140.409 207.642 140.192C207.666 139.975 207.77 139.775 207.935 139.633L213.193 135.649L220.34 145.251L215.083 149.235C214.937 149.347 214.758 149.408 214.575 149.405Z" fill="#F0874A"/>
<path d="M155.364 189.332C155.238 189.327 155.115 189.294 155.003 189.236C154.891 189.178 154.793 189.096 154.715 188.996C154.634 188.896 154.576 188.78 154.544 188.655C154.512 188.531 154.506 188.4 154.529 188.274L156.825 175.906C156.862 175.687 156.984 175.493 157.163 175.365L175.215 162.195L206.48 137.738C206.568 137.667 206.669 137.616 206.778 137.586C206.887 137.557 207 137.55 207.111 137.567C207.223 137.581 207.33 137.617 207.427 137.674C207.524 137.731 207.608 137.807 207.676 137.897L216.758 150.1C216.826 150.19 216.875 150.292 216.903 150.401C216.931 150.511 216.937 150.624 216.922 150.736C216.906 150.848 216.868 150.955 216.811 151.052C216.754 151.149 216.679 151.233 216.589 151.301L173.574 183.789L167.267 188.911C167.123 189.04 166.94 189.116 166.748 189.127L155.369 189.321L155.364 189.332ZM158.427 176.549L156.39 187.545L166.437 187.403L172.536 182.451L214.896 150.458L206.841 139.644L176.214 163.549L158.427 176.549Z" fill="#F0874A"/>
<path d="M163.289 182.206C163.169 182.207 163.049 182.181 162.939 182.131C162.829 182.081 162.731 182.008 162.652 181.916L157.896 176.463C157.749 176.292 157.675 176.07 157.69 175.844C157.705 175.618 157.807 175.407 157.975 175.257C158.059 175.182 158.156 175.125 158.261 175.088C158.367 175.051 158.479 175.036 158.59 175.044C158.701 175.051 158.81 175.081 158.91 175.131C159.01 175.181 159.098 175.251 159.171 175.337L163.927 180.789C164.034 180.913 164.104 181.065 164.128 181.227C164.152 181.39 164.129 181.556 164.062 181.705C163.994 181.855 163.886 181.982 163.749 182.071C163.612 182.16 163.452 182.207 163.289 182.206Z" fill="#F0874A"/>
<path d="M144.927 196.475C144.62 196.479 144.324 196.361 144.103 196.145C143.966 196.018 143.871 195.851 143.833 195.667C143.72 195.098 143.658 194.113 143.573 192.872C143.466 191.267 143.206 187.352 142.608 186.003C141.869 186.97 140.527 189.088 139.494 190.727C138.022 193.049 136.634 195.212 135.907 195.957C135.826 196.033 135.731 196.091 135.627 196.129C135.523 196.166 135.413 196.181 135.303 196.174C133.988 196.174 133.825 194.734 133.729 193.851C133.701 193.524 133.645 193.201 133.56 192.884C132.86 192.884 131.371 194.193 130.389 195.422C130.248 195.599 130.042 195.713 129.818 195.737C129.594 195.762 129.369 195.696 129.193 195.553C129.106 195.483 129.034 195.396 128.981 195.298C128.927 195.199 128.894 195.091 128.882 194.979C128.871 194.867 128.881 194.754 128.914 194.647C128.946 194.539 128.999 194.439 129.069 194.352C129.549 193.755 132.042 190.795 134.039 191.239C135.168 191.484 135.309 192.764 135.41 193.698C135.41 193.743 135.41 193.8 135.41 193.857C136.132 192.833 137.103 191.25 138.045 189.805C140.719 185.576 141.593 184.301 142.253 184.005C142.357 183.961 142.468 183.939 142.58 183.939C142.693 183.939 142.804 183.961 142.907 184.005C144.6 184.659 144.933 188.057 145.249 192.781C145.294 193.487 145.339 194.136 145.384 194.631C146.354 194.125 148.38 192.355 150.179 190.425C150.253 190.334 150.345 190.26 150.448 190.206C150.552 190.153 150.665 190.121 150.782 190.114C150.898 190.106 151.014 190.123 151.124 190.162C151.234 190.202 151.334 190.264 151.419 190.344C151.504 190.424 151.572 190.521 151.618 190.629C151.664 190.737 151.688 190.853 151.689 190.971C151.689 191.088 151.665 191.204 151.619 191.312C151.573 191.42 151.505 191.517 151.42 191.598C147.663 195.633 145.841 196.475 144.927 196.475Z" fill="#D2D8DD"/>
<path d="M159.036 29.648H158.596C157.656 29.6058 156.734 29.3752 155.883 28.9697C155.032 28.5642 154.27 27.9919 153.64 27.2861C153.011 26.5804 152.527 25.7553 152.217 24.8589C151.906 23.9626 151.776 23.0129 151.833 22.0652C151.891 21.1176 152.134 20.1909 152.55 19.3392C152.966 18.4875 153.546 17.7278 154.256 17.1045C154.965 16.4811 155.791 16.0065 156.684 15.7083C157.578 15.4101 158.521 15.2943 159.459 15.3677C161.288 15.4944 162.997 16.3307 164.228 17.7013C165.459 19.0719 166.116 20.8701 166.062 22.7189C166.007 24.5676 165.245 26.3231 163.935 27.6171C162.625 28.9111 160.869 29.6431 159.036 29.6594V29.648ZM159.036 17.0524C157.606 17.0972 156.251 17.7076 155.263 18.7517C154.276 19.7959 153.734 21.19 153.757 22.6333C153.779 24.0765 154.363 25.453 155.382 26.4657C156.402 27.4784 157.775 28.046 159.205 28.046C160.636 28.046 162.009 27.4784 163.029 26.4657C164.048 25.453 164.632 24.0765 164.654 22.6333C164.677 21.19 164.135 19.7959 163.148 18.7517C162.16 17.7076 160.805 17.0972 159.375 17.0524H159.036Z" fill="#F0874A"/>
<path d="M50.1192 85.4828H48.4268V68.4079L69.1699 43.8542H162.968C167.831 43.8542 172.259 48.0091 172.259 52.5795V69.5235H170.567V52.5795C170.567 48.971 166.872 45.5617 162.968 45.5617H69.9597L50.1192 69.0397V85.4828Z" fill="#F0874A"/>
<path d="M165.862 211.581H82.771V209.873H165.862C169.439 209.873 172.694 206.265 172.694 202.303V195.878H174.386V202.298C174.375 207.238 170.375 211.581 165.862 211.581Z" fill="#F0874A"/>
<path d="M129.848 211.581H57.4865C52.8268 211.581 48.4209 207.067 48.4209 202.298V197.033H50.1133V202.298C50.1133 206.117 53.7632 209.868 57.4809 209.868H129.842L129.848 211.581Z" fill="#F0874A"/>
<path d="M73.0169 70.3829H56.0591C55.9397 70.3968 55.8189 70.3851 55.7043 70.3486C55.5898 70.312 55.4842 70.2515 55.3945 70.1708C55.3049 70.0902 55.2331 69.9913 55.1839 69.8808C55.1348 69.7702 55.1094 69.6503 55.1094 69.5291C55.1094 69.408 55.1348 69.2881 55.1839 69.1775C55.2331 69.0669 55.3049 68.9681 55.3945 68.8875C55.4842 68.8068 55.5898 68.7463 55.7043 68.7097C55.8189 68.6732 55.9397 68.6615 56.0591 68.6754H71.3245V53.2682C71.3245 53.0417 71.4137 52.8246 71.5724 52.6645C71.731 52.5044 71.9463 52.4144 72.1707 52.4144C72.3951 52.4144 72.6104 52.5044 72.7691 52.6645C72.9278 52.8246 73.0169 53.0417 73.0169 53.2682V70.3829Z" fill="#F0874A"/>
<path d="M117.55 76.3705H91.6787V78.0837H117.55V76.3705Z" fill="#D2D8DD"/>
<path d="M105.252 67.3891H91.6787V69.1023H105.252V67.3891Z" fill="#D2D8DD"/>
<path d="M134.936 67.3891H108.219V69.1023H134.936V67.3891Z" fill="#D2D8DD"/>
<path d="M50.1189 137.339H48.4209V197.67H50.1189V137.339Z" fill="#F0874A"/>
<path opacity="0.73" d="M209.007 140.185L213.802 137.197L219.584 144.881L214.366 148.58L209.007 140.185Z" fill="#F0874A"/>
</svg>
