<svg width="124" height="17" viewBox="0 0 124 17" fill="none" xmlns="http://www.w3.org/2000/svg">
<path d="M57.8377 9.32962C58.7559 8.93968 59.4859 8.20707 59.8726 7.28746C60.0738 6.81566 60.1757 6.3075 60.1719 5.79461V4.53538C60.1755 4.02251 60.0736 3.51437 59.8726 3.04253C59.6815 2.58611 59.4032 2.17138 59.0532 1.82161C58.7043 1.4731 58.2916 1.1949 57.8377 1.00218C57.3677 0.801533 56.8614 0.699667 56.3503 0.702894H51.4101V16.2719H52.8117V9.6271H54.7334L58.9564 16.2719H60.5734L56.3595 9.6271C56.8704 9.63095 57.3767 9.5297 57.8468 9.32962H57.8377ZM52.8117 8.28391V2.03879H56.2792C56.6134 2.03632 56.9445 2.10278 57.2519 2.23405C57.5465 2.3608 57.8137 2.54366 58.0385 2.77243C58.2639 3.00092 58.4446 3.26956 58.5714 3.56448C58.7026 3.87121 58.7691 4.20175 58.7666 4.53538V5.79461C58.7691 6.12883 58.7026 6.45997 58.5714 6.76734C58.4438 7.06177 58.2631 7.33025 58.0385 7.55939C57.8136 7.78757 57.5464 7.9698 57.2519 8.09593C56.9448 8.22806 56.6135 8.29457 56.2792 8.2912L52.8117 8.28391Z" fill="#3C4C5B"/>
<path d="M33.2751 16.2719H42.0369V14.936H34.6749V9.16172H40.6353V7.82583H34.6749V2.03878H42.0369V0.704712H33.2751V16.2719Z" fill="#3C4C5B"/>
<path d="M16.0782 2.03875H19.7903V16.2719H21.1919V2.03875H24.9039V0.704681H16.0782V2.03875Z" fill="#3C4C5B"/>
<path d="M7.83112 9.32963C7.47843 9.00365 7.08154 8.72903 6.65218 8.51386C6.21418 8.29486 5.76341 8.09046 5.30168 7.90614L3.94936 7.35864C3.53442 7.194 3.13952 6.98277 2.77224 6.72901C2.43567 6.49915 2.15095 6.20138 1.9364 5.85485C1.71429 5.47336 1.60482 5.03675 1.62067 4.5956V4.30178C1.6184 3.96817 1.68487 3.63767 1.81595 3.33088C1.94292 3.03683 2.12505 2.76983 2.3525 2.54431C2.58199 2.31924 2.85115 2.13857 3.14637 2.01141C3.45309 1.88014 3.78363 1.81366 4.11726 1.81614H4.98596C5.31959 1.81366 5.65013 1.88014 5.95685 2.01141C6.25092 2.13772 6.51842 2.31853 6.74525 2.54431C6.97101 2.77007 7.1513 3.0371 7.27632 3.33088C7.40826 3.6374 7.47477 3.96808 7.4716 4.30178V4.9314L8.87319 4.70328V4.30178C8.87626 3.79073 8.77439 3.2845 8.57389 2.81442C8.18408 1.89928 7.45373 1.17154 6.5372 0.785014C6.06712 0.584513 5.56088 0.482652 5.04983 0.485724H4.05156C3.53875 0.482679 3.03073 0.584523 2.55872 0.785014C1.63754 1.16996 0.903792 1.90043 0.514728 2.81988C0.314803 3.29008 0.213554 3.79633 0.217254 4.30726V4.60108C0.199723 5.178 0.306789 5.75192 0.531153 6.28371C0.728549 6.72201 1.01292 7.11566 1.367 7.44076C1.72015 7.75823 2.11721 8.02315 2.54594 8.22734C2.98394 8.43721 3.43289 8.62884 3.89644 8.80221C4.35999 8.97559 4.80893 9.14896 5.24876 9.32416C5.66593 9.48626 6.06134 9.69959 6.42588 9.95925C6.76596 10.2008 7.05086 10.5118 7.26172 10.8717C7.48505 11.2806 7.59411 11.7421 7.57745 12.2076V12.6639C7.57981 12.9992 7.50749 13.3309 7.36575 13.6348C7.22722 13.9326 7.03337 14.2014 6.79453 14.4268C6.55648 14.6596 6.27661 14.8454 5.96963 14.9743C5.65684 15.1046 5.32115 15.171 4.98231 15.1696H4.00594C3.66478 15.1706 3.32677 15.1042 3.01132 14.9743C2.70266 14.8455 2.42097 14.6598 2.18095 14.4268C1.94322 14.2008 1.75007 13.9321 1.61155 13.6348C1.46981 13.3309 1.39749 12.9992 1.39985 12.6639V11.8171L7.9557e-05 12.0452V12.6639C-0.00337383 13.1771 0.10564 13.6847 0.319453 14.1513C0.738432 15.0718 1.49111 15.799 2.42549 16.1861C2.90164 16.3856 3.41303 16.4874 3.92929 16.4854H5.04801C5.56426 16.4874 6.07565 16.3856 6.5518 16.1861C7.48618 15.799 8.23886 15.0718 8.65784 14.1513C8.87165 13.6847 8.98067 13.1771 8.97721 12.6639V12.1967C8.99394 11.6163 8.88693 11.039 8.66331 10.5031C8.46667 10.0585 8.18239 9.65817 7.82747 9.32598" fill="#3C4C5B"/>
<path d="M71.0871 0.704681H69.6874V16.2719H77.0476V14.936H71.0871V0.704681Z" fill="#3C4C5B"/>
<path d="M123.656 4.93682V4.3072C123.659 3.79637 123.558 3.2903 123.359 2.81983C122.97 1.90496 122.243 1.17579 121.329 0.78496C120.859 0.584309 120.353 0.482443 119.842 0.48567H118.734C118.222 0.482771 117.714 0.584614 117.243 0.78496C116.323 1.1703 115.59 1.90072 115.201 2.81983C115.001 3.29003 114.9 3.79628 114.903 4.3072V12.6638C114.9 13.1748 115.001 13.681 115.201 14.1512C115.59 15.0703 116.323 15.8007 117.243 16.1861C117.714 16.3864 118.222 16.4883 118.734 16.4854H119.55C120.114 16.492 120.67 16.3557 121.167 16.0893C121.651 15.826 122.073 15.4613 122.404 15.0199L123.218 16.2682H123.663V8.08675H119.778V9.42082H122.264V12.6638C122.266 12.9975 122.2 13.328 122.068 13.6347C121.942 13.9297 121.761 14.1983 121.535 14.4268C121.312 14.6592 121.044 14.8453 120.749 14.9743C120.442 15.1055 120.112 15.172 119.778 15.1695H118.8C118.466 15.172 118.136 15.1055 117.829 14.9743C117.231 14.7174 116.755 14.2413 116.498 13.6439C116.367 13.3371 116.301 13.0066 116.303 12.673V4.3072C116.301 3.9736 116.367 3.64309 116.498 3.33631C116.625 3.0419 116.807 2.77478 117.035 2.54974C117.265 2.32505 117.534 2.14442 117.829 2.01683C118.136 1.88555 118.466 1.81908 118.8 1.82157H119.778C120.112 1.81908 120.442 1.88555 120.749 2.01683C121.342 2.27132 121.814 2.74365 122.068 3.33631C122.199 3.64309 122.266 3.9736 122.264 4.3072V5.15399L123.656 4.93682Z" fill="#3C4C5B"/>
<path d="M86.8186 0.704651H85.4188V16.2718H86.8186V0.704651Z" fill="#3C4C5B"/>
<path d="M106.14 0.704651H104.738V12.2787L106.134 14.7169" fill="#3C4C5B"/>
<path d="M97.378 2.25589V16.2718H98.7778V4.70138L97.378 2.25589Z" fill="#3C4C5B"/>
<path d="M97.3743 0.700989V2.24858L105.397 16.2682H106.134V14.7169L98.1007 0.700989H97.3743Z" fill="#F0874A"/>
</svg>
