<svg width="321" height="200" viewBox="0 0 321 200" fill="none" xmlns="http://www.w3.org/2000/svg">
<path d="M319.222 199.218H3.60301C3.2845 199.218 2.97906 199.092 2.75384 198.867C2.52862 198.642 2.4021 198.337 2.4021 198.018C2.4021 197.7 2.52862 197.395 2.75384 197.17C2.97906 196.945 3.2845 196.819 3.60301 196.819H319.222C319.541 196.819 319.846 196.945 320.072 197.17C320.297 197.395 320.423 197.7 320.423 198.018C320.423 198.337 320.297 198.642 320.072 198.867C319.846 199.092 319.541 199.218 319.222 199.218Z" fill="#6D757D"/>
<path d="M170.77 2.44047C170.737 2.89235 170.571 3.32431 170.291 3.68115C170.012 4.03799 169.632 4.30348 169.201 4.4437C168.77 4.58392 168.306 4.5925 167.87 4.46833C167.434 4.34417 167.045 4.09291 166.752 3.74665C166.46 3.4004 166.277 2.97489 166.228 2.52452C166.179 2.07415 166.266 1.61938 166.477 1.21833C166.688 0.817281 167.013 0.488181 167.413 0.273089C167.812 0.0579978 168.266 -0.033304 168.717 0.0108424C169.309 0.0687064 169.855 0.355061 170.238 0.808902C170.621 1.26274 170.812 1.84818 170.77 2.44047Z" fill="#6D757D"/>
<path d="M313.567 94.7588H298.54C298.374 94.772 298.207 94.7507 298.049 94.6962C297.892 94.6417 297.747 94.5552 297.625 94.4422C297.502 94.3292 297.404 94.192 297.337 94.0394C297.271 93.8868 297.236 93.722 297.236 93.5554C297.236 93.3888 297.271 93.224 297.337 93.0714C297.404 92.9188 297.502 92.7816 297.625 92.6686C297.747 92.5555 297.892 92.469 298.049 92.4145C298.207 92.3601 298.374 92.3387 298.54 92.3519H313.567C313.87 92.376 314.153 92.5132 314.359 92.7363C314.566 92.9593 314.68 93.2518 314.68 93.5554C314.68 93.859 314.566 94.1515 314.359 94.3745C314.153 94.5975 313.87 94.7348 313.567 94.7588Z" fill="#D2D8DD"/>
<path d="M14.4266 175.795H1.201C0.882491 175.795 0.576965 175.669 0.351745 175.444C0.126525 175.219 0 174.913 0 174.595C0 174.277 0.126525 173.972 0.351745 173.747C0.576965 173.522 0.882491 173.396 1.201 173.396H14.4266C14.7451 173.396 15.0505 173.522 15.2757 173.747C15.5009 173.972 15.6275 174.277 15.6275 174.595C15.6275 174.913 15.5009 175.219 15.2757 175.444C15.0505 175.669 14.7451 175.795 14.4266 175.795Z" fill="#6D757D"/>
<path d="M295.781 112.138H283.757C283.438 112.138 283.133 112.012 282.907 111.787C282.682 111.562 282.556 111.257 282.556 110.939C282.556 110.621 282.682 110.315 282.907 110.09C283.133 109.866 283.438 109.739 283.757 109.739H295.781C296.1 109.739 296.405 109.866 296.63 110.09C296.856 110.315 296.982 110.621 296.982 110.939C296.982 111.257 296.856 111.562 296.63 111.787C296.405 112.012 296.1 112.138 295.781 112.138Z" fill="#6D757D"/>
<path d="M266.26 13.6775C266.006 13.6456 265.773 13.5208 265.606 13.3273C265.439 13.1337 265.349 12.8852 265.355 12.6297C265.355 12.1362 265.758 11.5136 266.26 11.5136L278.611 11.2782C278.864 11.3118 279.095 11.4373 279.26 11.6307C279.426 11.8241 279.514 12.0716 279.508 12.326C279.508 12.8195 279.105 13.4421 278.611 13.4421L266.26 13.6775Z" fill="#6D757D"/>
<path d="M272.439 19.6832C272.195 19.6677 271.965 19.559 271.798 19.3797C271.632 19.2003 271.54 18.9638 271.542 18.719V6.27469C271.539 6.02584 271.63 5.78485 271.796 5.59931C271.962 5.41376 272.191 5.29714 272.439 5.27246C272.685 5.28612 272.916 5.39395 273.085 5.57353C273.253 5.75311 273.346 5.99064 273.344 6.23672V18.681C273.347 18.931 273.255 19.173 273.088 19.3588C272.92 19.5445 272.688 19.6603 272.439 19.6832Z" fill="#6D757D"/>
<path d="M298.168 73.9779C297.071 73.9794 295.997 73.6556 295.084 73.0475C294.17 72.4394 293.458 71.5743 293.037 70.5616C292.615 69.549 292.505 68.4343 292.718 67.3586C292.931 66.283 293.459 65.2947 294.235 64.5188C295.01 63.7429 295.999 63.2142 297.075 62.9998C298.152 62.7853 299.268 62.8946 300.282 63.3139C301.297 63.7331 302.164 64.4435 302.774 65.3552C303.384 66.2668 303.709 67.3387 303.709 68.4353C303.705 69.9027 303.121 71.3091 302.083 72.3474C301.044 73.3858 299.637 73.9719 298.168 73.9779ZM298.168 64.6997C297.429 64.6997 296.706 64.9188 296.091 65.3293C295.476 65.7398 294.996 66.3232 294.713 67.0058C294.43 67.6883 294.356 68.4394 294.501 69.1641C294.645 69.8887 295.001 70.5543 295.524 71.0767C296.047 71.5992 296.713 71.9549 297.439 72.0991C298.164 72.2432 298.916 72.1692 299.599 71.8865C300.283 71.6038 300.867 71.125 301.278 70.5107C301.689 69.8964 301.908 69.1741 301.908 68.4353C301.908 67.4445 301.514 66.4944 300.813 65.7939C300.111 65.0933 299.16 64.6997 298.168 64.6997Z" fill="#6D757D"/>
<path d="M42.8237 200C42.516 199.999 42.2205 199.88 41.9973 199.668C41.7742 199.457 41.6402 199.168 41.6227 198.861L37.0622 116.405C36.6822 103.574 41.22 100.628 48.152 100.134C48.646 100.096 53.8906 99.9978 54.9395 99.975C55.098 99.9689 55.2561 99.9948 55.4044 100.051C55.5526 100.108 55.6879 100.193 55.8022 100.303C55.9165 100.413 56.0074 100.545 56.0694 100.691C56.1315 100.837 56.1634 100.993 56.1632 101.152C56.1673 101.31 56.1399 101.467 56.0827 101.614C56.0255 101.761 55.9396 101.895 55.83 102.009C55.7203 102.123 55.5893 102.214 55.4442 102.276C55.2992 102.339 55.1432 102.372 54.9852 102.374C52.5909 102.427 48.6688 102.511 48.3268 102.534C43.2646 102.891 39.1069 104.174 39.4641 116.307L44.0246 198.732C44.0413 199.05 43.9317 199.361 43.7196 199.599C43.5075 199.836 43.2101 199.98 42.8921 200H42.8237Z" fill="#6D757D"/>
<path d="M99.7088 141.074C99.4869 141.073 99.2697 141.01 99.0809 140.894C98.8921 140.777 98.7391 140.611 98.6386 140.413C98.5381 140.216 98.494 139.994 98.5112 139.773C98.5283 139.552 98.606 139.34 98.7358 139.161L104.224 131.674L99.2299 118.008L99.3895 117.59C99.4655 117.385 101.335 112.556 102.361 110.658C102.516 110.379 102.774 110.172 103.08 110.082C103.386 109.993 103.715 110.028 103.996 110.18C104.134 110.254 104.257 110.356 104.356 110.478C104.456 110.6 104.53 110.741 104.574 110.892C104.619 111.043 104.633 111.202 104.616 111.358C104.599 111.515 104.551 111.666 104.475 111.804C103.714 113.262 102.27 116.816 101.799 118.03L106.914 132.092L100.682 140.611C100.566 140.757 100.418 140.875 100.249 140.955C100.08 141.035 99.8956 141.076 99.7088 141.074Z" fill="#D2D8DD"/>
<path d="M99.5113 141.453H99.4656C99.2509 141.446 99.0423 141.38 98.8617 141.264C98.6811 141.148 98.5352 140.985 98.4395 140.793C97.7858 139.973 93.1189 135.402 89.8885 132.342L89.3489 131.818L93.8486 117.689L90.9222 112.472C90.766 112.195 90.7267 111.866 90.8129 111.559C90.8992 111.252 91.104 110.992 91.3822 110.836C91.6603 110.68 91.9892 110.641 92.2964 110.727C92.6035 110.813 92.8638 111.018 93.0201 111.296L96.4557 117.423L92.0928 131.09C100.75 139.373 100.743 139.601 100.712 140.269C100.708 140.585 100.58 140.886 100.355 141.107C100.13 141.329 99.8272 141.453 99.5113 141.453Z" fill="#D2D8DD"/>
<path d="M59.416 199.803C59.0975 199.803 58.7921 199.676 58.5668 199.451C58.3416 199.226 58.2151 198.921 58.2151 198.603C58.2151 198.239 58.215 162.014 58.3442 135.266C58.3442 127.673 61.6431 116.899 70.749 111.318C72.5358 110.343 74.3784 109.474 76.2673 108.714C77.0806 108.365 77.8482 108.031 78.5019 107.735C78.789 107.627 79.1063 107.632 79.3896 107.75C79.673 107.867 79.9011 108.087 80.0277 108.366C80.1543 108.645 80.17 108.962 80.0716 109.252C79.9732 109.542 79.768 109.784 79.4976 109.929C78.8364 110.225 78.0459 110.567 77.2174 110.916C75.4357 111.632 73.6972 112.451 72.0107 113.368C63.7485 118.433 60.7766 128.333 60.7462 135.281C60.6169 162.022 60.6169 198.239 60.6169 198.603C60.6169 198.921 60.4904 199.226 60.2652 199.451C60.0399 199.676 59.7345 199.803 59.416 199.803Z" fill="#6D757D"/>
<path d="M165.449 188.55C165.322 188.549 165.197 188.528 165.076 188.49L136.953 179.257C136.737 179.183 136.546 179.051 136.402 178.876C136.257 178.7 136.163 178.488 136.132 178.262C136.086 177.89 131.465 141.195 128.531 126.359C125.103 112.693 111.657 107.894 111.52 107.849C111.218 107.748 110.968 107.531 110.825 107.247C110.683 106.962 110.659 106.632 110.76 106.33C110.861 106.028 111.078 105.778 111.363 105.636C111.648 105.494 111.978 105.47 112.28 105.571C112.888 105.783 127.117 110.886 130.842 125.798V125.858C133.525 139.571 137.683 171.854 138.344 177.2L165.76 186.204C166.031 186.294 166.262 186.477 166.41 186.721C166.558 186.965 166.614 187.254 166.568 187.535C166.523 187.817 166.378 188.073 166.16 188.258C165.942 188.442 165.666 188.544 165.38 188.543L165.449 188.55Z" fill="#6D757D"/>
<path d="M134.095 192.787C133.979 192.788 133.864 192.77 133.753 192.734L122.61 189.431L113.763 192.704C113.573 192.773 113.37 192.793 113.17 192.764L73.5997 187.055C73.3029 187.011 73.0331 186.859 72.8432 186.627C72.6533 186.395 72.5572 186.101 72.5736 185.802L75.0134 138.606C75.0127 138.443 75.0453 138.281 75.1095 138.13C75.1736 137.98 75.2678 137.844 75.3863 137.732C75.5049 137.619 75.6452 137.532 75.7987 137.475C75.9522 137.419 76.1157 137.394 76.2791 137.403C76.4425 137.412 76.6023 137.454 76.7489 137.526C76.8954 137.599 77.0255 137.701 77.1312 137.826C77.2368 137.951 77.3159 138.096 77.3635 138.252C77.411 138.408 77.4261 138.573 77.4077 138.735L75.0287 184.83L113.208 190.342L122.131 187.032C122.379 186.952 122.644 186.952 122.892 187.032L134.437 190.426C134.717 190.505 134.959 190.683 135.117 190.927C135.276 191.171 135.34 191.464 135.298 191.752C135.256 192.04 135.111 192.303 134.89 192.492C134.669 192.681 134.386 192.783 134.095 192.779V192.787Z" fill="#6D757D"/>
<path d="M101.366 107.074C101.087 107.093 100.811 107.014 100.585 106.851C100.359 106.688 100.196 106.452 100.125 106.183C100.054 105.913 100.079 105.628 100.196 105.375C100.313 105.122 100.514 104.917 100.765 104.796L105.037 102.336L104.535 89.5808L105.501 89.3531C105.751 89.2923 111.817 87.7282 111.817 80.4773V61.0934C111.841 60.7907 111.978 60.5082 112.202 60.3022C112.425 60.0962 112.718 59.9818 113.022 59.9818C113.326 59.9818 113.618 60.0962 113.842 60.3022C114.065 60.5082 114.202 60.7907 114.226 61.0934V80.5153C114.322 82.857 113.676 85.1692 112.381 87.1236C111.086 89.078 109.208 90.5754 107.013 91.403L107.492 103.733L101.966 106.915C101.783 107.019 101.576 107.074 101.366 107.074Z" fill="#6D757D"/>
<path d="M53.0162 132.282C52.7054 132.282 52.4067 132.162 52.1828 131.946C51.9588 131.731 51.8271 131.438 51.8153 131.127C51.1312 114.469 55.745 105.859 69.4266 98.2211C72.1553 96.7026 78.9657 89.7477 75.5757 81.9881C70.8479 71.161 70.103 66.279 71.9653 58.208C74.5952 46.8191 86.3461 39.3176 98.1655 41.5043C102.582 42.3167 110.456 44.7312 113.656 51.7619L113.839 52.1719L113.717 52.5971C112.075 58.1777 100.849 63.7507 89.6905 64.5251C89.5328 64.5361 89.3746 64.5159 89.2246 64.4658C89.0747 64.4156 88.9361 64.3364 88.8169 64.2328C88.6976 64.1292 88.5999 64.0031 88.5294 63.8617C88.4589 63.7204 88.417 63.5665 88.406 63.409C88.395 63.2514 88.4152 63.0933 88.4654 62.9436C88.5156 62.7938 88.5949 62.6554 88.6987 62.5363C88.8024 62.4171 88.9287 62.3195 89.0702 62.2491C89.2117 62.1787 89.3656 62.1368 89.5233 62.1258C99.8453 61.4121 109.559 56.2947 111.262 52.3238C108.381 46.6217 101.586 44.5793 97.7323 43.8732C87.1595 41.9295 76.655 48.6034 74.3063 58.7699C72.5885 66.2183 73.303 70.7966 77.78 81.0466C81.5804 89.725 74.9752 97.887 70.5971 100.332C57.6755 107.53 53.5711 115.274 54.2172 131.044C54.2295 131.363 54.1149 131.674 53.8984 131.909C53.6819 132.143 53.3811 132.283 53.0618 132.297L53.0162 132.282Z" fill="#6D757D"/>
<path d="M77.6282 110.62C77.3397 110.623 77.0599 110.521 76.8398 110.335C76.6198 110.149 76.4743 109.889 76.43 109.604C76.3857 109.32 76.4456 109.028 76.5986 108.784C76.7516 108.54 76.9876 108.359 77.2634 108.274L86.4756 105.297L86.3237 86.8626C86.3235 86.7081 86.3546 86.5552 86.4152 86.413C86.4757 86.2709 86.5643 86.1424 86.6758 86.0353C86.7872 85.9283 86.9192 85.8448 87.0637 85.7899C87.2083 85.7351 87.3624 85.7099 87.517 85.7161C87.6702 85.709 87.8233 85.7326 87.9672 85.7856C88.1112 85.8386 88.243 85.9198 88.355 86.0246C88.4669 86.1294 88.5568 86.2555 88.6191 86.3955C88.6815 86.5355 88.7151 86.6866 88.718 86.8398L88.8852 107.074L78.0387 110.574C77.9063 110.616 77.7667 110.632 77.6282 110.62Z" fill="#6D757D"/>
<path d="M119.083 189.932C118.817 189.932 118.558 189.843 118.347 189.68C118.137 189.516 117.986 189.287 117.921 189.029C115.58 179.796 116.34 159.418 116.4 158.522C116.412 158.203 116.551 157.903 116.784 157.687C117.018 157.47 117.328 157.355 117.647 157.368C117.965 157.38 118.266 157.518 118.483 157.751C118.699 157.985 118.814 158.295 118.802 158.613C118.802 158.825 118.042 179.546 120.277 188.437C120.317 188.589 120.326 188.748 120.304 188.904C120.282 189.06 120.229 189.211 120.148 189.346C120.068 189.482 119.961 189.6 119.834 189.694C119.708 189.788 119.564 189.856 119.41 189.894C119.303 189.92 119.194 189.933 119.083 189.932Z" fill="#6D757D"/>
<path d="M114.979 160.769C114.711 160.76 114.453 160.662 114.247 160.49C114.042 160.318 113.899 160.082 113.843 159.82C113.787 159.558 113.821 159.285 113.939 159.044C114.056 158.803 114.251 158.608 114.493 158.491C116.824 157.345 118.785 155.565 120.149 153.355C121.514 151.146 122.227 148.597 122.207 146.001C122.202 143.634 121.606 141.306 120.472 139.227C119.339 137.148 117.704 135.385 115.716 134.096C115.439 133.938 115.236 133.677 115.152 133.369C115.068 133.061 115.11 132.733 115.268 132.456C115.426 132.179 115.688 131.977 115.996 131.893C116.304 131.809 116.632 131.85 116.91 132.008C119.275 133.499 121.222 135.564 122.57 138.012C123.918 140.459 124.623 143.208 124.617 146.001C124.638 149.06 123.792 152.062 122.178 154.662C120.565 157.261 118.248 159.352 115.496 160.693C115.331 160.757 115.155 160.783 114.979 160.769Z" fill="#6D757D"/>
<path d="M90.7929 161.27C90.4966 161.273 90.2096 161.167 89.987 160.972C89.7645 160.776 89.6221 160.506 89.5872 160.212C89.5523 159.918 89.6274 159.622 89.798 159.38C89.9687 159.138 90.2228 158.967 90.5116 158.901C90.8309 158.825 98.3557 156.867 98.3557 149.79C98.3541 149.212 98.3186 148.634 98.2493 148.059C98.2298 147.903 98.2414 147.744 98.2834 147.592C98.3254 147.44 98.397 147.297 98.4941 147.173C98.5911 147.048 98.7117 146.944 98.849 146.866C98.9864 146.789 99.1377 146.738 99.2944 146.719C99.4511 146.7 99.6102 146.711 99.7624 146.753C99.9146 146.795 100.057 146.867 100.182 146.963C100.306 147.06 100.41 147.181 100.488 147.318C100.566 147.455 100.617 147.606 100.636 147.763C100.718 148.436 100.759 149.113 100.758 149.79C100.758 156.973 94.4261 160.42 91.0817 161.24C90.9869 161.261 90.89 161.271 90.7929 161.27Z" fill="#6D757D"/>
<path d="M186.063 45.4829H158.274L151.995 35.2708H134.361C134.043 35.2708 133.737 35.1445 133.512 34.9195C133.287 34.6945 133.16 34.3894 133.16 34.0712C133.16 33.7531 133.287 33.4479 133.512 33.2229C133.737 32.998 134.043 32.8716 134.361 32.8716H153.364L159.642 43.0836H186.085C186.404 43.0836 186.709 43.21 186.935 43.435C187.16 43.66 187.286 43.9651 187.286 44.2833C187.286 44.6014 187.16 44.9066 186.935 45.1315C186.709 45.3565 186.404 45.4829 186.085 45.4829H186.063Z" fill="#D2D8DD"/>
<path d="M181.494 38.5054L180.506 39.5607L185.721 44.3972L180.506 49.2337L181.494 50.2891L187.841 44.3972L181.494 38.5054Z" fill="#D2D8DD"/>
<path d="M17.7633 134.916C16.7515 134.916 15.7626 134.616 14.9214 134.055C14.0802 133.494 13.4245 132.695 13.0373 131.762C12.6501 130.828 12.5489 129.801 12.7463 128.809C12.9436 127.818 13.4308 126.908 14.1462 126.193C14.8616 125.479 15.7731 124.992 16.7654 124.795C17.7577 124.598 18.7862 124.699 19.7209 125.085C20.6556 125.472 21.4545 126.127 22.0166 126.967C22.5787 127.808 22.8787 128.796 22.8787 129.806C22.8787 131.162 22.3398 132.461 21.3805 133.42C20.4211 134.378 19.12 134.916 17.7633 134.916ZM17.7633 126.504C17.1093 126.504 16.4702 126.697 15.9264 127.06C15.3827 127.423 14.9589 127.939 14.7086 128.542C14.4584 129.146 14.3929 129.81 14.5205 130.451C14.648 131.091 14.963 131.68 15.4254 132.142C15.8878 132.604 16.4769 132.918 17.1182 133.046C17.7596 133.173 18.4244 133.108 19.0286 132.858C19.6327 132.608 20.1492 132.184 20.5125 131.641C20.8758 131.098 21.0697 130.46 21.0697 129.806C21.0697 128.93 20.7213 128.09 20.1013 127.471C19.4812 126.852 18.6402 126.504 17.7633 126.504Z" fill="#D2D8DD"/>
<path d="M27.7129 72.3836C27.5977 72.3919 27.4821 72.3765 27.3731 72.3383C27.2642 72.3002 27.1642 72.2401 27.0794 72.1619C26.9946 72.0836 26.9268 71.9887 26.8802 71.8832C26.8336 71.7777 26.8091 71.6637 26.8083 71.5484C26.8082 71.3079 26.9018 71.0768 27.0692 70.9039C27.2365 70.731 27.4647 70.63 27.7053 70.6221H37.7917C38.0357 70.6357 38.265 70.7428 38.432 70.9209C38.599 71.0991 38.6909 71.3347 38.6886 71.5787C38.6886 71.695 38.6652 71.8101 38.6198 71.9172C38.5744 72.0242 38.5078 72.121 38.4241 72.2018C38.3404 72.2826 38.2413 72.3457 38.1326 72.3873C38.0239 72.429 37.908 72.4484 37.7917 72.4443H27.7053L27.7129 72.3836Z" fill="#6D757D"/>
<path d="M32.7601 77.7894C32.5101 77.7613 32.2794 77.6418 32.1124 77.454C31.9454 77.2661 31.8539 77.0232 31.8555 76.772V66.6662C31.8545 66.5476 31.8769 66.4299 31.9215 66.3199C31.966 66.2099 32.0317 66.1097 32.115 66.0251C32.1983 65.9405 32.2975 65.8731 32.4068 65.8268C32.5162 65.7805 32.6337 65.7561 32.7525 65.7551C32.8684 65.749 32.9843 65.7663 33.0933 65.8062C33.2024 65.8461 33.3022 65.9076 33.3867 65.9871C33.4713 66.0666 33.5388 66.1624 33.5852 66.2687C33.6316 66.3749 33.6561 66.4895 33.6569 66.6055V76.772C33.6616 77.0217 33.5705 77.2638 33.4023 77.4487C33.2342 77.6336 33.0018 77.7473 32.7525 77.7666L32.7601 77.7894Z" fill="#6D757D"/>
<path d="M189.81 22.3482L183.045 15.5908L189.81 8.83337L196.582 15.5908L189.81 22.3482ZM186.45 15.5908L189.81 18.9543L193.177 15.5908L189.81 12.2273L186.45 15.5908Z" fill="#F0874A"/>
<path d="M292.733 150.094L284.677 142.046L292.733 133.998L300.783 142.046L292.733 150.094ZM288.082 142.046L292.733 146.692L297.385 142.046L292.733 137.399L288.082 142.046Z" fill="#F0874A"/>
<path d="M257.64 170.996H150.961C146.522 170.996 142.479 167.048 142.479 162.72V90.712C142.479 86.2931 146.598 82.1172 150.961 82.1172H201.994C202.312 82.1172 202.618 82.2436 202.843 82.4685C203.068 82.6935 203.195 82.9986 203.195 83.3168C203.195 83.635 203.068 83.9401 202.843 84.1651C202.618 84.3901 202.312 84.5165 201.994 84.5165H150.961C147.921 84.5165 144.881 87.5535 144.881 90.712V162.72C144.881 165.757 147.83 168.589 150.961 168.589H257.64C260.939 168.589 262.117 165.431 262.117 162.72V126.86C262.117 126.542 262.243 126.237 262.469 126.012C262.694 125.787 262.999 125.661 263.318 125.661C263.636 125.661 263.942 125.787 264.167 126.012C264.392 126.237 264.519 126.542 264.519 126.86V162.72C264.519 167.587 261.691 170.996 257.64 170.996Z" fill="#D2D8DD"/>
<path d="M203.727 133.124C202.43 133.124 201.161 132.74 200.083 132.02C199.004 131.3 198.163 130.277 197.667 129.079C197.17 127.882 197.04 126.565 197.294 125.294C197.547 124.023 198.171 122.855 199.089 121.939C200.006 121.022 201.175 120.398 202.447 120.145C203.72 119.893 205.039 120.022 206.237 120.518C207.436 121.014 208.46 121.854 209.181 122.932C209.902 124.009 210.287 125.276 210.287 126.572C210.287 128.31 209.595 129.976 208.365 131.205C207.135 132.434 205.467 133.124 203.727 133.124ZM203.727 122.426C202.904 122.425 202.099 122.667 201.414 123.123C200.729 123.579 200.195 124.227 199.88 124.987C199.564 125.746 199.481 126.582 199.641 127.388C199.801 128.194 200.198 128.935 200.78 129.516C201.361 130.098 202.103 130.493 202.91 130.653C203.717 130.813 204.554 130.73 205.314 130.415C206.074 130.1 206.723 129.566 207.18 128.882C207.636 128.198 207.879 127.394 207.877 126.572C207.875 125.473 207.437 124.42 206.659 123.643C205.882 122.866 204.827 122.428 203.727 122.426Z" fill="#D2D8DD"/>
<path d="M218.23 190.813C218.071 190.813 217.914 190.782 217.768 190.721C217.622 190.66 217.489 190.571 217.378 190.459C217.266 190.347 217.178 190.214 217.118 190.067C217.058 189.921 217.028 189.764 217.029 189.606V175.18C217.029 174.862 217.155 174.556 217.38 174.331C217.606 174.106 217.911 173.98 218.23 173.98C218.548 173.98 218.854 174.106 219.079 174.331C219.304 174.556 219.431 174.862 219.431 175.18V189.606C219.431 189.925 219.304 190.23 219.079 190.457C218.854 190.683 218.549 190.811 218.23 190.813Z" fill="#D2D8DD"/>
<path d="M189.969 190.813C189.65 190.811 189.345 190.683 189.12 190.457C188.895 190.231 188.769 189.925 188.769 189.606V175.18C188.793 174.877 188.93 174.595 189.153 174.389C189.377 174.183 189.669 174.068 189.973 174.068C190.277 174.068 190.57 174.183 190.793 174.389C191.017 174.595 191.154 174.877 191.178 175.18V189.606C191.178 189.926 191.051 190.233 190.824 190.459C190.597 190.686 190.29 190.813 189.969 190.813Z" fill="#D2D8DD"/>
<path d="M176.592 198.588C176.273 198.588 175.968 198.461 175.742 198.236C175.517 198.011 175.391 197.706 175.391 197.388C175.391 192.271 179.145 188.406 184.132 188.406H190.57C190.736 188.393 190.903 188.414 191.061 188.469C191.218 188.523 191.363 188.61 191.485 188.723C191.608 188.836 191.706 188.973 191.773 189.126C191.839 189.278 191.874 189.443 191.874 189.61C191.874 189.776 191.839 189.941 191.773 190.094C191.706 190.246 191.608 190.383 191.485 190.496C191.363 190.609 191.218 190.696 191.061 190.75C190.903 190.805 190.736 190.826 190.57 190.813H184.132C183.278 190.81 182.433 190.98 181.647 191.313C180.861 191.646 180.15 192.134 179.559 192.748C178.967 193.363 178.506 194.091 178.204 194.888C177.902 195.686 177.764 196.536 177.8 197.388C177.798 197.707 177.67 198.012 177.443 198.237C177.217 198.462 176.911 198.588 176.592 198.588Z" fill="#D2D8DD"/>
<path d="M229.296 198.603C228.978 198.603 228.672 198.477 228.447 198.252C228.222 198.027 228.096 197.722 228.096 197.403C228.096 193.827 224.865 190.813 221.049 190.813H207.444C207.141 190.789 206.858 190.652 206.652 190.429C206.446 190.206 206.331 189.913 206.331 189.61C206.331 189.306 206.446 189.013 206.652 188.79C206.858 188.567 207.141 188.43 207.444 188.406H221.049C226.256 188.406 230.497 192.445 230.497 197.403C230.497 197.722 230.371 198.027 230.146 198.252C229.92 198.477 229.615 198.603 229.296 198.603Z" fill="#D2D8DD"/>
<path d="M86.0421 83.4916C82.3557 83.4916 79.3533 80.2192 79.3533 76.1875C79.3533 72.1558 82.3937 68.8834 86.0421 68.8834C89.6906 68.8834 92.7309 72.1634 92.7309 76.1875C92.7309 80.2116 89.7286 83.4916 86.0421 83.4916ZM86.0421 71.2827C83.6782 71.2827 81.7552 73.4845 81.7552 76.1875C81.7552 78.8905 83.6782 81.0923 86.0421 81.0923C88.406 81.0923 90.3291 78.8905 90.3291 76.1875C90.3291 73.4845 88.406 71.2827 86.0421 71.2827Z" fill="#D2D8DD"/>
<path d="M100.34 83.9926C100.207 83.9921 100.076 83.969 99.952 83.9243L90.466 80.705C90.3163 80.6551 90.1779 80.5763 90.0587 80.473C89.9395 80.3697 89.8418 80.244 89.7712 80.103C89.7006 79.962 89.6585 79.8084 89.6473 79.6512C89.6361 79.4939 89.656 79.336 89.706 79.1865C89.7559 79.0369 89.8348 78.8986 89.9382 78.7795C90.0416 78.6604 90.1675 78.5628 90.3087 78.4923C90.4498 78.4218 90.6035 78.3798 90.7609 78.3686C90.9183 78.3574 91.0764 78.3773 91.2261 78.4272L100.712 81.6541C100.984 81.7439 101.215 81.9277 101.363 82.1725C101.511 82.4173 101.567 82.7068 101.52 82.989C101.473 83.2711 101.327 83.5273 101.108 83.7113C100.889 83.8953 100.611 83.9951 100.324 83.9926H100.34Z" fill="#D2D8DD"/>
<path d="M82.9485 72.3531C82.6871 72.353 82.4328 72.2677 82.2243 72.1102C82.0157 71.9526 81.8643 71.7313 81.7932 71.48C81.5272 70.5764 75.5529 49.2792 87.7752 42.218C87.9119 42.1393 88.0628 42.0882 88.2194 42.0677C88.3759 42.0472 88.5349 42.0577 88.6874 42.0986C88.8398 42.1395 88.9827 42.21 89.1079 42.306C89.233 42.4021 89.3381 42.5218 89.4169 42.6584C89.4958 42.795 89.547 42.9458 89.5675 43.1021C89.588 43.2585 89.5775 43.4173 89.5365 43.5696C89.4956 43.7219 89.425 43.8647 89.3289 43.9897C89.2327 44.1148 89.1129 44.2197 88.9761 44.2984C78.388 50.4181 84.0431 70.6144 84.1039 70.8194C84.153 70.9973 84.1604 71.1841 84.1254 71.3653C84.0905 71.5465 84.0141 71.7172 83.9023 71.8642C83.7905 72.0111 83.6464 72.1303 83.4809 72.2125C83.3155 72.2946 83.1333 72.3376 82.9485 72.3379V72.3531Z" fill="#D2D8DD"/>
<path d="M171.993 199.218H150.711L146.758 190.813H174.122C174.44 190.813 174.745 190.939 174.971 191.164C175.196 191.389 175.322 191.694 175.322 192.013C175.322 192.331 175.196 192.636 174.971 192.861C174.745 193.086 174.44 193.212 174.122 193.212H150.559L152.208 196.819H171.97C172.289 196.819 172.594 196.945 172.82 197.17C173.045 197.395 173.171 197.7 173.171 198.018C173.171 198.337 173.045 198.642 172.82 198.867C172.594 199.092 172.289 199.218 171.97 199.218H171.993Z" fill="#6D757D"/>
<path d="M232.253 126.215C231.95 126.191 231.667 126.054 231.461 125.831C231.255 125.608 231.14 125.315 231.14 125.012C231.14 124.708 231.255 124.416 231.461 124.193C231.667 123.97 231.95 123.832 232.253 123.808C243.278 123.808 253.851 119.433 261.647 111.646C269.443 103.859 273.822 93.2972 273.822 82.2843C273.822 71.2715 269.443 60.7097 261.647 52.9224C253.851 45.1352 243.278 40.7604 232.253 40.7604C231.935 40.7604 231.629 40.634 231.404 40.409C231.179 40.184 231.052 39.8789 231.052 39.5607C231.052 39.2426 231.179 38.9374 231.404 38.7125C231.629 38.4875 231.935 38.3611 232.253 38.3611C238.077 38.2846 243.857 39.3643 249.26 41.5376C254.662 43.7108 259.579 46.9342 263.724 51.0208C267.869 55.1074 271.16 59.9757 273.407 65.3432C275.653 70.7107 276.81 76.4704 276.81 82.2881C276.81 88.1058 275.653 93.8655 273.407 99.233C271.16 104.6 267.869 109.469 263.724 113.555C259.579 117.642 254.662 120.865 249.26 123.039C243.857 125.212 238.077 126.292 232.253 126.215Z" fill="#F0874A"/>
<path d="M274.742 84.3798H267.521C267.203 84.3798 266.897 84.2534 266.672 84.0285C266.447 83.8035 266.32 83.4984 266.32 83.1802C266.32 82.8621 266.447 82.5569 266.672 82.332C266.897 82.107 267.203 81.9806 267.521 81.9806H274.742C275.061 81.9806 275.366 82.107 275.591 82.332C275.816 82.5569 275.943 82.8621 275.943 83.1802C275.943 83.4984 275.816 83.8035 275.591 84.0285C275.366 84.2534 275.061 84.3798 274.742 84.3798Z" fill="#F0874A"/>
<path d="M235.058 48.3453C234.739 48.3453 234.434 48.2189 234.209 47.9939C233.983 47.7689 233.857 47.4638 233.857 47.1456V41.1399C233.881 40.8372 234.018 40.5548 234.242 40.3487C234.465 40.1427 234.758 40.0283 235.062 40.0283C235.366 40.0283 235.658 40.1427 235.882 40.3487C236.105 40.5548 236.242 40.8372 236.266 41.1399V47.1456C236.266 47.3038 236.235 47.4604 236.174 47.6065C236.114 47.7525 236.024 47.8851 235.912 47.9966C235.8 48.1081 235.666 48.1963 235.52 48.2561C235.373 48.316 235.216 48.3463 235.058 48.3453Z" fill="#F0874A"/>
<path d="M251.484 54.5181C251.21 54.5219 250.944 54.4366 250.723 54.2751C250.47 54.0811 250.305 53.795 250.262 53.4793C250.219 53.1635 250.303 52.8437 250.495 52.5896L255.337 46.1966C255.433 46.071 255.552 45.9653 255.688 45.8857C255.824 45.8061 255.975 45.754 256.131 45.7325C256.287 45.711 256.446 45.7205 256.599 45.7604C256.752 45.8003 256.895 45.8698 257.021 45.965C257.147 46.0603 257.252 46.1793 257.332 46.3154C257.412 46.4514 257.464 46.6018 257.485 46.758C257.507 46.9141 257.498 47.073 257.458 47.2255C257.418 47.378 257.348 47.5212 257.253 47.6468L252.411 54.0398C252.302 54.184 252.163 54.302 252.002 54.3848C251.841 54.4676 251.664 54.5132 251.484 54.5181Z" fill="#F0874A"/>
<path d="M198.08 60.782C197.865 60.7794 197.656 60.7199 197.472 60.6096C197.288 60.4993 197.137 60.3423 197.035 60.1545C196.932 59.9668 196.881 59.7551 196.887 59.5412C196.893 59.3272 196.955 59.1188 197.069 58.937C201.012 52.6257 206.502 47.4236 213.019 43.8231C219.536 40.2225 226.865 38.3426 234.313 38.3611C234.632 38.3611 234.937 38.4875 235.162 38.7125C235.387 38.9374 235.514 39.2426 235.514 39.5607C235.514 39.8789 235.387 40.184 235.162 40.409C234.937 40.634 234.632 40.7604 234.313 40.7604C227.27 40.7418 220.34 42.5194 214.177 45.9248C208.015 49.3302 202.824 54.2507 199.098 60.2202C198.988 60.3905 198.837 60.5308 198.659 60.6289C198.482 60.7269 198.283 60.7795 198.08 60.782Z" fill="#F0874A"/>
<path d="M217.295 54.5181C217.109 54.5178 216.926 54.4745 216.76 54.3915C216.593 54.3085 216.449 54.1881 216.337 54.0398L211.488 47.6468C211.324 47.3908 211.264 47.0826 211.318 46.7838C211.371 46.485 211.536 46.2175 211.779 46.0345C212.021 45.8516 212.324 45.7667 212.627 45.7967C212.929 45.8267 213.209 45.9695 213.411 46.1966L218.253 52.5896C218.348 52.7155 218.418 52.8592 218.458 53.0122C218.498 53.1652 218.508 53.3247 218.486 53.4813C218.464 53.638 218.411 53.7888 218.331 53.925C218.25 54.0613 218.144 54.1802 218.017 54.2752C217.809 54.4313 217.555 54.5165 217.295 54.5181Z" fill="#F0874A"/>
<path d="M261.798 67.676C261.575 67.6767 261.357 67.6152 261.168 67.4984C260.978 67.3817 260.825 67.2144 260.726 67.0154C260.583 66.7303 260.558 66.4002 260.658 66.0972C260.758 65.7942 260.974 65.5429 261.258 65.3982L267.65 62.2093C267.792 62.139 267.945 62.0972 268.103 62.0863C268.26 62.0753 268.418 62.0954 268.568 62.1455C268.717 62.1956 268.856 62.2746 268.975 62.378C269.094 62.4815 269.191 62.6073 269.262 62.7484C269.332 62.8895 269.374 63.043 269.385 63.2003C269.396 63.3575 269.376 63.5154 269.326 63.6649C269.276 63.8143 269.196 63.9525 269.093 64.0714C268.989 64.1903 268.863 64.2877 268.722 64.358L262.337 67.5469C262.171 67.6334 261.985 67.6777 261.798 67.676Z" fill="#F0874A"/>
<path d="M269.619 105.032C269.346 105.037 269.078 104.952 268.859 104.789L262.467 99.9447C262.341 99.8494 262.235 99.7304 262.155 99.5944C262.076 99.4583 262.023 99.3079 262.002 99.1518C261.98 98.9956 261.99 98.8367 262.03 98.6842C262.07 98.5317 262.139 98.3885 262.235 98.2629C262.33 98.1373 262.449 98.0316 262.585 97.952C262.722 97.8724 262.872 97.8203 263.028 97.7988C263.185 97.7773 263.344 97.7868 263.497 97.8267C263.649 97.8666 263.793 97.9361 263.918 98.0313L270.311 102.868C270.512 103.023 270.66 103.237 270.732 103.481C270.805 103.724 270.799 103.985 270.714 104.224C270.63 104.464 270.472 104.671 270.263 104.816C270.054 104.961 269.805 105.037 269.551 105.032H269.619Z" fill="#F0874A"/>
<path d="M253.239 118.987C253.016 118.987 252.796 118.926 252.606 118.809C252.415 118.692 252.261 118.525 252.16 118.326L248.967 111.941C248.897 111.8 248.855 111.646 248.844 111.489C248.833 111.332 248.853 111.174 248.904 111.024C248.954 110.875 249.033 110.737 249.136 110.618C249.24 110.499 249.366 110.402 249.507 110.331C249.648 110.261 249.802 110.219 249.959 110.208C250.117 110.197 250.275 110.217 250.424 110.267C250.574 110.318 250.712 110.397 250.832 110.5C250.951 110.603 251.048 110.729 251.118 110.87L254.311 117.248C254.454 117.533 254.478 117.863 254.379 118.166C254.279 118.469 254.063 118.721 253.779 118.865C253.61 118.946 253.426 118.988 253.239 118.987Z" fill="#F0874A"/>
<path d="M233.857 125.82C233.537 125.818 233.232 125.69 233.007 125.464C232.782 125.238 232.656 124.932 232.656 124.613V116.778C232.656 116.459 232.782 116.154 233.008 115.929C233.233 115.704 233.538 115.578 233.857 115.578C234.175 115.578 234.481 115.704 234.706 115.929C234.931 116.154 235.058 116.459 235.058 116.778V124.583C235.063 124.743 235.035 124.903 234.977 125.053C234.919 125.203 234.832 125.34 234.72 125.456C234.608 125.571 234.474 125.663 234.325 125.725C234.177 125.788 234.018 125.82 233.857 125.82Z" fill="#F0874A"/>
<path d="M270.782 51.5798C270.624 51.5807 270.467 51.5503 270.321 51.4904C270.175 51.4304 270.042 51.3421 269.931 51.2305L263.538 44.8375C263.426 44.7267 263.338 44.5948 263.277 44.4495C263.216 44.3042 263.185 44.1484 263.185 43.991C263.185 43.8335 263.216 43.6777 263.277 43.5324C263.338 43.3871 263.426 43.2552 263.538 43.1444L269.011 37.6701C269.241 37.4528 269.546 37.3317 269.862 37.3317C270.179 37.3317 270.483 37.4528 270.714 37.6701L277.114 44.0555C277.336 44.2831 277.461 44.5879 277.463 44.9059C277.463 45.2241 277.337 45.5295 277.114 45.7562L271.633 51.2305C271.521 51.3418 271.388 51.4299 271.242 51.4898C271.096 51.5497 270.94 51.5803 270.782 51.5798ZM266.085 43.9872L270.782 48.6718L274.582 44.8755L269.885 40.1832L266.085 43.9872Z" fill="#F0874A"/>
<path d="M263.805 52.1644C263.647 52.1654 263.49 52.135 263.344 52.075C263.198 52.0151 263.065 51.9267 262.953 51.8151C262.841 51.7037 262.752 51.5711 262.691 51.4252C262.631 51.2793 262.599 51.1228 262.599 50.9648C262.599 50.8067 262.631 50.6502 262.691 50.5043C262.752 50.3584 262.841 50.2259 262.953 50.1144L266.146 46.9179C266.371 46.6924 266.678 46.5657 266.997 46.5657C267.316 46.5657 267.622 46.6924 267.848 46.9179C268.074 47.1434 268.201 47.4493 268.201 47.7683C268.201 48.0872 268.074 48.3931 267.848 48.6187L264.656 51.8151C264.544 51.9264 264.411 52.0145 264.265 52.0745C264.119 52.1344 263.962 52.1649 263.805 52.1644Z" fill="#F0874A"/>
<path d="M237.467 36.9414C237.148 36.9393 236.843 36.8113 236.618 36.5851C236.393 36.3589 236.266 36.053 236.266 35.7341V32.1352C236.266 31.8171 236.393 31.5119 236.618 31.287C236.843 31.062 237.149 30.9356 237.467 30.9356H242.279V26.1295H229.654C229.335 26.1295 229.03 26.0031 228.804 25.7781C228.579 25.5531 228.453 25.248 228.453 24.9298C228.453 24.6117 228.579 24.3066 228.804 24.0816C229.03 23.8566 229.335 23.7302 229.654 23.7302H243.48C243.798 23.7302 244.104 23.8566 244.329 24.0816C244.554 24.3066 244.681 24.6117 244.681 24.9298V32.1352C244.681 32.4534 244.554 32.7585 244.329 32.9835C244.104 33.2085 243.798 33.3349 243.48 33.3349H238.668V35.7341C238.668 36.053 238.542 36.3589 238.317 36.5851C238.092 36.8113 237.787 36.9393 237.467 36.9414Z" fill="#F0874A"/>
<path d="M139.173 21.4599H113.33C113.011 21.4599 112.706 21.3335 112.48 21.1086C112.255 20.8836 112.129 20.5785 112.129 20.2603C112.129 19.9422 112.255 19.637 112.48 19.412C112.706 19.1871 113.011 19.0607 113.33 19.0607H139.173C139.491 19.0607 139.797 19.1871 140.022 19.412C140.247 19.637 140.374 19.9422 140.374 20.2603C140.374 20.5785 140.247 20.8836 140.022 21.1086C139.797 21.3335 139.491 21.4599 139.173 21.4599Z" fill="#6D757D"/>
<path opacity="0.14" d="M274.56 81.9729C274.56 104.933 259.738 122.214 231.47 124.211C252.517 110.066 246.817 88.8063 220.974 86.5285C202.8 84.9265 190.137 79.3155 198.171 61.4729C205.012 46.2877 215.06 39.6821 231.235 39.834C260.27 40.0921 274.56 59.0129 274.56 81.9729Z" fill="#F0874A"/>
</svg>
