<svg width="20" height="20" viewBox="0 0 24 24" fill="none" xmlns="http://www.w3.org/2000/svg">
<path d="M24 12C24 18.6274 18.6274 24 12 24C5.37258 24 0 18.6274 0 12C0 5.37258 5.37258 0 12 0C18.6274 0 24 5.37258 24 12Z" fill="#B00020"/>
<path d="M7.41 15L12 11.2915L16.59 15L18 13.8583L12 9L6 13.8583L7.41 15Z" fill="white"/>
<path d="M7.41 10.5L12 6.7915L16.59 10.5L18 9.3583L12 4.5L6 9.3583L7.41 10.5Z" fill="white"/>
<path d="M7.41 19.5L12 15.7915L16.59 19.5L18 18.3583L12 13.5L6 18.3583L7.41 19.5Z" fill="white"/>
</svg>