<svg width="19" height="21" viewBox="0 0 19 21" fill="none" xmlns="http://www.w3.org/2000/svg">
<path d="M16.7139 12.5716V8.9856C16.7139 5.7686 14.5289 3.0586 11.5689 2.2436C11.2759 1.5056 10.5599 0.985596 9.71387 0.985596C8.86787 0.985596 8.15187 1.5056 7.85887 2.2436C4.89887 3.0596 2.71387 5.7686 2.71387 8.9856V12.5716L1.00687 14.2786C0.913826 14.3713 0.840038 14.4815 0.789753 14.6028C0.739467 14.7242 0.713678 14.8543 0.713868 14.9856V16.9856C0.713868 17.2508 0.819225 17.5052 1.00676 17.6927C1.1943 17.8802 1.44865 17.9856 1.71387 17.9856H17.7139C17.9791 17.9856 18.2334 17.8802 18.421 17.6927C18.6085 17.5052 18.7139 17.2508 18.7139 16.9856V14.9856C18.7141 14.8543 18.6883 14.7242 18.638 14.6028C18.5877 14.4815 18.5139 14.3713 18.4209 14.2786L16.7139 12.5716ZM16.7139 15.9856H2.71387V15.3996L4.42087 13.6926C4.51391 13.5999 4.5877 13.4897 4.63798 13.3684C4.68827 13.247 4.71406 13.1169 4.71387 12.9856V8.9856C4.71387 6.2286 6.95687 3.9856 9.71387 3.9856C12.4709 3.9856 14.7139 6.2286 14.7139 8.9856V12.9856C14.7139 13.2516 14.8189 13.5056 15.0069 13.6926L16.7139 15.3996V15.9856ZM9.71387 20.9856C10.3332 20.9864 10.9373 20.7942 11.4424 20.4358C11.9474 20.0773 12.3282 19.5704 12.5319 18.9856H6.89587C7.09953 19.5704 7.48035 20.0773 7.98538 20.4358C8.49041 20.7942 9.09457 20.9864 9.71387 20.9856Z" fill="#3C4C5B"/>
</svg>
