<svg width="22" height="12" viewBox="0 0 22 12" fill="none" xmlns="http://www.w3.org/2000/svg">
<path d="M11.6485 3.80803C10.162 3.80803 8.86843 4.6442 8.21697 5.87179C7.56529 4.6442 6.27241 3.80803 4.78489 3.80803C3.94401 3.80714 3.12566 4.07983 2.45339 4.58494V1.31224C2.44964 1.10879 2.3661 0.914958 2.22077 0.772531C2.07544 0.630104 1.87996 0.550487 1.67648 0.550843C1.25214 0.550843 0.910619 0.889353 0.900909 1.31224V7.75675H0.901691C0.935955 9.87274 2.66031 11.5773 4.78489 11.5773C6.27241 11.5773 7.56529 10.7404 8.21697 9.51402C8.86843 10.7404 10.162 11.5773 11.6485 11.5773C13.7932 11.5773 15.5329 9.83825 15.5329 7.6919C15.5329 5.54667 13.7932 3.80803 11.6485 3.80803ZM4.78489 10.0221C3.49793 10.0221 2.45339 8.97953 2.45339 7.69246C2.45339 6.40584 3.49793 5.36319 4.78489 5.36319C6.07174 5.36319 7.11405 6.40584 7.11405 7.6919C7.11405 8.9792 6.07174 10.0221 4.78489 10.0221ZM11.6485 10.0221C10.3612 10.0221 9.31743 8.9792 9.31743 7.6919C9.31743 6.40584 10.3612 5.36319 11.6485 5.36319C12.9352 5.36319 13.9784 6.40584 13.9784 7.6919C13.9784 8.9792 12.9352 10.0221 11.6485 10.0221Z" fill="#00AEEF"/>
<path d="M21.5607 10.2767L19.4493 7.68684L21.5633 5.09195C21.8306 4.74964 21.7539 4.27162 21.3849 4.01772C21.0155 3.76157 20.4972 3.8272 20.2114 4.15935V4.1589L18.3926 6.38794L16.5755 4.1589V4.15935C16.2926 3.8272 15.771 3.76157 15.4027 4.01772C15.0344 4.27185 14.9574 4.74964 15.226 5.09195H15.2253L17.3356 7.68684L15.2253 10.2767H15.226C14.9574 10.6201 15.0344 11.0966 15.4027 11.3516C15.771 11.6066 16.2926 11.5417 16.5755 11.2091L18.3926 8.98318L20.2088 11.2091C20.495 11.5417 21.0131 11.6066 21.3825 11.3516C21.7516 11.0966 21.8286 10.6201 21.5607 10.2767Z" fill="#00AEEF"/>
</svg>
