<svg width="21" height="20" viewBox="0 0 21 20" fill="none" xmlns="http://www.w3.org/2000/svg">
<path d="M10.5109 6C11.5717 6 12.5892 6.42143 13.3393 7.17157C14.0895 7.92172 14.5109 8.93913 14.5109 10C14.5109 11.0609 14.0895 12.0783 13.3393 12.8284C12.5892 13.5786 11.5717 14 10.5109 14C9.45001 14 8.4326 13.5786 7.68245 12.8284C6.93231 12.0783 6.51088 11.0609 6.51088 10C6.51088 8.93913 6.93231 7.92172 7.68245 7.17157C8.4326 6.42143 9.45001 6 10.5109 6ZM10.5109 8C9.98045 8 9.47174 8.21071 9.09667 8.58579C8.72159 8.96086 8.51088 9.46957 8.51088 10C8.51088 10.5304 8.72159 11.0391 9.09667 11.4142C9.47174 11.7893 9.98045 12 10.5109 12C11.0413 12 11.55 11.7893 11.9251 11.4142C12.3002 11.0391 12.5109 10.5304 12.5109 10C12.5109 9.46957 12.3002 8.96086 11.9251 8.58579C11.55 8.21071 11.0413 8 10.5109 8ZM8.51088 20C8.26088 20 8.05088 19.82 8.01088 19.58L7.64088 16.93C7.01088 16.68 6.47088 16.34 5.95088 15.94L3.46088 16.95C3.24088 17.03 2.97088 16.95 2.85088 16.73L0.850879 13.27C0.789674 13.167 0.768098 13.0452 0.790183 12.9274C0.812269 12.8096 0.876505 12.7039 0.970879 12.63L3.08088 10.97L3.01088 10L3.08088 9L0.970879 7.37C0.876505 7.29613 0.812269 7.19042 0.790183 7.07263C0.768098 6.95484 0.789674 6.83304 0.850879 6.73L2.85088 3.27C2.97088 3.05 3.24088 2.96 3.46088 3.05L5.95088 4.05C6.47088 3.66 7.01088 3.32 7.64088 3.07L8.01088 0.42C8.05088 0.18 8.26088 0 8.51088 0H12.5109C12.7609 0 12.9709 0.18 13.0109 0.42L13.3809 3.07C14.0109 3.32 14.5509 3.66 15.0709 4.05L17.5609 3.05C17.7809 2.96 18.0509 3.05 18.1709 3.27L20.1709 6.73C20.3009 6.95 20.2409 7.22 20.0509 7.37L17.9409 9L18.0109 10L17.9409 11L20.0509 12.63C20.2409 12.78 20.3009 13.05 20.1709 13.27L18.1709 16.73C18.0509 16.95 17.7809 17.04 17.5609 16.95L15.0709 15.95C14.5509 16.34 14.0109 16.68 13.3809 16.93L13.0109 19.58C12.9709 19.82 12.7609 20 12.5109 20H8.51088ZM9.76088 2L9.39088 4.61C8.19088 4.86 7.13088 5.5 6.36088 6.39L3.95088 5.35L3.20088 6.65L5.31088 8.2C4.91088 9.36667 4.91088 10.6333 5.31088 11.8L3.19088 13.36L3.94088 14.66L6.37088 13.62C7.14088 14.5 8.19088 15.14 9.38088 15.38L9.75088 18H11.2709L11.6409 15.39C12.8309 15.14 13.8809 14.5 14.6509 13.62L17.0809 14.66L17.8309 13.36L15.7109 11.81C16.1109 10.64 16.1109 9.37 15.7109 8.2L17.8209 6.65L17.0709 5.35L14.6609 6.39C13.8751 5.48032 12.8092 4.85767 11.6309 4.62L11.2609 2H9.76088Z" fill="#3C4C5B"/>
</svg>
