<svg width="21" height="21" viewBox="0 0 21 21" fill="none" xmlns="http://www.w3.org/2000/svg">
<path d="M2.01703 0.436768C1.4866 0.436768 0.977888 0.647481 0.602815 1.02255C0.227742 1.39763 0.0170288 1.90633 0.0170288 2.43677V14.4368C0.0170288 14.9672 0.227742 15.4759 0.602815 15.851C0.977888 16.2261 1.4866 16.4368 2.01703 16.4368H6.01703V19.4368C6.01703 19.702 6.12239 19.9563 6.30992 20.1439C6.49746 20.3314 6.75181 20.4368 7.01703 20.4368H7.51703C7.76703 20.4368 8.01703 20.3368 8.21703 20.1468L11.917 16.4368H18.017C18.5475 16.4368 19.0562 16.2261 19.4312 15.851C19.8063 15.4759 20.017 14.9672 20.017 14.4368V2.43677C20.017 1.90633 19.8063 1.39763 19.4312 1.02255C19.0562 0.647481 18.5475 0.436768 18.017 0.436768H2.01703ZM2.01703 2.43677H18.017V14.4368H11.097L8.01703 17.5168V14.4368H2.01703V2.43677ZM10.207 3.93677C9.31703 3.93677 8.60703 4.11677 8.06703 4.47677C7.51703 4.83677 7.23703 5.43677 7.28703 6.12677H9.25703C9.25703 5.84677 9.35703 5.63677 9.51703 5.49677C9.71703 5.35677 9.93703 5.28677 10.207 5.28677C10.517 5.28677 10.787 5.36677 10.967 5.54677C11.147 5.71677 11.237 5.93677 11.237 6.23677C11.237 6.51677 11.157 6.76677 11.017 6.97677C10.847 7.19677 10.637 7.37677 10.377 7.51677C9.85703 7.83677 9.51703 8.11677 9.30703 8.35677C9.11703 8.59677 9.01703 8.93677 9.01703 9.43677H11.017C11.017 9.15677 11.067 8.93677 11.157 8.75677C11.247 8.58677 11.417 8.43677 11.677 8.28677C12.137 8.07677 12.517 7.79677 12.807 7.43677C13.097 7.06677 13.247 6.67677 13.247 6.23677C13.247 5.53677 12.977 4.97677 12.437 4.55677C11.897 4.14677 11.147 3.93677 10.207 3.93677ZM9.01703 10.4368V12.4368H11.017V10.4368H9.01703Z" fill="white"/>
</svg>
