<svg width="18" height="21" viewBox="0 0 18 21" fill="none" xmlns="http://www.w3.org/2000/svg">
<path d="M16 0H2C1.46957 0 0.960859 0.210714 0.585786 0.585786C0.210714 0.960859 0 1.46957 0 2V16C0 16.5304 0.210714 17.0391 0.585786 17.4142C0.960859 17.7893 1.46957 18 2 18H6L9 21L12 18H16C17.1 18 18 17.1 18 16V2C18 0.9 17.1 0 16 0ZM16 16H11.17L10.58 16.59L9 18.17L7.41 16.58L6.83 16H2V2H16V16ZM8 13H10V15H8V13ZM9 5C10.1 5 11 5.9 11 7C11 9 8 8.75 8 12H10C10 9.75 13 9.5 13 7C13 4.79 11.21 3 9 3C6.79 3 5 4.79 5 7H7C7 5.9 7.9 5 9 5Z" fill="#3C4C5B"/>
</svg>
