<svg width="11" height="13" viewBox="0 0 11 13" fill="none" xmlns="http://www.w3.org/2000/svg">
<path d="M5.33333 0.5C2.38667 0.5 0 1.69333 0 3.16667V9.83333C0 11.3067 2.39333 12.5 5.33333 12.5C8.27333 12.5 10.6667 11.3067 10.6667 9.83333V3.16667C10.6667 1.69333 8.28 0.5 5.33333 0.5ZM9.33333 9.83333C9.33333 10.1667 7.91333 11.1667 5.33333 11.1667C2.75333 11.1667 1.33333 10.1667 1.33333 9.83333V8.34667C2.40667 8.86667 3.81333 9.16667 5.33333 9.16667C6.85333 9.16667 8.26 8.86667 9.33333 8.34667V9.83333ZM9.33333 6.8C8.46667 7.43333 6.94667 7.83333 5.33333 7.83333C3.72 7.83333 2.2 7.43333 1.33333 6.8V4.92667C2.31333 5.48 3.74 5.83333 5.33333 5.83333C6.92667 5.83333 8.35333 5.48 9.33333 4.92667V6.8V6.8ZM5.33333 4.5C2.75333 4.5 1.33333 3.5 1.33333 3.16667C1.33333 2.83333 2.75333 1.83333 5.33333 1.83333C7.91333 1.83333 9.33333 2.83333 9.33333 3.16667C9.33333 3.5 7.91333 4.5 5.33333 4.5Z" fill="#3C4C5B"/>
</svg>