<svg width="13" height="13" viewBox="0 0 13 13" fill="none" xmlns="http://www.w3.org/2000/svg">
<path fill-rule="evenodd" clip-rule="evenodd" d="M11.7 0C12.415 0 13 0.587448 13 1.30544V5.84184H11.7V2.61088L6.55201 5.84184H6.44799L1.3 2.61088V9.13808H5.2V10.4435H1.3C0.585 10.4435 0 9.85607 0 9.13808V1.30544C0 0.587448 0.585 0 1.3 0H11.7ZM6.5 4.56904L11.7 1.30544H1.3L6.5 4.56904Z" fill="#3C4C5B"/>
<path d="M9.07292 7.69666H9.60104V9.55283L11.1854 10.4968L10.9214 10.9317L9.07292 9.818V7.69666Z" fill="#3C4C5B"/>
<path fill-rule="evenodd" clip-rule="evenodd" d="M5.90417 9.46444C5.90417 7.51281 7.47798 5.92887 9.42148 5.92887C11.3685 5.92887 12.9458 7.51281 12.9458 9.46444C12.9458 11.4161 11.3685 13 9.42148 13C7.47798 13 5.90417 11.4161 5.90417 9.46444ZM6.60833 9.46444C6.60833 11.0272 7.86879 12.2929 9.425 12.2929C10.9812 12.2929 12.2417 11.0272 12.2417 9.46444C12.2417 7.90172 10.9812 6.63599 9.425 6.63599C7.86879 6.63599 6.60833 7.90172 6.60833 9.46444Z" fill="#3C4C5B"/>
</svg>
