<svg width="21" height="20" viewBox="0 0 21 20" fill="none" xmlns="http://www.w3.org/2000/svg">
<path d="M11.8704 11H9.87036V5H11.8704V11ZM11.8704 15H9.87036V13H11.8704V15ZM10.8704 0C9.55714 0 8.25678 0.258658 7.04353 0.761205C5.83027 1.26375 4.72788 2.00035 3.79929 2.92893C1.92393 4.8043 0.870361 7.34784 0.870361 10C0.870361 12.6522 1.92393 15.1957 3.79929 17.0711C4.72788 17.9997 5.83027 18.7362 7.04353 19.2388C8.25678 19.7413 9.55714 20 10.8704 20C13.5225 20 16.0661 18.9464 17.9414 17.0711C19.8168 15.1957 20.8704 12.6522 20.8704 10C20.8704 8.68678 20.6117 7.38642 20.1092 6.17317C19.6066 4.95991 18.87 3.85752 17.9414 2.92893C17.0128 2.00035 15.9105 1.26375 14.6972 0.761205C13.4839 0.258658 12.1836 0 10.8704 0Z" fill="#B00020"/>
</svg>
