<svg width="21" height="24" viewBox="0 0 21 24" fill="none" xmlns="http://www.w3.org/2000/svg">
<path d="M13.6309 7H19.1309L13.6309 1.5V7ZM6.63086 0H14.6309L20.6309 6V18C20.6309 18.5304 20.4201 19.0391 20.0451 19.4142C19.67 19.7893 19.1613 20 18.6309 20H6.63086C6.10043 20 5.59172 19.7893 5.21665 19.4142C4.84157 19.0391 4.63086 18.5304 4.63086 18V2C4.63086 1.46957 4.84157 0.960859 5.21665 0.585786C5.59172 0.210714 6.10043 0 6.63086 0V0ZM2.63086 4V22H18.6309V24H2.63086C2.10043 24 1.59172 23.7893 1.21665 23.4142C0.841573 23.0391 0.630859 22.5304 0.630859 22V4H2.63086Z" fill="#3C4C5B"/>
</svg>
