<svg width="58" height="59" viewBox="0 0 58 59" fill="none" xmlns="http://www.w3.org/2000/svg">
<path d="M51.4583 38.8535H38.625C38.625 44.3077 34.4542 48.4785 29 48.4785C23.5458 48.4785 19.375 44.3077 19.375 38.8535H6.54167V6.77018H51.4583V38.8535ZM51.4583 0.353516H6.54167C3.0125 0.353516 0.125 3.24102 0.125 6.77018V51.6868C0.125 55.216 3.0125 58.1035 6.54167 58.1035H51.4583C54.9875 58.1035 57.875 55.216 57.875 51.6868V6.77018C57.875 3.24102 54.9875 0.353516 51.4583 0.353516ZM35.7375 11.5827L40.2292 16.0743L33.4917 22.8118L40.2292 29.5493L35.7375 34.041L29 27.3035L22.2625 34.041L17.7708 29.5493L24.5083 22.8118L17.7708 16.0743L22.2625 11.5827L29 18.3202L35.7375 11.5827Z" fill="#D2D8DD"/>
</svg>
