<svg width="14" height="14" viewBox="0 0 14 14" fill="none" xmlns="http://www.w3.org/2000/svg">
<path d="M7.66668 5H6.33334V3.66666H7.66668V5ZM7.66668 10.3333H6.33334V6.33333H7.66668V10.3333ZM7.00001 0.333328C6.12453 0.333328 5.25762 0.505767 4.44879 0.840798C3.63995 1.17583 2.90502 1.66689 2.28596 2.28595C1.03572 3.53619 0.333344 5.23188 0.333344 7C0.333344 8.76811 1.03572 10.4638 2.28596 11.714C2.90502 12.3331 3.63995 12.8242 4.44879 13.1592C5.25762 13.4942 6.12453 13.6667 7.00001 13.6667C8.76812 13.6667 10.4638 12.9643 11.7141 11.714C12.9643 10.4638 13.6667 8.76811 13.6667 7C13.6667 6.12452 13.4942 5.25761 13.1592 4.44877C12.8242 3.63993 12.3331 2.90501 11.7141 2.28595C11.095 1.66689 10.3601 1.17583 9.55123 0.840798C8.7424 0.505767 7.87549 0.333328 7.00001 0.333328Z" fill="#0E71E3"/>
</svg>
