<svg width="20" height="19" viewBox="0 0 20 19" fill="none" xmlns="http://www.w3.org/2000/svg">
<path d="M8.56653 16.0537C10.3415 16.0533 12.0653 15.4591 13.4635 14.3657L17.8595 18.7617L19.2735 17.3477L14.8775 12.9517C15.9715 11.5534 16.5661 9.82915 16.5665 8.05371C16.5665 3.64271 12.9775 0.0537109 8.56653 0.0537109C4.15553 0.0537109 0.566528 3.64271 0.566528 8.05371C0.566528 12.4647 4.15553 16.0537 8.56653 16.0537ZM8.56653 2.05371C11.8755 2.05371 14.5665 4.74471 14.5665 8.05371C14.5665 11.3627 11.8755 14.0537 8.56653 14.0537C5.25753 14.0537 2.56653 11.3627 2.56653 8.05371C2.56653 4.74471 5.25753 2.05371 8.56653 2.05371Z" fill="#3C4C5B"/>
</svg>
