<svg width="24" height="25" viewBox="0 0 24 25" fill="none" xmlns="http://www.w3.org/2000/svg">
<path d="M18.21 11.1749C18.7367 11.2082 19.2333 11.3382 19.7 11.5649C20.16 11.7782 20.56 12.0749 20.9 12.4549C21.24 12.8216 21.51 13.2416 21.71 13.7149C21.9033 14.1882 22 14.6916 22 15.2249C22 15.7849 21.8933 16.3116 21.68 16.8049C21.4667 17.2982 21.1733 17.7282 20.8 18.0949C20.4333 18.4615 20 18.7516 19.5 18.9649C19.02 19.1849 18.5 19.2949 17.94 19.2949H7C6.31333 19.2949 5.66667 19.1582 5.06 18.8849C4.45333 18.6249 3.92333 18.2716 3.47 17.8249C3.01667 17.3716 2.66 16.8416 2.4 16.2349C2.13333 15.6282 2 14.9816 2 14.2949C2 13.7482 2.08667 13.2216 2.26 12.7149C2.42 12.2149 2.66667 11.7549 3 11.3349C3.29333 10.9149 3.65333 10.5482 4.08 10.2349C4.50667 9.92155 4.98 9.68155 5.5 9.51488C5.74667 9.42822 5.98333 9.38488 6.21 9.38488C6.44333 9.33822 6.68333 9.30822 6.93 9.29488H6.94C7.22667 8.85488 7.56333 8.46155 7.95 8.11488C8.31667 7.76822 8.73333 7.47155 9.2 7.22488C9.64667 6.99822 10.12 6.81155 10.62 6.66488C11.12 6.53822 11.6333 6.47488 12.16 6.47488C12.8667 6.47488 13.5467 6.59155 14.2 6.82488C14.8533 7.05822 15.4533 7.38155 16 7.79488C16.5333 8.20822 16.99 8.70155 17.37 9.27488C17.7567 9.85488 18.0367 10.4882 18.21 11.1749ZM12.16 7.72488C11.42 7.72488 10.72 7.87822 10.06 8.18488C9.39333 8.48488 8.82667 8.91822 8.36 9.48488C8.60667 9.55155 8.84333 9.63488 9.07 9.73488C9.29 9.83488 9.51 9.95155 9.73 10.0849L13.71 12.4649L16 11.5049C16.14 11.4449 16.2867 11.3882 16.44 11.3349C16.5933 11.2882 16.7533 11.2482 16.92 11.2149C16.76 10.6949 16.5233 10.2216 16.21 9.79488C15.8967 9.36822 15.53 9.00155 15.11 8.69488C14.7033 8.38822 14.2433 8.15155 13.73 7.98488C13.2433 7.81155 12.72 7.72488 12.16 7.72488ZM4 16.5449L12.27 13.0649L9.08 11.1449C8.75333 10.9516 8.41333 10.8016 8.06 10.6949C7.68667 10.5949 7.31667 10.5449 6.95 10.5449C6.44333 10.5449 5.96 10.6449 5.5 10.8449C5.06 11.0449 4.67333 11.3149 4.34 11.6549C4.00667 12.0016 3.74 12.4016 3.54 12.8549C3.34667 13.3082 3.25 13.7882 3.25 14.2949C3.25 14.6882 3.31667 15.0816 3.45 15.4749C3.57667 15.8749 3.76 16.2316 4 16.5449ZM17.94 18.0449C18.2533 18.0449 18.5533 17.9916 18.84 17.8849C19.1267 17.7916 19.3933 17.6516 19.64 17.4649L13.61 13.8849L5.03 17.4749C5.32333 17.6549 5.63667 17.7916 5.97 17.8849C6.30333 17.9916 6.64667 18.0449 7 18.0449H17.94ZM20.45 16.4949C20.65 16.0882 20.75 15.6649 20.75 15.2249C20.75 14.7982 20.6667 14.4082 20.5 14.0549C20.34 13.7082 20.1233 13.4116 19.85 13.1649C19.57 12.9182 19.2467 12.7282 18.88 12.5949C18.5067 12.4549 18.1133 12.3849 17.7 12.3849C17.4667 12.3849 17.2333 12.4182 17 12.4849C16.7733 12.5382 16.55 12.6082 16.33 12.6949C16.11 12.7749 15.89 12.8649 15.67 12.9649C15.4567 13.0649 15.2467 13.1616 15.04 13.2549L20.45 16.4949Z" fill="#0880D7"/>
</svg>
