<svg width="24" height="25" viewBox="0 0 24 25" fill="none" xmlns="http://www.w3.org/2000/svg">
<path d="M22 13.7241C22 14.4175 21.8667 15.0675 21.6 15.6741C21.34 16.2741 20.9833 16.8008 20.53 17.2541C20.0767 17.7075 19.5467 18.0675 18.94 18.3341C18.3333 18.5941 17.6867 18.7241 17 18.7241C16.5733 18.7241 16.15 18.6708 15.73 18.5641C15.67 19.1175 15.5167 19.6308 15.27 20.1041C15.0167 20.5841 14.6933 21.0008 14.3 21.3541C13.9133 21.7075 13.47 21.9808 12.97 22.1741C12.4633 22.3741 11.9333 22.4741 11.38 22.4741C10.7733 22.4741 10.2033 22.3575 9.67 22.1241C9.14333 21.8975 8.68 21.5875 8.28 21.1941C7.88667 20.8008 7.57667 20.3375 7.35 19.8041C7.11667 19.2708 7 18.7041 7 18.1041V17.7841C7.02 17.6841 7.03667 17.5808 7.05 17.4741H2.83C2.61 17.4741 2.41333 17.3941 2.24 17.2341C2.08 17.0608 2 16.8641 2 16.6441V8.30412C2 8.08412 2.08 7.88745 2.24 7.71412C2.41333 7.55412 2.61 7.47412 2.83 7.47412H5.78C5.86 6.76745 6.06333 6.10079 6.39 5.47412C6.71 4.88079 7.12333 4.36079 7.63 3.91412C8.13 3.46079 8.7 3.10745 9.34 2.85412C9.98 2.60079 10.66 2.47412 11.38 2.47412C12.1533 2.47412 12.88 2.62079 13.56 2.91412C14.2467 3.21412 14.8433 3.61745 15.35 4.12412C15.8567 4.63079 16.26 5.22745 16.56 5.91412C16.8533 6.59412 17 7.32412 17 8.10412V8.41412C17 8.51412 16.9867 8.61745 16.96 8.72412C17.6533 8.72412 18.3033 8.85412 18.91 9.11412C19.5233 9.37412 20.0533 9.73079 20.5 10.1841C20.9733 10.6308 21.34 11.1575 21.6 11.7641C21.8667 12.3775 22 13.0308 22 13.7241ZM11.37 3.72412C10.83 3.72412 10.3167 3.82079 9.83 4.01412C9.33667 4.20079 8.89333 4.46079 8.5 4.79412C8.12667 5.12745 7.81 5.52079 7.55 5.97412C7.29667 6.44079 7.13 6.94079 7.05 7.47412H11.17C11.39 7.47412 11.5867 7.55745 11.76 7.72412C11.92 7.89079 12 8.08412 12 8.30412V12.4241L12.18 12.3941C12.2933 11.9808 12.46 11.5875 12.68 11.2141C12.8933 10.8341 13.1567 10.4941 13.47 10.1941C13.77 9.89412 14.1133 9.63079 14.5 9.40412C14.86 9.18412 15.25 9.01745 15.67 8.90412C15.7233 8.61745 15.75 8.35079 15.75 8.10412C15.75 7.49745 15.6333 6.92745 15.4 6.39412C15.1733 5.86745 14.86 5.40745 14.46 5.01412C14.0667 4.62079 13.6067 4.30745 13.08 4.07412C12.5467 3.84079 11.9767 3.72412 11.37 3.72412ZM7.1 15.7241C7.4 15.7241 7.7 15.6941 8 15.6341C8.28 15.5741 8.53333 15.4708 8.76 15.3241C8.98667 15.1841 9.17 14.9975 9.31 14.7641C9.43667 14.5241 9.5 14.2308 9.5 13.8841C9.5 13.5308 9.43333 13.2375 9.3 13.0041C9.15333 12.7708 8.97 12.5741 8.75 12.4141C8.53 12.2608 8.29333 12.1341 8.04 12.0341L7.32 11.7441C7.10667 11.6575 6.92333 11.5675 6.77 11.4741C6.62333 11.3741 6.55 11.2475 6.55 11.0941C6.55 10.9875 6.59 10.8975 6.67 10.8241C6.75 10.7575 6.84333 10.7075 6.95 10.6741C7.05667 10.6275 7.16667 10.5975 7.28 10.5841C7.4 10.5775 7.5 10.5741 7.58 10.5741C7.90667 10.5741 8.2 10.6141 8.46 10.6941C8.71333 10.7808 8.97667 10.9075 9.25 11.0741V9.59412C9.08333 9.54745 8.93667 9.50745 8.81 9.47412C8.67667 9.44079 8.54667 9.41412 8.42 9.39412C8.28667 9.37412 8.14667 9.35745 8 9.34412C7.86667 9.33745 7.71667 9.33412 7.55 9.33412C7.26333 9.33412 6.97 9.36412 6.67 9.42412C6.37 9.49079 6.09667 9.59746 5.85 9.74412C5.61667 9.89745 5.42 10.0841 5.26 10.3041C5.10667 10.5375 5.03 10.8241 5.03 11.1641C5.03 11.4975 5.10333 11.7675 5.25 11.9741C5.39667 12.2075 5.58 12.4041 5.8 12.5641C6.02 12.7175 6.25333 12.8541 6.5 12.9741L7.22 13.2641C7.44667 13.3575 7.63333 13.4541 7.78 13.5541C7.92667 13.6608 8 13.7875 8 13.9341C8 14.0608 7.96333 14.1608 7.89 14.2341C7.82333 14.3075 7.73667 14.3608 7.63 14.3941C7.54333 14.4475 7.43667 14.4741 7.31 14.4741H7C6.60667 14.4741 6.26 14.4141 5.96 14.2941C5.65333 14.1608 5.34667 13.9875 5.04 13.7741V15.3341C5.7 15.5941 6.38667 15.7241 7.1 15.7241ZM11.37 21.2241C11.79 21.2241 12.1933 21.1408 12.58 20.9741C12.96 20.8141 13.2933 20.5941 13.58 20.3141C13.86 20.0275 14.0833 19.6941 14.25 19.3141C14.4167 18.9341 14.5 18.5308 14.5 18.1041C14.5 17.7308 14.4367 17.3741 14.31 17.0341C14.19 16.6941 14.02 16.3908 13.8 16.1241C13.5733 15.8508 13.3067 15.6208 13 15.4341C12.7 15.2475 12.3667 15.1141 12 15.0341V16.6441C12 16.8641 11.92 17.0608 11.76 17.2341C11.5867 17.3941 11.39 17.4741 11.17 17.4741H8.31C8.27 17.6808 8.25 17.8908 8.25 18.1041C8.25 18.5308 8.33333 18.9341 8.5 19.3141C8.66 19.6941 8.88 20.0275 9.16 20.3141C9.44667 20.5941 9.78 20.8141 10.16 20.9741C10.54 21.1408 10.9433 21.2241 11.37 21.2241ZM17 17.4741C17.5133 17.4741 17.9967 17.3775 18.45 17.1841C18.91 16.9908 19.31 16.7208 19.65 16.3741C19.99 16.0341 20.26 15.6375 20.46 15.1841C20.6533 14.7308 20.75 14.2441 20.75 13.7241C20.75 13.2241 20.6533 12.7408 20.46 12.2741C20.26 11.8141 19.99 11.4141 19.65 11.0741C19.31 10.7341 18.91 10.4641 18.45 10.2641C17.9967 10.0708 17.5133 9.97412 17 9.97412C16.4867 9.97412 16.0033 10.0741 15.55 10.2741C15.0967 10.4741 14.7 10.7441 14.36 11.0841C14.02 11.4241 13.75 11.8208 13.55 12.2741C13.35 12.7408 13.25 13.2241 13.25 13.7241V13.9341L13.27 14.1541C13.5767 14.3008 13.86 14.4808 14.12 14.6941C14.3733 14.9075 14.6067 15.1441 14.82 15.4041C15.02 15.6708 15.1933 15.9575 15.34 16.2641C15.48 16.5708 15.5867 16.8875 15.66 17.2141C16.1 17.3875 16.5467 17.4741 17 17.4741Z" fill="#0880D7"/>
</svg>
