<svg width="24" height="25" viewBox="0 0 24 25" fill="none" xmlns="http://www.w3.org/2000/svg">
<path d="M21 16.4998H3V4.49976H21V16.4998ZM21 2.49976H3C1.89 2.49976 1 3.38976 1 4.49976V16.4998C1 17.0302 1.21071 17.5389 1.58579 17.914C1.96086 18.289 2.46957 18.4998 3 18.4998H10V20.4998H8V22.4998H16V20.4998H14V18.4998H21C21.5304 18.4998 22.0391 18.289 22.4142 17.914C22.7893 17.5389 23 17.0302 23 16.4998V4.49976C23 3.96932 22.7893 3.46061 22.4142 3.08554C22.0391 2.71047 21.5304 2.49976 21 2.49976Z" fill="#6D757D"/>
</svg>
