<svg width="36" height="37" viewBox="0 0 36 37" fill="none" xmlns="http://www.w3.org/2000/svg">
<path d="M0 36.9297V0.929688H36V36.9297H0ZM28.55 32.9297H32V29.4797L28.55 32.9297ZM5.7 32.9297H9.35L15.35 26.9297H19.6L13.6 32.9297H16.8L22.8 26.9297H27.05L21.05 32.9297H24.3L30.3 26.9297H32V4.92969H4V30.3797L7.45 26.9297H11.7L5.7 32.9297ZM9.3 22.9297L6.5 20.1297L15.35 11.2797L19.35 15.2797L26.7 7.92969L29.5 10.7297L19.35 20.9297L15.35 16.9297L9.3 22.9297ZM4 32.9297V4.92969V32.9297Z" fill="#D2D8DD"/>
</svg>
