<svg viewBox="0 0 24 24" fill="none" xmlns="http://www.w3.org/2000/svg">
    <path d="M9.56195 3C8.30037 2.99962 7.05908 3.31749 5.95295 3.92418C4.84682 4.53087 3.91161 5.40679 3.23387 6.47086C2.55612 7.53494 2.15775 8.75278 2.07561 10.0117C1.99347 11.2706 2.23022 12.5299 2.76395 13.673L2.03995 16.515C1.98674 16.7238 1.98838 16.9427 2.04472 17.1507C2.10107 17.3586 2.21019 17.5484 2.36152 17.7018C2.51284 17.8551 2.70123 17.9668 2.90841 18.0258C3.11558 18.0849 3.33451 18.0895 3.54395 18.039C4.29395 17.859 5.44695 17.582 6.47395 17.337C7.49367 17.7968 8.60333 18.0227 9.72167 17.9982C10.84 17.9736 11.9387 17.6992 12.9372 17.1951C13.9358 16.691 14.8089 15.9698 15.4927 15.0845C16.1765 14.1993 16.6535 13.1722 16.889 12.0787C17.1245 10.9852 17.1123 9.8528 16.8535 8.76455C16.5947 7.67631 16.0957 6.65974 15.3931 5.78932C14.6905 4.91889 13.8021 4.21664 12.793 3.73401C11.7839 3.25138 10.6796 3.00058 9.56095 3H9.56195ZM3.56195 10.5C3.56235 9.1953 3.98801 7.92628 4.77444 6.88523C5.56086 5.84419 6.66519 5.08785 7.9201 4.73083C9.175 4.37381 10.5121 4.43556 11.7287 4.90672C12.9454 5.37789 13.9753 6.23279 14.6624 7.34189C15.3496 8.45099 15.6564 9.75384 15.5366 11.053C15.4167 12.3522 14.8766 13.5769 13.9982 14.5416C13.1198 15.5062 11.9508 16.1583 10.6685 16.3989C9.38616 16.6395 8.06035 16.4556 6.89195 15.875L6.64795 15.754L6.38395 15.817C5.46095 16.037 4.39395 16.292 3.59595 16.484L4.28595 13.776L4.35595 13.5L4.22595 13.247C3.78799 12.3977 3.56028 11.4556 3.56195 10.5ZM14.562 21C12.6701 21.0027 10.8476 20.288 9.46195 19H9.56195C10.28 19 10.977 18.911 11.642 18.743C12.507 19.225 13.502 19.5 14.562 19.5C15.522 19.5 16.428 19.275 17.232 18.875L17.475 18.754L17.739 18.817C18.661 19.037 19.705 19.262 20.479 19.427C20.304 18.676 20.065 17.671 19.837 16.776L19.767 16.5L19.897 16.247C20.3353 15.3977 20.5633 14.4557 20.562 13.5C20.5625 12.4969 20.3113 11.5096 19.8313 10.6287C19.3514 9.74786 18.6581 9.00149 17.815 8.458C17.6386 7.74372 17.3697 7.05555 17.015 6.411C18.0077 6.75475 18.9172 7.30315 19.6845 8.02069C20.4519 8.73823 21.06 9.60892 21.4695 10.5764C21.879 11.5439 22.0807 12.5865 22.0617 13.6369C22.0426 14.6873 21.8032 15.722 21.359 16.674C21.612 17.682 21.868 18.774 22.03 19.477C22.0774 19.6807 22.0728 19.893 22.0165 20.0944C21.9602 20.2958 21.8541 20.4798 21.7078 20.6293C21.5616 20.7788 21.38 20.8891 21.1799 20.9498C20.9798 21.0106 20.7676 21.02 20.563 20.977C19.5896 20.7746 18.6185 20.5612 17.65 20.337C16.6796 20.7754 15.6268 21.0014 14.562 21Z" fill="#3C4C5B"/>
    </svg>
    