<svg width="10" height="10" viewBox="0 0 10 10" fill="none" xmlns="http://www.w3.org/2000/svg">
<circle cx="5" cy="5" r="5" transform="rotate(-180 5 5)" fill="#6D757D"/>
<path d="M7.66669 2.33328L7.66669 4.66661L5.33335 4.66661L6.40569 3.59328C6.22253 3.40599 6.0039 3.25706 5.76255 3.15518C5.52121 3.05331 5.26198 3.00054 5.00002 2.99995C4.58694 3.00056 4.18417 3.12906 3.84707 3.3678C3.50996 3.60655 3.25505 3.94382 3.11735 4.33328L3.11135 4.33328C3.07335 4.44161 3.04435 4.55328 3.02502 4.66661L2.35435 4.66661C2.43554 4.02221 2.74912 3.42958 3.23624 2.99997C3.72336 2.57036 4.35052 2.3333 5.00002 2.33328L5.00335 2.33328C5.35342 2.33223 5.70021 2.40063 6.02366 2.53452C6.3471 2.66841 6.64078 2.86512 6.88769 3.11328L7.66669 2.33328ZM6.97535 5.33328L7.64602 5.33328C7.56486 5.97746 7.25147 6.5699 6.76464 6.99948C6.2778 7.42906 5.65096 7.66627 5.00169 7.66661L5.00002 7.66661C4.6499 7.66772 4.30304 7.59935 3.97953 7.46546C3.65602 7.33157 3.36229 7.13482 3.11535 6.88661L2.33335 7.66661L2.33335 5.33328L4.66669 5.33328L3.59269 6.40661C3.77603 6.59412 3.99493 6.74318 4.23658 6.84506C4.47823 6.94694 4.73777 6.99959 5.00002 6.99995C5.41311 6.99934 5.81587 6.87083 6.15297 6.63209C6.49008 6.39334 6.74499 6.05607 6.88269 5.66661L6.88869 5.66661C6.92702 5.55828 6.95602 5.44661 6.97502 5.33328L6.97535 5.33328Z" fill="white"/>
</svg>
