<svg width="15" height="12" viewBox="0 0 15 12" fill="none" xmlns="http://www.w3.org/2000/svg">
<path d="M10.7283 8.25337V3.7467L12.9816 6.00003L10.7283 8.25337ZM13.9216 6.47337C13.9834 6.41169 14.0325 6.33843 14.0659 6.25778C14.0994 6.17713 14.1166 6.09068 14.1166 6.00337C14.1166 5.91605 14.0994 5.8296 14.0659 5.74895C14.0325 5.6683 13.9834 5.59504 13.9216 5.53337L10.8616 2.47337C10.4483 2.05337 9.7283 2.3467 9.7283 2.94003V9.05337C9.7283 9.6467 10.4483 9.9467 10.8683 9.5267L13.9216 6.47337ZM4.39496 9.06003V2.94003C4.39496 2.3467 3.67496 2.0467 3.25496 2.4667L0.194963 5.5267C0.13316 5.58837 0.0841286 5.66163 0.0506743 5.74228C0.01722 5.82293 0 5.90939 0 5.9967C0 6.08401 0.01722 6.17047 0.0506743 6.25111C0.0841286 6.33176 0.13316 6.40502 0.194963 6.4667L3.25496 9.5267C3.67496 9.9467 4.39496 9.65337 4.39496 9.06003Z" fill="#D2D8DD"/>
<line x1="7.39505" y1="1" x2="7.39505" y2="11" stroke="#D2D8DD" stroke-width="2" stroke-linecap="round"/>
</svg>
