<svg width="20" height="17" viewBox="0 0 20 17" fill="none" xmlns="http://www.w3.org/2000/svg">
<path d="M19 3.4856H14V5.4856H18V14.4856H2V5.4856H7V8.4856L12 4.4856L7 0.485596V3.4856H1C0.734784 3.4856 0.48043 3.59095 0.292893 3.77849C0.105357 3.96603 0 4.22038 0 4.4856V15.4856C0 15.7508 0.105357 16.0052 0.292893 16.1927C0.48043 16.3802 0.734784 16.4856 1 16.4856H19C19.2652 16.4856 19.5196 16.3802 19.7071 16.1927C19.8946 16.0052 20 15.7508 20 15.4856V4.4856C20 4.22038 19.8946 3.96603 19.7071 3.77849C19.5196 3.59095 19.2652 3.4856 19 3.4856Z" fill="#3C4C5B"/>
</svg>
