<svg width="20" height="21" viewBox="0 0 20 21" fill="none" xmlns="http://www.w3.org/2000/svg">
<path d="M10.017 6.80347C11.0779 6.80347 12.0953 7.22489 12.8455 7.97504C13.5956 8.72518 14.017 9.7426 14.017 10.8035C14.017 11.8643 13.5956 12.8817 12.8455 13.6319C12.0953 14.382 11.0779 14.8035 10.017 14.8035C8.95618 14.8035 7.93876 14.382 7.18862 13.6319C6.43847 12.8817 6.01704 11.8643 6.01704 10.8035C6.01704 9.7426 6.43847 8.72518 7.18862 7.97504C7.93876 7.22489 8.95618 6.80347 10.017 6.80347ZM10.017 8.80347C9.48661 8.80347 8.9779 9.01418 8.60283 9.38925C8.22776 9.76433 8.01704 10.273 8.01704 10.8035C8.01704 11.3339 8.22776 11.8426 8.60283 12.2177C8.9779 12.5928 9.48661 12.8035 10.017 12.8035C10.5475 12.8035 11.0562 12.5928 11.4313 12.2177C11.8063 11.8426 12.017 11.3339 12.017 10.8035C12.017 10.273 11.8063 9.76433 11.4313 9.38925C11.0562 9.01418 10.5475 8.80347 10.017 8.80347ZM8.01704 20.8035C7.76704 20.8035 7.55704 20.6235 7.51704 20.3835L7.14704 17.7335C6.51704 17.4835 5.97704 17.1435 5.45704 16.7435L2.96704 17.7535C2.74704 17.8335 2.47704 17.7535 2.35704 17.5335L0.357043 14.0735C0.295839 13.9704 0.274262 13.8486 0.296348 13.7308C0.318434 13.613 0.38267 13.5073 0.477044 13.4335L2.58704 11.7735L2.51704 10.8035L2.58704 9.80347L0.477044 8.17347C0.38267 8.0996 0.318434 7.99389 0.296348 7.8761C0.274262 7.75831 0.295839 7.6365 0.357043 7.53347L2.35704 4.07347C2.47704 3.85347 2.74704 3.76347 2.96704 3.85347L5.45704 4.85347C5.97704 4.46347 6.51704 4.12347 7.14704 3.87347L7.51704 1.22347C7.55704 0.983467 7.76704 0.803467 8.01704 0.803467H12.017C12.267 0.803467 12.477 0.983467 12.517 1.22347L12.887 3.87347C13.517 4.12347 14.057 4.46347 14.577 4.85347L17.067 3.85347C17.287 3.76347 17.557 3.85347 17.677 4.07347L19.677 7.53347C19.807 7.75347 19.747 8.02347 19.557 8.17347L17.447 9.80347L17.517 10.8035L17.447 11.8035L19.557 13.4335C19.747 13.5835 19.807 13.8535 19.677 14.0735L17.677 17.5335C17.557 17.7535 17.287 17.8435 17.067 17.7535L14.577 16.7535C14.057 17.1435 13.517 17.4835 12.887 17.7335L12.517 20.3835C12.477 20.6235 12.267 20.8035 12.017 20.8035H8.01704ZM9.26704 2.80347L8.89704 5.41347C7.69704 5.66347 6.63704 6.30347 5.86704 7.19347L3.45704 6.15347L2.70704 7.45347L4.81704 9.00347C4.41704 10.1701 4.41704 11.4368 4.81704 12.6035L2.69704 14.1635L3.44704 15.4635L5.87704 14.4235C6.64704 15.3035 7.69704 15.9435 8.88704 16.1835L9.25704 18.8035H10.777L11.147 16.1935C12.337 15.9435 13.387 15.3035 14.157 14.4235L16.587 15.4635L17.337 14.1635L15.217 12.6135C15.617 11.4435 15.617 10.1735 15.217 9.00347L17.327 7.45347L16.577 6.15347L14.167 7.19347C13.3813 6.28379 12.3154 5.66114 11.137 5.42347L10.767 2.80347H9.26704Z" fill="white"/>
</svg>
