<svg width="16" height="15" viewBox="0 0 16 15" fill="none" xmlns="http://www.w3.org/2000/svg">
<path d="M9.99999 4.33333C9.99999 3.38666 9.66666 2.51333 9.11332 1.82666C9.39332 1.73333 9.68666 1.66666 9.99999 1.66666C11.4733 1.66666 12.6667 2.86 12.6667 4.33333C12.6667 5.80666 11.4733 7 9.99999 7H9.87999L9.36666 6.48666C9.76666 5.86 9.99999 5.12 9.99999 4.33333ZM4.82666 1.94C5.32576 1.6943 5.88926 1.61102 6.4381 1.70184C6.98694 1.79265 7.49359 2.053 7.88695 2.44637C8.28032 2.83973 8.54067 3.34638 8.63148 3.89522C8.7223 4.44406 8.63902 5.00756 8.39332 5.50666L4.82666 1.94ZM14.1267 13.1267C14.2513 13.2513 14.3213 13.4204 14.3213 13.5967C14.3213 13.7729 14.2513 13.942 14.1267 14.0667C14.002 14.1913 13.8329 14.2613 13.6567 14.2613C13.4804 14.2613 13.3113 14.1913 13.1867 14.0667L11.1933 12.0733C11.1312 12.154 11.0515 12.2194 10.9602 12.2645C10.8689 12.3095 10.7685 12.3331 10.6667 12.3333H1.33332C0.966656 12.3333 0.666656 12.0333 0.666656 11.6667V10.3333C0.666656 8.56 4.21999 7.66666 5.99999 7.66666C6.24666 7.66666 6.53332 7.68666 6.83332 7.72L6.11332 7H5.99999C4.52666 7 3.33332 5.80666 3.33332 4.33333V4.22L0.926656 1.81333C0.802005 1.68868 0.731976 1.51961 0.731976 1.34333C0.731976 1.16705 0.802005 0.997982 0.926656 0.87333C1.05131 0.748679 1.22037 0.67865 1.39666 0.67865C1.57294 0.67865 1.742 0.748679 1.86666 0.87333L14.1267 13.1267ZM12.5933 9.71333C12.4 8.9 11.84 8.25333 11.1067 7.75333C12.9467 8.02 15.3333 8.88 15.3333 10.3333V11.6667C15.3333 11.88 15.2333 12.0667 15.08 12.1933L12.5933 9.71333Z" fill="#3C4C5B"/>
</svg>
