<svg width="25" height="15" viewBox="0 0 25 15" fill="none" xmlns="http://www.w3.org/2000/svg">
<path d="M12.7266 0.536377C11.7983 0.536377 10.9081 0.905126 10.2517 1.5615C9.59531 2.21788 9.22656 3.10812 9.22656 4.03638C9.22656 4.96463 9.59531 5.85487 10.2517 6.51125C10.9081 7.16763 11.7983 7.53638 12.7266 7.53638C13.6548 7.53638 14.5451 7.16763 15.2014 6.51125C15.8578 5.85487 16.2266 4.96463 16.2266 4.03638C16.2266 3.10812 15.8578 2.21788 15.2014 1.5615C14.5451 0.905126 13.6548 0.536377 12.7266 0.536377ZM12.7266 2.53638C13.1244 2.53638 13.5059 2.69441 13.7872 2.97572C14.0685 3.25702 14.2266 3.63855 14.2266 4.03638C14.2266 4.4342 14.0685 4.81573 13.7872 5.09704C13.5059 5.37834 13.1244 5.53638 12.7266 5.53638C12.3287 5.53638 11.9472 5.37834 11.6659 5.09704C11.3846 4.81573 11.2266 4.4342 11.2266 4.03638C11.2266 3.63855 11.3846 3.25702 11.6659 2.97572C11.9472 2.69441 12.3287 2.53638 12.7266 2.53638ZM6.22656 3.53638C5.56352 3.53638 4.92764 3.79977 4.4588 4.26861C3.98995 4.73745 3.72656 5.37334 3.72656 6.03638C3.72656 6.97638 4.25656 7.78638 5.01656 8.21638C5.37656 8.41638 5.78656 8.53638 6.22656 8.53638C6.66656 8.53638 7.07656 8.41638 7.43656 8.21638C7.80656 8.00638 8.11656 7.70638 8.34656 7.34638C7.61805 6.39695 7.22424 5.2331 7.22656 4.03638V3.75638C6.92656 3.61638 6.58656 3.53638 6.22656 3.53638ZM19.2266 3.53638C18.8666 3.53638 18.5266 3.61638 18.2266 3.75638V4.03638C18.2266 5.23638 17.8366 6.39638 17.1066 7.34638C17.2266 7.53638 17.3566 7.68638 17.5066 7.83638C17.9677 8.28348 18.5843 8.53439 19.2266 8.53638C19.6666 8.53638 20.0766 8.41638 20.4366 8.21638C21.1966 7.78638 21.7266 6.97638 21.7266 6.03638C21.7266 5.37334 21.4632 4.73745 20.9943 4.26861C20.5255 3.79977 19.8896 3.53638 19.2266 3.53638ZM12.7266 9.53638C10.3866 9.53638 5.72656 10.7064 5.72656 13.0364V14.5364H19.7266V13.0364C19.7266 10.7064 15.0666 9.53638 12.7266 9.53638ZM5.43656 10.0864C3.50656 10.3164 0.726562 11.2964 0.726562 13.0364V14.5364H3.72656V12.6064C3.72656 11.5964 4.41656 10.7564 5.43656 10.0864ZM20.0166 10.0864C21.0366 10.7564 21.7266 11.5964 21.7266 12.6064V14.5364H24.7266V13.0364C24.7266 11.2964 21.9466 10.3164 20.0166 10.0864ZM12.7266 11.5364C14.2566 11.5364 15.9666 12.0364 16.9566 12.5364H8.49656C9.48656 12.0364 11.1966 11.5364 12.7266 11.5364Z" fill="white"/>
</svg>
