<svg viewBox="0 0 206 275" fill="none" xmlns="http://www.w3.org/2000/svg">
<rect x="0.96875" y="0.5" width="204.503" height="273.685" fill="#D2D8DD" stroke="white"/>
<rect x="23.9688" y="20.5" width="158" height="71" stroke="white"/>
<rect x="23.4688" y="247" width="97" height="6" fill="white"/>
<path d="M73.956 131V119.364H77.8878C78.8007 119.364 79.5469 119.528 80.1264 119.858C80.7098 120.184 81.1416 120.625 81.4219 121.182C81.7022 121.739 81.8423 122.36 81.8423 123.045C81.8423 123.731 81.7022 124.354 81.4219 124.915C81.1454 125.475 80.7173 125.922 80.1378 126.256C79.5582 126.585 78.8158 126.75 77.9105 126.75H75.0923V125.5H77.8651C78.4901 125.5 78.992 125.392 79.3707 125.176C79.7495 124.96 80.0241 124.669 80.1946 124.301C80.3688 123.93 80.456 123.511 80.456 123.045C80.456 122.58 80.3688 122.163 80.1946 121.795C80.0241 121.428 79.7476 121.14 79.3651 120.932C78.9825 120.72 78.4749 120.614 77.8423 120.614H75.3651V131H73.956ZM83.9304 131V122.273H85.2259V123.591H85.3168C85.4759 123.159 85.7637 122.809 86.1804 122.54C86.5971 122.271 87.0668 122.136 87.5895 122.136C87.688 122.136 87.8111 122.138 87.9588 122.142C88.1065 122.146 88.2183 122.152 88.294 122.159V123.523C88.2486 123.511 88.1444 123.494 87.9815 123.472C87.8224 123.445 87.6539 123.432 87.4759 123.432C87.0516 123.432 86.6728 123.521 86.3395 123.699C86.0099 123.873 85.7486 124.116 85.5554 124.426C85.366 124.733 85.2713 125.083 85.2713 125.477V131H83.9304ZM93.277 131.182C92.4361 131.182 91.7107 130.996 91.1009 130.625C90.4948 130.25 90.027 129.727 89.6974 129.057C89.3717 128.383 89.2088 127.598 89.2088 126.705C89.2088 125.811 89.3717 125.023 89.6974 124.341C90.027 123.655 90.4853 123.121 91.0724 122.739C91.6634 122.352 92.3527 122.159 93.1406 122.159C93.5952 122.159 94.044 122.235 94.4872 122.386C94.9304 122.538 95.3338 122.784 95.6974 123.125C96.0611 123.462 96.3509 123.909 96.5668 124.466C96.7827 125.023 96.8906 125.708 96.8906 126.523V127.091H90.1634V125.932H95.527C95.527 125.439 95.4285 125 95.2315 124.614C95.0384 124.227 94.7618 123.922 94.402 123.699C94.0459 123.475 93.6255 123.364 93.1406 123.364C92.6065 123.364 92.1444 123.496 91.7543 123.761C91.3679 124.023 91.0705 124.364 90.8622 124.784C90.6539 125.205 90.5497 125.655 90.5497 126.136V126.909C90.5497 127.568 90.6634 128.127 90.8906 128.585C91.1217 129.04 91.4418 129.386 91.8509 129.625C92.2599 129.86 92.7353 129.977 93.277 129.977C93.6293 129.977 93.9474 129.928 94.2315 129.83C94.5194 129.727 94.7675 129.576 94.9759 129.375C95.1842 129.17 95.3452 128.917 95.4588 128.614L96.7543 128.977C96.6179 129.417 96.3887 129.803 96.0668 130.136C95.7448 130.466 95.3471 130.723 94.8736 130.909C94.4001 131.091 93.8679 131.182 93.277 131.182ZM105.801 122.273L102.574 131H101.21L97.983 122.273H99.4375L101.847 129.227H101.938L104.347 122.273H105.801ZM107.571 131V122.273H108.912V131H107.571ZM108.253 120.818C107.991 120.818 107.766 120.729 107.577 120.551C107.391 120.373 107.298 120.159 107.298 119.909C107.298 119.659 107.391 119.445 107.577 119.267C107.766 119.089 107.991 119 108.253 119C108.514 119 108.738 119.089 108.923 119.267C109.113 119.445 109.207 119.659 109.207 119.909C109.207 120.159 109.113 120.373 108.923 120.551C108.738 120.729 108.514 120.818 108.253 120.818ZM115.027 131.182C114.186 131.182 113.461 130.996 112.851 130.625C112.245 130.25 111.777 129.727 111.447 129.057C111.122 128.383 110.959 127.598 110.959 126.705C110.959 125.811 111.122 125.023 111.447 124.341C111.777 123.655 112.235 123.121 112.822 122.739C113.413 122.352 114.103 122.159 114.891 122.159C115.345 122.159 115.794 122.235 116.237 122.386C116.68 122.538 117.084 122.784 117.447 123.125C117.811 123.462 118.101 123.909 118.317 124.466C118.533 125.023 118.641 125.708 118.641 126.523V127.091H111.913V125.932H117.277C117.277 125.439 117.179 125 116.982 124.614C116.788 124.227 116.512 123.922 116.152 123.699C115.796 123.475 115.375 123.364 114.891 123.364C114.357 123.364 113.894 123.496 113.504 123.761C113.118 124.023 112.821 124.364 112.612 124.784C112.404 125.205 112.3 125.655 112.3 126.136V126.909C112.3 127.568 112.413 128.127 112.641 128.585C112.872 129.04 113.192 129.386 113.601 129.625C114.01 129.86 114.485 129.977 115.027 129.977C115.379 129.977 115.697 129.928 115.982 129.83C116.269 129.727 116.518 129.576 116.726 129.375C116.934 129.17 117.095 128.917 117.209 128.614L118.504 128.977C118.368 129.417 118.139 129.803 117.817 130.136C117.495 130.466 117.097 130.723 116.624 130.909C116.15 131.091 115.618 131.182 115.027 131.182ZM122.658 131L119.999 122.273H121.408L123.294 128.955H123.385L125.249 122.273H126.68L128.521 128.932H128.612L130.499 122.273H131.908L129.249 131H127.93L126.021 124.295H125.885L123.976 131H122.658ZM58.804 139.614V138.364H67.5312V139.614H63.8722V150H62.4631V139.614H58.804ZM71.9176 150.182C71.0767 150.182 70.3513 149.996 69.7415 149.625C69.1354 149.25 68.6676 148.727 68.3381 148.057C68.0123 147.383 67.8494 146.598 67.8494 145.705C67.8494 144.811 68.0123 144.023 68.3381 143.341C68.6676 142.655 69.1259 142.121 69.7131 141.739C70.304 141.352 70.9934 141.159 71.7812 141.159C72.2358 141.159 72.6847 141.235 73.1278 141.386C73.571 141.538 73.9744 141.784 74.3381 142.125C74.7017 142.462 74.9915 142.909 75.2074 143.466C75.4233 144.023 75.5312 144.708 75.5312 145.523V146.091H68.804V144.932H74.1676C74.1676 144.439 74.0691 144 73.8722 143.614C73.679 143.227 73.4025 142.922 73.0426 142.699C72.6866 142.475 72.2661 142.364 71.7812 142.364C71.2472 142.364 70.785 142.496 70.3949 142.761C70.0085 143.023 69.7112 143.364 69.5028 143.784C69.2945 144.205 69.1903 144.655 69.1903 145.136V145.909C69.1903 146.568 69.304 147.127 69.5312 147.585C69.7623 148.04 70.0824 148.386 70.4915 148.625C70.9006 148.86 71.3759 148.977 71.9176 148.977C72.2699 148.977 72.5881 148.928 72.8722 148.83C73.16 148.727 73.4081 148.576 73.6165 148.375C73.8248 148.17 73.9858 147.917 74.0994 147.614L75.3949 147.977C75.2585 148.417 75.0294 148.803 74.7074 149.136C74.3854 149.466 73.9877 149.723 73.5142 149.909C73.0407 150.091 72.5085 150.182 71.9176 150.182ZM77.571 150V141.273H78.8665V142.636H78.9801C79.1619 142.17 79.4555 141.809 79.8608 141.551C80.2661 141.29 80.7528 141.159 81.321 141.159C81.8968 141.159 82.3759 141.29 82.7585 141.551C83.1449 141.809 83.446 142.17 83.6619 142.636H83.7528C83.9763 142.186 84.3116 141.828 84.7585 141.562C85.2055 141.294 85.7415 141.159 86.3665 141.159C87.1468 141.159 87.785 141.403 88.2812 141.892C88.7775 142.377 89.0256 143.133 89.0256 144.159V150H87.6847V144.159C87.6847 143.515 87.5085 143.055 87.1562 142.778C86.804 142.502 86.3892 142.364 85.9119 142.364C85.2983 142.364 84.8229 142.549 84.4858 142.92C84.1487 143.288 83.9801 143.754 83.9801 144.318V150H82.6165V144.023C82.6165 143.527 82.4555 143.127 82.1335 142.824C81.8116 142.517 81.3968 142.364 80.8892 142.364C80.5407 142.364 80.215 142.456 79.9119 142.642C79.6127 142.828 79.3703 143.085 79.1847 143.415C79.0028 143.741 78.9119 144.117 78.9119 144.545V150H77.571ZM91.4773 153.273V141.273H92.7727V142.659H92.9318C93.0303 142.508 93.1667 142.314 93.3409 142.08C93.5189 141.841 93.7727 141.629 94.1023 141.443C94.4356 141.254 94.8864 141.159 95.4545 141.159C96.1894 141.159 96.8371 141.343 97.3977 141.71C97.9583 142.078 98.3958 142.598 98.7102 143.273C99.0246 143.947 99.1818 144.742 99.1818 145.659C99.1818 146.583 99.0246 147.384 98.7102 148.062C98.3958 148.737 97.9602 149.259 97.4034 149.631C96.8466 149.998 96.2045 150.182 95.4773 150.182C94.9167 150.182 94.4678 150.089 94.1307 149.903C93.7936 149.714 93.5341 149.5 93.3523 149.261C93.1705 149.019 93.0303 148.818 92.9318 148.659H92.8182V153.273H91.4773ZM92.7955 145.636C92.7955 146.295 92.892 146.877 93.0852 147.381C93.2784 147.881 93.5606 148.273 93.9318 148.557C94.303 148.837 94.7576 148.977 95.2955 148.977C95.8561 148.977 96.3239 148.83 96.6989 148.534C97.0777 148.235 97.3617 147.833 97.5511 147.33C97.7443 146.822 97.8409 146.258 97.8409 145.636C97.8409 145.023 97.7462 144.47 97.5568 143.977C97.3712 143.481 97.089 143.089 96.7102 142.801C96.3352 142.509 95.8636 142.364 95.2955 142.364C94.75 142.364 94.2917 142.502 93.9205 142.778C93.5492 143.051 93.2689 143.434 93.0795 143.926C92.8902 144.415 92.7955 144.985 92.7955 145.636ZM104.773 150.182C103.985 150.182 103.294 149.994 102.699 149.619C102.108 149.244 101.646 148.72 101.312 148.045C100.983 147.371 100.818 146.583 100.818 145.682C100.818 144.773 100.983 143.979 101.312 143.301C101.646 142.623 102.108 142.097 102.699 141.722C103.294 141.347 103.985 141.159 104.773 141.159C105.561 141.159 106.25 141.347 106.841 141.722C107.436 142.097 107.898 142.623 108.227 143.301C108.561 143.979 108.727 144.773 108.727 145.682C108.727 146.583 108.561 147.371 108.227 148.045C107.898 148.72 107.436 149.244 106.841 149.619C106.25 149.994 105.561 150.182 104.773 150.182ZM104.773 148.977C105.371 148.977 105.864 148.824 106.25 148.517C106.636 148.21 106.922 147.807 107.108 147.307C107.294 146.807 107.386 146.265 107.386 145.682C107.386 145.098 107.294 144.555 107.108 144.051C106.922 143.547 106.636 143.14 106.25 142.83C105.864 142.519 105.371 142.364 104.773 142.364C104.174 142.364 103.682 142.519 103.295 142.83C102.909 143.14 102.623 143.547 102.438 144.051C102.252 144.555 102.159 145.098 102.159 145.682C102.159 146.265 102.252 146.807 102.438 147.307C102.623 147.807 102.909 148.21 103.295 148.517C103.682 148.824 104.174 148.977 104.773 148.977ZM110.774 150V141.273H112.07V142.591H112.161C112.32 142.159 112.607 141.809 113.024 141.54C113.441 141.271 113.911 141.136 114.433 141.136C114.532 141.136 114.655 141.138 114.803 141.142C114.95 141.146 115.062 141.152 115.138 141.159V142.523C115.092 142.511 114.988 142.494 114.825 142.472C114.666 142.445 114.498 142.432 114.32 142.432C113.895 142.432 113.517 142.521 113.183 142.699C112.854 142.873 112.592 143.116 112.399 143.426C112.21 143.733 112.115 144.083 112.115 144.477V150H110.774ZM119.295 150.205C118.742 150.205 118.241 150.1 117.79 149.892C117.339 149.68 116.981 149.375 116.716 148.977C116.451 148.576 116.318 148.091 116.318 147.523C116.318 147.023 116.417 146.617 116.614 146.307C116.811 145.992 117.074 145.746 117.403 145.568C117.733 145.39 118.097 145.258 118.494 145.17C118.896 145.08 119.299 145.008 119.705 144.955C120.235 144.886 120.665 144.835 120.994 144.801C121.328 144.763 121.57 144.701 121.722 144.614C121.877 144.527 121.955 144.375 121.955 144.159V144.114C121.955 143.553 121.801 143.117 121.494 142.807C121.191 142.496 120.731 142.341 120.114 142.341C119.473 142.341 118.972 142.481 118.608 142.761C118.244 143.042 117.989 143.341 117.841 143.659L116.568 143.205C116.795 142.674 117.098 142.261 117.477 141.966C117.86 141.667 118.277 141.458 118.727 141.341C119.182 141.22 119.629 141.159 120.068 141.159C120.348 141.159 120.67 141.193 121.034 141.261C121.402 141.326 121.756 141.46 122.097 141.665C122.441 141.869 122.727 142.178 122.955 142.591C123.182 143.004 123.295 143.557 123.295 144.25V150H121.955V148.818H121.886C121.795 149.008 121.644 149.21 121.432 149.426C121.22 149.642 120.938 149.826 120.585 149.977C120.233 150.129 119.803 150.205 119.295 150.205ZM119.5 149C120.03 149 120.477 148.896 120.841 148.688C121.208 148.479 121.485 148.21 121.67 147.881C121.86 147.551 121.955 147.205 121.955 146.841V145.614C121.898 145.682 121.773 145.744 121.58 145.801C121.39 145.854 121.17 145.902 120.92 145.943C120.674 145.981 120.434 146.015 120.199 146.045C119.968 146.072 119.78 146.095 119.636 146.114C119.288 146.159 118.962 146.233 118.659 146.335C118.36 146.434 118.117 146.583 117.932 146.784C117.75 146.981 117.659 147.25 117.659 147.591C117.659 148.057 117.831 148.409 118.176 148.648C118.525 148.883 118.966 149 119.5 149ZM125.743 150V141.273H127.038V142.591H127.129C127.288 142.159 127.576 141.809 127.993 141.54C128.41 141.271 128.879 141.136 129.402 141.136C129.5 141.136 129.624 141.138 129.771 141.142C129.919 141.146 130.031 141.152 130.107 141.159V142.523C130.061 142.511 129.957 142.494 129.794 142.472C129.635 142.445 129.466 142.432 129.288 142.432C128.864 142.432 128.485 142.521 128.152 142.699C127.822 142.873 127.561 143.116 127.368 143.426C127.179 143.733 127.084 144.083 127.084 144.477V150H125.743ZM131.696 150V141.273H133.037V150H131.696ZM132.378 139.818C132.116 139.818 131.891 139.729 131.702 139.551C131.516 139.373 131.423 139.159 131.423 138.909C131.423 138.659 131.516 138.445 131.702 138.267C131.891 138.089 132.116 138 132.378 138C132.639 138 132.863 138.089 133.048 138.267C133.238 138.445 133.332 138.659 133.332 138.909C133.332 139.159 133.238 139.373 133.048 139.551C132.863 139.729 132.639 139.818 132.378 139.818ZM136.834 138.364V150H135.493V138.364H136.834ZM140.153 153.273C139.926 153.273 139.723 153.254 139.545 153.216C139.367 153.182 139.244 153.148 139.176 153.114L139.517 151.932C139.843 152.015 140.131 152.045 140.381 152.023C140.631 152 140.852 151.888 141.045 151.688C141.242 151.491 141.422 151.17 141.585 150.727L141.835 150.045L138.608 141.273H140.062L142.472 148.227H142.562L144.972 141.273H146.426L142.722 151.273C142.555 151.723 142.348 152.097 142.102 152.392C141.856 152.691 141.57 152.913 141.244 153.057C140.922 153.201 140.559 153.273 140.153 153.273ZM67.9283 157.364H69.3374V165.068C69.3374 165.864 69.1499 166.574 68.7749 167.199C68.4036 167.82 67.879 168.311 67.201 168.67C66.523 169.027 65.7275 169.205 64.8146 169.205C63.9018 169.205 63.1063 169.027 62.4283 168.67C61.7502 168.311 61.2237 167.82 60.8487 167.199C60.4775 166.574 60.2919 165.864 60.2919 165.068V157.364H61.701V164.955C61.701 165.523 61.826 166.028 62.076 166.472C62.326 166.911 62.6821 167.258 63.1442 167.511C63.6101 167.761 64.1669 167.886 64.8146 167.886C65.4624 167.886 66.0192 167.761 66.4851 167.511C66.951 167.258 67.3071 166.911 67.5533 166.472C67.8033 166.028 67.9283 165.523 67.9283 164.955V157.364ZM73.3104 163.75V169H71.9695V160.273H73.2649V161.636H73.3786C73.5831 161.193 73.8937 160.837 74.3104 160.568C74.727 160.295 75.2649 160.159 75.924 160.159C76.5149 160.159 77.032 160.28 77.4751 160.523C77.9183 160.761 78.263 161.125 78.5092 161.614C78.7554 162.098 78.8786 162.712 78.8786 163.455V169H77.5376V163.545C77.5376 162.86 77.3596 162.326 77.0036 161.943C76.6475 161.557 76.1589 161.364 75.5376 161.364C75.1096 161.364 74.727 161.456 74.3899 161.642C74.0566 161.828 73.7933 162.098 73.6001 162.455C73.407 162.811 73.3104 163.242 73.3104 163.75ZM83.897 169.205C83.344 169.205 82.8421 169.1 82.3913 168.892C81.9406 168.68 81.5826 168.375 81.3175 167.977C81.0523 167.576 80.9197 167.091 80.9197 166.523C80.9197 166.023 81.0182 165.617 81.2152 165.307C81.4122 164.992 81.6754 164.746 82.005 164.568C82.3345 164.39 82.6982 164.258 83.0959 164.17C83.4974 164.08 83.9008 164.008 84.3061 163.955C84.8364 163.886 85.2663 163.835 85.5959 163.801C85.9292 163.763 86.1716 163.701 86.3232 163.614C86.4785 163.527 86.5561 163.375 86.5561 163.159V163.114C86.5561 162.553 86.4027 162.117 86.0959 161.807C85.7929 161.496 85.3326 161.341 84.7152 161.341C84.075 161.341 83.5732 161.481 83.2095 161.761C82.8459 162.042 82.5902 162.341 82.4425 162.659L81.1697 162.205C81.397 161.674 81.7 161.261 82.0788 160.966C82.4614 160.667 82.8781 160.458 83.3288 160.341C83.7834 160.22 84.2304 160.159 84.6697 160.159C84.95 160.159 85.272 160.193 85.6357 160.261C86.0031 160.326 86.3572 160.46 86.6982 160.665C87.0429 160.869 87.3288 161.178 87.5561 161.591C87.7834 162.004 87.897 162.557 87.897 163.25V169H86.5561V167.818H86.4879C86.397 168.008 86.2455 168.21 86.0334 168.426C85.8213 168.642 85.5391 168.826 85.1868 168.977C84.8345 169.129 84.4046 169.205 83.897 169.205ZM84.1016 168C84.6319 168 85.0788 167.896 85.4425 167.688C85.8099 167.479 86.0864 167.21 86.272 166.881C86.4614 166.551 86.5561 166.205 86.5561 165.841V164.614C86.4993 164.682 86.3743 164.744 86.1811 164.801C85.9917 164.854 85.772 164.902 85.522 164.943C85.2758 164.981 85.0353 165.015 84.8004 165.045C84.5694 165.072 84.3819 165.095 84.2379 165.114C83.8894 165.159 83.5637 165.233 83.2607 165.335C82.9614 165.434 82.719 165.583 82.5334 165.784C82.3516 165.981 82.2607 166.25 82.2607 166.591C82.2607 167.057 82.433 167.409 82.7777 167.648C83.1262 167.883 83.5675 168 84.1016 168ZM97.1683 160.273L93.9411 169H92.5774L89.3501 160.273H90.8047L93.2138 167.227H93.3047L95.7138 160.273H97.1683ZM101.241 169.205C100.688 169.205 100.186 169.1 99.7351 168.892C99.2843 168.68 98.9264 168.375 98.6612 167.977C98.3961 167.576 98.2635 167.091 98.2635 166.523C98.2635 166.023 98.362 165.617 98.5589 165.307C98.7559 164.992 99.0192 164.746 99.3487 164.568C99.6783 164.39 100.042 164.258 100.44 164.17C100.841 164.08 101.245 164.008 101.65 163.955C102.18 163.886 102.61 163.835 102.94 163.801C103.273 163.763 103.515 163.701 103.667 163.614C103.822 163.527 103.9 163.375 103.9 163.159V163.114C103.9 162.553 103.746 162.117 103.44 161.807C103.137 161.496 102.676 161.341 102.059 161.341C101.419 161.341 100.917 161.481 100.553 161.761C100.19 162.042 99.9339 162.341 99.7862 162.659L98.5135 162.205C98.7408 161.674 99.0438 161.261 99.4226 160.966C99.8052 160.667 100.222 160.458 100.673 160.341C101.127 160.22 101.574 160.159 102.013 160.159C102.294 160.159 102.616 160.193 102.979 160.261C103.347 160.326 103.701 160.46 104.042 160.665C104.387 160.869 104.673 161.178 104.9 161.591C105.127 162.004 105.241 162.557 105.241 163.25V169H103.9V167.818H103.832C103.741 168.008 103.589 168.21 103.377 168.426C103.165 168.642 102.883 168.826 102.531 168.977C102.178 169.129 101.748 169.205 101.241 169.205ZM101.445 168C101.976 168 102.423 167.896 102.786 167.688C103.154 167.479 103.43 167.21 103.616 166.881C103.805 166.551 103.9 166.205 103.9 165.841V164.614C103.843 164.682 103.718 164.744 103.525 164.801C103.335 164.854 103.116 164.902 102.866 164.943C102.62 164.981 102.379 165.015 102.144 165.045C101.913 165.072 101.726 165.095 101.582 165.114C101.233 165.159 100.907 165.233 100.604 165.335C100.305 165.434 100.063 165.583 99.8771 165.784C99.6953 165.981 99.6044 166.25 99.6044 166.591C99.6044 167.057 99.7768 167.409 100.121 167.648C100.47 167.883 100.911 168 101.445 168ZM107.688 169V160.273H109.029V169H107.688ZM108.37 158.818C108.109 158.818 107.883 158.729 107.694 158.551C107.508 158.373 107.415 158.159 107.415 157.909C107.415 157.659 107.508 157.445 107.694 157.267C107.883 157.089 108.109 157 108.37 157C108.631 157 108.855 157.089 109.04 157.267C109.23 157.445 109.325 157.659 109.325 157.909C109.325 158.159 109.23 158.373 109.04 158.551C108.855 158.729 108.631 158.818 108.37 158.818ZM112.826 157.364V169H111.485V157.364H112.826ZM117.85 169.205C117.297 169.205 116.795 169.1 116.344 168.892C115.894 168.68 115.536 168.375 115.271 167.977C115.005 167.576 114.873 167.091 114.873 166.523C114.873 166.023 114.971 165.617 115.168 165.307C115.365 164.992 115.629 164.746 115.958 164.568C116.288 164.39 116.651 164.258 117.049 164.17C117.451 164.08 117.854 164.008 118.259 163.955C118.79 163.886 119.219 163.835 119.549 163.801C119.882 163.763 120.125 163.701 120.276 163.614C120.432 163.527 120.509 163.375 120.509 163.159V163.114C120.509 162.553 120.356 162.117 120.049 161.807C119.746 161.496 119.286 161.341 118.668 161.341C118.028 161.341 117.526 161.481 117.163 161.761C116.799 162.042 116.543 162.341 116.396 162.659L115.123 162.205C115.35 161.674 115.653 161.261 116.032 160.966C116.415 160.667 116.831 160.458 117.282 160.341C117.737 160.22 118.183 160.159 118.623 160.159C118.903 160.159 119.225 160.193 119.589 160.261C119.956 160.326 120.31 160.46 120.651 160.665C120.996 160.869 121.282 161.178 121.509 161.591C121.737 162.004 121.85 162.557 121.85 163.25V169H120.509V167.818H120.441C120.35 168.008 120.199 168.21 119.987 168.426C119.774 168.642 119.492 168.826 119.14 168.977C118.788 169.129 118.358 169.205 117.85 169.205ZM118.055 168C118.585 168 119.032 167.896 119.396 167.688C119.763 167.479 120.04 167.21 120.225 166.881C120.415 166.551 120.509 166.205 120.509 165.841V164.614C120.452 164.682 120.327 164.744 120.134 164.801C119.945 164.854 119.725 164.902 119.475 164.943C119.229 164.981 118.988 165.015 118.754 165.045C118.522 165.072 118.335 165.095 118.191 165.114C117.843 165.159 117.517 165.233 117.214 165.335C116.915 165.434 116.672 165.583 116.487 165.784C116.305 165.981 116.214 166.25 116.214 166.591C116.214 167.057 116.386 167.409 116.731 167.648C117.079 167.883 117.521 168 118.055 168ZM124.479 169V157.364H125.82V161.659H125.934C126.032 161.508 126.169 161.314 126.343 161.08C126.521 160.841 126.775 160.629 127.104 160.443C127.438 160.254 127.888 160.159 128.457 160.159C129.192 160.159 129.839 160.343 130.4 160.71C130.96 161.078 131.398 161.598 131.712 162.273C132.027 162.947 132.184 163.742 132.184 164.659C132.184 165.583 132.027 166.384 131.712 167.062C131.398 167.737 130.962 168.259 130.406 168.631C129.849 168.998 129.207 169.182 128.479 169.182C127.919 169.182 127.47 169.089 127.133 168.903C126.796 168.714 126.536 168.5 126.354 168.261C126.173 168.019 126.032 167.818 125.934 167.659H125.775V169H124.479ZM125.798 164.636C125.798 165.295 125.894 165.877 126.087 166.381C126.281 166.881 126.563 167.273 126.934 167.557C127.305 167.837 127.76 167.977 128.298 167.977C128.858 167.977 129.326 167.83 129.701 167.534C130.08 167.235 130.364 166.833 130.553 166.33C130.746 165.822 130.843 165.258 130.843 164.636C130.843 164.023 130.748 163.47 130.559 162.977C130.373 162.481 130.091 162.089 129.712 161.801C129.337 161.509 128.866 161.364 128.298 161.364C127.752 161.364 127.294 161.502 126.923 161.778C126.551 162.051 126.271 162.434 126.082 162.926C125.892 163.415 125.798 163.985 125.798 164.636ZM135.576 157.364V169H134.235V157.364H135.576ZM141.691 169.182C140.85 169.182 140.125 168.996 139.515 168.625C138.909 168.25 138.441 167.727 138.112 167.057C137.786 166.383 137.623 165.598 137.623 164.705C137.623 163.811 137.786 163.023 138.112 162.341C138.441 161.655 138.899 161.121 139.487 160.739C140.077 160.352 140.767 160.159 141.555 160.159C142.009 160.159 142.458 160.235 142.901 160.386C143.344 160.538 143.748 160.784 144.112 161.125C144.475 161.462 144.765 161.909 144.981 162.466C145.197 163.023 145.305 163.708 145.305 164.523V165.091H138.577V163.932H143.941C143.941 163.439 143.843 163 143.646 162.614C143.452 162.227 143.176 161.922 142.816 161.699C142.46 161.475 142.04 161.364 141.555 161.364C141.021 161.364 140.558 161.496 140.168 161.761C139.782 162.023 139.485 162.364 139.276 162.784C139.068 163.205 138.964 163.655 138.964 164.136V164.909C138.964 165.568 139.077 166.127 139.305 166.585C139.536 167.04 139.856 167.386 140.265 167.625C140.674 167.86 141.149 167.977 141.691 167.977C142.043 167.977 142.362 167.928 142.646 167.83C142.933 167.727 143.182 167.576 143.39 167.375C143.598 167.17 143.759 166.917 143.873 166.614L145.168 166.977C145.032 167.417 144.803 167.803 144.481 168.136C144.159 168.466 143.761 168.723 143.288 168.909C142.814 169.091 142.282 169.182 141.691 169.182Z" fill="#6D757D" fill-opacity="0.7"/>
</svg>
