<svg  viewBox="0 0 24 24" fill="none" xmlns="http://www.w3.org/2000/svg">
    <path d="M4 19.525V17.175C4 16.5917 4.15 16.0625 4.45 15.5875C4.75 15.1125 5.16667 14.7583 5.7 14.525C6.91667 13.9917 8.0125 13.6083 8.9875 13.375C9.9625 13.1417 10.9667 13.025 12 13.025C13.0333 13.025 14.0333 13.1417 15 13.375C15.9667 13.6083 17.0583 13.9917 18.275 14.525C18.8083 14.7583 19.2292 15.1125 19.5375 15.5875C19.8458 16.0625 20 16.5917 20 17.175V19.525H4ZM12 11.5C10.9 11.5 10 11.15 9.3 10.45C8.6 9.75 8.25 8.85 8.25 7.75C8.25 6.65 8.6 5.75 9.3 5.05C10 4.35 10.9 4 12 4C13.1 4 14 4.35 14.7 5.05C15.4 5.75 15.75 6.65 15.75 7.75C15.75 8.85 15.4 9.75 14.7 10.45C14 11.15 13.1 11.5 12 11.5ZM5.5 18.025H18.5V17.175C18.5 16.9083 18.4208 16.65 18.2625 16.4C18.1042 16.15 17.9083 15.975 17.675 15.875C16.475 15.3417 15.4667 14.9833 14.65 14.8C13.8333 14.6167 12.95 14.525 12 14.525C11.05 14.525 10.1625 14.6167 9.3375 14.8C8.5125 14.9833 7.5 15.3417 6.3 15.875C6.06667 15.975 5.875 16.15 5.725 16.4C5.575 16.65 5.5 16.9083 5.5 17.175V18.025ZM12 10C12.65 10 13.1875 9.7875 13.6125 9.3625C14.0375 8.9375 14.25 8.4 14.25 7.75C14.25 7.1 14.0375 6.5625 13.6125 6.1375C13.1875 5.7125 12.65 5.5 12 5.5C11.35 5.5 10.8125 5.7125 10.3875 6.1375C9.9625 6.5625 9.75 7.1 9.75 7.75C9.75 8.4 9.9625 8.9375 10.3875 9.3625C10.8125 9.7875 11.35 10 12 10Z" fill="#3C4C5B"/>
    </svg>
    