<svg width="24" height="22" viewBox="0 0 24 22" fill="none" xmlns="http://www.w3.org/2000/svg">
<path d="M16.4999 13.3C17.0997 13.3 17.6748 13.5318 18.0989 13.9444C18.5229 14.3569 18.7612 14.9165 18.7612 15.5C18.7612 16.0835 18.5229 16.6431 18.0989 17.0556C17.6748 17.4682 17.0997 17.7 16.4999 17.7C15.9002 17.7 15.3251 17.4682 14.901 17.0556C14.477 16.6431 14.2387 16.0835 14.2387 15.5C14.2387 14.9165 14.477 14.3569 14.901 13.9444C15.3251 13.5318 15.9002 13.3 16.4999 13.3ZM16.4999 14.4C16.2001 14.4 15.9125 14.5159 15.7005 14.7222C15.4885 14.9285 15.3693 15.2083 15.3693 15.5C15.3693 15.7917 15.4885 16.0715 15.7005 16.2778C15.9125 16.4841 16.2001 16.6 16.4999 16.6C16.7998 16.6 17.0874 16.4841 17.2994 16.2778C17.5114 16.0715 17.6306 15.7917 17.6306 15.5C17.6306 15.2083 17.5114 14.9285 17.2994 14.7222C17.0874 14.5159 16.7998 14.4 16.4999 14.4ZM15.3693 21C15.228 21 15.1093 20.901 15.0867 20.769L14.8775 19.3115C14.5214 19.174 14.2161 18.987 13.9221 18.767L12.5145 19.3225C12.3902 19.3665 12.2375 19.3225 12.1697 19.2015L11.0391 17.2985C11.0045 17.2418 10.9923 17.1748 11.0048 17.1101C11.0173 17.0453 11.0536 16.9871 11.1069 16.9465L12.2997 16.0335L12.2601 15.5L12.2997 14.95L11.1069 14.0535C11.0536 14.0129 11.0173 13.9547 11.0048 13.8899C10.9923 13.8252 11.0045 13.7582 11.0391 13.7015L12.1697 11.7985C12.2375 11.6775 12.3902 11.628 12.5145 11.6775L13.9221 12.2275C14.2161 12.013 14.5214 11.826 14.8775 11.6885L15.0867 10.231C15.1093 10.099 15.228 10 15.3693 10H17.6306C17.7719 10 17.8906 10.099 17.9132 10.231L18.1224 11.6885C18.4785 11.826 18.7838 12.013 19.0777 12.2275L20.4854 11.6775C20.6097 11.628 20.7624 11.6775 20.8302 11.7985L21.9608 13.7015C22.0343 13.8225 22.0004 13.971 21.893 14.0535L20.7002 14.95L20.7397 15.5L20.7002 16.05L21.893 16.9465C22.0004 17.029 22.0343 17.1775 21.9608 17.2985L20.8302 19.2015C20.7624 19.3225 20.6097 19.372 20.4854 19.3225L19.0777 18.7725C18.7838 18.987 18.4785 19.174 18.1224 19.3115L17.9132 20.769C17.8906 20.901 17.7719 21 17.6306 21H15.3693ZM16.076 11.1L15.8668 12.5355C15.1884 12.673 14.5892 13.025 14.1539 13.5145L12.7915 12.9425L12.3676 13.6575L13.5604 14.51C13.3342 15.1517 13.3342 15.8483 13.5604 16.49L12.3619 17.348L12.7859 18.063L14.1596 17.491C14.5949 17.975 15.1884 18.327 15.8611 18.459L16.0703 19.9H16.9296L17.1387 18.4645C17.8115 18.327 18.405 17.975 18.8403 17.491L20.214 18.063L20.638 17.348L19.4395 16.4955C19.6657 15.852 19.6657 15.1535 19.4395 14.51L20.6323 13.6575L20.2084 12.9425L18.846 13.5145C18.4018 13.0142 17.7992 12.6717 17.1331 12.541L16.9239 11.1H16.076Z" fill="#3C4C5B"/>
<path d="M9.90476 11.25C9.47143 11.9875 9.11238 12.8 8.9019 13.6625C5.57143 13.95 2.35238 15.525 2.35238 16.25V17.625H8.91428C9.12476 18.475 9.47143 19.275 9.90476 20H0V16.25C0 12.925 6.59905 11.25 9.90476 11.25ZM9.90476 0C11.2182 0 12.4779 0.526784 13.4066 1.46447C14.3354 2.40215 14.8571 3.67392 14.8571 5C14.8571 6.1375 14.4733 7.1875 13.8419 8.0375C12.7771 8.4375 11.8238 9.075 11.0314 9.875L9.90476 10C8.59131 10 7.33165 9.47322 6.4029 8.53553C5.47415 7.59785 4.95238 6.32608 4.95238 5C4.95238 3.67392 5.47415 2.40215 6.4029 1.46447C7.33165 0.526784 8.59131 0 9.90476 0ZM9.90476 2.375C9.2152 2.375 8.55388 2.65156 8.06628 3.14384C7.57869 3.63613 7.30476 4.30381 7.30476 5C7.30476 5.69619 7.57869 6.36387 8.06628 6.85616C8.55388 7.34844 9.2152 7.625 9.90476 7.625C10.5943 7.625 11.2556 7.34844 11.7432 6.85616C12.2308 6.36387 12.5048 5.69619 12.5048 5C12.5048 4.30381 12.2308 3.63613 11.7432 3.14384C11.2556 2.65156 10.5943 2.375 9.90476 2.375Z" fill="#3C4C5B"/>
</svg>
