<svg width="27" height="27" viewBox="0 0 27 27" fill="none" xmlns="http://www.w3.org/2000/svg">
<g clip-path="url(#clip0_499_18493)">
<path d="M13.5 0C6.05588 0 0 6.05588 0 13.5C0 20.9441 6.05588 27 13.5 27C20.9441 27 27 20.9441 27 13.5C27 6.05588 20.9441 0 13.5 0ZM21.3626 11.2995L20.1398 18.4241C20.0699 18.8291 19.7189 19.1249 19.3084 19.1249H7.69163C7.28101 19.1249 6.93001 18.8291 6.86024 18.4241L5.63738 11.2995C5.58338 10.9879 5.70937 10.6717 5.96249 10.4816C6.21675 10.2904 6.55312 10.26 6.83888 10.3984L10.0946 11.9835L12.7631 7.18313C13.0601 6.64651 13.941 6.64651 14.238 7.18313L16.9066 11.9835L20.1622 10.3984C20.4469 10.26 20.7844 10.2904 21.0386 10.4816C21.2907 10.6717 21.4166 10.9879 21.3626 11.2995Z" fill="#F0874A"/>
</g>
<defs>
<clipPath id="clip0_499_18493">
<rect width="27" height="27" fill="white"/>
</clipPath>
</defs>
</svg>
