<svg width="231" height="192" viewBox="0 0 231 192" fill="none" xmlns="http://www.w3.org/2000/svg">
<path opacity="0.6" d="M198.122 69.3703C204.166 69.3703 209.066 64.4707 209.066 58.4267C209.066 52.3827 204.166 47.4831 198.122 47.4831C192.078 47.4831 187.178 52.3827 187.178 58.4267C187.178 64.4707 192.078 69.3703 198.122 69.3703Z" fill="#D2D8DD"/>
<path d="M176.362 102.596C176.081 102.596 175.811 102.49 175.603 102.3C175.396 102.11 175.268 101.849 175.244 101.569L174.915 97.5381C174.893 97.3859 174.902 97.2307 174.942 97.0821C174.982 96.9335 175.052 96.7947 175.148 96.6743C175.243 96.5538 175.363 96.4543 175.499 96.3819C175.634 96.3094 175.783 96.2656 175.937 96.2531C176.09 96.2406 176.244 96.2597 176.39 96.3092C176.536 96.3587 176.67 96.4376 176.784 96.5409C176.898 96.6443 176.989 96.7699 177.053 96.91C177.116 97.0502 177.15 97.2019 177.153 97.3557L177.487 101.381C177.511 101.679 177.415 101.974 177.222 102.202C177.028 102.43 176.752 102.572 176.454 102.596H176.362Z" fill="#F0874A"/>
<path d="M180.393 100.092C180.143 100.091 179.9 100.007 179.703 99.8524C179.506 99.6981 179.366 99.4824 179.305 99.2396C179.244 98.9967 179.267 98.7406 179.368 98.5116C179.469 98.2827 179.644 98.0942 179.864 97.9758C180.32 97.7265 181.518 96.8571 181.561 95.8722C181.621 94.2185 180.345 89.5796 179.828 87.932C179.825 87.9057 179.825 87.8792 179.828 87.8529L175.207 67.7106L162.707 42.2667C161.777 41.7256 158.774 39.9746 155.667 38.3027C155.537 38.2328 155.422 38.138 155.328 38.0236C155.235 37.9093 155.165 37.7777 155.122 37.6362C155.079 37.4948 155.065 37.3464 155.08 37.1994C155.094 37.0524 155.138 36.9098 155.208 36.7797C155.278 36.6495 155.373 36.5344 155.487 36.4409C155.601 36.3474 155.733 36.2774 155.874 36.2347C156.016 36.1921 156.164 36.1778 156.311 36.1925C156.458 36.2072 156.601 36.2508 156.731 36.3206C160.488 38.3391 164.1 40.4792 164.136 40.4975C164.326 40.6082 164.479 40.7734 164.574 40.9717L177.281 66.8351C177.317 66.9131 177.345 66.9946 177.366 67.0783L182.011 87.3118C182.26 88.1143 183.92 93.6713 183.835 95.9573C183.743 98.3892 181.238 99.8058 180.953 99.9578C180.782 100.052 180.588 100.098 180.393 100.092Z" fill="#F0874A"/>
<path d="M142.608 35.889H142.577C142.429 35.8851 142.284 35.8521 142.149 35.7919C142.014 35.7317 141.892 35.6455 141.791 35.5382C141.689 35.4309 141.609 35.3047 141.557 35.1667C141.504 35.0287 141.479 34.8816 141.483 34.7339L141.562 31.852C140.467 31.2988 138.65 30.1315 138.455 28.4413C137.586 20.7747 138.668 16.2817 138.716 16.0872C138.752 15.9438 138.816 15.809 138.904 15.6904C138.992 15.5717 139.103 15.4715 139.23 15.3956C139.356 15.3197 139.497 15.2695 139.643 15.2478C139.789 15.2262 139.938 15.2335 140.081 15.2694C140.225 15.3054 140.36 15.3692 140.478 15.4572C140.597 15.5452 140.697 15.6558 140.773 15.7825C140.849 15.9093 140.899 16.0497 140.921 16.1959C140.942 16.342 140.935 16.491 140.899 16.6343C140.899 16.6708 139.866 20.9631 140.692 28.1859C140.759 28.7939 142.158 29.6998 143.124 30.0889L143.848 30.3807L143.726 34.7886C143.718 35.0811 143.597 35.3592 143.389 35.5644C143.18 35.7696 142.9 35.886 142.608 35.889Z" fill="#F0874A"/>
<path d="M154.609 21.7535C154.506 21.7547 154.404 21.7404 154.305 21.711C154.018 21.6314 153.775 21.4415 153.628 21.1829C153.481 20.9242 153.442 20.6178 153.521 20.3308C153.842 18.722 153.606 17.0516 152.852 15.5947C152.007 13.941 149.386 11.4665 144.894 12.6946C144.012 12.8968 143.198 13.3232 142.53 13.9325C141.863 14.5418 141.363 15.3133 141.081 16.1723C141.738 17.522 143.015 18.5373 146.468 19.1027C146.997 19.1878 148.748 19.3946 148.76 19.4006C148.912 19.4106 149.061 19.4514 149.197 19.5206C149.333 19.5898 149.454 19.6859 149.551 19.8032C149.649 19.9204 149.722 20.0563 149.765 20.2025C149.809 20.3488 149.822 20.5024 149.804 20.6539C149.786 20.8054 149.738 20.9518 149.662 21.084C149.586 21.2163 149.484 21.3316 149.361 21.4231C149.239 21.5146 149.1 21.5803 148.952 21.6162C148.803 21.6521 148.649 21.6574 148.499 21.6319C148.426 21.6319 146.675 21.4131 146.103 21.3219C142.036 20.6531 139.859 19.2486 138.808 16.6161L138.656 16.2209L138.789 15.8257C139.817 12.9196 141.507 11.2841 144.261 10.5302C149.38 9.12579 153.32 11.6428 154.816 14.5733C155.846 16.5243 156.156 18.7759 155.691 20.9327C155.625 21.1688 155.483 21.3768 155.288 21.5249C155.093 21.6731 154.854 21.7534 154.609 21.7535Z" fill="#F0874A"/>
<path d="M156.172 38.4365C156.043 38.4374 155.915 38.4147 155.795 38.3696L151.241 36.7402L151.204 27.128C151.204 26.8302 151.322 26.5444 151.531 26.3327C151.741 26.121 152.025 26.0004 152.323 25.9972C152.621 26.0003 152.906 26.1196 153.117 26.3297C153.328 26.5398 153.449 26.8241 153.454 27.122V35.1534L156.494 36.2477C156.742 36.3375 156.951 36.5119 157.084 36.7403C157.217 36.9687 157.265 37.2366 157.22 37.497C157.175 37.7574 157.04 37.9937 156.838 38.1643C156.636 38.335 156.381 38.4292 156.117 38.4304L156.172 38.4365Z" fill="#F0874A"/>
<path d="M151.909 28.0218C151.629 28.0215 151.358 27.9163 151.151 27.7268C150.944 27.5373 150.815 27.2773 150.79 26.9977C150.765 26.7182 150.846 26.4393 151.015 26.2159C151.185 25.9926 151.433 25.8408 151.709 25.7905C152.986 25.5655 153.284 25.0609 153.399 24.6536C153.479 24.3767 153.447 24.0794 153.308 23.8267C153.23 23.6919 153.125 23.5751 152.999 23.4839C152.873 23.3927 152.73 23.3292 152.577 23.2976C152.425 23.266 152.268 23.267 152.116 23.3006C151.964 23.3341 151.821 23.3995 151.697 23.4923C151.58 23.5899 151.445 23.6629 151.299 23.7067C151.154 23.7506 151.001 23.7645 150.85 23.7476C150.699 23.7307 150.553 23.6834 150.42 23.6084C150.288 23.5335 150.172 23.4324 150.08 23.3115C149.988 23.1906 149.921 23.0522 149.884 22.9047C149.847 22.7573 149.84 22.6039 149.864 22.4537C149.888 22.3035 149.942 22.1597 150.023 22.031C150.104 21.9023 150.21 21.7914 150.335 21.7048C150.748 21.3894 151.23 21.1751 151.741 21.079C152.251 20.983 152.778 21.0078 153.277 21.1516C154.126 21.3962 154.844 21.9675 155.272 22.7402C155.701 23.5129 155.806 24.424 155.563 25.2737C155.272 26.289 154.433 27.5901 152.11 28.0035L151.909 28.0218Z" fill="#F0874A"/>
<path d="M160.373 57.4114C160.174 57.4119 159.979 57.3599 159.807 57.2606C159.635 57.1613 159.493 57.0182 159.394 56.846L157.023 52.6509C156.885 52.392 156.854 52.0895 156.936 51.808C157.018 51.5265 157.207 51.2882 157.462 51.1439C157.718 50.9996 158.019 50.9607 158.303 51.0355C158.586 51.1103 158.829 51.2929 158.98 51.5444L161.351 55.7334C161.425 55.8617 161.472 56.0034 161.49 56.1501C161.509 56.2968 161.498 56.4457 161.458 56.5882C161.419 56.7307 161.351 56.8639 161.26 56.9801C161.169 57.0964 161.055 57.1934 160.926 57.2655C160.758 57.3637 160.567 57.4142 160.373 57.4114Z" fill="#F0874A"/>
<path d="M82.4662 68.0571C82.1917 68.0578 81.9264 67.958 81.7203 67.7766C81.5142 67.5951 81.3816 67.3446 81.3475 67.0722L78.3076 44.0785L78.3563 43.8778C78.5702 43.0878 78.8446 42.3154 79.1771 41.5675C79.2365 41.4322 79.3221 41.3099 79.4288 41.2076C79.5356 41.1053 79.6614 41.0251 79.7991 40.9715C79.9369 40.9178 80.0839 40.8919 80.2317 40.895C80.3795 40.8982 80.5252 40.9304 80.6605 40.9899C80.7958 41.0494 80.9181 41.135 81.0204 41.2417C81.1227 41.3484 81.2029 41.4743 81.2565 41.612C81.3102 41.7498 81.3361 41.8968 81.333 42.0445C81.3298 42.1923 81.2976 42.3381 81.2381 42.4734C80.9879 43.0455 80.7726 43.6322 80.5936 44.2305L83.5545 66.7986C83.5732 66.9448 83.5629 67.0932 83.5241 67.2354C83.4853 67.3775 83.4188 67.5106 83.3284 67.627C83.238 67.7434 83.1255 67.8407 82.9974 67.9135C82.8692 67.9863 82.728 68.033 82.5817 68.051L82.4662 68.0571Z" fill="#6D757D"/>
<path d="M76.046 66.5311C75.8983 66.5295 75.7523 66.4988 75.6165 66.4408C75.4806 66.3828 75.3576 66.2986 75.2542 66.193C75.1509 66.0875 75.0694 65.9626 75.0144 65.8255C74.9593 65.6884 74.9318 65.5419 74.9334 65.3941C74.9334 64.7497 74.6902 49.9515 74.8726 44.9539L73.5229 42.297C73.4653 42.1611 73.4355 42.015 73.4349 41.8673C73.4344 41.7197 73.4633 41.5734 73.5199 41.437C73.5765 41.3006 73.6596 41.1769 73.7645 41.073C73.8694 40.9691 73.994 40.8871 74.1309 40.8318C74.4067 40.7187 74.7161 40.7192 74.9916 40.833C75.2672 40.9469 75.4866 41.165 75.6022 41.4398L77.1708 44.6073L77.1404 44.887C77.1404 49.4955 77.1829 65.2543 77.1829 65.4124C77.1797 65.7112 77.0583 65.9967 76.8453 66.2063C76.6322 66.4159 76.3449 66.5327 76.046 66.5311Z" fill="#6D757D"/>
<path d="M95.5378 85.8709C94.6911 85.8569 93.8511 85.7176 93.0451 85.4575C84.4179 82.7945 67.6438 77.2558 61.6491 75.0185C61.4694 74.9518 61.3097 74.8402 61.1852 74.6944C61.0607 74.5487 60.9755 74.3735 60.9378 74.1855C60.5183 72.0819 60.0015 69.5649 59.4543 66.8898C58.2019 60.81 56.7853 53.9399 56.0192 49.3618C56.0162 49.3132 56.0162 49.2644 56.0192 49.2159C55.7335 41.5067 60.6459 39.3666 65.3942 37.2995C66.0022 37.0381 66.6102 36.7766 67.2182 36.497C67.49 36.3729 67.7999 36.3614 68.0801 36.4651C68.3604 36.5687 68.5882 36.7791 68.7138 37.0502C68.776 37.1842 68.8109 37.3292 68.8167 37.4769C68.8225 37.6245 68.799 37.7718 68.7476 37.9103C68.6961 38.0488 68.6178 38.1757 68.517 38.2837C68.4163 38.3918 68.2951 38.4788 68.1605 38.5398C67.5526 38.8255 66.9446 39.0991 66.3366 39.3605C61.7403 41.3608 58.1107 42.9476 58.3052 49.0882C59.0652 53.6237 60.4696 60.4392 61.7099 66.4642C62.2084 68.8961 62.6827 71.17 63.0778 73.152C69.4859 75.4988 85.4332 80.7578 93.7625 83.3295C96.6626 84.2294 97.7022 83.0438 98.5838 81.6394C98.745 81.387 98.9999 81.2091 99.2924 81.1446C99.5848 81.0802 99.8909 81.1346 100.143 81.2959C100.396 81.4571 100.574 81.712 100.638 82.0044C100.702 82.2969 100.648 82.603 100.487 82.8553C99.4897 84.3084 98.1096 85.8709 95.5378 85.8709Z" fill="#F0874A"/>
<path d="M103.843 66.75C103.567 66.7491 103.301 66.6475 103.095 66.4642L96.2248 60.3844C96.0887 60.2599 95.9826 60.1061 95.9147 59.9345C95.8661 59.7947 90.7895 46.182 88.9291 41.5188C88.3211 40.8683 84.6732 39.397 81.5786 38.406C81.4377 38.3605 81.3071 38.2877 81.1943 38.1917C81.0815 38.0957 80.9888 37.9785 80.9213 37.8467C80.8539 37.7148 80.813 37.571 80.8011 37.4234C80.7892 37.2758 80.8065 37.1273 80.852 36.9864C80.8975 36.8454 80.9704 36.7149 81.0664 36.6021C81.1623 36.4893 81.2796 36.3966 81.4114 36.3291C81.5432 36.2616 81.6871 36.2208 81.8347 36.2089C81.9823 36.197 82.1308 36.2143 82.2717 36.2598C87.5854 37.9743 90.5159 39.4335 90.984 40.6008C92.6864 44.8567 97.2036 56.9493 97.9271 58.8888L104.615 64.8044C104.784 64.9571 104.903 65.1571 104.956 65.3784C105.009 65.5997 104.995 65.832 104.914 66.0449C104.833 66.2577 104.69 66.4412 104.503 66.5713C104.316 66.7015 104.095 66.7722 103.867 66.7743L103.843 66.75Z" fill="#F0874A"/>
<path d="M77.7605 39.0748C77.4048 39.0754 77.0494 39.0531 76.6965 39.0079C76.4067 38.9638 76.1455 38.8083 75.9687 38.5744C75.7918 38.3406 75.7132 38.047 75.7497 37.7561C75.7862 37.4652 75.9348 37.2 76.1639 37.0171C76.393 36.8341 76.6844 36.7478 76.9762 36.7766C78.8427 37.0077 79.3473 36.3754 79.8276 36.0045C79.8276 35.2263 79.8276 33.6638 79.9371 31.9614L79.9796 31.3535L80.545 31.0677C82.217 30.2165 83.3113 28.8729 83.2019 25.0852C83.0195 18.8899 82.9283 17.072 82.9283 17.0538C82.9124 16.9019 82.9277 16.7484 82.973 16.6027C83.0184 16.4569 83.093 16.3219 83.1923 16.2058C83.2915 16.0898 83.4134 15.9952 83.5504 15.9278C83.6874 15.8604 83.8367 15.8216 83.9891 15.8137C84.1416 15.8059 84.2941 15.8292 84.4373 15.8822C84.5805 15.9351 84.7114 16.0167 84.822 16.1219C84.9327 16.2271 85.0207 16.3538 85.0809 16.4941C85.141 16.6345 85.1719 16.7856 85.1717 16.9383C85.1717 17.0112 85.2629 18.7622 85.4453 25.0183C85.5609 28.8668 84.5334 31.2805 82.1379 32.7518C82.0285 34.746 82.0832 36.4483 82.0832 36.4666V36.8921L81.8096 37.2144C81.761 37.2752 80.8551 39.0748 77.7605 39.0748Z" fill="#F0874A"/>
<path d="M147.253 35.9255C147.009 35.9251 146.772 35.8462 146.577 35.7005C146.382 35.5548 146.24 35.3501 146.17 35.1168C146.128 34.9755 146.115 34.8273 146.13 34.6807C146.146 34.5342 146.19 34.3921 146.261 34.2627C146.332 34.1334 146.427 34.0192 146.542 33.9268C146.657 33.8345 146.789 33.7657 146.93 33.7246C149.447 32.9828 151.849 32.083 151.873 32.0769C152.013 32.017 152.163 31.9861 152.315 31.986C152.467 31.9858 152.618 32.0165 152.758 32.0762C152.897 32.1358 153.024 32.2232 153.129 32.333C153.234 32.4428 153.316 32.5728 153.369 32.7151C153.423 32.8574 153.447 33.0091 153.44 33.161C153.433 33.3128 153.396 33.4618 153.33 33.5987C153.264 33.7357 153.171 33.8579 153.056 33.9579C152.942 34.0579 152.808 34.1336 152.664 34.1806C152.56 34.2231 150.159 35.1168 147.569 35.8829C147.466 35.9116 147.359 35.9259 147.253 35.9255Z" fill="#F0874A"/>
<path d="M73.9667 21.8508H73.8634C73.5724 21.8259 73.3029 21.6877 73.1129 21.4659C72.923 21.2441 72.8278 20.9565 72.848 20.6652C72.921 19.6377 73.7965 17.6253 76.5993 17.3092C77.4991 17.2058 78.3685 17.1693 79.1346 17.1329C81.4874 17.0295 82.5149 16.9079 82.977 16.0932C82.8007 13.3999 80.6788 12.3359 79.4021 11.9346C75.4137 10.6822 72.7872 12.7736 71.8449 14.2389C71.0031 15.9341 70.6255 17.8221 70.7505 19.7107C70.7705 19.996 70.6811 20.2783 70.5004 20.5C70.3197 20.7217 70.0613 20.8663 69.7778 20.9042C69.4942 20.9422 69.2069 20.8707 68.9743 20.7043C68.7416 20.5379 68.5811 20.2892 68.5253 20.0086C68.3218 17.6412 68.7829 15.2641 69.8568 13.1445L69.9115 13.0533C71.6078 10.36 75.3833 8.29284 80.0769 9.75807C83.2931 10.7673 85.1718 13.1384 85.2326 16.2695V16.5006L85.1474 16.7194C84.1564 19.1513 81.761 19.2425 79.2257 19.352C78.4597 19.3884 77.6693 19.4189 76.8425 19.5161C75.2921 19.6864 75.1036 20.6348 75.0793 20.8172C75.0526 21.0958 74.9245 21.355 74.7195 21.5455C74.5144 21.736 74.2466 21.8446 73.9667 21.8508Z" fill="#F0874A"/>
<path d="M66.9628 38.9532C66.7119 38.9539 66.4681 38.8707 66.2699 38.7168C66.0718 38.563 65.9308 38.3474 65.8693 38.1042C65.8078 37.861 65.8294 37.6042 65.9305 37.3747C66.0317 37.1452 66.2067 36.956 66.4278 36.8374L69.0421 35.439V26.8301C69.0421 26.5318 69.1606 26.2457 69.3715 26.0347C69.5824 25.8238 69.8685 25.7053 70.1668 25.7053C70.4657 25.7069 70.7517 25.8268 70.9625 26.0387C71.1733 26.2506 71.2916 26.5373 71.2916 26.8362L71.2612 36.7888L67.4613 38.8194C67.3078 38.9023 67.1371 38.9481 66.9628 38.9532Z" fill="#F0874A"/>
<path d="M71.4497 27.6691C71.3709 27.6781 71.2913 27.6781 71.2126 27.6691C69.1272 27.2253 68.4402 26.0032 68.2274 25.0548C68.0708 24.2715 68.2189 23.458 68.6414 22.7802C69.0639 22.1024 69.7291 21.6112 70.5012 21.4069C70.9624 21.289 71.4451 21.2827 71.9092 21.3884C72.3733 21.4941 72.8056 21.7089 73.1703 22.0149C73.3992 22.2068 73.5426 22.4817 73.5688 22.7793C73.595 23.0769 73.502 23.3727 73.3101 23.6017C73.1182 23.8307 72.8432 23.974 72.5456 24.0003C72.248 24.0265 71.9522 23.9334 71.7233 23.7415C71.6324 23.6662 71.5248 23.6137 71.4096 23.5884C71.2943 23.563 71.1747 23.5655 71.0606 23.5956C70.8521 23.6605 70.6748 23.7999 70.5627 23.9872C70.4505 24.1745 70.4113 24.3966 70.4526 24.6109C70.5012 24.8055 70.6046 25.2676 71.7111 25.5047C71.983 25.5622 72.224 25.7183 72.3877 25.9429C72.5513 26.1676 72.626 26.4448 72.5973 26.7213C72.5685 26.9977 72.4385 27.2537 72.2322 27.44C72.0259 27.6262 71.758 27.7295 71.4801 27.7299L71.4497 27.6691Z" fill="#F0874A"/>
<path d="M80.691 92.3155H63.0596C62.7613 92.3155 62.4752 92.197 62.2643 91.9861C62.0533 91.7751 61.9348 91.4891 61.9348 91.1908C61.9348 90.8924 62.0533 90.6064 62.2643 90.3954C62.4752 90.1845 62.7613 90.066 63.0596 90.066H80.691C80.9893 90.066 81.2753 90.1845 81.4863 90.3954C81.6972 90.6064 81.8157 90.8924 81.8157 91.1908C81.8157 91.4891 81.6972 91.7751 81.4863 91.9861C81.2753 92.197 80.9893 92.3155 80.691 92.3155Z" fill="#F0874A"/>
<path d="M92.82 77.037C92.6895 77.0361 92.5601 77.0135 92.437 76.9701L69.7108 68.7746C69.5307 68.7093 69.3702 68.599 69.2447 68.4543C69.1191 68.3096 69.0327 68.1352 68.9934 67.9477L65.4002 51.0945C65.3695 50.95 65.3675 50.8009 65.3944 50.6556C65.4213 50.5103 65.4766 50.3718 65.557 50.2479C65.6375 50.1239 65.7415 50.0171 65.8633 49.9334C65.985 49.8497 66.1221 49.7908 66.2666 49.76C66.4111 49.7293 66.5603 49.7273 66.7055 49.7542C66.8508 49.7811 66.9894 49.8364 67.1133 49.9168C67.2372 49.9973 67.3441 50.1013 67.4278 50.2231C67.5115 50.3448 67.5704 50.4819 67.6011 50.6264L71.0605 66.8655L92.7228 74.678L97.0577 72.3191C97.1876 72.2365 97.3331 72.1815 97.4852 72.1575C97.6373 72.1335 97.7926 72.1409 97.9417 72.1793C98.0908 72.2178 98.2304 72.2864 98.3518 72.381C98.4733 72.4756 98.5741 72.5941 98.6479 72.7292C98.7217 72.8643 98.767 73.0132 98.7809 73.1665C98.7949 73.3198 98.7772 73.4743 98.729 73.6206C98.6808 73.7668 98.6031 73.9015 98.5008 74.0165C98.3984 74.1315 98.2735 74.2242 98.1338 74.2889L93.3551 76.8972C93.1913 76.9881 93.0073 77.0362 92.82 77.037Z" fill="#F0874A"/>
<path d="M102.469 81.2381C102.296 81.2376 102.126 81.1981 101.97 81.1226L98.3589 79.329C98.218 79.269 98.0909 79.1808 97.9854 79.0699C97.8798 78.9591 97.798 78.8278 97.745 78.6842C97.6919 78.5406 97.6688 78.3876 97.6769 78.2348C97.685 78.0819 97.7242 77.9323 97.7922 77.7951C97.8602 77.6579 97.9554 77.5361 98.0722 77.437C98.1889 77.3379 98.3246 77.2637 98.471 77.2189C98.6173 77.1741 98.7714 77.1597 98.9235 77.1765C99.0757 77.1933 99.2228 77.241 99.3559 77.3166L102.973 79.1041C103.202 79.2165 103.386 79.4032 103.494 79.6336C103.603 79.8639 103.63 80.1243 103.572 80.3722C103.513 80.6201 103.372 80.8407 103.172 80.998C102.971 81.1553 102.723 81.24 102.469 81.2381Z" fill="#F0874A"/>
<path d="M87.6706 82.8675C87.5375 82.8669 87.4057 82.8422 87.2815 82.7946C87.0019 82.6918 86.7746 82.4825 86.6492 82.2124C86.5238 81.9422 86.5107 81.6334 86.6127 81.3537L87.9685 77.6328C88.0709 77.3523 88.2805 77.1238 88.5513 76.9979C88.8221 76.8719 89.1319 76.8586 89.4124 76.961C89.693 77.0634 89.9214 77.2731 90.0474 77.5438C90.1734 77.8146 90.1866 78.1244 90.0842 78.405L88.7224 82.1258C88.644 82.3422 88.5011 82.5293 88.3131 82.662C88.125 82.7946 87.9007 82.8663 87.6706 82.8675Z" fill="#F0874A"/>
<path d="M178.357 89.3242C178.084 89.3281 177.819 89.2327 177.611 89.0557C177.403 88.8786 177.267 88.6321 177.228 88.3621C177.188 88.092 177.248 87.8168 177.397 87.5878C177.545 87.3587 177.772 87.1915 178.034 87.1172L180.582 86.3573C180.862 86.2885 181.158 86.3301 181.408 86.4734C181.659 86.6167 181.844 86.8506 181.927 87.127C182.01 87.4034 181.983 87.701 181.853 87.9583C181.722 88.2156 181.498 88.4129 181.226 88.5095L178.685 89.2756C178.578 89.3067 178.468 89.3231 178.357 89.3242Z" fill="#F0874A"/>
<path d="M78.1618 33.7732C77.9855 33.7732 77.8152 33.7732 77.6389 33.7732C77.4916 33.76 77.3483 33.718 77.2173 33.6494C77.0862 33.5809 76.97 33.4872 76.8751 33.3737C76.7803 33.2602 76.7087 33.1292 76.6645 32.9881C76.6203 32.8469 76.6043 32.6984 76.6175 32.5511C76.6307 32.4038 76.6727 32.2606 76.7413 32.1295C76.8098 31.9985 76.9035 31.8822 77.017 31.7874C77.1305 31.6925 77.2615 31.6209 77.4026 31.5767C77.5438 31.5325 77.6923 31.5166 77.8396 31.5297C78.7905 31.554 79.7363 31.3822 80.618 31.0251C80.8929 30.9082 81.2031 30.9053 81.4801 31.0171C81.7572 31.1288 81.9785 31.346 82.0954 31.6209C82.2123 31.8959 82.2152 32.206 82.1035 32.483C81.9917 32.7601 81.7745 32.9814 81.4996 33.0983C80.4356 33.5189 79.3055 33.7474 78.1618 33.7732Z" fill="#F0874A"/>
<path d="M105.01 74.0761C104.76 74.077 104.517 73.9947 104.319 73.8422C104.121 73.6896 103.98 73.4756 103.917 73.2337C103.855 72.9919 103.874 72.7361 103.973 72.5066C104.072 72.2771 104.244 72.0871 104.463 71.9664L118.975 63.9776L129.214 42.522C129.548 41.8593 130.703 39.7375 132.029 39.1295C134.631 37.9439 139.245 36.0896 139.44 36.0106C139.578 35.9486 139.727 35.9152 139.879 35.9124C140.03 35.9095 140.18 35.9372 140.321 35.9938C140.461 36.0505 140.589 36.1349 140.696 36.242C140.803 36.3491 140.887 36.4767 140.943 36.6171C141 36.7576 141.027 36.908 141.024 37.0593C141.021 37.2107 140.988 37.3599 140.926 37.4979C140.864 37.636 140.775 37.7602 140.663 37.8629C140.552 37.9657 140.421 38.0449 140.279 38.0959C140.23 38.0959 135.518 40.0111 132.983 41.1784C132.576 41.3608 131.767 42.5646 131.263 43.513L120.878 65.2726C120.777 65.4849 120.611 65.6596 120.404 65.7711L105.575 73.9363C105.403 74.0334 105.208 74.0817 105.01 74.0761Z" fill="#F0874A"/>
<path d="M162.263 120.641C161.978 120.64 161.704 120.531 161.497 120.336C161.289 120.141 161.163 119.874 161.145 119.589L159.211 90.7348V51.9396L170.246 72.0881L175.183 92.3702L173.833 97.4772C173.804 97.6285 173.744 97.7722 173.657 97.8993C173.57 98.0265 173.458 98.1344 173.328 98.2165C173.197 98.2985 173.051 98.3529 172.899 98.3762C172.747 98.3995 172.591 98.3913 172.442 98.3521C172.294 98.3129 172.154 98.2435 172.033 98.1482C171.912 98.0529 171.812 97.9337 171.739 97.7981C171.666 97.6625 171.621 97.5133 171.608 97.3598C171.595 97.2063 171.614 97.0518 171.663 96.9057L172.879 92.3459L168.149 72.8906L161.461 60.731V90.7348L163.388 119.425C163.402 119.574 163.385 119.724 163.339 119.867C163.293 120.009 163.22 120.141 163.122 120.254C163.025 120.367 162.905 120.46 162.772 120.527C162.638 120.593 162.492 120.632 162.343 120.641H162.263Z" fill="#F0874A"/>
<path d="M149.538 93.8902C149.24 93.8902 148.954 93.7717 148.743 93.5607C148.532 93.3498 148.414 93.0637 148.414 92.7654C148.414 92.4671 148.532 92.181 148.743 91.9701C148.954 91.7591 149.24 91.6406 149.538 91.6406L160.379 91.4279C160.677 91.4279 160.963 91.5464 161.174 91.7573C161.385 91.9682 161.503 92.2543 161.503 92.5526C161.503 92.8509 161.385 93.137 161.174 93.3479C160.963 93.5589 160.677 93.6774 160.379 93.6774L149.563 93.8902H149.538Z" fill="#F0874A"/>
<path d="M132.053 89.5735C131.905 89.5719 131.759 89.5412 131.623 89.4832C131.488 89.4252 131.365 89.341 131.261 89.2355C131.158 89.1299 131.076 89.005 131.021 88.8679C130.966 88.7308 130.939 88.5843 130.94 88.4366L131.366 54.256C131.375 53.9603 131.499 53.6797 131.711 53.4734C131.923 53.267 132.207 53.1509 132.503 53.1495C132.651 53.1511 132.797 53.1817 132.932 53.2397C133.068 53.2977 133.191 53.3819 133.295 53.4875C133.398 53.5931 133.48 53.718 133.535 53.855C133.59 53.9921 133.617 54.1387 133.615 54.2864L133.19 88.467C133.188 88.6144 133.158 88.7601 133.1 88.8956C133.041 89.0311 132.957 89.1538 132.852 89.2566C132.746 89.3595 132.621 89.4404 132.484 89.4948C132.347 89.5491 132.2 89.5759 132.053 89.5735Z" fill="#F0874A"/>
<path d="M63.0596 108.123C62.7613 108.123 62.4752 108.004 62.2643 107.793C62.0533 107.583 61.9348 107.296 61.9348 106.998V74.1673C61.9348 73.869 62.0533 73.5829 62.2643 73.372C62.4752 73.1611 62.7613 73.0425 63.0596 73.0425C63.3579 73.0425 63.644 73.1611 63.8549 73.372C64.0658 73.5829 64.1844 73.869 64.1844 74.1673V106.998C64.1844 107.296 64.0658 107.583 63.8549 107.793C63.644 108.004 63.3579 108.123 63.0596 108.123Z" fill="#F0874A"/>
<path d="M90.4733 100.882C90.1812 100.882 89.9006 100.769 89.6906 100.565C89.4807 100.362 89.3581 100.086 89.3486 99.7936L88.8865 83.664C88.8716 83.5106 88.8883 83.3558 88.9357 83.2092C88.983 83.0626 89.06 82.9273 89.1619 82.8117C89.2637 82.696 89.3882 82.6026 89.5276 82.537C89.667 82.4715 89.8185 82.4353 89.9725 82.4307C90.1265 82.4261 90.2798 82.4532 90.4229 82.5104C90.566 82.5675 90.6958 82.6533 90.8043 82.7627C90.9129 82.8721 90.9978 83.0026 91.0538 83.1461C91.1098 83.2896 91.1357 83.4431 91.13 83.5971L91.6102 99.7268C91.6143 99.8745 91.5892 100.022 91.5364 100.16C91.4836 100.298 91.4041 100.424 91.3024 100.531C91.2008 100.638 91.079 100.725 90.9441 100.785C90.8091 100.845 90.6636 100.878 90.5159 100.882H90.4733Z" fill="#F0874A"/>
<path d="M117.17 77.116C116.92 77.1156 116.678 77.0323 116.481 76.8793C116.285 76.7263 116.144 76.5122 116.082 76.2707C116.02 76.0292 116.04 75.774 116.139 75.5451C116.238 75.3162 116.41 75.1267 116.629 75.0063L123.924 71.0301L131.445 61.7889C131.536 61.6672 131.65 61.5651 131.781 61.4887C131.912 61.4123 132.057 61.3632 132.208 61.3444C132.358 61.3256 132.511 61.3374 132.657 61.3791C132.803 61.4208 132.938 61.4916 133.056 61.5872C133.174 61.6828 133.271 61.8013 133.342 61.9354C133.413 62.0696 133.456 62.2167 133.468 62.3678C133.481 62.519 133.463 62.6711 133.415 62.8151C133.367 62.959 133.29 63.0918 133.19 63.2055L125.548 72.6109C125.45 72.7218 125.335 72.8163 125.207 72.8906L117.705 76.9701C117.541 77.0626 117.357 77.1128 117.17 77.116Z" fill="#F0874A"/>
<path d="M91.0266 71.0363C90.8789 71.0363 90.7326 71.0072 90.5962 70.9506C90.4597 70.8941 90.3357 70.8113 90.2313 70.7068C90.1269 70.6024 90.044 70.4784 89.9875 70.3419C89.931 70.2055 89.9019 70.0592 89.9019 69.9115V66.2636C89.9019 65.9653 90.0204 65.6792 90.2313 65.4683C90.4422 65.2574 90.7283 65.1389 91.0266 65.1389C91.3249 65.1389 91.611 65.2574 91.8219 65.4683C92.0329 65.6792 92.1514 65.9653 92.1514 66.2636V69.9115C92.1514 70.2098 92.0329 70.4959 91.8219 70.7068C91.611 70.9177 91.3249 71.0363 91.0266 71.0363Z" fill="#F0874A"/>
<path d="M149.393 49.757H141.489C141.19 49.757 140.904 49.6385 140.693 49.4275C140.483 49.2166 140.364 48.9305 140.364 48.6322C140.364 48.3339 140.483 48.0478 140.693 47.8369C140.904 47.626 141.19 47.5074 141.489 47.5074H149.393C149.691 47.5074 149.977 47.626 150.188 47.8369C150.399 48.0478 150.517 48.3339 150.517 48.6322C150.517 48.9305 150.399 49.2166 150.188 49.4275C149.977 49.6385 149.691 49.757 149.393 49.757Z" fill="#D2D8DD"/>
<path d="M145.745 89.2756C145.597 89.2756 145.451 89.2465 145.314 89.19C145.178 89.1335 145.054 89.0506 144.949 88.9462C144.845 88.8417 144.762 88.7178 144.706 88.5813C144.649 88.4448 144.62 88.2986 144.62 88.1509V40.7285C144.62 40.4302 144.738 40.1441 144.949 39.9332C145.16 39.7223 145.446 39.6038 145.745 39.6038C146.043 39.6038 146.329 39.7223 146.54 39.9332C146.751 40.1441 146.869 40.4302 146.869 40.7285V88.1509C146.869 88.2986 146.84 88.4448 146.784 88.5813C146.727 88.7178 146.644 88.8417 146.54 88.9462C146.436 89.0506 146.312 89.1335 146.175 89.19C146.039 89.2465 145.892 89.2756 145.745 89.2756Z" fill="#6D757D"/>
<path d="M109.558 24.7204L104.007 19.1756L109.558 13.637L115.103 19.1817L109.558 24.7204ZM107.193 19.1756L109.558 21.5407L111.923 19.1756L109.558 16.8106L107.193 19.1756Z" fill="#D2D8DD"/>
<path d="M221.468 129.414C221.17 129.414 220.884 129.296 220.673 129.085C220.462 128.874 220.344 128.588 220.344 128.29C220.344 127.991 220.462 127.705 220.673 127.494C220.884 127.283 221.17 127.165 221.468 127.165H229.032C229.33 127.165 229.616 127.283 229.827 127.494C230.038 127.705 230.156 127.991 230.156 128.29C230.156 128.588 230.038 128.874 229.827 129.085C229.616 129.296 229.33 129.414 229.032 129.414H221.462H221.468Z" fill="#F0874A"/>
<path d="M225.256 133.19C224.958 133.19 224.672 133.071 224.461 132.86C224.25 132.65 224.131 132.363 224.131 132.065V124.502C224.131 124.354 224.16 124.208 224.217 124.071C224.274 123.935 224.356 123.811 224.461 123.707C224.565 123.602 224.689 123.519 224.826 123.463C224.962 123.406 225.108 123.377 225.256 123.377C225.404 123.376 225.55 123.405 225.686 123.46C225.823 123.516 225.947 123.599 226.051 123.703C226.156 123.807 226.239 123.93 226.295 124.066C226.352 124.202 226.381 124.348 226.381 124.496V132.065C226.381 132.363 226.262 132.65 226.051 132.86C225.841 133.071 225.554 133.19 225.256 133.19Z" fill="#F0874A"/>
<path d="M101.374 1.4774C101.374 1.7696 101.288 2.05524 101.125 2.29819C100.963 2.54115 100.732 2.7305 100.462 2.84232C100.192 2.95414 99.8953 2.9834 99.6087 2.92639C99.3221 2.86939 99.0589 2.72869 98.8523 2.52207C98.6457 2.31546 98.5049 2.05221 98.4479 1.76562C98.3909 1.47904 98.4202 1.18198 98.532 0.912027C98.6438 0.64207 98.8332 0.411327 99.0761 0.248989C99.3191 0.0866518 99.6047 1.26173e-05 99.8969 1.26173e-05C100.091 -0.000791694 100.284 0.0368658 100.463 0.110827C100.643 0.184787 100.806 0.293582 100.943 0.43093C101.081 0.568279 101.19 0.731463 101.264 0.911072C101.337 1.09068 101.375 1.28316 101.374 1.4774Z" fill="#F0874A"/>
<path d="M50.3041 113.345C50.3041 113.638 50.2175 113.923 50.0552 114.166C49.8928 114.409 49.6621 114.599 49.3921 114.71C49.1222 114.822 48.8251 114.851 48.5385 114.794C48.2519 114.737 47.9887 114.597 47.7821 114.39C47.5755 114.183 47.4348 113.92 47.3777 113.634C47.3207 113.347 47.35 113.05 47.4618 112.78C47.5737 112.51 47.763 112.279 48.006 112.117C48.2489 111.955 48.5345 111.868 48.8267 111.868C49.021 111.867 49.2135 111.905 49.3931 111.979C49.5727 112.053 49.7359 112.162 49.8732 112.299C50.0106 112.436 50.1194 112.6 50.1933 112.779C50.2673 112.959 50.3049 113.151 50.3041 113.345Z" fill="#F0874A"/>
<path d="M177.73 31.5662C176.94 31.5662 176.168 31.332 175.511 30.8931C174.854 30.4541 174.342 29.8303 174.04 29.1004C173.738 28.3705 173.659 27.5674 173.813 26.7925C173.967 26.0177 174.347 25.306 174.906 24.7473C175.465 24.1887 176.176 23.8083 176.951 23.6541C177.726 23.5 178.529 23.5791 179.259 23.8815C179.989 24.1838 180.613 24.6958 181.052 25.3526C181.491 26.0095 181.725 26.7818 181.725 27.5718C181.725 28.6312 181.304 29.6472 180.555 30.3963C179.806 31.1454 178.79 31.5662 177.73 31.5662ZM177.73 25.833C177.385 25.833 177.047 25.9355 176.76 26.1275C176.473 26.3195 176.25 26.5924 176.118 26.9116C175.986 27.2308 175.952 27.5819 176.019 27.9206C176.087 28.2592 176.254 28.5701 176.499 28.8139C176.743 29.0577 177.055 29.2234 177.394 29.29C177.733 29.3566 178.084 29.3212 178.402 29.1882C178.721 29.0552 178.993 28.8306 179.184 28.5429C179.375 28.2551 179.476 27.9172 179.475 27.5718C179.474 27.1101 179.289 26.6678 178.962 26.3419C178.635 26.016 178.192 25.833 177.73 25.833Z" fill="#F0874A"/>
<path d="M111.169 98.4074C110.871 98.4074 110.585 98.2889 110.374 98.078C110.163 97.8671 110.044 97.581 110.044 97.2826C110.044 96.9843 110.163 96.6983 110.374 96.4873C110.585 96.2764 110.871 96.1579 111.169 96.1579H118.386C118.684 96.1579 118.97 96.2764 119.181 96.4873C119.392 96.6983 119.51 96.9843 119.51 97.2826C119.51 97.581 119.392 97.8671 119.181 98.078C118.97 98.2889 118.684 98.4074 118.386 98.4074H111.169Z" fill="#F0874A"/>
<path d="M114.78 102.007C114.482 102.007 114.196 101.888 113.985 101.677C113.774 101.466 113.656 101.18 113.656 100.882V93.6713C113.655 93.523 113.683 93.3761 113.739 93.2389C113.796 93.1018 113.878 92.9771 113.983 92.872C114.087 92.7669 114.212 92.6835 114.348 92.6266C114.485 92.5697 114.632 92.5404 114.78 92.5404C115.079 92.5404 115.366 92.6587 115.578 92.8695C115.79 93.0802 115.91 93.3663 115.911 93.6652V100.882C115.911 101.18 115.793 101.466 115.582 101.677C115.371 101.888 115.085 102.007 114.786 102.007H114.78Z" fill="#F0874A"/>
<path d="M198.14 70.0817H197.915C194.768 70.0369 191.768 68.7444 189.573 66.4882C187.378 64.2321 186.169 61.1969 186.212 58.0498C186.269 54.9452 187.534 51.9851 189.738 49.7985C191.943 47.6119 194.914 46.3713 198.019 46.3401H198.244C199.802 46.3608 201.341 46.6882 202.772 47.3038C204.204 47.9195 205.5 48.8112 206.587 49.928C207.674 51.0448 208.53 52.3648 209.107 53.8126C209.683 55.2605 209.969 56.8077 209.947 58.366C209.893 61.4721 208.629 64.4347 206.424 66.6229C204.219 68.8111 201.247 70.0521 198.14 70.0817ZM198.031 48.5897C195.515 48.6161 193.108 49.622 191.321 51.394C189.534 53.1659 188.509 55.5643 188.461 58.0802C188.434 60.6265 189.416 63.08 191.194 64.9033C192.972 66.7266 195.399 67.771 197.946 67.8079H198.128C200.015 67.7966 201.857 67.2311 203.424 66.1815C204.992 65.1319 206.217 63.6447 206.947 61.9046C207.676 60.1646 207.878 58.2485 207.527 56.3946C207.176 54.5408 206.289 52.8309 204.974 51.4776C204.096 50.5694 203.046 49.8447 201.885 49.3458C200.725 48.8469 199.476 48.5837 198.213 48.5714L198.031 48.5897Z" fill="#6D757D"/>
<path d="M198.323 58.3781H197.265C195.581 58.3781 194.401 57.3324 194.407 55.8489C194.402 55.0717 194.7 54.323 195.238 53.7621C195.777 53.2013 196.512 52.8724 197.289 52.8455H201.089C201.239 52.8543 201.38 52.9182 201.485 53.0248C201.591 53.1314 201.653 53.2733 201.661 53.4231C201.661 53.4979 201.646 53.5719 201.617 53.6409C201.588 53.7099 201.546 53.7725 201.493 53.8251C201.44 53.8777 201.377 53.9192 201.307 53.9472C201.238 53.9753 201.164 53.9893 201.089 53.9885H197.283C196.809 54.0122 196.363 54.2197 196.039 54.5671C195.716 54.9145 195.54 55.3743 195.55 55.8489C195.55 56.8643 196.438 57.2351 197.271 57.2351H198.323C198.474 57.2351 198.62 57.2953 198.727 57.4025C198.834 57.5097 198.894 57.6551 198.894 57.8066C198.894 57.9582 198.834 58.1036 198.727 58.2107C198.62 58.3179 198.474 58.3781 198.323 58.3781Z" fill="white"/>
<path d="M196.499 58.6274C195.824 58.5386 195.205 58.2069 194.757 57.6943C194.309 57.1817 194.064 56.5234 194.067 55.8429C194.062 54.9801 194.394 54.1496 194.992 53.5283C195.591 52.907 196.409 52.5442 197.271 52.5172H201.071C201.296 52.5358 201.506 52.6383 201.659 52.8044C201.812 52.9705 201.897 53.1881 201.897 53.414C201.897 53.6398 201.812 53.8574 201.659 54.0235C201.506 54.1897 201.296 54.2922 201.071 54.3107H197.271C196.885 54.3444 196.527 54.522 196.267 54.8082C196.006 55.0944 195.863 55.4682 195.866 55.855C195.867 56.1146 195.967 56.3641 196.146 56.5527C196.324 56.7413 196.568 56.8549 196.827 56.8703C196.969 56.8998 197.114 56.9141 197.259 56.9129H198.323C198.56 56.9129 198.787 57.0071 198.955 57.1747C199.122 57.3423 199.216 57.5696 199.216 57.8066C199.215 58.0442 199.119 58.2715 198.951 58.439C198.782 58.6064 198.554 58.7004 198.317 58.7004H197.259C197.004 58.6987 196.749 58.6742 196.499 58.6274ZM201.125 53.1556H197.277C196.585 53.1809 195.93 53.4753 195.452 53.9761C194.974 54.4768 194.711 55.1445 194.717 55.8368C194.717 57.1257 195.757 58.0377 197.259 58.0437H198.323C198.356 58.0446 198.389 58.0387 198.42 58.0265C198.451 58.0144 198.479 57.9961 198.503 57.9729C198.527 57.9497 198.545 57.9219 198.558 57.8913C198.571 57.8606 198.578 57.8277 198.578 57.7945C198.579 57.7358 198.558 57.6789 198.52 57.6342C198.482 57.5895 198.429 57.5601 198.371 57.5513H197.271C197.085 57.5507 196.9 57.5344 196.718 57.5026C196.307 57.4604 195.928 57.267 195.652 56.9602C195.377 56.6534 195.226 56.2551 195.228 55.8429C195.226 55.285 195.437 54.7475 195.82 54.3414C196.202 53.9352 196.726 53.6914 197.283 53.6602H201.089C201.15 53.6588 201.208 53.6352 201.253 53.5938C201.297 53.5524 201.325 53.4961 201.331 53.4355C201.337 53.3749 201.321 53.3142 201.285 53.2649C201.249 53.2156 201.197 53.181 201.138 53.1677L201.125 53.1556Z" fill="white"/>
<path d="M199.308 62.7738H195.003C194.852 62.7738 194.706 62.7136 194.599 62.6064C194.492 62.4992 194.432 62.3538 194.432 62.2023C194.432 62.0507 194.492 61.9053 194.599 61.7982C194.706 61.691 194.852 61.6308 195.003 61.6308H199.308C200.141 61.6308 201.034 61.2721 201.034 60.2628C201.034 60.2324 201.034 60.202 201.034 60.1777C201.082 59.9666 201.081 59.7474 201.032 59.5367C200.982 59.326 200.885 59.1293 200.748 58.9617C200.567 58.7636 200.345 58.6069 200.097 58.502C199.85 58.3971 199.582 58.3465 199.314 58.3538H197.757C197.677 58.3621 197.596 58.3534 197.519 58.3283C197.442 58.3032 197.371 58.2622 197.311 58.2081C197.251 58.1539 197.203 58.0877 197.17 58.0139C197.137 57.94 197.121 57.8601 197.121 57.7792C197.121 57.6984 197.137 57.6185 197.17 57.5446C197.203 57.4707 197.251 57.4046 197.311 57.3504C197.371 57.2962 197.442 57.2553 197.519 57.2302C197.596 57.2051 197.677 57.1964 197.757 57.2047H199.314C199.745 57.1973 200.173 57.2819 200.569 57.4527C200.966 57.6236 201.321 57.8769 201.612 58.1957C201.852 58.4799 202.026 58.8137 202.122 59.1732C202.218 59.5328 202.232 59.909 202.165 60.275C202.159 61.7706 200.98 62.7799 199.308 62.7738Z" fill="white"/>
<path d="M194.839 63.0656C194.635 63.0236 194.451 62.9123 194.319 62.7506C194.187 62.5889 194.115 62.3866 194.115 62.1779C194.116 62.0606 194.14 61.9445 194.186 61.8364C194.231 61.7283 194.298 61.6302 194.382 61.5478C194.465 61.4653 194.564 61.4002 194.673 61.356C194.782 61.3118 194.898 61.2895 195.015 61.2903H199.314C199.663 61.3077 200.01 61.2209 200.311 61.041C200.444 60.9572 200.552 60.8389 200.624 60.6988C200.695 60.5586 200.728 60.4017 200.718 60.2446C200.718 60.202 200.718 60.1595 200.718 60.1169C200.755 59.9519 200.755 59.7809 200.718 59.6159C200.682 59.4509 200.609 59.296 200.505 59.1624C200.347 59.0027 200.157 58.8784 199.948 58.7977C199.738 58.717 199.514 58.6817 199.289 58.6942H197.733C197.609 58.7044 197.484 58.6888 197.367 58.6484C197.249 58.608 197.141 58.5436 197.049 58.4593C196.958 58.375 196.885 58.2727 196.835 58.1588C196.785 58.0449 196.759 57.9219 196.759 57.7975C196.759 57.6731 196.785 57.55 196.835 57.4361C196.885 57.3222 196.958 57.2198 197.049 57.1356C197.141 57.0513 197.249 56.9869 197.367 56.9465C197.484 56.9061 197.609 56.8905 197.733 56.9007H199.289C199.767 56.8953 200.241 56.9905 200.68 57.1801C201.119 57.3697 201.513 57.6494 201.837 58.0011C202.102 58.3235 202.294 58.7 202.399 59.1043C202.504 59.5086 202.52 59.931 202.445 60.3418C202.414 61.9469 201.101 63.0899 199.247 63.0838H194.942L194.839 63.0656ZM199.812 58.1045C200.279 58.1799 200.707 58.4088 201.028 58.755C201.193 58.9584 201.311 59.1959 201.373 59.4503C201.435 59.7048 201.44 59.9698 201.387 60.2263C201.398 60.4959 201.339 60.7638 201.215 61.0036C201.092 61.2434 200.908 61.447 200.682 61.5943C200.276 61.8416 199.807 61.9662 199.332 61.953H195.027C194.961 61.953 194.898 61.9793 194.851 62.026C194.804 62.0727 194.778 62.1362 194.778 62.2023C194.778 62.2684 194.804 62.3318 194.851 62.3785C194.898 62.4253 194.961 62.4515 195.027 62.4515H199.332C200.834 62.4515 201.855 61.5943 201.879 60.2993C201.942 59.9724 201.932 59.6358 201.85 59.3132C201.768 58.9906 201.616 58.69 201.405 58.4328C201.142 58.1522 200.824 57.9299 200.47 57.7801C200.116 57.6304 199.734 57.5565 199.35 57.5634H197.788C197.722 57.5577 197.656 57.5786 197.605 57.6213C197.554 57.6641 197.523 57.7253 197.517 57.7914C197.511 57.8575 197.532 57.9231 197.575 57.9739C197.618 58.0246 197.679 58.0563 197.745 58.0619H199.344C199.501 58.0647 199.657 58.0789 199.812 58.1045Z" fill="white"/>
<path d="M198.061 53.7088C197.986 53.7088 197.912 53.694 197.843 53.6653C197.773 53.6366 197.71 53.5945 197.657 53.5414C197.604 53.4883 197.562 53.4253 197.533 53.356C197.505 53.2867 197.49 53.2124 197.49 53.1373V50.7601C197.49 50.6085 197.55 50.4632 197.657 50.356C197.764 50.2488 197.91 50.1886 198.061 50.1886C198.213 50.1886 198.358 50.2488 198.465 50.356C198.573 50.4632 198.633 50.6085 198.633 50.7601V53.1555C198.63 53.3044 198.568 53.4461 198.461 53.5497C198.354 53.6533 198.21 53.7104 198.061 53.7088Z" fill="white"/>
<path d="M197.891 54.0189C197.688 53.9771 197.505 53.8667 197.373 53.7063C197.241 53.5458 197.169 53.3449 197.167 53.1373V50.7601C197.167 50.6423 197.191 50.5256 197.236 50.4167C197.281 50.3079 197.348 50.2091 197.431 50.126C197.515 50.043 197.614 49.9772 197.723 49.9327C197.833 49.8881 197.949 49.8656 198.067 49.8664C198.185 49.8656 198.301 49.8882 198.409 49.9329C198.518 49.9776 198.616 50.0435 198.699 50.1267C198.782 50.21 198.847 50.3089 198.891 50.4176C198.935 50.5264 198.957 50.6428 198.955 50.7601V53.1556C198.95 53.3857 198.854 53.6043 198.687 53.7636C198.608 53.8442 198.513 53.9082 198.409 53.952C198.305 53.9959 198.193 54.0186 198.079 54.0189H197.891ZM198.122 50.517C198.086 50.5109 198.049 50.5125 198.014 50.5218C197.979 50.5311 197.946 50.5479 197.918 50.5709C197.89 50.5939 197.867 50.6227 197.85 50.6554C197.834 50.688 197.825 50.7237 197.824 50.7601V53.1556C197.823 53.188 197.829 53.2203 197.841 53.2505C197.853 53.2807 197.87 53.3083 197.893 53.3315C197.916 53.3547 197.943 53.3732 197.973 53.3858C198.003 53.3984 198.035 53.4049 198.067 53.4049C198.101 53.4053 198.134 53.3991 198.166 53.3866C198.197 53.3741 198.226 53.3555 198.25 53.3319C198.274 53.3094 198.293 53.282 198.305 53.2516C198.318 53.2212 198.324 53.1885 198.323 53.1556V50.7784C198.325 50.7181 198.307 50.6588 198.27 50.611C198.233 50.5631 198.181 50.5298 198.122 50.517Z" fill="white"/>
<path d="M198.019 65.4185C197.867 65.4185 197.722 65.3583 197.615 65.2511C197.507 65.1439 197.447 64.9986 197.447 64.847V62.4698C197.457 62.315 197.525 62.1695 197.638 62.0633C197.751 61.9571 197.9 61.898 198.055 61.8983C198.207 61.8983 198.352 61.9585 198.459 62.0657C198.567 62.1729 198.627 62.3182 198.627 62.4698V64.8531C198.628 64.9313 198.613 65.0089 198.582 65.0809C198.551 65.1529 198.506 65.2176 198.448 65.2709C198.391 65.3242 198.323 65.3648 198.249 65.3903C198.175 65.4157 198.097 65.4253 198.019 65.4185Z" fill="white"/>
<path d="M197.848 65.7286C197.644 65.6876 197.459 65.5767 197.327 65.4147C197.195 65.2527 197.124 65.0499 197.125 64.8409V62.4637C197.125 62.2219 197.221 61.9899 197.392 61.8189C197.563 61.6478 197.795 61.5518 198.037 61.5518C198.279 61.5518 198.511 61.6478 198.682 61.8189C198.853 61.9899 198.949 62.2219 198.949 62.4637V64.8409C198.949 64.9583 198.926 65.0745 198.881 65.1829C198.836 65.2914 198.77 65.3899 198.687 65.4729C198.604 65.5559 198.506 65.6217 198.397 65.6666C198.289 65.7115 198.173 65.7346 198.055 65.7346L197.848 65.7286ZM198.073 62.2266C198.038 62.2205 198.001 62.2221 197.966 62.2314C197.932 62.2408 197.899 62.2576 197.871 62.2807C197.844 62.3039 197.821 62.3328 197.806 62.3654C197.79 62.3981 197.782 62.4337 197.782 62.4698V64.847C197.782 64.8797 197.788 64.9122 197.801 64.9424C197.813 64.9726 197.831 65.0001 197.855 65.0233C197.878 65.0464 197.905 65.0648 197.936 65.0773C197.966 65.0898 197.998 65.0963 198.031 65.0963C198.064 65.0966 198.096 65.0903 198.126 65.0778C198.157 65.0653 198.184 65.0467 198.207 65.0233C198.231 65.0008 198.25 64.9734 198.263 64.943C198.275 64.9126 198.281 64.8799 198.28 64.847V62.4698C198.28 62.4115 198.259 62.3552 198.221 62.3108C198.183 62.2664 198.131 62.2366 198.073 62.2266Z" fill="white"/>
<path d="M136.692 131.123C136.53 131.124 136.371 131.08 136.232 130.998C136.093 130.916 135.979 130.797 135.901 130.655L129.408 118.817C129.255 118.552 129.117 118.278 128.995 117.996C128.958 117.935 128.928 117.87 128.904 117.802C128.562 116.837 128.38 115.822 128.363 114.799C128.332 113.684 128.526 112.574 128.932 111.536C129.338 110.497 129.947 109.55 130.725 108.751C131.503 107.952 132.433 107.317 133.461 106.883C134.488 106.449 135.592 106.226 136.707 106.226C137.822 106.226 138.926 106.449 139.953 106.883C140.981 107.317 141.911 107.952 142.689 108.751C143.467 109.55 144.076 110.497 144.482 111.536C144.888 112.574 145.082 113.684 145.052 114.799C145.041 115.793 144.866 116.779 144.535 117.717C144.509 117.856 144.45 117.987 144.365 118.1C144.275 118.291 144.176 118.478 144.067 118.659L143.982 118.805L137.494 130.655C137.418 130.797 137.304 130.916 137.164 130.999C137.025 131.081 136.866 131.124 136.704 131.123H136.692Z" fill="#D2D8DD"/>
<path d="M136.607 117.881C135.92 117.882 135.248 117.68 134.676 117.299C134.105 116.918 133.659 116.376 133.395 115.742C133.131 115.108 133.062 114.41 133.195 113.736C133.328 113.062 133.658 112.443 134.144 111.957C134.629 111.471 135.248 111.139 135.921 111.005C136.595 110.871 137.293 110.939 137.928 111.202C138.562 111.464 139.105 111.909 139.487 112.48C139.868 113.051 140.072 113.723 140.072 114.409C140.072 115.329 139.707 116.211 139.057 116.862C138.408 117.513 137.526 117.879 136.607 117.881Z" fill="white"/>
<path d="M37.3785 84.9286C37.1532 84.9271 36.9324 84.8654 36.7389 84.75C36.5455 84.6345 36.3863 84.4695 36.278 84.2719L27.2435 67.8139C27.0199 67.4445 26.8169 67.0629 26.6355 66.671C26.5843 66.587 26.5434 66.4972 26.5139 66.4034C26.0332 65.0602 25.7765 63.6471 25.7539 62.2206C25.7539 59.1408 26.9774 56.1871 29.1551 54.0094C31.3329 51.8316 34.2865 50.6082 37.3663 50.6082C40.4461 50.6082 43.3998 51.8316 45.5775 54.0094C47.7553 56.1871 48.9787 59.1408 48.9787 62.2206C48.9647 63.606 48.7245 64.9799 48.2674 66.2879C48.2291 66.478 48.148 66.6568 48.0303 66.8108C47.8965 67.1087 47.7506 67.3519 47.6168 67.5951L47.4952 67.8018L38.485 84.2719C38.3747 84.4691 38.2143 84.6337 38.02 84.749C37.8257 84.8643 37.6044 84.9262 37.3785 84.9286Z" fill="#D2D8DD"/>
<path d="M37.257 66.4885C36.3015 66.491 35.3667 66.2097 34.5711 65.6805C33.7755 65.1513 33.1549 64.3978 32.7878 63.5156C32.4208 62.6334 32.3238 61.662 32.5092 60.7247C32.6946 59.7873 33.154 58.926 33.8292 58.2499C34.5045 57.5738 35.3652 57.1133 36.3023 56.9268C37.2395 56.7402 38.2109 56.8359 39.0936 57.2019C39.9763 57.5678 40.7305 58.1875 41.2607 58.9824C41.791 59.7773 42.0734 60.7117 42.0722 61.6673C42.0706 62.9444 41.5629 64.1689 40.6604 65.0725C39.7579 65.9762 38.5341 66.4853 37.257 66.4885Z" fill="white"/>
<path d="M37.7008 156.725C36.8098 156.725 35.9388 156.461 35.1979 155.966C34.457 155.47 33.8796 154.767 33.5386 153.944C33.1976 153.12 33.1084 152.215 33.2822 151.341C33.4561 150.467 33.8851 149.664 34.5152 149.034C35.1452 148.404 35.948 147.975 36.8219 147.801C37.6958 147.627 38.6016 147.716 39.4248 148.057C40.2481 148.398 40.9517 148.976 41.4467 149.717C41.9417 150.458 42.2059 151.329 42.2059 152.22C42.2059 153.414 41.7313 154.56 40.8864 155.405C40.0416 156.25 38.8956 156.725 37.7008 156.725ZM37.7008 149.964C37.2547 149.964 36.8186 150.096 36.4477 150.344C36.0767 150.592 35.7876 150.944 35.6169 151.356C35.4462 151.769 35.4015 152.222 35.4885 152.66C35.5756 153.097 35.7904 153.499 36.1059 153.815C36.4213 154.13 36.8232 154.345 37.2608 154.432C37.6983 154.519 38.1518 154.474 38.564 154.304C38.9761 154.133 39.3284 153.844 39.5763 153.473C39.8241 153.102 39.9564 152.666 39.9564 152.22C39.9564 151.923 39.8981 151.63 39.7847 151.356C39.6714 151.083 39.5052 150.834 39.2958 150.625C39.0863 150.415 38.8376 150.249 38.564 150.136C38.2903 150.022 37.997 149.964 37.7008 149.964Z" fill="#D2D8DD"/>
<path d="M51.4167 28.4778H30.9279V4.94897H51.4167V28.4778ZM33.1774 26.2282H49.1672V7.19849H33.1774V26.2282Z" fill="#D2D8DD"/>
<path d="M55.6727 32.7336H41.1724C40.8741 32.7336 40.588 32.6151 40.3771 32.4042C40.1661 32.1932 40.0476 31.9072 40.0476 31.6088C40.0476 31.3105 40.1661 31.0245 40.3771 30.8135C40.588 30.6026 40.8741 30.4841 41.1724 30.4841H53.4231V15.1934C53.4231 14.8951 53.5416 14.609 53.7526 14.3981C53.9635 14.1872 54.2496 14.0687 54.5479 14.0687C54.8462 14.0687 55.1323 14.1872 55.3432 14.3981C55.5542 14.609 55.6727 14.8951 55.6727 15.1934V32.7336Z" fill="#D2D8DD"/>
<path d="M45.4282 14.4942H36.9165C36.6182 14.4942 36.3321 14.3757 36.1212 14.1648C35.9103 13.9538 35.7917 13.6677 35.7917 13.3694C35.7917 13.0711 35.9103 12.7851 36.1212 12.5741C36.3321 12.3632 36.6182 12.2447 36.9165 12.2447H45.4282C45.5759 12.2447 45.7222 12.2738 45.8586 12.3303C45.9951 12.3868 46.1191 12.4697 46.2235 12.5741C46.328 12.6786 46.4108 12.8026 46.4674 12.939C46.5239 13.0755 46.553 13.2217 46.553 13.3694C46.553 13.5172 46.5239 13.6634 46.4674 13.7999C46.4108 13.9363 46.328 14.0603 46.2235 14.1648C46.1191 14.2692 45.9951 14.3521 45.8586 14.4086C45.7222 14.4651 45.5759 14.4942 45.4282 14.4942Z" fill="#D2D8DD"/>
<path d="M41.1723 19.358H37.5244C37.2261 19.358 36.94 19.2395 36.7291 19.0286C36.5182 18.8177 36.3997 18.5316 36.3997 18.2333C36.3997 17.935 36.5182 17.6489 36.7291 17.4379C36.94 17.227 37.2261 17.1085 37.5244 17.1085H41.1723C41.4706 17.1085 41.7567 17.227 41.9676 17.4379C42.1785 17.6489 42.2971 17.935 42.2971 18.2333C42.2971 18.5316 42.1785 18.8177 41.9676 19.0286C41.7567 19.2395 41.4706 19.358 41.1723 19.358Z" fill="#D2D8DD"/>
<path d="M166.896 177.949L160.628 171.711L166.878 165.455L173.152 171.711L166.896 177.949ZM163.856 171.693L166.896 174.733L169.973 171.693L166.896 168.617L163.856 171.693Z" fill="#D2D8DD"/>
<path d="M19.8931 128.794C19.5948 128.794 19.3087 128.676 19.0978 128.465C18.8868 128.254 18.7683 127.968 18.7683 127.669V114.902C18.7683 114.604 18.8868 114.318 19.0978 114.107C19.3087 113.896 19.5948 113.777 19.8931 113.777C20.1914 113.777 20.4775 113.896 20.6884 114.107C20.8993 114.318 21.0178 114.604 21.0178 114.902V127.669C21.0178 127.968 20.8993 128.254 20.6884 128.465C20.4775 128.676 20.1914 128.794 19.8931 128.794Z" fill="#D2D8DD"/>
<path d="M220.526 78.94C220.228 78.94 219.942 78.8215 219.731 78.6105C219.52 78.3996 219.401 78.1135 219.401 77.8152V66.8716C219.401 66.5733 219.52 66.2872 219.731 66.0763C219.942 65.8653 220.228 65.7468 220.526 65.7468C220.824 65.7468 221.11 65.8653 221.321 66.0763C221.532 66.2872 221.651 66.5733 221.651 66.8716V77.8152C221.651 78.1135 221.532 78.3996 221.321 78.6105C221.11 78.8215 220.824 78.94 220.526 78.94Z" fill="#D2D8DD"/>
<path d="M8.94949 60.7006C8.65118 60.7006 8.36509 60.5821 8.15415 60.3712C7.94322 60.1602 7.82471 59.8741 7.82471 59.5758V48.0242C7.82471 47.7259 7.94322 47.4399 8.15415 47.2289C8.36509 47.018 8.65118 46.8995 8.94949 46.8995C9.2478 46.8995 9.53386 47.018 9.74479 47.2289C9.95572 47.4399 10.0742 47.7259 10.0742 48.0242V59.5758C10.0742 59.8741 9.95572 60.1602 9.74479 60.3712C9.53386 60.5821 9.2478 60.7006 8.94949 60.7006Z" fill="#F0874A"/>
<path d="M15.6129 51.0155C15.4652 51.0155 15.3189 50.9864 15.1825 50.9299C15.046 50.8734 14.922 50.7905 14.8176 50.6861C14.7131 50.5816 14.6303 50.4576 14.5738 50.3212C14.5172 50.1847 14.4881 50.0385 14.4881 49.8907V38.4182L8.94946 32.2837V17.6922C8.94946 17.3939 9.06794 17.1078 9.27887 16.8969C9.4898 16.6859 9.7759 16.5674 10.0742 16.5674C10.3725 16.5674 10.6586 16.6859 10.8695 16.8969C11.0805 17.1078 11.199 17.3939 11.199 17.6922V31.4264L16.7377 37.5609V49.9029C16.7345 50.1991 16.6145 50.4821 16.404 50.6904C16.1934 50.8987 15.9091 51.0155 15.6129 51.0155Z" fill="#F0874A"/>
<path d="M4.55371 22.1487L5.54472 23.0728L10.0742 18.1968L14.6036 23.0728L15.5946 22.1487L10.0742 16.2148L4.55371 22.1487Z" fill="#F0874A"/>
<path d="M140.346 48.4498C140.4 48.6904 140.52 48.9107 140.694 49.0856C140.868 49.2604 141.088 49.3825 141.328 49.4378C141.568 49.4932 141.819 49.4795 142.052 49.3984C142.284 49.3172 142.489 49.1719 142.643 48.9792C142.797 48.7865 142.893 48.5543 142.92 48.3094C142.948 48.0644 142.905 47.8167 142.798 47.5948C142.691 47.3729 142.523 47.1859 142.314 47.0554C142.105 46.9248 141.863 46.856 141.616 46.8569C141.238 46.9027 140.893 47.0954 140.655 47.3933C140.417 47.6913 140.306 48.0707 140.346 48.4498Z" fill="#D2D8DD"/>
<path d="M148.335 48.4498C148.389 48.6901 148.509 48.9103 148.683 49.085C148.856 49.2598 149.075 49.3819 149.315 49.4375C149.555 49.4931 149.806 49.4798 150.038 49.3991C150.271 49.3185 150.476 49.1737 150.63 48.9816C150.784 48.7895 150.881 48.5578 150.909 48.3131C150.937 48.0685 150.895 47.821 150.789 47.5989C150.682 47.3769 150.515 47.1895 150.307 47.0582C150.099 46.9269 149.858 46.8572 149.611 46.8569C149.233 46.9028 148.887 47.0952 148.648 47.3929C148.409 47.6907 148.297 48.0701 148.335 48.4498Z" fill="#D2D8DD"/>
<path d="M149.393 59.4846H141.489C141.19 59.4846 140.904 59.3661 140.693 59.1552C140.483 58.9443 140.364 58.6582 140.364 58.3599C140.364 58.0616 140.483 57.7755 140.693 57.5646C140.904 57.3536 141.19 57.2351 141.489 57.2351H149.393C149.691 57.2351 149.977 57.3536 150.188 57.5646C150.399 57.7755 150.517 58.0616 150.517 58.3599C150.517 58.6582 150.399 58.9443 150.188 59.1552C149.977 59.3661 149.691 59.4846 149.393 59.4846Z" fill="#D2D8DD"/>
<path d="M140.346 58.6578C140.4 58.8983 140.52 59.1187 140.694 59.2935C140.868 59.4683 141.088 59.5905 141.328 59.6458C141.568 59.7012 141.819 59.6875 142.052 59.6063C142.284 59.5252 142.489 59.3799 142.643 59.1872C142.797 58.9945 142.893 58.7623 142.92 58.5173C142.948 58.2724 142.905 58.0247 142.798 57.8028C142.691 57.5809 142.523 57.3939 142.314 57.2633C142.105 57.1328 141.863 57.064 141.616 57.0649C141.238 57.1107 140.893 57.3033 140.655 57.6013C140.417 57.8993 140.306 58.2787 140.346 58.6578Z" fill="#D2D8DD"/>
<path d="M148.335 58.6578C148.389 58.8981 148.509 59.1182 148.683 59.293C148.856 59.4677 149.075 59.5899 149.315 59.6455C149.555 59.701 149.806 59.6877 150.038 59.6071C150.271 59.5264 150.476 59.3817 150.63 59.1896C150.784 58.9974 150.881 58.7657 150.909 58.5211C150.937 58.2765 150.895 58.0289 150.789 57.8069C150.682 57.5849 150.515 57.3974 150.307 57.2662C150.099 57.1349 149.858 57.0651 149.611 57.0649C149.233 57.1107 148.887 57.3031 148.648 57.6009C148.409 57.8986 148.297 58.2781 148.335 58.6578Z" fill="#D2D8DD"/>
<path d="M149.393 69.8203H141.489C141.19 69.8203 140.904 69.7018 140.693 69.4908C140.483 69.2799 140.364 68.9938 140.364 68.6955C140.364 68.3972 140.483 68.1111 140.693 67.9002C140.904 67.6893 141.19 67.5707 141.489 67.5707H149.393C149.691 67.5707 149.977 67.6893 150.188 67.9002C150.399 68.1111 150.517 68.3972 150.517 68.6955C150.517 68.9938 150.399 69.2799 150.188 69.4908C149.977 69.7018 149.691 69.8203 149.393 69.8203Z" fill="#D2D8DD"/>
<path d="M140.346 68.8779C140.4 69.1184 140.52 69.3388 140.694 69.5136C140.868 69.6884 141.088 69.8106 141.328 69.8659C141.568 69.9213 141.819 69.9076 142.052 69.8264C142.284 69.7453 142.489 69.6 142.643 69.4073C142.797 69.2146 142.893 68.9824 142.92 68.7374C142.948 68.4925 142.905 68.2448 142.798 68.0229C142.691 67.801 142.523 67.614 142.314 67.4834C142.105 67.3529 141.863 67.2841 141.616 67.285C141.238 67.3308 140.893 67.5234 140.655 67.8214C140.417 68.1194 140.306 68.4988 140.346 68.8779Z" fill="#D2D8DD"/>
<path d="M148.335 68.8779C148.389 69.1181 148.509 69.3383 148.683 69.5131C148.856 69.6878 149.075 69.81 149.315 69.8656C149.555 69.9211 149.806 69.9078 150.038 69.8272C150.271 69.7465 150.476 69.6018 150.63 69.4097C150.784 69.2175 150.881 68.9858 150.909 68.7412C150.937 68.4966 150.895 68.249 150.789 68.027C150.682 67.805 150.515 67.6175 150.307 67.4862C150.099 67.355 149.858 67.2852 149.611 67.285C149.233 67.3308 148.887 67.5232 148.648 67.821C148.409 68.1187 148.297 68.4981 148.335 68.8779Z" fill="#D2D8DD"/>
<path d="M149.393 80.1559H141.489C141.19 80.1559 140.904 80.0374 140.693 79.8265C140.483 79.6155 140.364 79.3294 140.364 79.0311C140.364 78.7328 140.483 78.4468 140.693 78.2358C140.904 78.0249 141.19 77.9064 141.489 77.9064H149.393C149.691 77.9064 149.977 78.0249 150.188 78.2358C150.399 78.4468 150.517 78.7328 150.517 79.0311C150.517 79.3294 150.399 79.6155 150.188 79.8265C149.977 80.0374 149.691 80.1559 149.393 80.1559Z" fill="#D2D8DD"/>
<path d="M140.346 79.0858C140.4 79.3263 140.52 79.5467 140.694 79.7215C140.868 79.8964 141.088 80.0185 141.328 80.0738C141.568 80.1292 141.819 80.1155 142.052 80.0343C142.284 79.9532 142.489 79.8079 142.643 79.6152C142.797 79.4225 142.893 79.1903 142.92 78.9454C142.948 78.7004 142.905 78.4527 142.798 78.2308C142.691 78.0089 142.523 77.8219 142.314 77.6914C142.105 77.5608 141.863 77.492 141.616 77.4929C141.238 77.5387 140.893 77.7314 140.655 78.0293C140.417 78.3273 140.306 78.7067 140.346 79.0858Z" fill="#D2D8DD"/>
<path d="M148.335 79.0858C148.389 79.3261 148.509 79.5463 148.683 79.721C148.856 79.8958 149.075 80.0179 149.315 80.0735C149.555 80.1291 149.806 80.1158 150.038 80.0351C150.271 79.9544 150.476 79.8097 150.63 79.6176C150.784 79.4255 150.881 79.1937 150.909 78.9491C150.937 78.7045 150.895 78.457 150.789 78.2349C150.682 78.0129 150.515 77.8255 150.307 77.6942C150.099 77.5629 149.858 77.4931 149.611 77.4929C149.233 77.5387 148.887 77.7312 148.648 78.0289C148.409 78.3267 148.297 78.7061 148.335 79.0858Z" fill="#D2D8DD"/>
<path d="M143.118 173.973L132.704 170.234L132.077 146.426H120.617L112.701 137.804L119.298 127.919L117.516 116.428L119.735 116.081L121.657 128.436L115.552 137.586L121.608 144.176H134.272L134.917 168.641L142.273 171.28L147.97 163.315L149.885 149.253L161.85 137.294L161.163 128.369H172.94L173.554 136.303L177.129 135.397L184.485 130.041L189.428 132.497L190.48 139.306L193.386 136.795L201.284 130.655L201.952 120.465H206.944L210.209 116.756L211.498 109.813L216.428 105.588L221.049 104.268L227.913 101.405V96.8997L204.402 96.2856L197.982 89.2209L193.647 88.4001L194.067 86.1932L199.143 87.1538L205.424 94.0604L230.163 94.711V102.907L221.73 106.408L217.523 107.612L213.565 111.005L212.312 117.778L207.959 122.714H204.062L203.46 131.81L194.809 138.534L188.875 143.665L187.385 133.992L184.71 132.661L178.101 137.47L171.517 139.142L170.86 130.618H163.595L164.173 138.157L152.013 150.305L150.122 164.166L143.118 173.973Z" fill="#6D757D"/>
<path d="M200.56 177.943L192.735 168.161L184.88 169.146L180.557 158.336L185.889 147.666L195.708 148.651L199.532 145.392L203.265 147.824L203.819 152.214L213.619 163.978L213.242 164.653C213.042 165.012 208.251 173.541 201.393 177.463L200.56 177.943ZM193.702 165.784L201.095 175.025C205.959 171.876 209.71 166.167 210.89 164.233L201.666 153.162L201.168 149.162L199.715 148.219L196.438 151.01L187.209 150.086L183.026 158.464L186.321 166.708L193.702 165.784Z" fill="#F0874A"/>
<path d="M83.2749 191.775L77.0066 188.2L75.7907 165.522L67.206 159.655L60.275 141.659L76.4594 135.306L102.748 151.928L102.14 158.482L99.2221 166.805L92.9052 169.626L87.1963 178.399L86.5032 182.503L87.3848 185.598L83.2749 191.775ZM79.1892 186.856L82.5635 188.783L84.9346 185.227L84.199 182.655L85.0562 177.591L91.3792 167.863L97.3982 165.145L99.9092 158.014L100.353 153.107L76.1858 137.829L63.1447 142.948L69.0238 158.202L77.949 164.282L79.1892 186.856Z" fill="#F0874A"/>
<path d="M57.0466 136.4L45.6592 134.813L32.7518 122.423V113.722L29.2438 109.497L17.8807 94.6987L11.2841 94.1333L2.94263 93.6956L0 87.324L3.03989 77.2619L11.0166 77.6206L14.7192 72.6838C14.8078 72.5641 14.9191 72.4629 15.0468 72.3862C15.1745 72.3095 15.3161 72.2587 15.4635 72.2366C15.6108 72.2146 15.7611 72.2218 15.9056 72.2579C16.0502 72.2939 16.1862 72.3581 16.306 72.4467C16.4258 72.5354 16.5269 72.6467 16.6036 72.7744C16.6804 72.9021 16.7312 73.0437 16.7532 73.191C16.7752 73.3384 16.768 73.4886 16.732 73.6332C16.6959 73.7777 16.6317 73.9138 16.5431 74.0335L12.1231 79.9066L4.70575 79.5722L2.40152 87.1476L4.41393 91.5129L11.4361 91.8777L19.0602 92.5343L31.0008 108.08L35.0013 112.902V121.45L46.6867 132.673L54.8397 133.822L55.0403 124.782L63.9837 121.784L69.8507 125.031L72.9574 123.991L98.4925 111.625L100.797 102.438C100.869 102.149 101.054 101.9 101.31 101.747C101.566 101.593 101.872 101.548 102.162 101.621C102.451 101.693 102.7 101.878 102.853 102.134C103.007 102.39 103.052 102.696 102.979 102.985L100.438 113.193L73.7539 126.113L69.6439 127.487L63.7709 124.246L57.2716 126.411L57.0466 136.4Z" fill="#6D757D"/>
</svg>
