<svg width="27" height="31" viewBox="0 0 27 31" fill="none" xmlns="http://www.w3.org/2000/svg">
<path d="M13.4113 0.875C6.22875 0.875 0.411255 3.78375 0.411255 7.375C0.411255 10.9663 6.22875 13.875 13.4113 13.875C20.5938 13.875 26.4113 10.9663 26.4113 7.375C26.4113 3.78375 20.5938 0.875 13.4113 0.875ZM0.411255 10.625V15.5C0.411255 19.0912 6.22875 22 13.4113 22C20.5938 22 26.4113 19.0912 26.4113 15.5V10.625C26.4113 14.2163 20.5938 17.125 13.4113 17.125C6.22875 17.125 0.411255 14.2163 0.411255 10.625ZM0.411255 18.75V23.625C0.411255 27.2162 6.22875 30.125 13.4113 30.125C20.5938 30.125 26.4113 27.2162 26.4113 23.625V18.75C26.4113 22.3412 20.5938 25.25 13.4113 25.25C6.22875 25.25 0.411255 22.3412 0.411255 18.75Z" fill="#D2D8DD"/>
</svg>
