<svg viewBox="0 0 72 96" fill="none" xmlns="http://www.w3.org/2000/svg">
<path d="M0 2V94C0 95.1 0.9 96 2 96H70C71.1 96 72 95.1 72 94V28H50C48.9 28 48 27.1 48 26V0H2C0.9 0 0 0.9 0 2Z" fill="#FF6600"/>
<path d="M12.686 14.33L12.371 13.07C12.189 12.384 12.007 11.656 11.825 10.886C11.643 10.116 11.461 9.374 11.279 8.66H11.195C11.027 9.388 10.852 10.137 10.67 10.907C10.488 11.663 10.306 12.384 10.124 13.07L9.809 14.33H12.686ZM13.316 16.745H9.179L8.339 20H5.189L9.452 6.308H13.148L17.411 20H14.135L13.316 16.745ZM18.9568 6.308H22.0438L23.4298 11.159L23.8918 13.049H23.9548L24.4168 11.159L25.7398 6.308H28.8268V20H26.3278V15.527C26.3278 15.149 26.3418 14.687 26.3698 14.141C26.3978 13.581 26.4328 13.007 26.4748 12.419C26.5168 11.831 26.5588 11.264 26.6008 10.718C26.6428 10.158 26.6848 9.696 26.7268 9.332H26.6638L25.5928 13.091L24.5428 16.346H23.1778L22.1278 13.091L21.0988 9.332H21.0148C21.0568 9.696 21.0988 10.158 21.1408 10.718C21.1828 11.264 21.2248 11.831 21.2668 12.419C21.3088 13.007 21.3438 13.581 21.3718 14.141C21.3998 14.687 21.4138 15.149 21.4138 15.527V20H18.9568V6.308ZM30.4986 6.308H33.7746L35.4126 12.692C35.6226 13.448 35.8046 14.183 35.9586 14.897C36.1266 15.597 36.3086 16.325 36.5046 17.081H36.5886C36.7986 16.325 36.9876 15.597 37.1556 14.897C37.3236 14.183 37.5056 13.448 37.7016 12.692L39.3186 6.308H42.4686L38.3526 20H34.6356L30.4986 6.308Z" fill="white"/>
<path d="M71.9 24C71.8 23.6 71.7 23.2999 71.5 23L52 1.19995V24H71.9Z" fill="#FF6600"/>
<path d="M6 41H66V90H6V41Z" fill="white"/>
<path d="M13 83.1H59V47.9H13V83.1ZM21.9 80.4H16.4V76.5H21.9V80.4ZM38.8 80.4H33.3V76.5H38.8V80.4ZM50.1 50.3H55.6V54.3H50.1V50.3ZM50.1 76.4H55.6V80.3H50.1V76.4ZM41.6 50.3H47V54.2H41.5V50.3H41.6ZM41.6 76.4H47V80.3H41.5L41.6 76.4ZM33.2 50.3H38.7V54.2H33.2V50.3ZM32.4 60L39.6 64.1C40.9 64.9 40.9 66.1 39.6 66.9L32.4 71C31.1 71.8 30 71.1 30 69.6V61.3C30 59.9 31.1 59.2 32.4 60ZM24.7 50.3H30.1V54.2H24.7V50.3ZM24.7 76.4H30.1V80.3H24.7V76.4ZM16.4 50.3H21.9V54.3H16.4V50.3Z" fill="#FF6600"/>
</svg>
