<svg viewBox="0 0 72 96" fill="none" xmlns="http://www.w3.org/2000/svg">
<g clip-path="url(#clip0_4051_70779)">
<path d="M0 2V94C0 94.5304 0.210714 95.0391 0.585786 95.4142C0.960859 95.7893 1.46957 96 2 96H70C70.5304 96 71.0391 95.7893 71.4142 95.4142C71.7893 95.0391 72 94.5304 72 94V28H50C49.4696 28 48.9609 27.7893 48.5858 27.4142C48.2107 27.0391 48 26.5304 48 26V0H2C1.46957 0 0.960859 0.210714 0.585786 0.585786C0.210714 0.960859 0 1.46957 0 2H0Z" fill="#336699"/>
<path d="M71.9 24C71.8281 23.6452 71.6926 23.3064 71.5 23L52 1.19995V24H71.9Z" fill="#336699"/>
<path d="M6 41H66V90H6V41Z" fill="white"/>
<path d="M6.365 9.308H10.082C11.076 9.308 11.979 9.441 12.791 9.707C13.603 9.973 14.296 10.386 14.87 10.946C15.444 11.492 15.885 12.192 16.193 13.046C16.515 13.9 16.676 14.915 16.676 16.091C16.676 17.267 16.515 18.289 16.193 19.157C15.885 20.025 15.444 20.746 14.87 21.32C14.31 21.88 13.638 22.3 12.854 22.58C12.07 22.86 11.202 23 10.25 23H6.365V9.308ZM9.914 20.501C10.446 20.501 10.929 20.424 11.363 20.27C11.811 20.116 12.189 19.871 12.497 19.535C12.819 19.185 13.064 18.73 13.232 18.17C13.414 17.61 13.505 16.917 13.505 16.091C13.505 15.279 13.414 14.6 13.232 14.054C13.064 13.494 12.819 13.053 12.497 12.731C12.189 12.395 11.811 12.157 11.363 12.017C10.929 11.877 10.446 11.807 9.914 11.807H9.473V20.501H9.914ZM18.7468 16.238C18.7468 15.104 18.9148 14.096 19.2508 13.214C19.5868 12.318 20.0488 11.562 20.6368 10.946C21.2248 10.33 21.9178 9.861 22.7158 9.539C23.5138 9.217 24.3678 9.056 25.2778 9.056C26.1598 9.056 26.9368 9.238 27.6088 9.602C28.2948 9.952 28.8688 10.351 29.3308 10.799L27.6298 12.71C27.3078 12.416 26.9578 12.178 26.5798 11.996C26.2018 11.814 25.7678 11.723 25.2778 11.723C24.7878 11.723 24.3398 11.828 23.9338 12.038C23.5278 12.234 23.1708 12.521 22.8628 12.899C22.5688 13.277 22.3378 13.739 22.1698 14.285C22.0018 14.831 21.9178 15.447 21.9178 16.133C21.9178 17.547 22.2398 18.646 22.8838 19.43C23.5278 20.2 24.3678 20.585 25.4038 20.585C25.8938 20.585 26.3348 20.473 26.7268 20.249C27.1328 20.025 27.5038 19.731 27.8398 19.367L29.5408 21.236C28.3928 22.58 26.9508 23.252 25.2148 23.252C24.3328 23.252 23.4998 23.105 22.7158 22.811C21.9318 22.503 21.2458 22.055 20.6578 21.467C20.0698 20.879 19.6008 20.151 19.2508 19.283C18.9148 18.401 18.7468 17.386 18.7468 16.238ZM34.5516 15.965L30.7926 9.308H34.2576L35.5806 11.891C35.7346 12.213 35.8956 12.556 36.0636 12.92C36.2316 13.27 36.4206 13.662 36.6306 14.096H36.7146C36.8826 13.662 37.0366 13.27 37.1766 12.92C37.3306 12.556 37.4846 12.213 37.6386 11.891L38.8566 9.308H42.1746L38.4156 16.112L42.4056 23H38.9616L37.4706 20.207C37.2746 19.843 37.0926 19.486 36.9246 19.136C36.7566 18.772 36.5746 18.38 36.3786 17.96H36.2946C36.1266 18.38 35.9586 18.772 35.7906 19.136C35.6226 19.486 35.4546 19.843 35.2866 20.207L33.8586 23H30.5616L34.5516 15.965Z" fill="white"/>
<path d="M42.6668 48H31.3335C29.7752 48 28.5002 49.275 28.5002 50.8333V73.5C28.5002 75.0583 29.7752 76.3333 31.3335 76.3333H48.3335C49.8918 76.3333 51.1668 75.0583 51.1668 73.5V56.5L42.6668 48ZM48.3335 73.5H31.3335V50.8333H41.2502V57.9167H48.3335V73.5ZM25.6668 53.6667V79.1667H48.3335V82H25.6668C24.1085 82 22.8335 80.725 22.8335 79.1667V53.6667H25.6668ZM34.1668 62.1667V65H45.5002V62.1667H34.1668ZM34.1668 67.8333V70.6667H41.2502V67.8333H34.1668Z" fill="#336699"/>
</g>
<defs>
<clipPath id="clip0_4051_70779">
<rect width="72" height="96" fill="white"/>
</clipPath>
</defs>
</svg>
