<svg viewBox="0 0 72 96" fill="none" xmlns="http://www.w3.org/2000/svg">
<g clip-path="url(#clip0_4051_70774)">
<path d="M0 2V94C0 94.5304 0.210714 95.0391 0.585786 95.4142C0.960859 95.7893 1.46957 96 2 96H70C70.5304 96 71.0391 95.7893 71.4142 95.4142C71.7893 95.0391 72 94.5304 72 94V28H50C49.4696 28 48.9609 27.7893 48.5858 27.4142C48.2107 27.0391 48 26.5304 48 26V0H2C1.46957 0 0.960859 0.210714 0.585786 0.585786C0.210714 0.960859 0 1.46957 0 2H0Z" fill="#336699"/>
<path d="M71.9 24C71.8281 23.6452 71.6926 23.3064 71.5 23L52 1.19995V24H71.9Z" fill="#336699"/>
<path d="M6 41H66V90H6V41Z" fill="white"/>
<path d="M6.365 9.308H10.082C11.076 9.308 11.979 9.441 12.791 9.707C13.603 9.973 14.296 10.386 14.87 10.946C15.444 11.492 15.885 12.192 16.193 13.046C16.515 13.9 16.676 14.915 16.676 16.091C16.676 17.267 16.515 18.289 16.193 19.157C15.885 20.025 15.444 20.746 14.87 21.32C14.31 21.88 13.638 22.3 12.854 22.58C12.07 22.86 11.202 23 10.25 23H6.365V9.308ZM9.914 20.501C10.446 20.501 10.929 20.424 11.363 20.27C11.811 20.116 12.189 19.871 12.497 19.535C12.819 19.185 13.064 18.73 13.232 18.17C13.414 17.61 13.505 16.917 13.505 16.091C13.505 15.279 13.414 14.6 13.232 14.054C13.064 13.494 12.819 13.053 12.497 12.731C12.189 12.395 11.811 12.157 11.363 12.017C10.929 11.877 10.446 11.807 9.914 11.807H9.473V20.501H9.914ZM17.6758 9.308H20.8258L21.2668 16.595C21.2808 17.183 21.2948 17.764 21.3088 18.338C21.3228 18.912 21.3368 19.493 21.3508 20.081H21.4138C21.5258 19.493 21.6448 18.912 21.7708 18.338C21.9108 17.764 22.0368 17.183 22.1488 16.595L23.0938 12.794H24.9628L25.8658 16.595C25.9778 17.155 26.0968 17.729 26.2228 18.317C26.3488 18.905 26.4678 19.493 26.5798 20.081H26.6638C26.6918 19.493 26.7058 18.912 26.7058 18.338C26.7198 17.75 26.7408 17.169 26.7688 16.595L27.1678 9.308H30.1078L28.4068 23H25.1728L24.3118 18.695C24.2278 18.261 24.1508 17.82 24.0808 17.372C24.0108 16.91 23.9618 16.476 23.9338 16.07H23.8708C23.8288 16.476 23.7728 16.91 23.7028 17.372C23.6468 17.82 23.5768 18.261 23.4928 18.695L22.6738 23H19.5028L17.6758 9.308ZM32.4516 9.308H41.4816V11.912H35.5386V15.083H40.5996V17.687H35.5386V23H32.4516V9.308Z" fill="white"/>
<g clip-path="url(#clip1_4051_70774)">
<path d="M52.3299 65.55C52.0908 65.448 51.8213 65.4431 51.5786 65.5365C51.3359 65.6298 51.1391 65.814 51.0299 66.05C49.8878 68.5737 48.135 70.7733 45.9299 72.45L39.2299 58.85C39.7383 58.4428 40.1467 57.9248 40.4241 57.3355C40.7014 56.7462 40.8402 56.1012 40.8299 55.45C40.8283 54.4405 40.4797 53.4623 39.8424 52.6794C39.2052 51.8965 38.3181 51.3565 37.3299 51.15V47.75C37.3299 47.4848 37.2246 47.2304 37.0371 47.0429C36.8495 46.8554 36.5952 46.75 36.3299 46.75C36.0647 46.75 35.8104 46.8554 35.6228 47.0429C35.4353 47.2304 35.3299 47.4848 35.3299 47.75V51.15C34.3418 51.3565 33.4547 51.8965 32.8175 52.6794C32.1802 53.4623 31.8315 54.4405 31.8299 55.45C31.8197 56.1012 31.9585 56.7462 32.2358 57.3355C32.5132 57.9248 32.9216 58.4428 33.4299 58.85L26.7299 72.45C24.5039 70.7948 22.7464 68.5894 21.6299 66.05C21.4987 65.8549 21.3028 65.7123 21.0768 65.6473C20.8508 65.5822 20.6091 65.5989 20.3942 65.6945C20.1792 65.79 20.0049 65.9582 19.9017 66.1695C19.7985 66.3809 19.7731 66.6218 19.8299 66.85C21.1357 69.7794 23.2088 72.3017 25.8299 74.15L21.8299 82.15C21.7315 82.3789 21.7177 82.6354 21.791 82.8735C21.8643 83.1117 22.0199 83.316 22.2299 83.45C22.3299 83.45 22.5299 83.55 22.6299 83.55C22.8078 83.5394 22.981 83.4889 23.1368 83.4024C23.2926 83.3158 23.4269 83.1954 23.5299 83.05L27.3299 75.25C29.9908 76.7236 32.9885 77.4816 36.0299 77.45C39.0654 77.4329 42.0512 76.6779 44.7299 75.25L48.5299 83.05C48.6151 83.2119 48.7456 83.3454 48.9054 83.4342C49.0653 83.523 49.2476 83.5632 49.4299 83.55C49.5709 83.565 49.7126 83.5295 49.8299 83.45C49.9503 83.4007 50.0582 83.3253 50.1459 83.2292C50.2337 83.1332 50.299 83.0189 50.3373 82.8946C50.3755 82.7702 50.3857 82.639 50.3672 82.5102C50.3486 82.3815 50.3017 82.2585 50.2299 82.15L46.3299 74.15C48.9511 72.3017 51.0242 69.7794 52.3299 66.85C52.9299 66.35 52.7299 65.75 52.3299 65.55ZM36.3299 52.95C36.8244 52.95 37.3078 53.0966 37.7189 53.3713C38.13 53.646 38.4504 54.0365 38.6396 54.4933C38.8289 54.9501 38.8784 55.4528 38.7819 55.9377C38.6854 56.4227 38.4473 56.8681 38.0977 57.2178C37.7481 57.5674 37.3026 57.8055 36.8177 57.902C36.3327 57.9984 35.8301 57.9489 35.3732 57.7597C34.9164 57.5705 34.526 57.2501 34.2513 56.8389C33.9766 56.4278 33.8299 55.9445 33.8299 55.45C33.8403 54.7902 34.107 54.1603 34.5736 53.6936C35.0402 53.227 35.6701 52.9603 36.3299 52.95ZM36.3299 75.55C33.6028 75.5522 30.9195 74.8641 28.5299 73.55L35.3299 59.85C35.6897 59.9374 36.0604 59.9711 36.4299 59.95C36.7994 59.9664 37.1695 59.9328 37.5299 59.85L44.3299 73.55C41.8643 74.854 39.1191 75.5403 36.3299 75.55Z" fill="#336699" stroke="#336699" stroke-width="1.5" stroke-miterlimit="10"/>
</g>
</g>
<defs>
<clipPath id="clip0_4051_70774">
<rect width="72" height="96" fill="white"/>
</clipPath>
<clipPath id="clip1_4051_70774">
<rect width="34.46" height="38.3" fill="white" transform="translate(19 46)"/>
</clipPath>
</defs>
</svg>
