<svg viewBox="0 0 72 96" fill="none" xmlns="http://www.w3.org/2000/svg">
<path d="M0 2V94C0 95.1 0.9 96 2 96H70C71.1 96 72 95.1 72 94V28H50C48.9 28 48 27.1 48 26V0H2C0.9 0 0 0.9 0 2Z" fill="#666666"/>
<path d="M6.974 9.308H16.004V11.912H10.061V14.663H15.101V17.246H10.061V20.396H16.214V23H6.974V9.308ZM18.9568 9.308H22.0438L23.4298 14.159L23.8918 16.049H23.9548L24.4168 14.159L25.7398 9.308H28.8268V23H26.3278V18.527C26.3278 18.149 26.3418 17.687 26.3698 17.141C26.3978 16.581 26.4328 16.007 26.4748 15.419C26.5168 14.831 26.5588 14.264 26.6008 13.718C26.6428 13.158 26.6848 12.696 26.7268 12.332H26.6638L25.5928 16.091L24.5428 19.346H23.1778L22.1278 16.091L21.0988 12.332H21.0148C21.0568 12.696 21.0988 13.158 21.1408 13.718C21.1828 14.264 21.2248 14.831 21.2668 15.419C21.3088 16.007 21.3438 16.581 21.3718 17.141C21.3998 17.687 21.4138 18.149 21.4138 18.527V23H18.9568V9.308ZM32.4306 9.308H35.5176V20.396H41.6076V23H32.4306V9.308Z" fill="white"/>
<path d="M71.9 24C71.8 23.6 71.7 23.2999 71.5 23L52 1.19995V24H71.9Z" fill="#666666"/>
<path d="M6 41H66V90H6V41Z" fill="white"/>
<path d="M14.6001 77.2H57.4001V83.4H14.6001V77.2ZM14.6001 62.4H57.4001V68.6H14.6001V62.4ZM14.6001 47.4H57.4001V53.6H14.6001V47.4Z" fill="#666666"/>
</svg>
