<svg viewBox="0 0 72 96" fill="none" xmlns="http://www.w3.org/2000/svg">
<path d="M0 2V94C0 95.1 0.9 96 2 96H70C71.1 96 72 95.1 72 94V28H50C48.9 28 48 27.1 48 26V0H2C0.9 0 0 0.9 0 2Z" fill="#003399"/>
<path d="M7.268 6.308H16.298V8.912H10.355V12.083H15.416V14.687H10.355V20H7.268V6.308ZM24.7528 14.456V12.209C24.7528 11.789 24.7598 11.306 24.7738 10.76C24.8018 10.2 24.8298 9.71 24.8578 9.29H24.7738C24.5498 9.668 24.3118 10.046 24.0598 10.424C23.8078 10.802 23.5628 11.18 23.3248 11.558L21.3088 14.456H24.7528ZM29.3098 16.808H27.6298V20H24.7528V16.808H18.3268V14.687L23.8918 6.665H27.6298V14.456H29.3098V16.808ZM31.9476 6.308H36.2316C36.9456 6.308 37.6036 6.364 38.2056 6.476C38.8216 6.574 39.3536 6.756 39.8016 7.022C40.2496 7.288 40.5996 7.638 40.8516 8.072C41.1176 8.506 41.2506 9.052 41.2506 9.71C41.2506 10.018 41.2016 10.326 41.1036 10.634C41.0196 10.942 40.8796 11.229 40.6836 11.495C40.4876 11.761 40.2426 11.999 39.9486 12.209C39.6546 12.419 39.3046 12.573 38.8986 12.671V12.755C39.8786 12.937 40.6206 13.287 41.1246 13.805C41.6286 14.323 41.8806 15.044 41.8806 15.968C41.8806 16.668 41.7476 17.27 41.4816 17.774C41.2156 18.278 40.8446 18.698 40.3686 19.034C39.8926 19.356 39.3326 19.601 38.6886 19.769C38.0586 19.923 37.3726 20 36.6306 20H31.9476V6.308ZM36.0846 11.831C36.8406 11.831 37.3866 11.684 37.7226 11.39C38.0586 11.082 38.2266 10.669 38.2266 10.151C38.2266 9.633 38.0516 9.262 37.7016 9.038C37.3656 8.814 36.8336 8.702 36.1056 8.702H35.0346V11.831H36.0846ZM36.3786 17.606C38.0306 17.606 38.8566 16.983 38.8566 15.737C38.8566 15.135 38.6536 14.701 38.2476 14.435C37.8556 14.155 37.2326 14.015 36.3786 14.015H35.0346V17.606H36.3786Z" fill="white"/>
<path d="M71.9 24C71.8 23.6 71.7 23.2999 71.5 23L52 1.19995V24H71.9Z" fill="#003399"/>
<path d="M6 41H66V90H6V41Z" fill="white"/>
<path d="M46.9999 66C43.8999 64.8 40.2999 66.3 38.9999 69.4C37.7999 72.5 39.2999 76.1 42.3999 77.4C42.9999 77.7 43.6999 77.8 44.3999 77.8C47.8999 77.9 50.7999 75.2 50.7999 71.8V47.9C50.5999 47.9 50.4999 48 50.2999 48C43.4999 49.9 36.7999 51.9 29.9999 53.8C29.3999 54 29.3999 54.3 29.3999 54.8V71.6C28.8999 71.4 28.6999 71.3 28.2999 71.2C25.7999 70.3 23.5999 70.8 21.7999 72.6C19.9999 74.3 19.4999 76.9 20.4999 79.2C21.7999 82.3 25.3999 83.8 28.4999 82.6C30.7999 81.6 32.2999 79.4 32.2999 76.9V61.3C32.2999 60.6 32.4999 60.4 33.1999 60.2C36.4999 59.3 39.7999 58.3 43.1999 57.4L47.9999 56V66.4C47.4999 66.2 47.2999 66.1 46.9999 66Z" fill="#003399"/>
</svg>
