<svg viewBox="0 0 72 96" fill="none" xmlns="http://www.w3.org/2000/svg">
<path d="M0 2V94C0 95.1 0.9 96 2 96H70C71.1 96 72 95.1 72 94V28H50C48.9 28 48 27.1 48 26V0H2C0.9 0 0 0.9 0 2Z" fill="#003399"/>
<path d="M7.268 6.308H16.298V8.912H10.355V12.083H15.416V14.687H10.355V20H7.268V6.308ZM24.7528 14.456V12.209C24.7528 11.789 24.7598 11.306 24.7738 10.76C24.8018 10.2 24.8298 9.71 24.8578 9.29H24.7738C24.5498 9.668 24.3118 10.046 24.0598 10.424C23.8078 10.802 23.5628 11.18 23.3248 11.558L21.3088 14.456H24.7528ZM29.3098 16.808H27.6298V20H24.7528V16.808H18.3268V14.687L23.8918 6.665H27.6298V14.456H29.3098V16.808ZM31.7376 6.308H36.7356C37.4776 6.308 38.1706 6.385 38.8146 6.539C39.4726 6.679 40.0396 6.924 40.5156 7.274C41.0056 7.61 41.3906 8.065 41.6706 8.639C41.9506 9.199 42.0906 9.892 42.0906 10.718C42.0906 11.516 41.9436 12.209 41.6496 12.797C41.3696 13.385 40.9846 13.868 40.4946 14.246C40.0046 14.624 39.4376 14.904 38.7936 15.086C38.1496 15.268 37.4636 15.359 36.7356 15.359H34.8246V20H31.7376V6.308ZM36.5466 12.902C38.2126 12.902 39.0456 12.174 39.0456 10.718C39.0456 10.004 38.8356 9.5 38.4156 9.206C37.9956 8.912 37.3726 8.765 36.5466 8.765H34.8246V12.902H36.5466Z" fill="white"/>
<path d="M71.9 24C71.8 23.6 71.7 23.2999 71.5 23L52 1.19995V24H71.9Z" fill="#003399"/>
<path d="M6 41H66V90H6V41Z" fill="white"/>
<path d="M46.9999 66C43.8999 64.8 40.2999 66.3 38.9999 69.4C37.7999 72.5 39.2999 76.1 42.3999 77.4C42.9999 77.7 43.6999 77.8 44.3999 77.8C47.8999 77.9 50.7999 75.2 50.7999 71.8V47.9C50.5999 47.9 50.4999 48 50.2999 48C43.4999 49.9 36.7999 51.9 29.9999 53.8C29.3999 54 29.3999 54.3 29.3999 54.8V71.6C28.8999 71.4 28.6999 71.3 28.2999 71.2C25.7999 70.3 23.5999 70.8 21.7999 72.6C19.9999 74.3 19.4999 76.9 20.4999 79.2C21.7999 82.3 25.3999 83.8 28.4999 82.6C30.7999 81.6 32.2999 79.4 32.2999 76.9V61.3C32.2999 60.6 32.4999 60.4 33.1999 60.2C36.4999 59.3 39.7999 58.3 43.1999 57.4L47.9999 56V66.4C47.4999 66.2 47.2999 66.1 46.9999 66Z" fill="#003399"/>
</svg>
