<svg viewBox="0 0 72 96" fill="none" xmlns="http://www.w3.org/2000/svg">
<g clip-path="url(#clip0_5524_106093)">
<path d="M0 2V94C0 94.5304 0.210714 95.0391 0.585786 95.4142C0.960859 95.7893 1.46957 96 2 96H70C70.5304 96 71.0391 95.7893 71.4142 95.4142C71.7893 95.0391 72 94.5304 72 94V28H50C49.4696 28 48.9609 27.7893 48.5858 27.4142C48.2107 27.0391 48 26.5304 48 26V0H2C1.46957 0 0.960859 0.210714 0.585786 0.585786C0.210714 0.960859 0 1.46957 0 2H0Z" fill="#33CC33"/>
<path d="M71.9 24C71.8281 23.6452 71.6926 23.3064 71.5 23L52 1.19995V24H71.9Z" fill="#33CC33"/>
<path d="M6 41H66V90H6V41Z" fill="white"/>
<path d="M5.704 13.848C5.704 12.9733 5.82667 12.2 6.072 11.528C6.328 10.8453 6.66933 10.2747 7.096 9.816C7.53333 9.34667 8.04533 8.98933 8.632 8.744C9.21867 8.49867 9.848 8.376 10.52 8.376C11.224 8.376 11.8213 8.51467 12.312 8.792C12.8133 9.05867 13.2347 9.36267 13.576 9.704L12.28 11.16C12.056 10.936 11.8107 10.7547 11.544 10.616C11.2773 10.4773 10.936 10.408 10.52 10.408C10.1787 10.408 9.864 10.488 9.576 10.648C9.288 10.7973 9.03733 11.016 8.824 11.304C8.61067 11.592 8.44 11.944 8.312 12.36C8.19467 12.776 8.136 13.2453 8.136 13.768C8.136 14.8453 8.33867 15.6827 8.744 16.28C9.16 16.8667 9.784 17.16 10.616 17.16C10.8187 17.16 11.0107 17.1333 11.192 17.08C11.3733 17.0267 11.5227 16.9467 11.64 16.84V15.048H10.12V13.128H13.752V17.928C13.4 18.2587 12.936 18.552 12.36 18.808C11.784 19.064 11.16 19.192 10.488 19.192C9.816 19.192 9.18667 19.08 8.6 18.856C8.024 18.6213 7.51733 18.28 7.08 17.832C6.65333 17.384 6.31733 16.8293 6.072 16.168C5.82667 15.496 5.704 14.7227 5.704 13.848ZM15.7778 17.016H18.2098V10.552H15.7778V8.568H23.0098V10.552H20.5778V17.016H23.0098V19H15.7778V17.016ZM25.9155 8.568H32.7955V10.552H28.2675V12.968H32.1235V14.952H28.2675V19H25.9155V8.568ZM34.0213 8.568H36.5173L37.7653 13.432C37.9253 14.008 38.0639 14.568 38.1813 15.112C38.3093 15.6453 38.4479 16.2 38.5973 16.776H38.6613C38.8213 16.2 38.9653 15.6453 39.0933 15.112C39.2213 14.568 39.3599 14.008 39.5093 13.432L40.7413 8.568H43.1413L40.0053 19H37.1733L34.0213 8.568Z" fill="white"/>
<path d="M40.3332 55L34.0832 63.3333L38.8332 69.6667L36.1665 71.6667C33.3498 67.9167 28.6665 61.6667 28.6665 61.6667L18.6665 75H55.3332L40.3332 55Z" fill="#33CC33"/>
</g>
<defs>
<clipPath id="clip0_5524_106093">
<rect width="72" height="96" fill="white"/>
</clipPath>
</defs>
</svg>
