<svg viewBox="0 0 72 96" fill="none" xmlns="http://www.w3.org/2000/svg">
<path d="M0 2V94C0 95.1 0.9 96 2 96H70C71.1 96 72 95.1 72 94V28H50C48.9 28 48 27.1 48 26V0H2C0.9 0 0 0.9 0 2Z" fill="#FF6600"/>
<path d="M6.04 8.568H8.392L9.448 12.264L9.8 13.704H9.848L10.2 12.264L11.208 8.568H13.56V19H11.656V15.592C11.656 15.304 11.6667 14.952 11.688 14.536C11.7093 14.1093 11.736 13.672 11.768 13.224C11.8 12.776 11.832 12.344 11.864 11.928C11.896 11.5013 11.928 11.1493 11.96 10.872H11.912L11.096 13.736L10.296 16.216H9.256L8.456 13.736L7.672 10.872H7.608C7.64 11.1493 7.672 11.5013 7.704 11.928C7.736 12.344 7.768 12.776 7.8 13.224C7.832 13.672 7.85867 14.1093 7.88 14.536C7.90133 14.952 7.912 15.304 7.912 15.592V19H6.04V8.568ZM15.5218 17.656C16.2471 17.048 16.9084 16.4827 17.5058 15.96C18.1031 15.4267 18.6151 14.9307 19.0418 14.472C19.4684 14.0133 19.7991 13.5813 20.0338 13.176C20.2684 12.7707 20.3858 12.3867 20.3858 12.024C20.3858 11.5227 20.2418 11.144 19.9538 10.888C19.6658 10.6213 19.2551 10.488 18.7218 10.488C18.3164 10.488 17.9431 10.5947 17.6018 10.808C17.2711 11.0107 16.9618 11.2507 16.6738 11.528L15.4098 10.264C15.6764 9.99733 15.9378 9.76267 16.1938 9.56C16.4604 9.35733 16.7378 9.192 17.0258 9.064C17.3244 8.92533 17.6338 8.824 17.9538 8.76C18.2844 8.68533 18.6471 8.648 19.0418 8.648C19.5751 8.648 20.0604 8.728 20.4978 8.888C20.9351 9.03733 21.3084 9.256 21.6178 9.544C21.9378 9.82133 22.1831 10.1573 22.3538 10.552C22.5351 10.9467 22.6258 11.3893 22.6258 11.88C22.6258 12.3067 22.5244 12.744 22.3218 13.192C22.1191 13.6293 21.8418 14.072 21.4898 14.52C21.1484 14.9573 20.7538 15.4 20.3058 15.848C19.8578 16.2853 19.3884 16.7173 18.8978 17.144C19.1858 17.112 19.4951 17.0853 19.8258 17.064C20.1671 17.032 20.4711 17.016 20.7378 17.016H23.1538V19H15.5218V17.656ZM27.8035 10.552H24.6835V8.568H33.2915V10.552H30.1715V19H27.8035V10.552ZM35.9413 16.072C36.3359 16.392 36.7626 16.6533 37.2213 16.856C37.6906 17.0587 38.1546 17.16 38.6133 17.16C39.1573 17.16 39.5519 17.0693 39.7973 16.888C40.0533 16.7067 40.1813 16.4613 40.1813 16.152C40.1813 15.992 40.1439 15.8533 40.0693 15.736C39.9946 15.6187 39.8879 15.5173 39.7493 15.432C39.6106 15.336 39.4399 15.2507 39.2373 15.176C39.0453 15.0907 38.8213 15 38.5653 14.904L37.2213 14.328C36.9333 14.2213 36.6506 14.0827 36.3733 13.912C36.1066 13.7413 35.8719 13.544 35.6693 13.32C35.4666 13.0853 35.3013 12.8187 35.1733 12.52C35.0559 12.2107 34.9973 11.864 34.9973 11.48C34.9973 11.0533 35.0879 10.6533 35.2693 10.28C35.4613 9.896 35.7226 9.56533 36.0533 9.288C36.3946 9 36.7999 8.776 37.2693 8.616C37.7386 8.456 38.2559 8.376 38.8213 8.376C39.4613 8.376 40.0799 8.49333 40.6773 8.728C41.2746 8.96267 41.8133 9.304 42.2933 9.752L41.0933 11.24C40.7306 10.9733 40.3733 10.7707 40.0213 10.632C39.6693 10.4827 39.2693 10.408 38.8213 10.408C38.3626 10.408 38.0053 10.4933 37.7493 10.664C37.5039 10.824 37.3813 11.0533 37.3813 11.352C37.3813 11.672 37.5413 11.912 37.8613 12.072C38.1813 12.232 38.5919 12.4027 39.0933 12.584L40.3573 13.128C41.0506 13.384 41.5946 13.736 41.9893 14.184C42.3946 14.632 42.5972 15.224 42.5972 15.96C42.5972 16.3973 42.5066 16.8133 42.3253 17.208C42.1439 17.592 41.8826 17.9333 41.5413 18.232C41.1999 18.52 40.7786 18.7547 40.2773 18.936C39.7759 19.1067 39.1999 19.192 38.5493 19.192C37.8453 19.192 37.1466 19.0693 36.4533 18.824C35.7706 18.568 35.1466 18.1893 34.5813 17.688L35.9413 16.072Z" fill="white"/>
<path d="M71.9 24C71.8 23.6 71.7 23.3 71.5 23L52 1.19995V24H71.9Z" fill="#FF6600"/>
<path d="M6 41H66V90H6V41Z" fill="white"/>
<path d="M13 83.1H59V47.9H13V83.1ZM21.9 80.4H16.4V76.5H21.9V80.4ZM38.8 80.4H33.3V76.5H38.8V80.4ZM50.1 50.3H55.6V54.3H50.1V50.3ZM50.1 76.4H55.6V80.3H50.1V76.4ZM41.6 50.3H47V54.2H41.5V50.3H41.6ZM41.6 76.4H47V80.3H41.5L41.6 76.4V76.4ZM33.2 50.3H38.7V54.2H33.2V50.3ZM32.4 60L39.6 64.1C40.9 64.9 40.9 66.1 39.6 66.9L32.4 71C31.1 71.8 30 71.1 30 69.6V61.3C30 59.9 31.1 59.2 32.4 60V60ZM24.7 50.3H30.1V54.2H24.7V50.3V50.3ZM24.7 76.4H30.1V80.3H24.7V76.4V76.4ZM16.4 50.3H21.9V54.3H16.4V50.3Z" fill="#FF6600"/>
</svg>
