<svg viewBox="0 0 72 96" fill="none" xmlns="http://www.w3.org/2000/svg">
<g clip-path="url(#clip0_5524_106119)">
<path d="M0 2V94C0 94.5304 0.210714 95.0391 0.585786 95.4142C0.960859 95.7893 1.46957 96 2 96H70C70.5304 96 71.0391 95.7893 71.4142 95.4142C71.7893 95.0391 72 94.5304 72 94V28H50C49.4696 28 48.9609 27.7893 48.5858 27.4142C48.2107 27.0391 48 26.5304 48 26V0H2C1.46957 0 0.960859 0.210714 0.585786 0.585786C0.210714 0.960859 0 1.46957 0 2H0Z" fill="#33CC33"/>
<path d="M71.9 24C71.8281 23.6452 71.6926 23.3064 71.5 23L52 1.19995V24H71.9Z" fill="#33CC33"/>
<path d="M6 41H66V90H6V41Z" fill="white"/>
<path d="M6.365 6.308H9.452L10.838 11.159L11.3 13.049H11.363L11.825 11.159L13.148 6.308H16.235V20H13.736V15.527C13.736 15.149 13.75 14.687 13.778 14.141C13.806 13.581 13.841 13.007 13.883 12.419C13.925 11.831 13.967 11.264 14.009 10.718C14.051 10.158 14.093 9.696 14.135 9.332H14.072L13.001 13.091L11.951 16.346H10.586L9.536 13.091L8.507 9.332H8.423C8.465 9.696 8.507 10.158 8.549 10.718C8.591 11.264 8.633 11.831 8.675 12.419C8.717 13.007 8.752 13.581 8.78 14.141C8.808 14.687 8.822 15.149 8.822 15.527V20H6.365V6.308ZM18.9778 6.308H22.1278L25.0258 13.133L26.2018 16.136H26.2858C26.2158 15.408 26.1248 14.596 26.0128 13.7C25.9008 12.804 25.8448 11.957 25.8448 11.159V6.308H28.8058V20H25.6558L22.7578 13.175L21.5818 10.193H21.4978C21.5678 10.949 21.6588 11.761 21.7708 12.629C21.8828 13.497 21.9388 14.337 21.9388 15.149V20H18.9778V6.308ZM31.1076 13.238C31.1076 12.09 31.2686 11.075 31.5906 10.193C31.9266 9.297 32.3746 8.548 32.9346 7.946C33.5086 7.33 34.1806 6.861 34.9506 6.539C35.7206 6.217 36.5466 6.056 37.4286 6.056C38.3526 6.056 39.1366 6.238 39.7806 6.602C40.4386 6.952 40.9916 7.351 41.4396 7.799L39.7386 9.71C39.4446 9.416 39.1226 9.178 38.7726 8.996C38.4226 8.814 37.9746 8.723 37.4286 8.723C36.9806 8.723 36.5676 8.828 36.1896 9.038C35.8116 9.234 35.4826 9.521 35.2026 9.899C34.9226 10.277 34.6986 10.739 34.5306 11.285C34.3766 11.831 34.2996 12.447 34.2996 13.133C34.2996 14.547 34.5656 15.646 35.0976 16.43C35.6436 17.2 36.4626 17.585 37.5546 17.585C37.8206 17.585 38.0726 17.55 38.3106 17.48C38.5486 17.41 38.7446 17.305 38.8986 17.165V14.813H36.9036V12.293H41.6706V18.593C41.2086 19.027 40.5996 19.412 39.8436 19.748C39.0876 20.084 38.2686 20.252 37.3866 20.252C36.5046 20.252 35.6786 20.105 34.9086 19.811C34.1526 19.503 33.4876 19.055 32.9136 18.467C32.3536 17.879 31.9126 17.151 31.5906 16.283C31.2686 15.401 31.1076 14.386 31.1076 13.238Z" fill="white"/>
<path d="M40.3332 55L34.0832 63.3333L38.8332 69.6667L36.1665 71.6667C33.3498 67.9167 28.6665 61.6667 28.6665 61.6667L18.6665 75H55.3332L40.3332 55Z" fill="#33CC33"/>
</g>
<defs>
<clipPath id="clip0_5524_106119">
<rect width="72" height="96" fill="white"/>
</clipPath>
</defs>
</svg>
