<svg viewBox="0 0 72 96" fill="none" xmlns="http://www.w3.org/2000/svg">
<path d="M0 2V94C0 95.1 0.9 96 2 96H70C71.1 96 72 95.1 72 94V28H50C48.9 28 48 27.1 48 26V0H2C0.9 0 0 0.9 0 2Z" fill="#FF6600"/>
<path d="M6.365 6.308H9.452L10.838 11.159L11.3 13.049H11.363L11.825 11.159L13.148 6.308H16.235V20H13.736V15.527C13.736 15.149 13.75 14.687 13.778 14.141C13.806 13.581 13.841 13.007 13.883 12.419C13.925 11.831 13.967 11.264 14.009 10.718C14.051 10.158 14.093 9.696 14.135 9.332H14.072L13.001 13.091L11.951 16.346H10.586L9.536 13.091L8.507 9.332H8.423C8.465 9.696 8.507 10.158 8.549 10.718C8.591 11.264 8.633 11.831 8.675 12.419C8.717 13.007 8.752 13.581 8.78 14.141C8.808 14.687 8.822 15.149 8.822 15.527V20H6.365V6.308ZM19.1458 6.308H24.1438C24.8858 6.308 25.5788 6.385 26.2228 6.539C26.8808 6.679 27.4478 6.924 27.9238 7.274C28.4138 7.61 28.7988 8.065 29.0788 8.639C29.3588 9.199 29.4988 9.892 29.4988 10.718C29.4988 11.516 29.3518 12.209 29.0578 12.797C28.7778 13.385 28.3928 13.868 27.9028 14.246C27.4128 14.624 26.8458 14.904 26.2018 15.086C25.5578 15.268 24.8718 15.359 24.1438 15.359H22.2328V20H19.1458V6.308ZM23.9548 12.902C25.6208 12.902 26.4538 12.174 26.4538 10.718C26.4538 10.004 26.2438 9.5 25.8238 9.206C25.4038 8.912 24.7808 8.765 23.9548 8.765H22.2328V12.902H23.9548ZM31.1076 13.238C31.1076 12.09 31.2686 11.075 31.5906 10.193C31.9266 9.297 32.3746 8.548 32.9346 7.946C33.5086 7.33 34.1806 6.861 34.9506 6.539C35.7206 6.217 36.5466 6.056 37.4286 6.056C38.3526 6.056 39.1366 6.238 39.7806 6.602C40.4386 6.952 40.9916 7.351 41.4396 7.799L39.7386 9.71C39.4446 9.416 39.1226 9.178 38.7726 8.996C38.4226 8.814 37.9746 8.723 37.4286 8.723C36.9806 8.723 36.5676 8.828 36.1896 9.038C35.8116 9.234 35.4826 9.521 35.2026 9.899C34.9226 10.277 34.6986 10.739 34.5306 11.285C34.3766 11.831 34.2996 12.447 34.2996 13.133C34.2996 14.547 34.5656 15.646 35.0976 16.43C35.6436 17.2 36.4626 17.585 37.5546 17.585C37.8206 17.585 38.0726 17.55 38.3106 17.48C38.5486 17.41 38.7446 17.305 38.8986 17.165V14.813H36.9036V12.293H41.6706V18.593C41.2086 19.027 40.5996 19.412 39.8436 19.748C39.0876 20.084 38.2686 20.252 37.3866 20.252C36.5046 20.252 35.6786 20.105 34.9086 19.811C34.1526 19.503 33.4876 19.055 32.9136 18.467C32.3536 17.879 31.9126 17.151 31.5906 16.283C31.2686 15.401 31.1076 14.386 31.1076 13.238Z" fill="white"/>
<path d="M71.9 24C71.8 23.6 71.7 23.2999 71.5 23L52 1.19995V24H71.9Z" fill="#FF6600"/>
<path d="M6 41H66V90H6V41Z" fill="white"/>
<path d="M13 83.1H59V47.9H13V83.1ZM21.9 80.4H16.4V76.5H21.9V80.4ZM38.8 80.4H33.3V76.5H38.8V80.4ZM50.1 50.3H55.6V54.3H50.1V50.3ZM50.1 76.4H55.6V80.3H50.1V76.4ZM41.6 50.3H47V54.2H41.5V50.3H41.6ZM41.6 76.4H47V80.3H41.5L41.6 76.4ZM33.2 50.3H38.7V54.2H33.2V50.3ZM32.4 60L39.6 64.1C40.9 64.9 40.9 66.1 39.6 66.9L32.4 71C31.1 71.8 30 71.1 30 69.6V61.3C30 59.9 31.1 59.2 32.4 60ZM24.7 50.3H30.1V54.2H24.7V50.3ZM24.7 76.4H30.1V80.3H24.7V76.4ZM16.4 50.3H21.9V54.3H16.4V50.3Z" fill="#FF6600"/>
</svg>
