<svg viewBox="0 0 72 96" fill="none" xmlns="http://www.w3.org/2000/svg">
<g clip-path="url(#clip0_4051_70788)">
<path d="M0 2V94C0 94.5304 0.210714 95.0391 0.585786 95.4142C0.960859 95.7893 1.46957 96 2 96H70C70.5304 96 71.0391 95.7893 71.4142 95.4142C71.7893 95.0391 72 94.5304 72 94V28H50C49.4696 28 48.9609 27.7893 48.5858 27.4142C48.2107 27.0391 48 26.5304 48 26V0H2C1.46957 0 0.960859 0.210714 0.585786 0.585786C0.210714 0.960859 0 1.46957 0 2H0Z" fill="#1A75CE"/>
<path d="M71.9 24C71.8281 23.6452 71.6926 23.3064 71.5 23L52 1.19995V24H71.9Z" fill="#1A75CE"/>
<path d="M6 41H66V90H6V41Z" fill="white"/>
<path d="M6.365 9.308H9.452L10.838 14.159L11.3 16.049H11.363L11.825 14.159L13.148 9.308H16.235V23H13.736V18.527C13.736 18.149 13.75 17.687 13.778 17.141C13.806 16.581 13.841 16.007 13.883 15.419C13.925 14.831 13.967 14.264 14.009 13.718C14.051 13.158 14.093 12.696 14.135 12.332H14.072L13.001 16.091L11.951 19.346H10.586L9.536 16.091L8.507 12.332H8.423C8.465 12.696 8.507 13.158 8.549 13.718C8.591 14.264 8.633 14.831 8.675 15.419C8.717 16.007 8.752 16.581 8.78 17.141C8.808 17.687 8.822 18.149 8.822 18.527V23H6.365V9.308ZM20.4268 19.157C20.9448 19.577 21.5048 19.92 22.1068 20.186C22.7228 20.452 23.3318 20.585 23.9338 20.585C24.6478 20.585 25.1658 20.466 25.4878 20.228C25.8238 19.99 25.9918 19.668 25.9918 19.262C25.9918 19.052 25.9428 18.87 25.8448 18.716C25.7468 18.562 25.6068 18.429 25.4248 18.317C25.2428 18.191 25.0188 18.079 24.7528 17.981C24.5008 17.869 24.2068 17.75 23.8708 17.624L22.1068 16.868C21.7288 16.728 21.3578 16.546 20.9938 16.322C20.6438 16.098 20.3358 15.839 20.0698 15.545C19.8038 15.237 19.5868 14.887 19.4188 14.495C19.2648 14.089 19.1878 13.634 19.1878 13.13C19.1878 12.57 19.3068 12.045 19.5448 11.555C19.7968 11.051 20.1398 10.617 20.5738 10.253C21.0218 9.875 21.5538 9.581 22.1698 9.371C22.7858 9.161 23.4648 9.056 24.2068 9.056C25.0468 9.056 25.8588 9.21 26.6428 9.518C27.4268 9.826 28.1338 10.274 28.7638 10.862L27.1888 12.815C26.7128 12.465 26.2438 12.199 25.7818 12.017C25.3198 11.821 24.7948 11.723 24.2068 11.723C23.6048 11.723 23.1358 11.835 22.7998 12.059C22.4778 12.269 22.3168 12.57 22.3168 12.962C22.3168 13.382 22.5268 13.697 22.9468 13.907C23.3668 14.117 23.9058 14.341 24.5638 14.579L26.2228 15.293C27.1328 15.629 27.8468 16.091 28.3648 16.679C28.8968 17.267 29.1628 18.044 29.1628 19.01C29.1628 19.584 29.0438 20.13 28.8058 20.648C28.5678 21.152 28.2248 21.6 27.7768 21.992C27.3288 22.37 26.7758 22.678 26.1178 22.916C25.4598 23.14 24.7038 23.252 23.8498 23.252C22.9258 23.252 22.0088 23.091 21.0988 22.769C20.2028 22.433 19.3838 21.936 18.6418 21.278L20.4268 19.157ZM31.1076 16.238C31.1076 15.09 31.2686 14.075 31.5906 13.193C31.9266 12.297 32.3746 11.548 32.9346 10.946C33.5086 10.33 34.1806 9.861 34.9506 9.539C35.7206 9.217 36.5466 9.056 37.4286 9.056C38.3526 9.056 39.1366 9.238 39.7806 9.602C40.4386 9.952 40.9916 10.351 41.4396 10.799L39.7386 12.71C39.4446 12.416 39.1226 12.178 38.7726 11.996C38.4226 11.814 37.9746 11.723 37.4286 11.723C36.9806 11.723 36.5676 11.828 36.1896 12.038C35.8116 12.234 35.4826 12.521 35.2026 12.899C34.9226 13.277 34.6986 13.739 34.5306 14.285C34.3766 14.831 34.2996 15.447 34.2996 16.133C34.2996 17.547 34.5656 18.646 35.0976 19.43C35.6436 20.2 36.4626 20.585 37.5546 20.585C37.8206 20.585 38.0726 20.55 38.3106 20.48C38.5486 20.41 38.7446 20.305 38.8986 20.165V17.813H36.9036V15.293H41.6706V21.593C41.2086 22.027 40.5996 22.412 39.8436 22.748C39.0876 23.084 38.2686 23.252 37.3866 23.252C36.5046 23.252 35.6786 23.105 34.9086 22.811C34.1526 22.503 33.4876 22.055 32.9136 21.467C32.3536 20.879 31.9126 20.151 31.5906 19.283C31.2686 18.401 31.1076 17.386 31.1076 16.238Z" fill="white"/>
<path d="M50.2973 57.9591L35.9998 49.0133L21.7023 57.9591C20.784 58.5133 20.1665 59.5108 20.1665 60.6666V76.5C20.1665 78.2416 21.5915 79.6666 23.3332 79.6666H48.6665C50.4082 79.6666 51.8332 78.2416 51.8332 76.5V60.6666C51.8332 59.5108 51.2157 58.5133 50.2973 57.9591ZM48.6665 76.5H23.3332V63.8333L35.9998 71.75L48.6665 63.8333V76.5ZM35.9998 68.5833L23.3332 60.6666L35.9998 52.75L48.6665 60.6666L35.9998 68.5833Z" fill="#1A75CE"/>
</g>
<defs>
<clipPath id="clip0_4051_70788">
<rect width="72" height="96" fill="white"/>
</clipPath>
</defs>
</svg>
