<svg viewBox="0 0 72 96" fill="none" xmlns="http://www.w3.org/2000/svg">
<path d="M0 2V94C0 95.1 0.9 96 2 96H70C71.1 96 72 95.1 72 94V28H50C48.9 28 48 27.1 48 26V0H2C0.9 0 0 0.9 0 2Z" fill="#999999"/>
<path d="M6.365 6.308H9.452L10.838 11.159L11.3 13.049H11.363L11.825 11.159L13.148 6.308H16.235V20H13.736V15.527C13.736 15.149 13.75 14.687 13.778 14.141C13.806 13.581 13.841 13.007 13.883 12.419C13.925 11.831 13.967 11.264 14.009 10.718C14.051 10.158 14.093 9.696 14.135 9.332H14.072L13.001 13.091L11.951 16.346H10.586L9.536 13.091L8.507 9.332H8.423C8.465 9.696 8.507 10.158 8.549 10.718C8.591 11.264 8.633 11.831 8.675 12.419C8.717 13.007 8.752 13.581 8.78 14.141C8.808 14.687 8.822 15.149 8.822 15.527V20H6.365V6.308ZM22.3378 8.912H18.2428V6.308H29.5408V8.912H25.4458V20H22.3378V8.912ZM33.0186 16.157C33.5366 16.577 34.0966 16.92 34.6986 17.186C35.3146 17.452 35.9236 17.585 36.5256 17.585C37.2396 17.585 37.7576 17.466 38.0796 17.228C38.4156 16.99 38.5836 16.668 38.5836 16.262C38.5836 16.052 38.5346 15.87 38.4366 15.716C38.3386 15.562 38.1986 15.429 38.0166 15.317C37.8346 15.191 37.6106 15.079 37.3446 14.981C37.0926 14.869 36.7986 14.75 36.4626 14.624L34.6986 13.868C34.3206 13.728 33.9496 13.546 33.5856 13.322C33.2356 13.098 32.9276 12.839 32.6616 12.545C32.3956 12.237 32.1786 11.887 32.0106 11.495C31.8566 11.089 31.7796 10.634 31.7796 10.13C31.7796 9.57 31.8986 9.045 32.1366 8.555C32.3886 8.051 32.7316 7.617 33.1656 7.253C33.6136 6.875 34.1456 6.581 34.7616 6.371C35.3776 6.161 36.0566 6.056 36.7986 6.056C37.6386 6.056 38.4506 6.21 39.2346 6.518C40.0186 6.826 40.7256 7.274 41.3556 7.862L39.7806 9.815C39.3046 9.465 38.8356 9.199 38.3736 9.017C37.9116 8.821 37.3866 8.723 36.7986 8.723C36.1966 8.723 35.7276 8.835 35.3916 9.059C35.0696 9.269 34.9086 9.57 34.9086 9.962C34.9086 10.382 35.1186 10.697 35.5386 10.907C35.9586 11.117 36.4976 11.341 37.1556 11.579L38.8146 12.293C39.7246 12.629 40.4386 13.091 40.9566 13.679C41.4886 14.267 41.7546 15.044 41.7546 16.01C41.7546 16.584 41.6356 17.13 41.3976 17.648C41.1596 18.152 40.8166 18.6 40.3686 18.992C39.9206 19.37 39.3676 19.678 38.7096 19.916C38.0516 20.14 37.2956 20.252 36.4416 20.252C35.5176 20.252 34.6006 20.091 33.6906 19.769C32.7946 19.433 31.9756 18.936 31.2336 18.278L33.0186 16.157Z" fill="white"/>
<path d="M71.9 24C71.8 23.6 71.7 23.2999 71.5 23L52 1.19995V24H71.9Z" fill="#999999"/>
<path d="M6 41H66V90H6V41Z" fill="white"/>
<path d="M35.8 49.7C32.9 49.7 30.4 52.5 30.4 55.9C30.4 59.3 32.8 62.0999 35.8 62.0999C38.7 62.0999 41.2 59.3 41.2 55.9C41.2 52.5 38.8 49.7 35.8 49.7ZM35.8 59.7999C34.2 59.7999 32.8 58.1 32.8 55.9C32.8 53.8 34.1 52 35.8 52C37.5 52 38.8 53.7 38.8 55.9C38.8 58.1 37.5 59.7999 35.8 59.7999ZM25 61V50.9C25 50.2 24.5 49.7 23.8 49.7C23.1 49.7 22.6 50.2 22.6 50.9V61C22.6 61.7 23.1 62.2 23.8 62.2C24.5 62.2 25 61.6 25 61ZM23.9 67.9C21 67.9 18.5 70.6999 18.5 74.0999C18.5 77.4999 20.9 80.3 23.9 80.3C26.9 80.3 29.3 77.4999 29.3 74.0999C29.2 70.7999 26.8 67.9 23.9 67.9ZM23.9 78.0999C22.3 78.0999 20.9 76.3999 20.9 74.1999C20.9 72.0999 22.2 70.3 23.9 70.3C25.6 70.3 26.9 71.9999 26.9 74.1999C26.8 76.2999 25.5 78.0999 23.9 78.0999ZM37 79.1999V69.0999C37 68.3999 36.5 67.9 35.8 67.9C35.1 67.9 34.6 68.3999 34.6 69.0999V79.1999C34.6 79.8999 35.1 80.4 35.8 80.4C36.5 80.4 37 79.8999 37 79.1999ZM49.3 61.9V51.7999C49.3 51.0999 48.8 50.5999 48.1 50.5999C47.4 50.5999 47 51.0999 47 51.7999V61.9C47 62.6 47.5 63.0999 48.2 63.0999C48.9 63.0999 49.3 62.5 49.3 61.9ZM48.1 68.8C45.2 68.8 42.7 71.6 42.7 75C42.7 78.4 45.1 81.1999 48.1 81.1999C51 81.1999 53.5 78.4 53.5 75C53.5 71.6 51.1 68.8 48.1 68.8ZM48.1 78.9C46.5 78.9 45.1 77.2 45.1 75C45.1 72.9 46.4 71.0999 48.1 71.0999C49.8 71.0999 51.1 72.7999 51.1 75C51.1 77.2 49.8 78.9 48.1 78.9Z" fill="#999999" stroke="#999999" stroke-miterlimit="10"/>
</svg>
