<svg viewBox="0 0 72 96" fill="none" xmlns="http://www.w3.org/2000/svg">
<path d="M0 2V94C0 95.1 0.9 96 2 96H70C71.1 96 72 95.1 72 94V28H50C48.9 28 48 27.1 48 26V0H2C0.9 0 0 0.9 0 2Z" fill="#FF6600"/>
<path d="M6.365 9.308H9.452L10.838 14.159L11.3 16.049H11.363L11.825 14.159L13.148 9.308H16.235V23H13.736V18.527C13.736 18.149 13.75 17.687 13.778 17.141C13.806 16.581 13.841 16.007 13.883 15.419C13.925 14.831 13.967 14.264 14.009 13.718C14.051 13.158 14.093 12.696 14.135 12.332H14.072L13.001 16.091L11.951 19.346H10.586L9.536 16.091L8.507 12.332H8.423C8.465 12.696 8.507 13.158 8.549 13.718C8.591 14.264 8.633 14.831 8.675 15.419C8.717 16.007 8.752 16.581 8.78 17.141C8.808 17.687 8.822 18.149 8.822 18.527V23H6.365V9.308ZM21.9598 15.965L18.2008 9.308H21.6658L22.9888 11.891C23.1428 12.213 23.3038 12.556 23.4718 12.92C23.6398 13.27 23.8288 13.662 24.0388 14.096H24.1228C24.2908 13.662 24.4448 13.27 24.5848 12.92C24.7388 12.556 24.8928 12.213 25.0468 11.891L26.2648 9.308H29.5828L25.8238 16.112L29.8138 23H26.3698L24.8788 20.207C24.6828 19.843 24.5008 19.486 24.3328 19.136C24.1648 18.772 23.9828 18.38 23.7868 17.96H23.7028C23.5348 18.38 23.3668 18.772 23.1988 19.136C23.0308 19.486 22.8628 19.843 22.6948 20.207L21.2668 23H17.9698L21.9598 15.965ZM32.4516 9.308H41.4816V11.912H35.5386V15.083H40.5996V17.687H35.5386V23H32.4516V9.308Z" fill="white"/>
<path d="M71.9 24C71.8 23.6 71.7 23.2999 71.5 23L52 1.19995V24H71.9Z" fill="#FF6600"/>
<path d="M6 41H66V90H6V41Z" fill="white"/>
<path d="M13 83.1H59V47.9H13V83.1ZM21.9 80.4H16.4V76.5H21.9V80.4ZM38.8 80.4H33.3V76.5H38.8V80.4ZM50.1 50.3H55.6V54.3H50.1V50.3ZM50.1 76.4H55.6V80.3H50.1V76.4ZM41.6 50.3H47V54.2H41.5V50.3H41.6ZM41.6 76.4H47V80.3H41.5L41.6 76.4ZM33.2 50.3H38.7V54.2H33.2V50.3ZM32.4 60L39.6 64.1C40.9 64.9 40.9 66.1 39.6 66.9L32.4 71C31.1 71.8 30 71.1 30 69.6V61.3C30 59.9 31.1 59.2 32.4 60ZM24.7 50.3H30.1V54.2H24.7V50.3ZM24.7 76.4H30.1V80.3H24.7V76.4ZM16.4 50.3H21.9V54.3H16.4V50.3Z" fill="#FF6600"/>
</svg>
