<svg viewBox="0 0 72 96" fill="none" xmlns="http://www.w3.org/2000/svg">
<path d="M0 2V94C0 95.1 0.9 96 2 96H70C71.1 96 72 95.1 72 94V28H50C48.9 28 48 27.1 48 26V0H2C0.9 0 0 0.9 0 2Z" fill="#FF6600"/>
<path d="M6.386 9.308H9.536L12.434 16.133L13.61 19.136H13.694C13.624 18.408 13.533 17.596 13.421 16.7C13.309 15.804 13.253 14.957 13.253 14.159V9.308H16.214V23H13.064L10.166 16.175L8.99 13.193H8.906C8.976 13.949 9.067 14.761 9.179 15.629C9.291 16.497 9.347 17.337 9.347 18.149V23H6.386V9.308ZM20.4268 19.157C20.9448 19.577 21.5048 19.92 22.1068 20.186C22.7228 20.452 23.3318 20.585 23.9338 20.585C24.6478 20.585 25.1658 20.466 25.4878 20.228C25.8238 19.99 25.9918 19.668 25.9918 19.262C25.9918 19.052 25.9428 18.87 25.8448 18.716C25.7468 18.562 25.6068 18.429 25.4248 18.317C25.2428 18.191 25.0188 18.079 24.7528 17.981C24.5008 17.869 24.2068 17.75 23.8708 17.624L22.1068 16.868C21.7288 16.728 21.3578 16.546 20.9938 16.322C20.6438 16.098 20.3358 15.839 20.0698 15.545C19.8038 15.237 19.5868 14.887 19.4188 14.495C19.2648 14.089 19.1878 13.634 19.1878 13.13C19.1878 12.57 19.3068 12.045 19.5448 11.555C19.7968 11.051 20.1398 10.617 20.5738 10.253C21.0218 9.875 21.5538 9.581 22.1698 9.371C22.7858 9.161 23.4648 9.056 24.2068 9.056C25.0468 9.056 25.8588 9.21 26.6428 9.518C27.4268 9.826 28.1338 10.274 28.7638 10.862L27.1888 12.815C26.7128 12.465 26.2438 12.199 25.7818 12.017C25.3198 11.821 24.7948 11.723 24.2068 11.723C23.6048 11.723 23.1358 11.835 22.7998 12.059C22.4778 12.269 22.3168 12.57 22.3168 12.962C22.3168 13.382 22.5268 13.697 22.9468 13.907C23.3668 14.117 23.9058 14.341 24.5638 14.579L26.2228 15.293C27.1328 15.629 27.8468 16.091 28.3648 16.679C28.8968 17.267 29.1628 18.044 29.1628 19.01C29.1628 19.584 29.0438 20.13 28.8058 20.648C28.5678 21.152 28.2248 21.6 27.7768 21.992C27.3288 22.37 26.7758 22.678 26.1178 22.916C25.4598 23.14 24.7038 23.252 23.8498 23.252C22.9258 23.252 22.0088 23.091 21.0988 22.769C20.2028 22.433 19.3838 21.936 18.6418 21.278L20.4268 19.157ZM30.4986 9.308H33.7746L35.4126 15.692C35.6226 16.448 35.8046 17.183 35.9586 17.897C36.1266 18.597 36.3086 19.325 36.5046 20.081H36.5886C36.7986 19.325 36.9876 18.597 37.1556 17.897C37.3236 17.183 37.5056 16.448 37.7016 15.692L39.3186 9.308H42.4686L38.3526 23H34.6356L30.4986 9.308Z" fill="white"/>
<path d="M71.9 24C71.8 23.6 71.7 23.2999 71.5 23L52 1.19995V24H71.9Z" fill="#FF6600"/>
<path d="M6 41H66V90H6V41Z" fill="white"/>
<path d="M13 83.1H59V47.9H13V83.1ZM21.9 80.4H16.4V76.5H21.9V80.4ZM38.8 80.4H33.3V76.5H38.8V80.4ZM50.1 50.3H55.6V54.3H50.1V50.3ZM50.1 76.4H55.6V80.3H50.1V76.4ZM41.6 50.3H47V54.2H41.5V50.3H41.6ZM41.6 76.4H47V80.3H41.5L41.6 76.4ZM33.2 50.3H38.7V54.2H33.2V50.3ZM32.4 60L39.6 64.1C40.9 64.9 40.9 66.1 39.6 66.9L32.4 71C31.1 71.8 30 71.1 30 69.6V61.3C30 59.9 31.1 59.2 32.4 60ZM24.7 50.3H30.1V54.2H24.7V50.3ZM24.7 76.4H30.1V80.3H24.7V76.4ZM16.4 50.3H21.9V54.3H16.4V50.3Z" fill="#FF6600"/>
</svg>
