<?xml version="1.0" encoding="utf-8"?>
<!-- Generator: Adobe Illustrator 26.0.3, SVG Export Plug-In . SVG Version: 6.00 Build 0)  -->
<svg version="1.1" id="Layer_1" xmlns="http://www.w3.org/2000/svg" xmlns:xlink="http://www.w3.org/1999/xlink" x="0px" y="0px"
	 viewBox="0 0 72 96" style="enable-background:new 0 0 72 96;" xml:space="preserve">
<style type="text/css">
	.st0{fill:#F57E00;}
	.st1{fill:#FFFFFF;}
	.st2{fill:#F57E00;stroke:#F57E00;stroke-miterlimit:10;}
</style>
<path class="st0" d="M0,2v92c0,1.1,0.9,2,2,2h68c1.1,0,2-0.9,2-2V28H50c-1.1,0-2-0.9-2-2V0H2C0.9,0,0,0.9,0,2z"/>
<path class="st0" d="M71.9,24c-0.1-0.4-0.2-0.7-0.4-1L52,1.2V24H71.9z"/>
<path class="st1" d="M6,41h60v49H6V41z"/>
<path class="st2" d="M53,47.7H19c-1.7,0-3.1,1.4-3.1,3.1v21.8c0,1.7,1.4,3.1,3.1,3.1h14.2L31.8,81h-1.6c-0.7,0-1.2,0.5-1.2,1.2
	s0.5,1.2,1.2,1.2h11.5c0.7,0,1.2-0.5,1.2-1.2S42.4,81,41.7,81H40l-1.4-5.4H53c1.7,0,3.1-1.4,3.1-3.1V50.8
	C56.1,49.1,54.7,47.7,53,47.7z M53.3,72.8H18.7V50.6h34.5L53.3,72.8z"/>
<path class="st2" d="M27.6,63.9h2.8v5.6h-2.8V63.9z M32.3,62.1h2.8v7.4h-2.8V62.1z M36.9,60.2h2.8v9.3h-2.8V60.2z M41.5,58.4h2.8
	v11.1h-2.8V58.4z M41.3,54.3L36.4,57l-3.6-1.2l-6.1,3.3l0.9,1l5.4-2.8l3.6,1.2l5.6-3.1l0.9,1l2.1-3.5l-4.8,0.3L41.3,54.3z"/>
<g>
	<path class="st1" d="M11.5,20.8c-0.8,0-1.6-0.2-2.3-0.5C8.6,20,8,19.5,7.5,18.9c-0.5-0.6-0.9-1.4-1.1-2.3c-0.3-0.9-0.4-1.9-0.4-3
		c0-1.1,0.1-2.1,0.4-3C6.7,9.7,7,9,7.5,8.4C8,7.8,8.6,7.3,9.3,7c0.7-0.3,1.4-0.5,2.3-0.5c0.8,0,1.6,0.2,2.3,0.5
		c0.7,0.3,1.3,0.8,1.8,1.4c0.5,0.6,0.9,1.4,1.1,2.2c0.3,0.9,0.4,1.9,0.4,3c0,1.1-0.1,2.1-0.4,3c-0.3,0.9-0.6,1.6-1.1,2.3
		c-0.5,0.6-1.1,1.1-1.8,1.4C13.1,20.7,12.4,20.8,11.5,20.8z M11.5,18.1c0.7,0,1.3-0.4,1.7-1.2s0.6-1.9,0.6-3.3
		c0-1.4-0.2-2.5-0.6-3.2c-0.4-0.8-1-1.2-1.7-1.2s-1.3,0.4-1.7,1.2c-0.4,0.8-0.6,1.9-0.6,3.2c0,1.4,0.2,2.5,0.6,3.3
		C10.3,17.7,10.8,18.1,11.5,18.1z"/>
	<path class="st1" d="M19.3,6.8H23c1,0,1.9,0.1,2.7,0.4c0.8,0.3,1.5,0.7,2.1,1.2c0.6,0.6,1,1.3,1.3,2.1c0.3,0.9,0.5,1.9,0.5,3.1
		c0,1.2-0.2,2.2-0.5,3.1c-0.3,0.9-0.8,1.6-1.3,2.2c-0.6,0.6-1.3,1-2,1.3c-0.8,0.3-1.7,0.4-2.6,0.4h-3.9V6.8z M22.9,18
		c0.5,0,1-0.1,1.5-0.2c0.4-0.2,0.8-0.4,1.1-0.8c0.3-0.3,0.6-0.8,0.7-1.4c0.2-0.6,0.3-1.3,0.3-2.1c0-0.8-0.1-1.5-0.3-2.1
		c-0.2-0.6-0.4-1-0.7-1.3c-0.3-0.3-0.7-0.6-1.1-0.7s-0.9-0.2-1.5-0.2h-0.4V18H22.9z"/>
	<path class="st1" d="M32.2,6.8h5c0.7,0,1.4,0.1,2.1,0.2C40,7.1,40.5,7.4,41,7.7c0.5,0.3,0.9,0.8,1.2,1.4c0.3,0.6,0.4,1.3,0.4,2.1
		c0,0.8-0.1,1.5-0.4,2.1c-0.3,0.6-0.7,1.1-1.2,1.5c-0.5,0.4-1.1,0.7-1.7,0.8c-0.7,0.2-1.3,0.3-2.1,0.3h-1.9v4.7h-3.1V6.8z M37,13.4
		c1.7,0,2.5-0.7,2.5-2.2c0-0.7-0.2-1.2-0.6-1.5c-0.4-0.3-1.1-0.4-1.9-0.4h-1.7v4.2H37z"/>
</g>
</svg>
