<svg viewBox="0 0 72 96" fill="none" xmlns="http://www.w3.org/2000/svg">
<path d="M0 2V94C0 95.1 0.9 96 2 96H70C71.1 96 72 95.1 72 94V28H50C48.9 28 48 27.1 48 26V0H2C0.9 0 0 0.9 0 2Z" fill="#F57E00"/>
<path d="M11.3 23.252C10.488 23.252 9.739 23.091 9.053 22.769C8.381 22.433 7.8 21.957 7.31 21.341C6.834 20.725 6.463 19.976 6.197 19.094C5.931 18.212 5.798 17.211 5.798 16.091C5.798 14.971 5.931 13.977 6.197 13.109C6.463 12.227 6.834 11.492 7.31 10.904C7.8 10.302 8.381 9.847 9.053 9.539C9.739 9.217 10.488 9.056 11.3 9.056C12.112 9.056 12.854 9.217 13.526 9.539C14.212 9.847 14.793 10.302 15.269 10.904C15.759 11.506 16.137 12.248 16.403 13.13C16.669 13.998 16.802 14.985 16.802 16.091C16.802 17.211 16.669 18.212 16.403 19.094C16.137 19.976 15.759 20.725 15.269 21.341C14.793 21.957 14.212 22.433 13.526 22.769C12.854 23.091 12.112 23.252 11.3 23.252ZM11.3 20.585C12.014 20.585 12.581 20.186 13.001 19.388C13.421 18.576 13.631 17.477 13.631 16.091C13.631 14.719 13.421 13.648 13.001 12.878C12.581 12.108 12.014 11.723 11.3 11.723C10.586 11.723 10.019 12.108 9.599 12.878C9.179 13.648 8.969 14.719 8.969 16.091C8.969 17.477 9.179 18.576 9.599 19.388C10.019 20.186 10.586 20.585 11.3 20.585ZM22.3378 11.912H18.2428V9.308H29.5408V11.912H25.4458V23H22.3378V11.912ZM31.7376 9.308H36.7356C37.4776 9.308 38.1706 9.385 38.8146 9.539C39.4726 9.679 40.0396 9.924 40.5156 10.274C41.0056 10.61 41.3906 11.065 41.6706 11.639C41.9506 12.199 42.0906 12.892 42.0906 13.718C42.0906 14.516 41.9436 15.209 41.6496 15.797C41.3696 16.385 40.9846 16.868 40.4946 17.246C40.0046 17.624 39.4376 17.904 38.7936 18.086C38.1496 18.268 37.4636 18.359 36.7356 18.359H34.8246V23H31.7376V9.308ZM36.5466 15.902C38.2126 15.902 39.0456 15.174 39.0456 13.718C39.0456 13.004 38.8356 12.5 38.4156 12.206C37.9956 11.912 37.3726 11.765 36.5466 11.765H34.8246V15.902H36.5466Z" fill="white"/>
<path d="M71.9 24C71.8 23.6 71.7 23.2999 71.5 23L52 1.19995V24H71.9Z" fill="#F57E00"/>
<path d="M6 41H66V90H6V41Z" fill="white"/>
<path d="M52.9999 47.7H18.9999C17.2999 47.7 15.8999 49.0999 15.8999 50.7999V72.5999C15.8999 74.2999 17.2999 75.6999 18.9999 75.6999H33.1999L31.7999 81H30.1999C29.4999 81 28.9999 81.4999 28.9999 82.1999C28.9999 82.8999 29.4999 83.4 30.1999 83.4H41.6999C42.3999 83.4 42.8999 82.8999 42.8999 82.1999C42.8999 81.4999 42.3999 81 41.6999 81H39.9999L38.5999 75.5999H52.9999C54.6999 75.5999 56.0999 74.2 56.0999 72.5V50.7999C56.0999 49.0999 54.6999 47.7 52.9999 47.7ZM53.2999 72.8H18.6999V50.5999H53.1999L53.2999 72.8Z" fill="#F57E00" stroke="#F57E00" stroke-miterlimit="10"/>
<path d="M27.6002 63.9H30.4002V69.5H27.6002V63.9ZM32.3002 62.1H35.1002V69.5H32.3002V62.1ZM36.9002 60.2H39.7002V69.5H36.9002V60.2ZM41.5002 58.4H44.3002V69.5H41.5002V58.4ZM41.3002 54.3L36.4002 57L32.8002 55.8L26.7002 59.1L27.6002 60.1L33.0002 57.3L36.6002 58.5L42.2002 55.4L43.1002 56.4L45.2002 52.9L40.4002 53.2L41.3002 54.3Z" fill="#F57E00" stroke="#F57E00" stroke-miterlimit="10"/>
</svg>
