<svg viewBox="0 0 72 96" fill="none" xmlns="http://www.w3.org/2000/svg">
<g clip-path="url(#clip0_4051_70797)">
<path d="M0 2V94C0 94.5304 0.210714 95.0391 0.585786 95.4142C0.960859 95.7893 1.46957 96 2 96H70C70.5304 96 71.0391 95.7893 71.4142 95.4142C71.7893 95.0391 72 94.5304 72 94V28H50C49.4696 28 48.9609 27.7893 48.5858 27.4142C48.2107 27.0391 48 26.5304 48 26V0H2C1.46957 0 0.960859 0.210714 0.585786 0.585786C0.210714 0.960859 0 1.46957 0 2H0Z" fill="#33CC33"/>
<path d="M71.9 24C71.8281 23.6452 71.6926 23.3064 71.5 23L52 1.19995V24H71.9Z" fill="#33CC33"/>
<path d="M6 41H66V90H6V41Z" fill="white"/>
<path d="M6.554 9.308H11.552C12.294 9.308 12.987 9.385 13.631 9.539C14.289 9.679 14.856 9.924 15.332 10.274C15.822 10.61 16.207 11.065 16.487 11.639C16.767 12.199 16.907 12.892 16.907 13.718C16.907 14.516 16.76 15.209 16.466 15.797C16.186 16.385 15.801 16.868 15.311 17.246C14.821 17.624 14.254 17.904 13.61 18.086C12.966 18.268 12.28 18.359 11.552 18.359H9.641V23H6.554V9.308ZM11.363 15.902C13.029 15.902 13.862 15.174 13.862 13.718C13.862 13.004 13.652 12.5 13.232 12.206C12.812 11.912 12.189 11.765 11.363 11.765H9.641V15.902H11.363ZM18.7468 16.238C18.7468 15.104 18.9148 14.096 19.2508 13.214C19.5868 12.318 20.0488 11.562 20.6368 10.946C21.2248 10.33 21.9178 9.861 22.7158 9.539C23.5138 9.217 24.3678 9.056 25.2778 9.056C26.1598 9.056 26.9368 9.238 27.6088 9.602C28.2948 9.952 28.8688 10.351 29.3308 10.799L27.6298 12.71C27.3078 12.416 26.9578 12.178 26.5798 11.996C26.2018 11.814 25.7678 11.723 25.2778 11.723C24.7878 11.723 24.3398 11.828 23.9338 12.038C23.5278 12.234 23.1708 12.521 22.8628 12.899C22.5688 13.277 22.3378 13.739 22.1698 14.285C22.0018 14.831 21.9178 15.447 21.9178 16.133C21.9178 17.547 22.2398 18.646 22.8838 19.43C23.5278 20.2 24.3678 20.585 25.4038 20.585C25.8938 20.585 26.3348 20.473 26.7268 20.249C27.1328 20.025 27.5038 19.731 27.8398 19.367L29.5408 21.236C28.3928 22.58 26.9508 23.252 25.2148 23.252C24.3328 23.252 23.4998 23.105 22.7158 22.811C21.9318 22.503 21.2458 22.055 20.6578 21.467C20.0698 20.879 19.6008 20.151 19.2508 19.283C18.9148 18.401 18.7468 17.386 18.7468 16.238ZM34.5516 15.965L30.7926 9.308H34.2576L35.5806 11.891C35.7346 12.213 35.8956 12.556 36.0636 12.92C36.2316 13.27 36.4206 13.662 36.6306 14.096H36.7146C36.8826 13.662 37.0366 13.27 37.1766 12.92C37.3306 12.556 37.4846 12.213 37.6386 11.891L38.8566 9.308H42.1746L38.4156 16.112L42.4056 23H38.9616L37.4706 20.207C37.2746 19.843 37.0926 19.486 36.9246 19.136C36.7566 18.772 36.5746 18.38 36.3786 17.96H36.2946C36.1266 18.38 35.9586 18.772 35.7906 19.136C35.6226 19.486 35.4546 19.843 35.2866 20.207L33.8586 23H30.5616L34.5516 15.965Z" fill="white"/>
<path d="M40.3332 55L34.0832 63.3333L38.8332 69.6667L36.1665 71.6667C33.3498 67.9167 28.6665 61.6667 28.6665 61.6667L18.6665 75H55.3332L40.3332 55Z" fill="#33CC33"/>
</g>
<defs>
<clipPath id="clip0_4051_70797">
<rect width="72" height="96" fill="white"/>
</clipPath>
</defs>
</svg>
