<svg viewBox="0 0 72 96" fill="none" xmlns="http://www.w3.org/2000/svg">
<g clip-path="url(#clip0_5524_106037)">
<path d="M0 2V94C0 94.5304 0.210714 95.0391 0.585786 95.4142C0.960859 95.7893 1.46957 96 2 96H70C70.5304 96 71.0391 95.7893 71.4142 95.4142C71.7893 95.0391 72 94.5304 72 94V28H50C49.4696 28 48.9609 27.7893 48.5858 27.4142C48.2107 27.0391 48 26.5304 48 26V0H2C1.46957 0 0.960859 0.210714 0.585786 0.585786C0.210714 0.960859 0 1.46957 0 2H0Z" fill="#33CC33"/>
<path d="M71.9 24C71.8281 23.6452 71.6926 23.3064 71.5 23L52 1.19995V24H71.9Z" fill="#33CC33"/>
<path d="M6 41H66V90H6V41Z" fill="white"/>
<path d="M6.554 6.308H11.552C12.294 6.308 12.987 6.385 13.631 6.539C14.289 6.679 14.856 6.924 15.332 7.274C15.822 7.61 16.207 8.065 16.487 8.639C16.767 9.199 16.907 9.892 16.907 10.718C16.907 11.516 16.76 12.209 16.466 12.797C16.186 13.385 15.801 13.868 15.311 14.246C14.821 14.624 14.254 14.904 13.61 15.086C12.966 15.268 12.28 15.359 11.552 15.359H9.641V20H6.554V6.308ZM11.363 12.902C13.029 12.902 13.862 12.174 13.862 10.718C13.862 10.004 13.652 9.5 13.232 9.206C12.812 8.912 12.189 8.765 11.363 8.765H9.641V12.902H11.363ZM19.1458 17.396H22.3378V8.912H19.1458V6.308H28.6378V8.912H25.4458V17.396H28.6378V20H19.1458V17.396ZM31.3386 13.238C31.3386 12.104 31.5066 11.096 31.8426 10.214C32.1786 9.318 32.6406 8.562 33.2286 7.946C33.8166 7.33 34.5096 6.861 35.3076 6.539C36.1056 6.217 36.9596 6.056 37.8696 6.056C38.7516 6.056 39.5286 6.238 40.2006 6.602C40.8866 6.952 41.4606 7.351 41.9226 7.799L40.2216 9.71C39.8996 9.416 39.5496 9.178 39.1716 8.996C38.7936 8.814 38.3596 8.723 37.8696 8.723C37.3796 8.723 36.9316 8.828 36.5256 9.038C36.1196 9.234 35.7626 9.521 35.4546 9.899C35.1606 10.277 34.9296 10.739 34.7616 11.285C34.5936 11.831 34.5096 12.447 34.5096 13.133C34.5096 14.547 34.8316 15.646 35.4756 16.43C36.1196 17.2 36.9596 17.585 37.9956 17.585C38.4856 17.585 38.9266 17.473 39.3186 17.249C39.7246 17.025 40.0956 16.731 40.4316 16.367L42.1326 18.236C40.9846 19.58 39.5426 20.252 37.8066 20.252C36.9246 20.252 36.0916 20.105 35.3076 19.811C34.5236 19.503 33.8376 19.055 33.2496 18.467C32.6616 17.879 32.1926 17.151 31.8426 16.283C31.5066 15.401 31.3386 14.386 31.3386 13.238Z" fill="white"/>
<path d="M40.3332 55L34.0832 63.3333L38.8332 69.6667L36.1665 71.6667C33.3498 67.9167 28.6665 61.6667 28.6665 61.6667L18.6665 75H55.3332L40.3332 55Z" fill="#33CC33"/>
</g>
<defs>
<clipPath id="clip0_5524_106037">
<rect width="72" height="96" fill="white"/>
</clipPath>
</defs>
</svg>
