<svg viewBox="0 0 72 96" fill="none" xmlns="http://www.w3.org/2000/svg">
<g clip-path="url(#clip0_4051_70806)">
<path d="M0 2V94C0 94.5304 0.210714 95.0391 0.585786 95.4142C0.960859 95.7893 1.46957 96 2 96H70C70.5304 96 71.0391 95.7893 71.4142 95.4142C71.7893 95.0391 72 94.5304 72 94V28H50C49.4696 28 48.9609 27.7893 48.5858 27.4142C48.2107 27.0391 48 26.5304 48 26V0H2C1.46957 0 0.960859 0.210714 0.585786 0.585786C0.210714 0.960859 0 1.46957 0 2H0Z" fill="#33CC33"/>
<path d="M71.9 24C71.8281 23.6452 71.6926 23.3064 71.5 23L52 1.19995V24H71.9Z" fill="#33CC33"/>
<path d="M6 41H66V90H6V41Z" fill="white"/>
<path d="M6.184 8.568H9.992C10.5573 8.568 11.0853 8.62667 11.576 8.744C12.0773 8.85067 12.5093 9.03733 12.872 9.304C13.2453 9.56 13.5387 9.90667 13.752 10.344C13.9653 10.7707 14.072 11.2987 14.072 11.928C14.072 12.536 13.96 13.064 13.736 13.512C13.5227 13.96 13.2293 14.328 12.856 14.616C12.4827 14.904 12.0507 15.1173 11.56 15.256C11.0693 15.3947 10.5467 15.464 9.992 15.464H8.536V19H6.184V8.568ZM9.848 13.592C11.1173 13.592 11.752 13.0373 11.752 11.928C11.752 11.384 11.592 11 11.272 10.776C10.952 10.552 10.4773 10.44 9.848 10.44H8.536V13.592H9.848ZM15.7778 17.016H18.2098V10.552H15.7778V8.568H23.0098V10.552H20.5778V17.016H23.0098V19H15.7778V17.016ZM25.0675 13.848C25.0675 12.984 25.1955 12.216 25.4515 11.544C25.7075 10.8613 26.0595 10.2853 26.5075 9.816C26.9555 9.34667 27.4835 8.98933 28.0915 8.744C28.6995 8.49867 29.3502 8.376 30.0435 8.376C30.7155 8.376 31.3075 8.51467 31.8195 8.792C32.3422 9.05867 32.7795 9.36267 33.1315 9.704L31.8355 11.16C31.5902 10.936 31.3235 10.7547 31.0355 10.616C30.7475 10.4773 30.4168 10.408 30.0435 10.408C29.6702 10.408 29.3288 10.488 29.0195 10.648C28.7102 10.7973 28.4382 11.016 28.2035 11.304C27.9795 11.592 27.8035 11.944 27.6755 12.36C27.5475 12.776 27.4835 13.2453 27.4835 13.768C27.4835 14.8453 27.7288 15.6827 28.2195 16.28C28.7102 16.8667 29.3502 17.16 30.1395 17.16C30.5128 17.16 30.8488 17.0747 31.1475 16.904C31.4568 16.7333 31.7395 16.5093 31.9955 16.232L33.2915 17.656C32.4168 18.68 31.3182 19.192 29.9955 19.192C29.3235 19.192 28.6888 19.08 28.0915 18.856C27.4942 18.6213 26.9715 18.28 26.5235 17.832C26.0755 17.384 25.7182 16.8293 25.4515 16.168C25.1955 15.496 25.0675 14.7227 25.0675 13.848ZM37.3973 10.552H34.2773V8.568H42.8853V10.552H39.7653V19H37.3973V10.552Z" fill="white"/>
<path d="M40.3332 55L34.0832 63.3333L38.8332 69.6667L36.1665 71.6667C33.3498 67.9167 28.6665 61.6667 28.6665 61.6667L18.6665 75H55.3332L40.3332 55Z" fill="#33CC33"/>
</g>
<defs>
<clipPath id="clip0_4051_70806">
<rect width="72" height="96" fill="white"/>
</clipPath>
</defs>
</svg>
