<svg viewBox="0 0 72 96" fill="none" xmlns="http://www.w3.org/2000/svg">
<g clip-path="url(#clip0_5524_106044)">
<path d="M0 2V94C0 94.5304 0.210714 95.0391 0.585786 95.4142C0.960859 95.7893 1.46957 96 2 96H70C70.5304 96 71.0391 95.7893 71.4142 95.4142C71.7893 95.0391 72 94.5304 72 94V28H50C49.4696 28 48.9609 27.7893 48.5858 27.4142C48.2107 27.0391 48 26.5304 48 26V0H2C1.46957 0 0.960859 0.210714 0.585786 0.585786C0.210714 0.960859 0 1.46957 0 2H0Z" fill="#33CC33"/>
<path d="M71.9 24C71.8281 23.6452 71.6926 23.3064 71.5 23L52 1.19995V24H71.9Z" fill="#33CC33"/>
<path d="M6 41H66V90H6V41Z" fill="white"/>
<path d="M9.557 12.608H11.069C12.735 12.608 13.568 11.929 13.568 10.571C13.568 9.899 13.358 9.43 12.938 9.164C12.518 8.898 11.895 8.765 11.069 8.765H9.557V12.608ZM13.799 20L11.174 15.065H9.557V20H6.47V6.308H11.321C12.049 6.308 12.728 6.378 13.358 6.518C14.002 6.658 14.562 6.896 15.038 7.232C15.528 7.554 15.913 7.988 16.193 8.534C16.473 9.08 16.613 9.759 16.613 10.571C16.613 11.579 16.389 12.412 15.941 13.07C15.493 13.714 14.905 14.197 14.177 14.519L17.264 20H13.799ZM18.5158 13.238C18.5158 12.09 18.6768 11.075 18.9988 10.193C19.3348 9.297 19.7828 8.548 20.3428 7.946C20.9168 7.33 21.5888 6.861 22.3588 6.539C23.1288 6.217 23.9548 6.056 24.8368 6.056C25.7608 6.056 26.5448 6.238 27.1888 6.602C27.8468 6.952 28.3998 7.351 28.8478 7.799L27.1468 9.71C26.8528 9.416 26.5308 9.178 26.1808 8.996C25.8308 8.814 25.3828 8.723 24.8368 8.723C24.3888 8.723 23.9758 8.828 23.5978 9.038C23.2198 9.234 22.8908 9.521 22.6108 9.899C22.3308 10.277 22.1068 10.739 21.9388 11.285C21.7848 11.831 21.7078 12.447 21.7078 13.133C21.7078 14.547 21.9738 15.646 22.5058 16.43C23.0518 17.2 23.8708 17.585 24.9628 17.585C25.2288 17.585 25.4808 17.55 25.7188 17.48C25.9568 17.41 26.1528 17.305 26.3068 17.165V14.813H24.3118V12.293H29.0788V18.593C28.6168 19.027 28.0078 19.412 27.2518 19.748C26.4958 20.084 25.6768 20.252 24.7948 20.252C23.9128 20.252 23.0868 20.105 22.3168 19.811C21.5608 19.503 20.8958 19.055 20.3218 18.467C19.7618 17.879 19.3208 17.151 18.9988 16.283C18.6768 15.401 18.5158 14.386 18.5158 13.238ZM31.9476 6.308H36.2316C36.9456 6.308 37.6036 6.364 38.2056 6.476C38.8216 6.574 39.3536 6.756 39.8016 7.022C40.2496 7.288 40.5996 7.638 40.8516 8.072C41.1176 8.506 41.2506 9.052 41.2506 9.71C41.2506 10.018 41.2016 10.326 41.1036 10.634C41.0196 10.942 40.8796 11.229 40.6836 11.495C40.4876 11.761 40.2426 11.999 39.9486 12.209C39.6546 12.419 39.3046 12.573 38.8986 12.671V12.755C39.8786 12.937 40.6206 13.287 41.1246 13.805C41.6286 14.323 41.8806 15.044 41.8806 15.968C41.8806 16.668 41.7476 17.27 41.4816 17.774C41.2156 18.278 40.8446 18.698 40.3686 19.034C39.8926 19.356 39.3326 19.601 38.6886 19.769C38.0586 19.923 37.3726 20 36.6306 20H31.9476V6.308ZM36.0846 11.831C36.8406 11.831 37.3866 11.684 37.7226 11.39C38.0586 11.082 38.2266 10.669 38.2266 10.151C38.2266 9.633 38.0516 9.262 37.7016 9.038C37.3656 8.814 36.8336 8.702 36.1056 8.702H35.0346V11.831H36.0846ZM36.3786 17.606C38.0306 17.606 38.8566 16.983 38.8566 15.737C38.8566 15.135 38.6536 14.701 38.2476 14.435C37.8556 14.155 37.2326 14.015 36.3786 14.015H35.0346V17.606H36.3786Z" fill="white"/>
<path d="M40.3332 55L34.0832 63.3333L38.8332 69.6667L36.1665 71.6667C33.3498 67.9167 28.6665 61.6667 28.6665 61.6667L18.6665 75H55.3332L40.3332 55Z" fill="#33CC33"/>
</g>
<defs>
<clipPath id="clip0_5524_106044">
<rect width="72" height="96" fill="white"/>
</clipPath>
</defs>
</svg>
