<svg viewBox="0 0 72 96" fill="none" xmlns="http://www.w3.org/2000/svg">
<path d="M0 2V94C0 95.1 0.9 96 2 96H70C71.1 96 72 95.1 72 94V28H50C48.9 28 48 27.1 48 26V0H2C0.9 0 0 0.9 0 2Z" fill="#FF6600"/>
<path d="M8.472 13.368H9.624C10.8933 13.368 11.528 12.8507 11.528 11.816C11.528 11.304 11.368 10.9467 11.048 10.744C10.728 10.5413 10.2533 10.44 9.624 10.44H8.472V13.368ZM11.704 19L9.704 15.24H8.472V19H6.12V8.568H9.816C10.3707 8.568 10.888 8.62133 11.368 8.728C11.8587 8.83467 12.2853 9.016 12.648 9.272C13.0213 9.51733 13.3147 9.848 13.528 10.264C13.7413 10.68 13.848 11.1973 13.848 11.816C13.848 12.584 13.6773 13.2187 13.336 13.72C12.9947 14.2107 12.5467 14.5787 11.992 14.824L14.344 19H11.704ZM15.6338 8.568H17.9858L19.0418 12.264L19.3938 13.704H19.4418L19.7938 12.264L20.8018 8.568H23.1538V19H21.2498V15.592C21.2498 15.304 21.2604 14.952 21.2818 14.536C21.3031 14.1093 21.3298 13.672 21.3618 13.224C21.3938 12.776 21.4258 12.344 21.4578 11.928C21.4898 11.5013 21.5218 11.1493 21.5538 10.872H21.5058L20.6898 13.736L19.8898 16.216H18.8498L18.0498 13.736L17.2658 10.872H17.2018C17.2338 11.1493 17.2658 11.5013 17.2978 11.928C17.3298 12.344 17.3618 12.776 17.3938 13.224C17.4258 13.672 17.4524 14.1093 17.4738 14.536C17.4951 14.952 17.5058 15.304 17.5058 15.592V19H15.6338V8.568ZM24.4275 8.568H26.9235L28.1715 13.432C28.3315 14.008 28.4702 14.568 28.5875 15.112C28.7155 15.6453 28.8542 16.2 29.0035 16.776H29.0675C29.2275 16.2 29.3715 15.6453 29.4995 15.112C29.6275 14.568 29.7662 14.008 29.9155 13.432L31.1475 8.568H33.5475L30.4115 19H27.5795L24.4275 8.568ZM35.1253 8.568H38.3893C38.9333 8.568 39.4346 8.61067 39.8933 8.696C40.3626 8.77067 40.7679 8.90933 41.1093 9.112C41.4506 9.31467 41.7173 9.58133 41.9093 9.912C42.1119 10.2427 42.2133 10.6587 42.2133 11.16C42.2133 11.3947 42.1759 11.6293 42.1013 11.864C42.0373 12.0987 41.9306 12.3173 41.7812 12.52C41.6319 12.7227 41.4453 12.904 41.2213 13.064C40.9973 13.224 40.7306 13.3413 40.4213 13.416V13.48C41.1679 13.6187 41.7333 13.8853 42.1173 14.28C42.5013 14.6747 42.6933 15.224 42.6933 15.928C42.6933 16.4613 42.5919 16.92 42.3893 17.304C42.1866 17.688 41.9039 18.008 41.5413 18.264C41.1786 18.5093 40.7519 18.696 40.2613 18.824C39.7813 18.9413 39.2586 19 38.6933 19H35.1253V8.568ZM38.2773 12.776C38.8533 12.776 39.2693 12.664 39.5253 12.44C39.7813 12.2053 39.9093 11.8907 39.9093 11.496C39.9093 11.1013 39.7759 10.8187 39.5093 10.648C39.2533 10.4773 38.8479 10.392 38.2933 10.392H37.4773V12.776H38.2773ZM38.5013 17.176C39.7599 17.176 40.3893 16.7013 40.3893 15.752C40.3893 15.2933 40.2346 14.9627 39.9253 14.76C39.6266 14.5467 39.1519 14.44 38.5013 14.44H37.4773V17.176H38.5013Z" fill="white"/>
<path d="M71.9 24C71.8 23.6 71.7 23.2999 71.5 23L52 1.19995V24H71.9Z" fill="#FF6600"/>
<path d="M6 41H66V90H6V41Z" fill="white"/>
<path d="M13 83.1H59V47.9H13V83.1ZM21.9 80.4H16.4V76.5H21.9V80.4ZM38.8 80.4H33.3V76.5H38.8V80.4ZM50.1 50.3H55.6V54.3H50.1V50.3ZM50.1 76.4H55.6V80.3H50.1V76.4ZM41.6 50.3H47V54.2H41.5V50.3H41.6ZM41.6 76.4H47V80.3H41.5L41.6 76.4ZM33.2 50.3H38.7V54.2H33.2V50.3ZM32.4 60L39.6 64.1C40.9 64.9 40.9 66.1 39.6 66.9L32.4 71C31.1 71.8 30 71.1 30 69.6V61.3C30 59.9 31.1 59.2 32.4 60ZM24.7 50.3H30.1V54.2H24.7V50.3ZM24.7 76.4H30.1V80.3H24.7V76.4ZM16.4 50.3H21.9V54.3H16.4V50.3Z" fill="#FF6600"/>
</svg>
