<svg viewBox="0 0 72 96" fill="none" xmlns="http://www.w3.org/2000/svg">
<path d="M0 2V94C0 95.1 0.9 96 2 96H70C71.1 96 72 95.1 72 94V28H50C48.9 28 48 27.1 48 26V0H2C0.9 0 0 0.9 0 2Z" fill="#666666"/>
<path d="M9.557 15.608H11.069C12.735 15.608 13.568 14.929 13.568 13.571C13.568 12.899 13.358 12.43 12.938 12.164C12.518 11.898 11.895 11.765 11.069 11.765H9.557V15.608ZM13.799 23L11.174 18.065H9.557V23H6.47V9.308H11.321C12.049 9.308 12.728 9.378 13.358 9.518C14.002 9.658 14.562 9.896 15.038 10.232C15.528 10.554 15.913 10.988 16.193 11.534C16.473 12.08 16.613 12.759 16.613 13.571C16.613 14.579 16.389 15.412 15.941 16.07C15.493 16.714 14.905 17.197 14.177 17.519L17.264 23H13.799ZM22.3378 11.912H18.2428V9.308H29.5408V11.912H25.4458V23H22.3378V11.912Z" fill="white"/>
<path d="M71.9 24C71.8 23.6 71.7 23.2999 71.5 23L52 1.19995V24H71.9Z" fill="#666666"/>
<path d="M6 41H66V90H6V41Z" fill="white"/>
<path d="M14.6001 77.2H57.4001V83.4H14.6001V77.2ZM14.6001 62.4H57.4001V68.6H14.6001V62.4ZM14.6001 47.4H57.4001V53.6H14.6001V47.4Z" fill="#666666"/>
</svg>
