<svg  viewBox="0 0 28 38" fill="none" xmlns="http://www.w3.org/2000/svg">
  <path d="M0 0.777778V36.5556C0 36.9833 0.35 37.3333 0.777778 37.3333H27.2222C27.65 37.3333 28 36.9833 28 36.5556V10.8889H19.4444C19.0167 10.8889 18.6667 10.5389 18.6667 10.1111V0H0.777778C0.35 0 0 0.35 0 0.777778Z" fill="#336699"/>
  <path d="M27.9611 9.33331C27.9222 9.17776 27.8834 9.06109 27.8056 8.94442L20.2222 0.466645V9.33331H27.9611Z" fill="#336699"/>
  <path d="M2.33333 15.9445H25.6667V35H2.33333V15.9445Z" fill="white"/>
  <path d="M20.0667 25.6278C19.8722 25.55 19.6389 25.6278 19.5611 25.8222C19.1333 26.7944 18.4333 27.65 17.5778 28.3111L14.9722 23.0222C15.3611 22.7111 15.5944 22.2444 15.5944 21.7C15.5944 20.8833 15.0111 20.1833 14.2333 20.0278V18.7055C14.2333 18.5111 14.0778 18.3167 13.8444 18.3167C13.65 18.3167 13.4556 18.4722 13.4556 18.7055V20.0278C12.6778 20.1833 12.0944 20.8833 12.0944 21.7C12.0944 22.2444 12.3278 22.7111 12.7167 23.0222L10.1111 28.3111C9.25555 27.65 8.55555 26.8333 8.12777 25.8222C8.04999 25.6278 7.81666 25.55 7.62222 25.6278C7.42777 25.7055 7.35 25.9389 7.42777 26.1333C7.93333 27.3 8.75 28.2333 9.76111 28.9722L8.20555 32.0833C8.12777 32.2778 8.20555 32.5111 8.36111 32.5889C8.39999 32.5889 8.47777 32.6278 8.51666 32.6278C8.63333 32.6278 8.78888 32.55 8.86666 32.4333L10.3444 29.4C11.3944 29.9833 12.5222 30.2555 13.7278 30.2555C14.9333 30.2555 16.0611 29.9444 17.1111 29.4L18.5889 32.4333C18.6278 32.55 18.7833 32.6278 18.9389 32.6278C18.9778 32.6278 19.0555 32.6278 19.0944 32.5889C19.2889 32.5111 19.3667 32.2778 19.25 32.0833L17.7333 28.9722C18.7444 28.2722 19.5611 27.2611 20.0667 26.1333C20.3 25.9389 20.2222 25.7055 20.0667 25.6278ZM13.8444 20.7278C14.3889 20.7278 14.8167 21.1555 14.8167 21.7C14.8167 22.2444 14.3889 22.6722 13.8444 22.6722C13.3 22.6722 12.8722 22.2444 12.8722 21.7C12.8722 21.1555 13.3389 20.7278 13.8444 20.7278ZM13.8444 29.5167C12.7556 29.5167 11.7444 29.2444 10.8111 28.7389L13.4556 23.4111C13.5722 23.45 13.7278 23.45 13.8833 23.45C14.0389 23.45 14.1556 23.45 14.3111 23.4111L16.9556 28.7389C15.9833 29.2444 14.9333 29.5167 13.8444 29.5167Z" fill="#336699"/>
  <path d="M4.339 8.09713C3.98288 8.09713 3.62945 8.03238 3.27872 7.90287C2.93339 7.77338 2.61773 7.58452 2.33175 7.33631L3.01972 6.51884C3.21937 6.68072 3.4379 6.81292 3.67531 6.91544C3.91813 7.01796 4.16633 7.06922 4.41994 7.06922C4.67354 7.06922 4.8597 7.02605 4.97841 6.93972C5.10251 6.85339 5.16456 6.74277 5.16456 6.60787C5.16456 6.48377 5.13219 6.38665 5.06744 6.3165C5.00269 6.24096 4.90826 6.17621 4.78416 6.12225C4.66005 6.0629 4.51437 5.99815 4.34709 5.928L3.66722 5.63662C3.47297 5.56108 3.28951 5.46126 3.11684 5.33716C2.94418 5.20766 2.80389 5.05118 2.69597 4.86772C2.59345 4.67886 2.54219 4.45494 2.54219 4.19594C2.54219 3.90456 2.62313 3.64286 2.785 3.41084C2.95227 3.17343 3.1789 2.98457 3.46488 2.84428C3.75625 2.69859 4.09349 2.62575 4.47659 2.62575C4.79495 2.62575 5.10791 2.6851 5.41547 2.80381C5.72303 2.92252 5.99552 3.09519 6.23294 3.32181L5.62591 4.07453C5.44245 3.93964 5.25899 3.83711 5.07553 3.76697C4.89207 3.69143 4.67084 3.65366 4.41184 3.65366C4.21759 3.65366 4.05842 3.69412 3.93431 3.77506C3.81021 3.856 3.74816 3.97471 3.74816 4.13119C3.74816 4.23371 3.78593 4.32004 3.86147 4.39019C3.93701 4.46033 4.03953 4.52239 4.16903 4.57634C4.29853 4.6303 4.44692 4.68966 4.61419 4.75441L5.25359 5.02959C5.49101 5.11593 5.69335 5.22384 5.86063 5.35334C6.0279 5.47745 6.1574 5.63123 6.24913 5.81469C6.34086 5.99815 6.38672 6.21398 6.38672 6.46219C6.38672 6.75356 6.30578 7.02335 6.14391 7.27156C5.98743 7.51977 5.75541 7.71942 5.44784 7.8705C5.14568 8.02158 4.77606 8.09713 4.339 8.09713Z" fill="white"/>
  <path d="M8.49603 8L6.90156 2.72287H8.16418L8.7955 5.18337C8.87643 5.47475 8.94658 5.75803 9.00593 6.03322C9.07068 6.30301 9.14083 6.58359 9.21637 6.87497H9.24874C9.33508 6.58359 9.40792 6.30301 9.46728 6.03322C9.53203 5.75803 9.60217 5.47475 9.67771 5.18337L10.3009 2.72287H11.515L9.92862 8H8.49603Z" fill="white"/>
  <path d="M12.4831 8V2.72287H15.9877V3.7265H13.6729V4.94866H15.6477V5.95228H13.6729V8H12.4831Z" fill="white"/>
  </svg>
  