<svg viewBox="0 0 72 96" fill="none" xmlns="http://www.w3.org/2000/svg">
<path d="M0 2V94C0 95.1 0.9 96 2 96H70C71.1 96 72 95.1 72 94V28H50C48.9 28 48 27.1 48 26V0H2C0.9 0 0 0.9 0 2Z" fill="#FF6600"/>
<path d="M7.835 16.157C8.353 16.577 8.913 16.92 9.515 17.186C10.131 17.452 10.74 17.585 11.342 17.585C12.056 17.585 12.574 17.466 12.896 17.228C13.232 16.99 13.4 16.668 13.4 16.262C13.4 16.052 13.351 15.87 13.253 15.716C13.155 15.562 13.015 15.429 12.833 15.317C12.651 15.191 12.427 15.079 12.161 14.981C11.909 14.869 11.615 14.75 11.279 14.624L9.515 13.868C9.137 13.728 8.766 13.546 8.402 13.322C8.052 13.098 7.744 12.839 7.478 12.545C7.212 12.237 6.995 11.887 6.827 11.495C6.673 11.089 6.596 10.634 6.596 10.13C6.596 9.57 6.715 9.045 6.953 8.555C7.205 8.051 7.548 7.617 7.982 7.253C8.43 6.875 8.962 6.581 9.578 6.371C10.194 6.161 10.873 6.056 11.615 6.056C12.455 6.056 13.267 6.21 14.051 6.518C14.835 6.826 15.542 7.274 16.172 7.862L14.597 9.815C14.121 9.465 13.652 9.199 13.19 9.017C12.728 8.821 12.203 8.723 11.615 8.723C11.013 8.723 10.544 8.835 10.208 9.059C9.886 9.269 9.725 9.57 9.725 9.962C9.725 10.382 9.935 10.697 10.355 10.907C10.775 11.117 11.314 11.341 11.972 11.579L13.631 12.293C14.541 12.629 15.255 13.091 15.773 13.679C16.305 14.267 16.571 15.044 16.571 16.01C16.571 16.584 16.452 17.13 16.214 17.648C15.976 18.152 15.633 18.6 15.185 18.992C14.737 19.37 14.184 19.678 13.526 19.916C12.868 20.14 12.112 20.252 11.258 20.252C10.334 20.252 9.417 20.091 8.507 19.769C7.611 19.433 6.792 18.936 6.05 18.278L7.835 16.157ZM17.9068 6.308H21.1828L22.8208 12.692C23.0308 13.448 23.2128 14.183 23.3668 14.897C23.5348 15.597 23.7168 16.325 23.9128 17.081H23.9968C24.2068 16.325 24.3958 15.597 24.5638 14.897C24.7318 14.183 24.9138 13.448 25.1098 12.692L26.7268 6.308H29.8768L25.7608 20H22.0438L17.9068 6.308ZM31.7376 17.396H34.9296V8.912H31.7376V6.308H41.2296V8.912H38.0376V17.396H41.2296V20H31.7376V17.396Z" fill="white"/>
<path d="M71.9 24C71.8 23.6 71.7 23.2999 71.5 23L52 1.19995V24H71.9Z" fill="#FF6600"/>
<path d="M6 41H66V90H6V41Z" fill="white"/>
<path d="M13 83.1H59V47.9H13V83.1ZM21.9 80.4H16.4V76.5H21.9V80.4ZM38.8 80.4H33.3V76.5H38.8V80.4ZM50.1 50.3H55.6V54.3H50.1V50.3ZM50.1 76.4H55.6V80.3H50.1V76.4ZM41.6 50.3H47V54.2H41.5V50.3H41.6ZM41.6 76.4H47V80.3H41.5L41.6 76.4ZM33.2 50.3H38.7V54.2H33.2V50.3ZM32.4 60L39.6 64.1C40.9 64.9 40.9 66.1 39.6 66.9L32.4 71C31.1 71.8 30 71.1 30 69.6V61.3C30 59.9 31.1 59.2 32.4 60ZM24.7 50.3H30.1V54.2H24.7V50.3ZM24.7 76.4H30.1V80.3H24.7V76.4ZM16.4 50.3H21.9V54.3H16.4V50.3Z" fill="#FF6600"/>
</svg>
